<svg width="180" height="180" xmlns="http://www.w3.org/2000/svg">
  <!-- Фон с закругленными углами -->
  <rect width="180" height="180" fill="#00CED1" rx="20"/>
  
  <!-- Mandala icon -->
  <g
    transform="translate(90, 90) scale(1.5)"
    stroke="#ffffff"
    strokeWidth="2.4"
    strokeLinecap="round"
    strokeLinejoin="round"
    fill="none"
    opacity="0.98"
  >
    <circle cx="0" cy="0" r="44" opacity="0.55" />
    <circle cx="0" cy="0" r="36" opacity="0.65" />
    <circle cx="0" cy="0" r="28" opacity="0.85" />

    <g opacity="0.9">
      <path d="M0 -40 C-6 -28, -6 -20, 0 -12 C6 -20, 6 -28, 0 -40 Z" />
      <path d="M0 40 C-6 28, -6 20, 0 12 C6 20, 6 28, 0 40 Z" />
      <path d="M-40 0 C-28 -6, -20 -6, -12 0 C-20 6, -28 6, -40 0 Z" />
      <path d="M40 0 C28 -6, 20 -6, 12 0 C20 6, 28 6, 40 0 Z" />

      <path d="M-28 -28 C-18 -22, -14 -18, -10 -10 C-18 -14, -22 -18, -28 -28 Z" />
      <path d="M28 -28 C18 -22, 14 -18, 10 -10 C18 -14, 22 -18, 28 -28 Z" />
      <path d="M-28 28 C-22 18, -18 14, -10 10 C-14 18, -18 22, -28 28 Z" />
      <path d="M28 28 C22 18, 18 14, 10 10 C14 18, 18 22, 28 28 Z" />
    </g>

    <g opacity="0.95">
      <path d="M0 -20 C-5 -12, -5 -6, 0 0 C5 -6, 5 -12, 0 -20 Z" />
      <path d="M0 20 C-5 12, -5 6, 0 0 C5 6, 5 12, 0 20 Z" />
      <path d="M-20 0 C-12 -5, -6 -5, 0 0 C-6 5, -12 5, -20 0 Z" />
      <path d="M20 0 C12 -5, 6 -5, 0 0 C6 5, 12 5, 20 0 Z" />
    </g>

    <circle cx="0" cy="0" r="6" />
    <path d="M0 -6 L0 6" opacity="0.6" />
    <path d="M-6 0 L6 0" opacity="0.6" />
  </g>
</svg>
