<svg width="240" height="241" viewBox="0 0 240 241" fill="none" xmlns="http://www.w3.org/2000/svg">
<path d="M134.521 143.074C140.532 149.096 147.914 153.712 154.883 155.131C153.466 148.149 148.859 140.753 142.849 134.731C136.838 128.709 129.456 124.094 122.487 122.674C123.905 129.656 128.511 137.052 134.521 143.074ZM155.992 157.4C148.165 156.287 139.769 151.239 133.071 144.528C126.372 137.816 121.335 129.405 120.223 121.563L120.031 120.213L121.379 120.405C129.205 121.518 137.601 126.566 144.299 133.277C150.998 139.989 156.036 148.401 157.147 156.242L157.339 157.592L155.992 157.4Z" fill="url(#paint0_linear_590_94)"/>
<path d="M146.412 126.113C154.912 126.113 163.389 124.146 169.319 120.213C163.389 116.28 154.912 114.313 146.412 114.313C137.912 114.313 129.435 116.28 123.505 120.213C129.435 124.146 137.912 126.113 146.412 126.113ZM171.704 121.032C165.384 125.789 155.885 128.168 146.412 128.168C136.939 128.168 127.44 125.789 121.12 121.032L120.031 120.213L121.12 119.394C127.44 114.636 136.939 112.258 146.412 112.258C155.885 112.258 165.384 114.636 171.704 119.394L172.792 120.213L171.704 121.032Z" fill="url(#paint1_linear_590_94)"/>
<path d="M142.849 105.695C148.859 99.6729 153.466 92.2764 154.883 85.2943C147.914 86.714 140.532 91.3294 134.521 97.3514C128.511 103.373 123.905 110.77 122.488 117.752C129.456 116.332 136.838 111.717 142.849 105.695ZM157.147 84.1832C156.036 92.025 150.998 100.437 144.299 107.148C137.601 113.859 129.205 118.907 121.379 120.021L120.031 120.213L120.223 118.863C121.334 111.021 126.372 102.609 133.071 95.898C139.769 89.1866 148.165 84.1388 155.991 83.0252L157.339 82.8334L157.147 84.1832Z" fill="url(#paint2_linear_590_94)"/>
<path d="M125.92 93.7817C125.92 85.2654 123.957 76.7716 120.031 70.8306C116.106 76.7716 114.143 85.2654 114.143 93.7817C114.143 102.298 116.106 110.792 120.031 116.733C123.957 110.792 125.92 102.298 125.92 93.7817ZM120.849 68.4404C125.597 74.773 127.971 84.2903 127.971 93.7815C127.971 103.273 125.597 112.79 120.849 119.123L120.031 120.213L119.214 119.123C114.466 112.79 112.092 103.273 112.092 93.7815C112.092 84.2903 114.466 74.773 119.214 68.4404L120.031 67.3504L120.849 68.4404Z" fill="url(#paint3_linear_590_94)"/>
<path d="M105.541 97.3514C99.5311 91.3294 92.1488 86.714 85.18 85.2943C86.5971 92.2764 91.2036 99.6729 97.2139 105.695C103.224 111.717 110.607 116.332 117.575 117.752C116.158 110.77 111.552 103.373 105.541 97.3514ZM84.0714 83.0252C91.898 84.1388 100.294 89.1866 106.992 95.898C113.69 102.609 118.728 111.021 119.84 118.863L120.031 120.213L118.684 120.021C110.858 118.907 102.462 113.859 95.7636 107.148C89.0653 100.437 84.027 92.025 82.9156 84.1832L82.7241 82.8334L84.0714 83.0252Z" fill="url(#paint4_linear_590_94)"/>
<path d="M93.6511 114.313C85.1513 114.313 76.674 116.28 70.7444 120.213C76.674 124.146 85.1513 126.113 93.6511 126.113C102.151 126.113 110.628 124.146 116.558 120.213C110.628 116.28 102.151 114.313 93.6511 114.313ZM68.3588 119.394C74.6792 114.636 84.1783 112.258 93.6511 112.258C103.124 112.258 112.623 114.636 118.943 119.394L120.031 120.213L118.943 121.032C112.623 125.789 103.124 128.168 93.6511 128.168C84.1782 128.168 74.6792 125.789 68.3588 121.032L67.271 120.213L68.3588 119.394Z" fill="url(#paint5_linear_590_94)"/>
<path d="M97.214 134.731C91.2037 140.753 86.5972 148.149 85.1801 155.131C92.1488 153.712 99.5311 149.096 105.542 143.074C111.552 137.052 116.158 129.656 117.575 122.674C110.607 124.094 103.224 128.709 97.214 134.731ZM82.9156 156.242C84.027 148.401 89.0651 139.989 95.7636 133.277C102.462 126.566 110.857 121.518 118.684 120.405L120.031 120.213L119.84 121.563C118.728 129.405 113.69 137.816 106.992 144.528C100.294 151.239 91.898 156.287 84.0714 157.4L82.7242 157.592L82.9156 156.242Z" fill="url(#paint6_linear_590_94)"/>
<path d="M114.143 146.644C114.143 155.16 116.106 163.654 120.031 169.595C123.957 163.654 125.92 155.16 125.92 146.644C125.92 138.128 123.957 129.634 120.031 123.693C116.106 129.634 114.143 138.128 114.143 146.644ZM119.214 171.985C114.466 165.653 112.092 156.135 112.092 146.644C112.092 137.153 114.466 127.635 119.214 121.303L120.031 120.213L120.849 121.303C125.597 127.635 127.971 137.153 127.971 146.644C127.971 156.135 125.597 165.653 120.849 171.985L120.031 173.075L119.214 171.985Z" fill="url(#paint7_linear_590_94)"/>
<path fill-rule="evenodd" clip-rule="evenodd" d="M168.465 140.943C168.5 140.982 179.682 153.159 181.141 169.471C182.039 164.179 181.974 158.756 180.945 153.485C179.387 145.494 175.614 137.848 169.625 131.534C170.125 130.933 170.415 130.217 170.497 129.482C177.115 136.203 181.267 144.45 182.951 153.088C184.707 162.087 183.783 171.506 180.18 180.058L180.019 180.441L179.636 180.603C171.101 184.212 161.7 185.138 152.718 183.379C144.097 181.691 135.866 177.532 129.158 170.9C129.892 170.819 130.607 170.528 131.206 170.027C137.508 176.027 145.139 179.808 153.115 181.37C158.376 182.4 163.788 182.465 169.07 181.565C152.789 180.104 140.636 168.9 140.597 168.865L141.286 168.107C141.327 168.144 155.222 180.952 173.073 180.691L173.089 180.687C168.092 179.838 163.683 177.941 159.975 175.709C151.72 170.74 146.885 163.993 146.768 163.514L147.762 163.267C147.869 163.706 152.5 170.014 160.505 174.832C164.655 177.33 169.699 179.395 175.467 179.977C176.473 179.646 177.469 179.278 178.454 178.873C178.858 177.886 179.225 176.888 179.556 175.881C178.975 170.102 176.913 165.047 174.421 160.89C169.612 152.869 163.316 148.23 162.878 148.122L163.125 147.126C163.602 147.243 170.337 152.087 175.296 160.359C177.524 164.074 179.417 168.491 180.264 173.497L180.269 173.481C180.529 155.597 167.746 141.674 167.709 141.633L168.465 140.943ZM188.376 155.492C188.803 155.492 189.23 155.329 189.556 155.003C189.881 154.676 190.044 154.248 190.044 153.821C190.044 153.393 189.881 152.965 189.556 152.639C189.23 152.313 188.803 152.149 188.376 152.149C187.949 152.149 187.522 152.313 187.197 152.639C186.871 152.965 186.708 153.393 186.708 153.821C186.708 154.248 186.871 154.676 187.197 155.003C187.522 155.329 187.949 155.492 188.376 155.492ZM190.523 155.972C189.93 156.565 189.153 156.862 188.376 156.862C187.599 156.862 186.822 156.565 186.229 155.972C185.637 155.378 185.34 154.599 185.341 153.821C185.34 153.042 185.637 152.264 186.229 151.67C186.822 151.076 187.599 150.779 188.376 150.779C189.153 150.779 189.93 151.076 190.523 151.67C191.115 152.264 191.412 153.042 191.412 153.821C191.412 154.599 191.115 155.378 190.523 155.972ZM190.039 163.966C190.568 163.966 191.097 163.764 191.5 163.36C191.904 162.955 192.105 162.426 192.105 161.896C192.105 161.366 191.904 160.836 191.5 160.432C191.097 160.028 190.568 159.826 190.039 159.826C189.51 159.826 188.982 160.028 188.578 160.432C188.175 160.836 187.973 161.366 187.973 161.896C187.973 162.426 188.175 162.955 188.578 163.36C188.982 163.764 189.51 163.966 190.039 163.966ZM192.467 164.329C191.797 165 190.918 165.336 190.039 165.336C189.16 165.336 188.281 165 187.611 164.329C186.941 163.657 186.605 162.776 186.605 161.896C186.605 161.015 186.941 160.135 187.611 159.463C188.281 158.791 189.16 158.456 190.039 158.456C190.918 158.456 191.797 158.792 192.467 159.463C193.137 160.135 193.473 161.015 193.473 161.896C193.473 162.776 193.137 163.657 192.467 164.329ZM190.582 173.738C191.212 173.738 191.843 173.496 192.324 173.015C192.806 172.532 193.046 171.9 193.046 171.269C193.046 170.637 192.806 170.005 192.324 169.523C191.843 169.041 191.212 168.8 190.582 168.8C189.951 168.8 189.321 169.041 188.839 169.523C188.358 170.005 188.118 170.637 188.117 171.269C188.118 171.9 188.358 172.532 188.839 173.015C189.321 173.497 189.951 173.738 190.582 173.738ZM193.291 173.983C192.543 174.733 191.562 175.108 190.582 175.108C189.601 175.108 188.62 174.733 187.872 173.983C187.124 173.234 186.75 172.251 186.75 171.269C186.75 170.286 187.124 169.303 187.872 168.554C188.62 167.804 189.601 167.429 190.582 167.429C191.562 167.429 192.543 167.804 193.291 168.554C194.039 169.303 194.414 170.286 194.414 171.269C194.414 172.251 194.039 173.234 193.291 173.983ZM189.348 184.994C190.173 184.994 190.999 184.678 191.628 184.047C192.258 183.417 192.572 182.59 192.573 181.763C192.573 180.937 192.258 180.11 191.628 179.479C190.999 178.848 190.173 178.533 189.348 178.533C188.523 178.533 187.698 178.848 187.068 179.479C186.439 180.11 186.124 180.937 186.124 181.763C186.124 182.59 186.439 183.417 187.068 184.047C187.698 184.678 188.523 184.994 189.348 184.994ZM192.595 185.016C191.699 185.915 190.523 186.364 189.348 186.364C188.173 186.364 186.998 185.915 186.101 185.016C185.205 184.118 184.757 182.941 184.757 181.763C184.757 180.586 185.205 179.408 186.101 178.51C186.998 177.612 188.173 177.163 189.348 177.163C190.523 177.163 191.699 177.612 192.595 178.51C193.492 179.408 193.94 180.586 193.94 181.763C193.94 182.941 193.492 184.118 192.595 185.016ZM155.118 188.814C155.118 189.242 154.955 189.67 154.63 189.996C154.304 190.323 153.877 190.486 153.45 190.486C153.023 190.486 152.596 190.323 152.271 189.996C151.945 189.67 151.782 189.242 151.782 188.814C151.782 188.387 151.945 187.959 152.271 187.632C152.596 187.306 153.023 187.143 153.45 187.143C153.877 187.143 154.304 187.306 154.63 187.632C154.955 187.959 155.118 188.387 155.118 188.814ZM155.597 190.965C156.189 190.371 156.485 189.593 156.485 188.814C156.485 188.036 156.189 187.257 155.597 186.664C155.004 186.07 154.227 185.773 153.45 185.773C152.673 185.773 151.896 186.07 151.303 186.664C150.711 187.257 150.414 188.036 150.414 188.814C150.414 189.593 150.711 190.371 151.303 190.965C151.896 191.559 152.673 191.856 153.45 191.856C154.227 191.856 155.004 191.559 155.597 190.965ZM163.576 190.481C163.576 191.01 163.374 191.54 162.97 191.945C162.567 192.349 162.038 192.551 161.509 192.551C160.981 192.551 160.452 192.349 160.048 191.945C159.645 191.54 159.443 191.01 159.443 190.481C159.443 189.951 159.645 189.421 160.048 189.017C160.452 188.612 160.981 188.41 161.509 188.41C162.038 188.41 162.567 188.613 162.97 189.017C163.374 189.421 163.576 189.951 163.576 190.481ZM163.937 192.913C164.608 192.242 164.943 191.361 164.943 190.481C164.943 189.6 164.608 188.72 163.937 188.048C163.267 187.376 162.388 187.04 161.509 187.04C160.631 187.04 159.752 187.376 159.081 188.048C158.411 188.72 158.076 189.6 158.076 190.481C158.076 191.361 158.411 192.242 159.081 192.913C159.752 193.585 160.631 193.921 161.509 193.921C162.388 193.921 163.267 193.585 163.937 192.913ZM173.329 191.024C173.328 191.656 173.088 192.288 172.607 192.77C172.125 193.252 171.495 193.493 170.864 193.493C170.234 193.493 169.603 193.252 169.122 192.77C168.641 192.288 168.4 191.656 168.4 191.024C168.4 190.393 168.64 189.761 169.122 189.279C169.603 188.796 170.234 188.555 170.864 188.555C171.495 188.555 172.125 188.796 172.607 189.279C173.088 189.761 173.329 190.393 173.329 191.024ZM173.574 193.739C174.322 192.99 174.696 192.007 174.696 191.024C174.696 190.042 174.322 189.059 173.574 188.31C172.825 187.56 171.845 187.185 170.864 187.185C169.883 187.185 168.903 187.56 168.155 188.31C167.406 189.059 167.032 190.042 167.032 191.024C167.032 192.007 167.406 192.99 168.155 193.739C168.903 194.489 169.883 194.864 170.864 194.864C171.845 194.864 172.826 194.489 173.574 193.739ZM184.563 189.788C184.563 190.615 184.248 191.442 183.618 192.073C182.989 192.703 182.163 193.019 181.338 193.019C180.513 193.019 179.688 192.703 179.059 192.073C178.429 191.442 178.114 190.615 178.114 189.788C178.114 188.962 178.429 188.135 179.059 187.504C179.688 186.873 180.513 186.558 181.338 186.558C182.163 186.558 182.989 186.873 183.618 187.504C184.248 188.135 184.563 188.962 184.563 189.788ZM184.585 193.042C185.482 192.143 185.93 190.966 185.93 189.788C185.93 188.611 185.482 187.433 184.585 186.535C183.689 185.637 182.513 185.188 181.338 185.188C180.163 185.188 178.988 185.637 178.091 186.535C177.195 187.433 176.747 188.611 176.747 189.788C176.747 190.966 177.195 192.143 178.091 193.042C178.988 193.94 180.163 194.389 181.338 194.389C182.514 194.389 183.689 193.94 184.585 193.042ZM182.448 132.421C178.473 128.438 174.052 125.174 169.345 122.627C168.651 123.045 167.93 123.439 167.184 123.809C172.162 126.346 176.833 129.701 180.998 133.874C188.945 141.837 193.92 151.645 195.923 161.917C197.961 172.366 196.926 183.3 192.818 193.265C182.873 197.38 171.959 198.418 161.53 196.376C151.278 194.369 141.489 189.384 133.542 181.422C129.377 177.249 126.029 172.569 123.496 167.581C123.126 168.329 122.733 169.051 122.317 169.747C124.858 174.463 128.116 178.892 132.091 182.875C140.332 191.132 150.49 196.302 161.134 198.386C172.1 200.533 183.579 199.402 194.001 194.995L194.384 194.833L194.545 194.45C198.944 184.007 200.072 172.507 197.929 161.519C195.849 150.855 190.689 140.678 182.448 132.421Z" fill="url(#paint8_linear_590_94)"/>
<path fill-rule="evenodd" clip-rule="evenodd" d="M140.635 71.6355C140.673 71.6006 152.827 60.3965 169.107 58.9353C163.826 58.0359 158.413 58.101 153.152 59.1311C145.177 60.6927 137.546 64.4733 131.244 70.4736C130.644 69.973 129.929 69.6818 129.195 69.6001C135.903 62.9687 144.135 58.8093 152.756 57.1214C161.738 55.3627 171.138 56.2884 179.674 59.8978L180.056 60.0595L180.218 60.4427C183.82 68.9949 184.744 78.4134 182.989 87.4128C181.304 96.0503 177.153 104.298 170.534 111.019C170.453 110.284 170.162 109.567 169.662 108.966C175.651 102.652 179.424 95.0064 180.983 87.0154C182.011 81.7446 182.076 76.3215 181.178 71.0294C179.72 87.3414 168.537 99.5186 168.503 99.5573L167.746 98.8675C167.783 98.8266 180.566 84.9039 180.306 67.0193L180.302 67.0032C179.454 72.0096 177.561 76.4265 175.333 80.1419C170.374 88.4133 163.639 93.2577 163.162 93.3751L162.915 92.3789C163.353 92.271 169.649 87.6313 174.458 79.611C176.951 75.4533 179.012 70.3992 179.593 64.6197C179.263 63.6122 178.895 62.6143 178.491 61.6278C177.506 61.2225 176.51 60.8545 175.505 60.5235C169.736 61.1051 164.692 63.1708 160.542 65.6687C152.537 70.4868 147.907 76.7945 147.799 77.2333L146.805 76.9862C146.922 76.5081 151.757 69.7604 160.012 64.7914C163.721 62.5596 168.129 60.6631 173.126 59.8135L173.11 59.8092C155.259 59.5486 141.364 72.3563 141.323 72.3934L140.635 71.6355ZM155.156 51.6861C155.156 51.2584 154.993 50.8308 154.667 50.5043C154.341 50.1779 153.914 50.0147 153.488 50.0147C153.061 50.0147 152.634 50.178 152.308 50.5043C151.982 50.8308 151.819 51.2584 151.819 51.6861C151.819 52.1137 151.982 52.5416 152.308 52.8679C152.634 53.1944 153.061 53.3576 153.488 53.3576C153.914 53.3576 154.341 53.1944 154.667 52.8679C154.993 52.5416 155.156 52.1137 155.156 51.6861ZM155.634 49.5355C156.227 50.1293 156.523 50.9077 156.523 51.6862C156.523 52.4647 156.227 53.2432 155.634 53.8369C155.041 54.4307 154.264 54.7278 153.488 54.7277C152.711 54.7278 151.934 54.4307 151.341 53.8369C150.748 53.2432 150.452 52.4646 150.452 51.6862C150.452 50.9078 150.748 50.1293 151.341 49.5355C151.934 48.9417 152.711 48.6447 153.488 48.6447C154.265 48.6447 155.042 48.9417 155.634 49.5355ZM163.613 50.0199C163.613 49.4903 163.411 48.9603 163.008 48.556C162.604 48.1517 162.076 47.9497 161.547 47.9497C161.018 47.9497 160.489 48.1517 160.086 48.556C159.682 48.9603 159.481 49.4902 159.481 50.0199C159.481 50.5496 159.682 51.0794 160.086 51.4837C160.489 51.888 161.018 52.0901 161.547 52.0903C162.076 52.0901 162.604 51.8881 163.008 51.4837C163.411 51.0794 163.613 50.5496 163.613 50.0199ZM163.975 47.5872C164.645 48.2588 164.981 49.1395 164.981 50.0199C164.981 50.9004 164.645 51.781 163.975 52.4527C163.305 53.1242 162.426 53.4602 161.547 53.4603C160.668 53.4602 159.789 53.1242 159.119 52.4527C158.448 51.7809 158.113 50.9003 158.113 50.0199C158.113 49.1395 158.448 48.2588 159.119 47.5872C159.789 46.9154 160.668 46.5796 161.547 46.5796C162.426 46.5796 163.305 46.9154 163.975 47.5872ZM173.366 49.4761C173.366 48.8443 173.125 48.2124 172.644 47.7303C172.163 47.2481 171.532 47.007 170.902 47.007C170.271 47.007 169.64 47.2481 169.159 47.7303C168.678 48.2124 168.437 48.8444 168.437 49.4761C168.437 50.1078 168.678 50.7398 169.159 51.2219C169.641 51.7041 170.271 51.9451 170.902 51.9452C171.532 51.9451 172.163 51.7041 172.644 51.2219C173.125 50.7398 173.366 50.1078 173.366 49.4761ZM173.611 46.7613C174.359 47.5109 174.733 48.4937 174.733 49.4761C174.733 50.4585 174.359 51.4413 173.611 52.1909C172.863 52.9404 171.882 53.3151 170.901 53.3152C169.921 53.3151 168.94 52.9404 168.192 52.1909C167.444 51.4413 167.07 50.4585 167.07 49.4761C167.07 48.4937 167.444 47.5109 168.192 46.7613C168.94 46.0118 169.921 45.637 170.901 45.637C171.882 45.637 172.863 46.0118 173.611 46.7613ZM184.6 50.712C184.6 49.8854 184.285 49.0586 183.656 48.4278C183.026 47.797 182.201 47.4815 181.376 47.4815C180.551 47.4815 179.726 47.797 179.096 48.4278C178.466 49.0587 178.152 49.8854 178.152 50.712C178.152 51.5386 178.466 52.3655 179.096 52.9962C179.726 53.6271 180.551 53.9425 181.376 53.9425C182.201 53.9425 183.026 53.6271 183.656 52.9962C184.285 52.3655 184.6 51.5386 184.6 50.712ZM184.623 47.4589C185.519 48.3571 185.968 49.5347 185.968 50.712C185.968 51.8895 185.519 53.067 184.623 53.9652C183.726 54.8633 182.551 55.3125 181.376 55.3125C180.201 55.3125 179.026 54.8633 178.129 53.9652C177.232 53.067 176.784 51.8895 176.784 50.712C176.784 49.5347 177.232 48.3571 178.129 47.4589C179.026 46.5607 180.201 46.1114 181.376 46.1114C182.551 46.1114 183.726 46.5607 184.623 47.4589ZM188.414 85.0083C188.84 85.0083 189.267 85.1715 189.593 85.498C189.919 85.8243 190.082 86.2523 190.082 86.6798C190.082 87.1076 189.919 87.5355 189.593 87.8617C189.267 88.1881 188.84 88.3513 188.414 88.3513C187.987 88.3513 187.56 88.188 187.234 87.8617C186.908 87.5353 186.745 87.1076 186.745 86.6798C186.745 86.2523 186.908 85.8244 187.234 85.498C187.56 85.1715 187.987 85.0083 188.414 85.0083ZM190.56 84.529C189.968 83.9353 189.191 83.6383 188.414 83.6383C187.637 83.6383 186.86 83.9353 186.267 84.529C185.674 85.1229 185.378 85.9014 185.378 86.6797C185.378 87.4581 185.674 88.2366 186.267 88.8304C186.86 89.4244 187.637 89.7212 188.414 89.7212C189.19 89.7212 189.968 89.4244 190.56 88.8304C191.153 88.2366 191.449 87.4581 191.449 86.6797C191.449 85.9013 191.153 85.1228 190.56 84.529ZM190.077 76.5343C190.605 76.5343 191.134 76.7365 191.538 77.1409C191.941 77.545 192.143 78.0749 192.143 78.6047C192.143 79.1344 191.941 79.6642 191.538 80.0685C191.134 80.4726 190.605 80.6749 190.077 80.6749C189.548 80.6749 189.019 80.4727 188.616 80.0685C188.212 79.6642 188.01 79.1342 188.01 78.6047C188.01 78.0749 188.212 77.545 188.616 77.1409C189.019 76.7365 189.548 76.5344 190.077 76.5343ZM192.505 76.1719C191.834 75.5002 190.955 75.1643 190.077 75.1643C189.198 75.1644 188.319 75.5002 187.648 76.1719C186.978 76.8434 186.643 77.7242 186.643 78.6047C186.643 79.4852 186.978 80.3658 187.648 81.0374C188.319 81.7092 189.198 82.045 190.077 82.045C190.955 82.045 191.834 81.7091 192.505 81.0374C193.175 80.3657 193.51 79.485 193.51 78.6047C193.51 77.7242 193.175 76.8437 192.505 76.1719ZM190.619 66.7628C191.25 66.7628 191.881 67.0039 192.362 67.486C192.843 67.9681 193.084 68.6002 193.084 69.2318C193.084 69.8635 192.843 70.4955 192.362 70.9776C191.881 71.4597 191.25 71.7008 190.619 71.7009C189.989 71.7009 189.358 71.4598 188.877 70.9776C188.396 70.4955 188.155 69.8636 188.155 69.2318C188.155 68.6 188.396 67.9681 188.877 67.486C189.358 67.0039 189.989 66.7628 190.619 66.7628ZM193.329 66.5172C192.581 65.7676 191.6 65.3929 190.619 65.3928C189.639 65.3928 188.658 65.7677 187.91 66.5172C187.162 67.2668 186.788 68.2495 186.788 69.2319C186.788 70.2144 187.162 71.1971 187.91 71.9467C188.658 72.6963 189.639 73.0711 190.619 73.0711C191.6 73.0709 192.581 72.6963 193.329 71.9467C194.077 71.1971 194.451 70.2144 194.451 69.2319C194.451 68.2495 194.077 67.2668 193.329 66.5172ZM189.386 55.5069C190.211 55.5069 191.036 55.8224 191.666 56.4532C192.295 57.0839 192.61 57.9107 192.61 58.7374C192.61 59.564 192.295 60.3908 191.666 61.0215C191.036 61.6525 190.211 61.9678 189.386 61.9678C188.561 61.9678 187.736 61.6525 187.106 61.0215C186.476 60.3907 186.162 59.564 186.162 58.7374C186.162 57.9107 186.476 57.0839 187.106 56.4532C187.736 55.8225 188.561 55.5069 189.386 55.5069ZM192.633 55.4842C191.736 54.586 190.561 54.1369 189.386 54.1369C188.211 54.1369 187.035 54.586 186.139 55.4842C185.242 56.3824 184.794 57.5599 184.794 58.7374C184.794 59.9147 185.242 61.0923 186.139 61.9904C187.035 62.8888 188.211 63.3378 189.386 63.3378C190.561 63.3378 191.736 62.8888 192.633 61.9904C193.529 61.0923 193.977 59.9147 193.977 58.7374C193.977 57.5599 193.529 56.3824 192.633 55.4842ZM132.129 57.6253C128.154 61.6081 124.896 66.0377 122.354 70.7536C122.771 71.4488 123.164 72.1718 123.534 72.9195C126.066 67.9317 129.414 63.2517 133.579 59.0787C141.526 51.1163 151.316 46.132 161.568 44.1246C171.997 42.0825 182.91 43.1202 192.856 47.2356C196.963 57.2002 197.999 68.1345 195.96 78.584C193.957 88.8559 188.982 98.6639 181.035 106.626C176.87 110.799 172.199 114.154 167.221 116.691C167.967 117.062 168.689 117.456 169.383 117.873C174.089 115.327 178.511 112.062 182.486 108.08C190.726 99.823 195.886 89.6453 197.966 78.9813C200.109 67.9933 198.981 56.4932 194.582 46.0502L194.421 45.667L194.038 45.5051C183.616 41.0979 172.138 39.9675 161.171 42.1147C150.528 44.199 140.37 49.3687 132.129 57.6253Z" fill="url(#paint9_linear_590_94)"/>
<path fill-rule="evenodd" clip-rule="evenodd" d="M71.4974 99.5573C71.4624 99.5187 60.2799 87.3416 58.8216 71.0295C57.9239 76.3216 57.9889 81.7446 59.017 87.0155C60.5756 95.0065 64.3489 102.652 70.3378 108.966C69.8379 109.567 69.5474 110.284 69.4659 111.019C62.8472 104.298 58.6959 96.0504 57.0113 87.4128C55.256 78.4134 56.1799 68.995 59.7824 60.4428L59.9437 60.0595L60.3262 59.8979C68.8618 56.2886 78.2624 55.3627 87.2444 57.1214C95.8652 58.8092 104.097 62.9688 110.805 69.6001C110.071 69.6818 109.356 69.973 108.756 70.4737C102.455 64.4734 94.8233 60.6928 86.8476 59.1312C81.5869 58.1012 76.1743 58.036 70.8926 58.9354C87.1732 60.3965 99.3267 71.6006 99.3652 71.6355L98.6768 72.3936C98.6362 72.3565 84.7401 59.5489 66.8901 59.8094L66.8739 59.8137C71.8707 60.6632 76.2792 62.5597 79.9873 64.7916C88.2428 69.7605 93.0778 76.5082 93.1951 76.9864L92.2008 77.2334C92.0932 76.7947 87.4624 70.487 79.4574 65.6689C75.3077 63.1711 70.2633 61.1053 64.4952 60.5236C63.4895 60.8547 62.4936 61.2227 61.509 61.628C61.1045 62.6143 60.7372 63.6124 60.4068 64.6199C60.9873 70.3993 63.0491 75.4535 65.542 79.6111C70.3508 87.6315 76.6465 92.2712 77.0844 92.3791L76.838 93.3753C76.3605 93.2578 69.6259 88.4135 64.6668 80.1421C62.439 76.4267 60.5462 72.0098 59.6983 67.0034L59.6941 67.0195C59.4339 84.9041 72.2169 98.8267 72.2539 98.8676L71.4974 99.5573ZM51.5864 85.0084C51.1597 85.0084 50.7328 85.1716 50.407 85.498C50.0813 85.8244 49.9183 86.2524 49.9183 86.6799C49.9183 87.1076 50.0813 87.5355 50.407 87.8617C50.7328 88.1882 51.1599 88.3514 51.5864 88.3514C52.0133 88.3514 52.4404 88.1881 52.766 87.8617C53.0919 87.5354 53.2547 87.1076 53.2547 86.6799C53.2547 86.2524 53.0919 85.8245 52.766 85.498C52.4403 85.1716 52.0131 85.0084 51.5864 85.0084ZM49.44 84.5291C50.0325 83.9353 50.8096 83.6384 51.5864 83.6384C52.3634 83.6384 53.1404 83.9353 53.7332 84.5291C54.3258 85.123 54.6223 85.9015 54.6221 86.6798C54.6222 87.4582 54.3258 88.2367 53.7332 88.8305C53.1404 89.4244 52.3634 89.7213 51.5864 89.7213C50.8096 89.7213 50.0325 89.4244 49.44 88.8305C48.8474 88.2367 48.5509 87.4582 48.5509 86.6798C48.5509 85.9014 48.8473 85.1229 49.44 84.5291ZM49.9235 76.5344C49.3949 76.5344 48.8659 76.7365 48.4624 77.1409C48.0588 77.5451 47.8573 78.075 47.8573 78.6047C47.8573 79.1345 48.0588 79.6642 48.4624 80.0685C48.8658 80.4727 49.3949 80.6749 49.9235 80.6749C50.452 80.6749 50.981 80.4728 51.3846 80.0685C51.788 79.6642 51.9897 79.1342 51.9899 78.6047C51.9898 78.075 51.7881 77.5451 51.3846 77.1409C50.9808 76.7365 50.452 76.5345 49.9235 76.5344ZM47.4954 76.172C48.1658 75.5003 49.0447 75.1644 49.9235 75.1644C50.8023 75.1645 51.6812 75.5003 52.3516 76.172C53.0218 76.8435 53.3571 77.7242 53.3572 78.6047C53.3571 79.4852 53.0217 80.3658 52.3516 81.0375C51.6812 81.7092 50.8023 82.0451 49.9235 82.0451C49.0447 82.0451 48.1658 81.7091 47.4954 81.0375C46.8249 80.3657 46.4898 79.4851 46.4898 78.6047C46.4898 77.7242 46.8248 76.8437 47.4954 76.172ZM49.3807 66.7629C48.7501 66.7629 48.1194 67.004 47.6382 67.4861C47.157 67.9682 46.9163 68.6003 46.9163 69.2318C46.9163 69.8636 47.157 70.4956 47.6382 70.9777C48.1194 71.4598 48.7503 71.7009 49.3807 71.701C50.0112 71.701 50.642 71.4599 51.1231 70.9777C51.6043 70.4956 51.845 69.8637 51.8451 69.2318C51.845 68.6001 51.6043 67.9682 51.1231 67.4861C50.642 67.004 50.0111 66.7629 49.3807 66.7629ZM46.6712 66.5172C47.4192 65.7676 48.4002 65.393 49.3807 65.3928C50.3612 65.3928 51.3421 65.7678 52.0901 66.5172C52.8384 67.2668 53.2122 68.2495 53.2125 69.2319C53.2124 70.2144 52.8384 71.1972 52.0901 71.9467C51.342 72.6963 50.3612 73.0711 49.3807 73.0711C48.4002 73.071 47.4192 72.6963 46.6712 71.9467C45.9231 71.1972 45.5491 70.2144 45.5491 69.2319C45.549 68.2495 45.9231 67.2668 46.6712 66.5172ZM50.6142 55.507C49.7893 55.507 48.9639 55.8224 48.3343 56.4533C47.7048 57.084 47.39 57.9108 47.3899 58.7374C47.39 59.564 47.7048 60.3909 48.3343 61.0216C48.964 61.6525 49.7894 61.9679 50.6142 61.9679C51.4394 61.9679 52.2644 61.6525 52.894 61.0216C53.5238 60.3908 53.8385 59.564 53.8385 58.7374C53.8385 57.9108 53.5238 57.084 52.894 56.4533C52.2643 55.8225 51.4394 55.507 50.6142 55.507ZM47.3673 55.4843C48.2639 54.5861 49.4391 54.1369 50.6142 54.1369C51.7894 54.1369 52.9647 54.5861 53.861 55.4843C54.7576 56.3825 55.206 57.5599 55.206 58.7374C55.206 59.9148 54.7576 61.0923 53.861 61.9904C52.9646 62.8888 51.7894 63.3379 50.6142 63.3379C49.4391 63.3379 48.2639 62.8888 47.3673 61.9904C46.4708 61.0923 46.0225 59.9148 46.0225 58.7374C46.0225 57.5599 46.4709 56.3825 47.3673 55.4843ZM84.8444 51.6861C84.8444 51.2585 85.0072 50.8309 85.3329 50.5044C85.6586 50.1779 86.0858 50.0148 86.5125 50.0148C86.9392 50.0148 87.3665 50.1781 87.692 50.5044C88.0178 50.8309 88.1809 51.2585 88.1809 51.6861C88.1809 52.1138 88.0179 52.5417 87.692 52.868C87.3663 53.1945 86.9393 53.3576 86.5125 53.3576C86.0857 53.3576 85.6588 53.1945 85.3329 52.868C85.0072 52.5417 84.8444 52.1138 84.8444 51.6861ZM84.366 49.5355C83.7734 50.1294 83.4771 50.9078 83.4771 51.6863C83.4771 52.4648 83.7734 53.2433 84.366 53.837C84.9587 54.4308 85.7358 54.7279 86.5125 54.7278C87.2894 54.7279 88.0664 54.4308 88.6591 53.837C89.2519 53.2433 89.5482 52.4646 89.5482 51.6863C89.5482 50.9079 89.2519 50.1294 88.6591 49.5355C88.0663 48.9417 87.2893 48.6448 86.5125 48.6448C85.7356 48.6448 84.9586 48.9417 84.366 49.5355ZM76.3867 50.02C76.3867 49.4903 76.5885 48.9603 76.992 48.5561C77.3956 48.1518 77.9244 47.9497 78.4531 47.9497C78.9819 47.9497 79.5106 48.1518 79.9142 48.5561C80.3177 48.9603 80.5194 49.4902 80.5194 50.02C80.5194 50.5496 80.3176 51.0795 79.9142 51.4838C79.5106 51.8881 78.9818 52.0902 78.4531 52.0903C77.9246 52.0902 77.3956 51.8882 76.992 51.4838C76.5885 51.0795 76.3869 50.5496 76.3867 50.02ZM76.0251 47.5872C75.3547 48.2589 75.0194 49.1396 75.0194 50.02C75.0194 50.9005 75.3547 51.7811 76.0251 52.4527C76.6953 53.1243 77.5743 53.4602 78.4531 53.4603C79.3319 53.4602 80.2109 53.1243 80.8812 52.4527C81.5516 51.781 81.8868 50.9004 81.8868 50.02C81.8868 49.1396 81.5516 48.2589 80.8812 47.5872C80.2108 46.9155 79.3318 46.5796 78.4531 46.5796C77.5743 46.5796 76.6954 46.9155 76.0251 47.5872ZM66.634 49.4761C66.6341 48.8444 66.8748 48.2125 67.3559 47.7304C67.8371 47.2481 68.468 47.007 69.0984 47.007C69.7287 47.007 70.3596 47.2481 70.8408 47.7304C71.322 48.2125 71.5627 48.8445 71.5627 49.4761C71.5627 50.1079 71.3222 50.7398 70.8408 51.222C70.3596 51.7042 69.7289 51.9452 69.0984 51.9453C68.4678 51.9452 67.8371 51.7042 67.3559 51.222C66.8748 50.7398 66.634 50.1079 66.634 49.4761ZM66.3888 46.7614C65.6409 47.511 65.2667 48.4937 65.2667 49.4761C65.2667 50.4586 65.6409 51.4413 66.3888 52.1909C67.1371 52.9405 68.1178 53.3152 69.0984 53.3153C70.0789 53.3152 71.0596 52.9405 71.8079 52.1909C72.556 51.4413 72.93 50.4586 72.93 49.4761C72.93 48.4937 72.5559 47.511 71.8079 46.7614C71.0597 46.0118 70.0789 45.637 69.0984 45.637C68.1178 45.637 67.137 46.0118 66.3888 46.7614ZM55.3999 50.7121C55.3999 49.8855 55.7146 49.0586 56.3444 48.4278C56.9739 47.7971 57.7991 47.4815 58.6242 47.4815C59.4491 47.4815 60.2745 47.7971 60.904 48.4278C61.5336 49.0588 61.8484 49.8855 61.8484 50.7121C61.8484 51.5387 61.5336 52.3655 60.904 52.9962C60.2745 53.6272 59.4491 53.9425 58.6242 53.9425C57.7991 53.9425 56.974 53.6272 56.3444 52.9962C55.7146 52.3655 55.3999 51.5387 55.3999 50.7121ZM55.3773 47.459C54.4807 48.3572 54.0323 49.5347 54.0323 50.7121C54.0323 51.8896 54.4807 53.067 55.3773 53.9652C56.2736 54.8634 57.4489 55.3126 58.6241 55.3126C59.7992 55.3126 60.9744 54.8634 61.871 53.9652C62.7673 53.067 63.2156 51.8896 63.2156 50.7121C63.2156 49.5347 62.7674 48.3572 61.871 47.459C60.9744 46.5608 59.7992 46.1115 58.6241 46.1115C57.4489 46.1115 56.2737 46.5608 55.3773 47.459ZM57.5141 108.08C61.4893 112.062 65.9104 115.327 70.6172 117.873C71.3111 117.456 72.0327 117.062 72.7787 116.691C67.8006 114.154 63.1295 110.799 58.9647 106.626C51.0177 98.664 46.043 88.8559 44.0394 78.584C42.0012 68.1347 43.037 57.2004 47.1443 47.2357C57.0899 43.1203 68.0031 42.0825 78.4323 44.1247C88.6844 46.1321 98.4735 51.1163 106.421 59.0788C110.586 63.2517 113.934 67.9317 116.466 72.9195C116.836 72.1719 117.229 71.449 117.646 70.7537C115.104 66.0379 111.846 61.6081 107.871 57.6254C99.6305 49.3688 89.4723 44.199 78.8288 42.1149C67.8621 39.9676 56.3841 41.0981 45.9614 45.5053L45.5789 45.6672L45.4175 46.0503C41.0188 56.4933 39.8904 67.9935 42.0337 78.9815C44.1136 89.6453 49.2734 99.8231 57.5141 108.08Z" fill="url(#paint10_linear_590_94)"/>
<path fill-rule="evenodd" clip-rule="evenodd" d="M99.3652 168.828C99.3266 168.863 87.173 180.067 70.8926 181.528C76.1743 182.428 81.5868 182.363 86.8475 181.333C94.8232 179.771 102.454 175.99 108.756 169.99C109.356 170.491 110.071 170.782 110.805 170.863C104.097 177.495 95.8651 181.654 87.2443 183.342C78.2623 185.101 68.8618 184.175 60.3262 180.566L59.9437 180.404L59.7823 180.021C56.1798 171.469 55.256 162.05 57.0112 153.051C58.6959 144.413 62.8472 136.166 69.4659 129.445C69.5474 130.18 69.838 130.896 70.3377 131.497C64.3489 137.811 60.5756 145.457 59.017 153.448C57.9889 158.719 57.9239 164.142 58.8216 169.434C60.2799 153.122 71.4624 140.945 71.4974 140.906L72.2538 141.596C72.2169 141.637 59.4339 155.559 59.694 173.444L59.6983 173.46C60.5461 168.454 62.4389 164.037 64.6667 160.322C69.6258 152.05 76.3605 147.206 76.8379 147.088L77.0843 148.084C76.6464 148.192 70.3509 152.832 65.542 160.852C63.049 165.01 60.9873 170.064 60.4067 175.844C60.7372 176.851 61.1043 177.849 61.509 178.836C62.4936 179.241 63.4895 179.609 64.4951 179.94C70.2633 179.358 75.3077 177.292 79.4573 174.795C87.4622 169.977 92.0931 163.669 92.2008 163.23L93.195 163.477C93.0777 163.955 88.2427 170.703 79.9872 175.672C76.2792 177.904 71.8706 179.8 66.8739 180.65L66.8901 180.654C84.7401 180.915 98.636 168.107 98.6767 168.07L99.3652 168.828ZM84.8443 188.777C84.8443 189.205 85.0072 189.633 85.3329 189.959C85.6586 190.286 86.0858 190.449 86.5125 190.449C86.9392 190.449 87.3665 190.286 87.6919 189.959C88.0178 189.633 88.1809 189.205 88.1809 188.777C88.1809 188.35 88.0179 187.922 87.6919 187.596C87.3662 187.269 86.9393 187.106 86.5125 187.106C86.0857 187.106 85.6587 187.269 85.3329 187.596C85.0072 187.922 84.8443 188.35 84.8443 188.777ZM84.3659 190.928C83.7733 190.334 83.4771 189.556 83.4771 188.777C83.4771 187.999 83.7733 187.221 84.3659 186.627C84.9587 186.033 85.7357 185.736 86.5125 185.736C87.2894 185.736 88.0663 186.033 88.659 186.627C89.2517 187.221 89.5481 187.999 89.5481 188.777C89.5481 189.556 89.2518 190.334 88.659 190.928C88.0662 191.522 87.2892 191.819 86.5125 191.819C85.7356 191.819 84.9586 191.522 84.3659 190.928ZM76.3866 190.444C76.3866 190.973 76.5885 191.503 76.992 191.908C77.3955 192.312 77.9244 192.514 78.4531 192.514C78.9818 192.514 79.5106 192.312 79.9142 191.908C80.3177 191.503 80.5193 190.973 80.5193 190.444C80.5193 189.914 80.3176 189.384 79.9142 188.98C79.5106 188.576 78.9817 188.373 78.4531 188.373C77.9246 188.373 77.3955 188.576 76.992 188.98C76.5885 189.384 76.3869 189.914 76.3866 190.444ZM76.025 192.876C75.3547 192.205 75.0194 191.324 75.0194 190.444C75.0194 189.563 75.3547 188.683 76.025 188.011C76.6953 187.339 77.5743 187.003 78.4531 187.003C79.3319 187.003 80.2108 187.339 80.8812 188.011C81.5515 188.683 81.8867 189.563 81.8867 190.444C81.8867 191.324 81.5515 192.205 80.8812 192.876C80.2107 193.548 79.3318 193.884 78.4531 193.884C77.5743 193.884 76.6954 193.548 76.025 192.876ZM66.6339 190.987C66.6341 191.619 66.8747 192.251 67.3559 192.733C67.8371 193.215 68.4679 193.457 69.0984 193.457C69.7287 193.457 70.3596 193.216 70.8407 192.733C71.3219 192.251 71.5627 191.619 71.5627 190.987C71.5627 190.356 71.3222 189.724 70.8407 189.242C70.3596 188.759 69.7289 188.518 69.0984 188.518C68.4677 188.519 67.8371 188.759 67.3559 189.242C66.8747 189.724 66.6339 190.356 66.6339 190.987ZM66.3888 193.702C65.6409 192.953 65.2667 191.97 65.2667 190.988C65.2667 190.005 65.6409 189.022 66.3888 188.273C67.137 187.523 68.1178 187.148 69.0984 187.148C70.0788 187.148 71.0596 187.523 71.8078 188.273C72.556 189.022 72.9299 190.005 72.9299 190.988C72.9299 191.97 72.5559 192.953 71.8078 193.702C71.0597 194.452 70.0788 194.827 69.0984 194.827C68.1178 194.827 67.1369 194.452 66.3888 193.702ZM55.3998 189.751C55.3998 190.578 55.7146 191.405 56.3443 192.036C56.9738 192.666 57.7991 192.982 58.6242 192.982C59.4491 192.982 60.2745 192.666 60.904 192.036C61.5336 191.405 61.8483 190.578 61.8483 189.751C61.8483 188.925 61.5336 188.098 60.904 187.467C60.2745 186.836 59.4491 186.521 58.6242 186.521C57.7991 186.521 56.9739 186.836 56.3443 187.467C55.7146 188.098 55.3998 188.925 55.3998 189.751ZM55.3772 193.005C54.4806 192.106 54.0322 190.929 54.0322 189.751C54.0322 188.574 54.4806 187.397 55.3772 186.498C56.2736 185.6 57.4489 185.151 58.6241 185.151C59.7992 185.151 60.9743 185.6 61.8709 186.498C62.7673 187.397 63.2156 188.574 63.2156 189.751C63.2156 190.929 62.7674 192.106 61.8709 193.005C60.9743 193.903 59.7992 194.352 58.6241 194.352C57.4489 194.352 56.2737 193.903 55.3772 193.005ZM51.5864 155.455C51.1597 155.455 50.7328 155.292 50.4069 154.966C50.0812 154.639 49.9182 154.212 49.9182 153.784C49.9182 153.356 50.0812 152.928 50.4069 152.602C50.7328 152.276 51.1598 152.112 51.5864 152.112C52.0132 152.112 52.4404 152.276 52.766 152.602C53.0918 152.928 53.2547 153.356 53.2547 153.784C53.2547 154.212 53.0918 154.639 52.766 154.966C52.4403 155.292 52.0131 155.455 51.5864 155.455ZM49.4399 155.935C50.0325 156.528 50.8095 156.825 51.5864 156.825C52.3634 156.825 53.1404 156.528 53.7332 155.935C54.3257 155.341 54.6223 154.562 54.622 153.784C54.6221 153.006 54.3257 152.227 53.7332 151.633C53.1404 151.039 52.3634 150.742 51.5864 150.742C50.8095 150.742 50.0325 151.039 49.4399 151.633C48.8474 152.227 48.5509 153.006 48.5509 153.784C48.5509 154.562 48.8473 155.341 49.4399 155.935ZM49.9234 163.929C49.3948 163.929 48.8658 163.727 48.4623 163.323C48.0587 162.918 47.8572 162.389 47.8572 161.859C47.8572 161.329 48.0587 160.8 48.4623 160.395C48.8657 159.991 49.3948 159.789 49.9234 159.789C50.4519 159.789 50.9809 159.991 51.3845 160.395C51.7879 160.799 51.9897 161.329 51.9899 161.859C51.9898 162.389 51.788 162.919 51.3845 163.323C50.9808 163.727 50.4519 163.929 49.9234 163.929ZM47.4954 164.292C48.1657 164.963 49.0446 165.299 49.9234 165.299C50.8022 165.299 51.6812 164.963 52.3515 164.292C53.0217 163.62 53.357 162.739 53.3572 161.859C53.357 160.979 53.0216 160.098 52.3515 159.426C51.6812 158.755 50.8022 158.419 49.9234 158.419C49.0446 158.419 48.1657 158.755 47.4954 159.426C46.8249 160.098 46.4897 160.979 46.4897 161.859C46.4897 162.739 46.8248 163.62 47.4954 164.292ZM49.3806 173.701C48.7501 173.701 48.1193 173.46 47.6381 172.978C47.1569 172.495 46.9163 171.863 46.9163 171.232C46.9163 170.6 47.1569 169.968 47.6381 169.486C48.1193 169.004 48.7502 168.763 49.3806 168.763C50.0112 168.763 50.6419 169.004 51.1231 169.486C51.6043 169.968 51.8449 170.6 51.845 171.232C51.8449 171.864 51.6043 172.495 51.1231 172.978C50.6419 173.46 50.011 173.701 49.3806 173.701ZM46.6712 173.946C47.4192 174.696 48.4001 175.071 49.3806 175.071C50.3611 175.071 51.342 174.696 52.0901 173.946C52.8383 173.197 53.2122 172.214 53.2124 171.232C53.2123 170.249 52.8383 169.267 52.0901 168.517C51.3419 167.767 50.3611 167.393 49.3806 167.393C48.4001 167.393 47.4192 167.767 46.6712 168.517C45.923 169.266 45.549 170.249 45.549 171.232C45.5489 172.214 45.923 173.197 46.6712 173.946ZM50.6141 184.957C49.7892 184.957 48.9638 184.641 48.3342 184.01C47.7047 183.38 47.39 182.553 47.3899 181.726C47.39 180.9 47.7047 180.073 48.3342 179.442C48.964 178.811 49.7893 178.496 50.6141 178.496C51.4394 178.496 52.2644 178.811 52.894 179.442C53.5237 180.073 53.8384 180.9 53.8384 181.726C53.8384 182.553 53.5237 183.38 52.894 184.01C52.2644 184.641 51.4394 184.957 50.6141 184.957ZM47.3672 184.979C48.2638 185.878 49.439 186.327 50.6141 186.327C51.7893 186.327 52.9646 185.878 53.861 184.979C54.7575 184.081 55.2059 182.904 55.2059 181.726C55.2059 180.549 54.7575 179.371 53.861 178.473C52.9645 177.575 51.7893 177.126 50.6141 177.126C49.439 177.126 48.2638 177.575 47.3672 178.473C46.4708 179.371 46.0225 180.549 46.0225 181.726C46.0225 182.904 46.4709 184.081 47.3672 184.979ZM107.871 182.838C111.846 178.856 115.104 174.426 117.646 169.71C117.229 169.015 116.836 168.292 116.466 167.544C113.934 172.532 110.586 177.212 106.421 181.385C98.4736 189.347 88.6844 194.332 78.4323 196.339C68.0032 198.381 57.0899 197.343 47.1444 193.228C43.0371 183.263 42.0013 172.329 44.0395 161.88C46.043 151.608 51.0176 141.8 58.9648 133.837C63.1296 129.664 67.8006 126.31 72.7787 123.773C72.0328 123.402 71.3112 123.008 70.6173 122.591C65.9105 125.137 61.4894 128.401 57.5142 132.384C49.2736 140.641 44.1137 150.818 42.0337 161.482C39.8905 172.471 41.0188 183.971 45.4176 194.413L45.5789 194.797L45.9614 194.958C56.3841 199.366 67.8621 200.496 78.8289 198.349C89.4724 196.265 99.6304 191.095 107.871 182.838Z" fill="url(#paint11_linear_590_94)"/>
<path fill-rule="evenodd" clip-rule="evenodd" d="M218.475 115.57C220.008 116.988 221.407 118.549 222.65 120.232C221.407 121.915 220.008 123.476 218.475 124.893C216.093 122.557 213.454 121.109 211.332 120.232C213.454 119.354 216.093 117.907 218.475 115.57ZM211.972 110.876C214.028 112.01 215.951 113.356 217.71 114.885C214.174 118.338 210.053 119.737 208.141 120.232C210.053 120.727 214.173 122.126 217.71 125.579C215.95 127.108 214.028 128.454 211.972 129.587C209.082 124.315 204.558 121.59 201.273 120.232C204.558 118.873 209.082 116.148 211.972 110.876ZM203.356 107.606C206.068 108.217 208.652 109.162 211.064 110.395C207.308 117.235 200.67 119.561 198.082 120.232C200.67 120.902 207.308 123.229 211.064 130.069C208.652 131.302 206.068 132.246 203.356 132.858C200.778 125.394 195.12 121.847 191.214 120.232C195.12 118.617 200.778 115.07 203.356 107.606ZM193.53 106.893C194.366 106.83 195.21 106.798 196.061 106.798C198.21 106.798 200.31 107.003 202.344 107.394C199.102 116.581 190.958 119.471 188.023 120.232C190.958 120.992 199.101 123.882 202.344 133.069C200.31 133.461 198.21 133.666 196.061 133.666C195.21 133.666 194.366 133.634 193.53 133.57C191.075 125.618 185.184 121.898 181.155 120.232C185.184 118.566 191.075 114.845 193.53 106.893ZM196.061 104.742C191.622 104.742 187.374 105.569 183.462 107.078C183.141 107.415 182.816 107.749 182.486 108.08C180.942 109.627 179.331 111.065 177.662 112.395C178.675 111.712 179.729 111.088 180.819 110.518C178.209 115.191 174.251 117.732 171.211 119.074C171.366 119.185 171.52 119.299 171.673 119.413L172.145 119.769C175.533 118.174 179.799 115.194 182.361 109.765C185.483 108.339 188.866 107.386 192.421 106.996C189.276 116.499 180.941 119.461 177.964 120.232C180.941 121.003 189.276 123.966 192.421 133.468C188.866 133.078 185.483 132.125 182.361 130.699C179.799 125.271 175.533 122.29 172.145 120.696L171.673 121.051C171.52 121.166 171.366 121.279 171.211 121.391C174.251 122.732 178.209 125.273 180.819 129.946C179.73 129.378 178.676 128.751 177.662 128.069C179.331 129.399 180.942 130.837 182.486 132.384C182.816 132.715 183.141 133.049 183.462 133.386C187.374 134.895 191.622 135.722 196.061 135.722C201.873 135.722 207.358 134.304 212.19 131.795C217.205 129.191 221.513 125.412 224.751 120.822L225.167 120.232L224.751 119.642C221.513 115.052 217.205 111.273 212.19 108.669C207.357 106.16 201.873 104.742 196.061 104.742Z" fill="url(#paint12_linear_590_94)"/>
<path fill-rule="evenodd" clip-rule="evenodd" d="M115.348 21.5667C116.762 20.031 118.32 18.6293 120 17.3835C121.68 18.6292 123.238 20.0309 124.652 21.5668C122.321 23.9528 120.876 26.5972 120 28.7236C119.124 26.597 117.679 23.9528 115.348 21.5667ZM110.663 28.0825C111.794 26.0225 113.137 24.0958 114.663 22.3326C118.11 25.8764 119.506 30.0051 120 31.9205C120.494 30.0051 121.89 25.8766 125.337 22.3326C126.863 24.0961 128.206 26.0225 129.337 28.0825C124.076 30.9773 121.356 35.51 120 38.8021C118.644 35.51 115.924 30.9773 110.663 28.0825ZM107.398 36.7142C108.009 33.9975 108.951 31.4082 110.182 28.9913C117.009 32.7545 119.331 39.4054 120 41.9988C120.669 39.4054 122.991 32.7547 129.818 28.9915C131.049 31.4083 131.991 33.9975 132.601 36.7142C125.152 39.2979 121.612 44.9663 120 48.8806C118.388 44.9661 114.848 39.2979 107.398 36.7142ZM106.687 46.5592C106.624 45.7225 106.592 44.8768 106.592 44.0237C106.592 41.8709 106.796 39.7666 107.187 37.7291C116.356 40.9776 119.241 49.1365 120 52.0775C120.759 49.1365 123.643 40.9776 132.813 37.7291C133.203 39.7665 133.408 41.8708 133.408 44.0237C133.408 44.8768 133.376 45.7224 133.313 46.5594C125.376 49.0196 121.662 54.9222 120 58.9591C118.337 54.922 114.624 49.0195 106.687 46.5592ZM104.54 44.0236C104.54 48.4712 105.366 52.7276 106.872 56.6475C107.208 56.9686 107.541 57.2944 107.871 57.6252C109.415 59.172 110.851 60.7863 112.178 62.4584C111.496 61.4429 110.874 60.3875 110.305 59.2953C114.969 61.9109 117.505 65.876 118.844 68.9225C118.955 68.7663 119.068 68.612 119.183 68.4595L119.538 67.9864C117.946 64.5918 114.971 60.3169 109.553 57.7507C108.13 54.6228 107.179 51.2325 106.79 47.6712C116.274 50.8215 119.23 59.1729 120 62.1559C120.77 59.1729 123.726 50.8216 133.21 47.6713C132.821 51.2326 131.87 54.6228 130.447 57.7508C125.029 60.3171 122.054 64.5919 120.462 67.9864L120.817 68.4595C120.932 68.6119 121.045 68.7663 121.156 68.9225C122.495 65.8761 125.031 61.911 129.695 59.2955C129.128 60.3868 128.502 61.4426 127.822 62.4584C129.149 60.7863 130.585 59.1721 132.129 57.6252C132.459 57.2943 132.792 56.9686 133.128 56.6475C134.634 52.7276 135.46 48.4712 135.46 44.0236C135.46 38.2007 134.045 32.7055 131.541 27.8641C128.942 22.8395 125.17 18.5229 120.589 15.2786L120 14.8615L119.411 15.2786C114.83 18.5229 111.058 22.8394 108.459 27.8641C105.955 32.7055 104.54 38.2007 104.54 44.0236Z" fill="url(#paint13_linear_590_94)"/>
<path fill-rule="evenodd" clip-rule="evenodd" d="M21.525 124.893C19.9923 123.476 18.5933 121.915 17.3498 120.232C18.5933 118.549 19.9923 116.988 21.5252 115.57C23.9066 117.906 26.5458 119.354 28.6681 120.232C26.5458 121.109 23.9066 122.557 21.525 124.893ZM28.0282 129.587C25.9723 128.454 24.0493 127.108 22.2895 125.579C25.8264 122.126 29.9472 120.727 31.8589 120.232C29.9472 119.737 25.8266 118.338 22.2895 114.885C24.0495 113.356 25.9723 112.01 28.0282 110.877C30.9175 116.148 35.4415 118.873 38.7271 120.232C35.4416 121.59 30.9176 124.315 28.0282 129.587ZM36.6435 132.858C33.932 132.246 31.3477 131.302 28.9354 130.069C32.6914 123.229 39.3294 120.902 41.9178 120.232C39.3294 119.561 32.6915 117.235 28.9355 110.395C31.3476 109.162 33.9319 108.217 36.6433 107.606C39.2219 115.07 44.8794 118.617 48.7861 120.232C44.8795 121.847 39.222 125.394 36.6435 132.858ZM46.4693 133.57C45.6344 133.634 44.7902 133.666 43.9388 133.666C41.7902 133.666 39.6899 133.461 37.6563 133.069C40.8985 123.882 49.0418 120.992 51.977 120.232C49.0418 119.471 40.8987 116.581 37.6564 107.394C39.6899 107.003 41.7901 106.798 43.9388 106.798C44.7902 106.798 45.6343 106.83 46.4696 106.893C48.9252 114.845 54.8162 118.566 58.8455 120.232C54.8161 121.898 48.9249 125.618 46.4693 133.57ZM43.9386 135.721C48.3777 135.721 52.626 134.894 56.5383 133.386C56.8585 133.049 57.1838 132.715 57.514 132.384C59.0579 130.837 60.6691 129.399 62.338 128.069C61.3245 128.752 60.2709 129.376 59.1809 129.946C61.7913 125.272 65.7488 122.732 68.7893 121.39C68.6335 121.278 68.4796 121.165 68.3272 121.051L67.855 120.695C64.467 122.29 60.2004 125.27 57.6391 130.699C54.5173 132.125 51.1335 133.078 47.5791 133.468C50.7233 123.965 59.0586 121.003 62.0359 120.232C59.0587 119.461 50.7236 116.498 47.5792 106.996C51.1334 107.386 54.5172 108.339 57.6391 109.765C60.2006 115.193 64.4672 118.174 67.855 119.768L68.3272 119.413C68.4795 119.298 68.6334 119.185 68.7893 119.073C65.7489 117.732 61.7916 115.191 59.181 110.518C60.2702 111.086 61.3239 111.713 62.3378 112.395C60.669 111.065 59.0579 109.627 57.5139 108.08C57.1837 107.749 56.8584 107.415 56.5381 107.078C52.6259 105.57 48.3776 104.742 43.9385 104.742C38.1269 104.742 32.6423 106.16 27.8102 108.669C22.7952 111.273 18.487 115.052 15.2489 119.642L14.8326 120.232L15.2489 120.822C18.487 125.412 22.7951 129.191 27.8102 131.795C32.6424 134.304 38.1271 135.721 43.9386 135.721Z" fill="url(#paint14_linear_590_94)"/>
<path fill-rule="evenodd" clip-rule="evenodd" d="M124.652 218.897C123.238 220.433 121.68 221.834 120 223.08C118.32 221.834 116.762 220.433 115.348 218.897C117.679 216.511 119.124 213.866 120 211.74C120.876 213.866 122.321 216.511 124.652 218.897ZM129.337 212.381C128.206 214.441 126.863 216.368 125.337 218.131C121.89 214.587 120.494 210.459 120 208.543C119.506 210.459 118.11 214.587 114.664 218.131C113.137 216.368 111.794 214.441 110.663 212.381C115.924 209.486 118.644 204.954 120 201.662C121.356 204.953 124.076 209.486 129.337 212.381ZM132.602 203.749C131.991 206.466 131.049 209.055 129.818 211.472C122.991 207.709 120.669 201.058 120 198.465C119.331 201.058 117.009 207.709 110.182 211.472C108.951 209.055 108.009 206.466 107.398 203.749C114.848 201.165 118.388 195.497 120 191.583C121.612 195.497 125.152 201.166 132.602 203.749ZM133.313 193.904C133.376 194.741 133.408 195.587 133.408 196.44C133.408 198.593 133.204 200.697 132.813 202.735C123.644 199.486 120.759 191.327 120 188.386C119.241 191.327 116.356 199.486 107.187 202.735C106.797 200.697 106.592 198.593 106.592 196.44C106.592 195.587 106.624 194.741 106.687 193.904C114.624 191.444 118.337 185.541 120 181.505C121.663 185.542 125.376 191.444 133.313 193.904ZM135.46 196.44C135.46 191.992 134.634 187.736 133.129 183.816C132.792 183.495 132.459 183.169 132.129 182.838C130.585 181.292 129.149 179.677 127.822 178.005C128.504 179.021 129.127 180.076 129.695 181.168C125.031 178.553 122.495 174.588 121.156 171.541C121.045 171.697 120.932 171.852 120.817 172.004L120.462 172.477C122.054 175.872 125.029 180.147 130.447 182.713C131.87 185.841 132.821 189.231 133.21 192.792C123.726 189.642 120.77 181.291 120 178.308C119.23 181.291 116.274 189.642 106.79 192.792C107.179 189.231 108.13 185.841 109.553 182.713C114.971 180.147 117.946 175.872 119.537 172.477L119.183 172.004C119.068 171.852 118.955 171.697 118.844 171.541C117.505 174.588 114.969 178.553 110.305 181.168C110.872 180.077 111.498 179.021 112.178 178.005C110.851 179.677 109.415 181.292 107.871 182.838C107.541 183.169 107.208 183.495 106.872 183.816C105.366 187.736 104.54 191.993 104.54 196.44C104.54 202.263 105.955 207.758 108.459 212.6C111.058 217.624 114.83 221.941 119.411 225.185L120 225.602L120.589 225.185C125.17 221.941 128.942 217.624 131.541 212.6C134.045 207.758 135.46 202.263 135.46 196.44Z" fill="url(#paint15_linear_590_94)"/>
<path fill-rule="evenodd" clip-rule="evenodd" d="M215.374 83.6081C218.379 84.8602 220.986 85.9462 223.258 86.1088C222.138 88.0962 221.6 90.8741 220.982 94.0769C220.032 98.9899 218.873 104.989 215.034 110.319C215.617 110.695 216.188 111.088 216.747 111.497C220.787 105.876 221.999 99.6049 222.993 94.4623C223.839 90.085 224.513 86.5979 226.62 85.4645L225.65 83.658C223.544 84.7906 220.27 83.426 216.16 81.7133C211.261 79.6718 205.272 77.1758 198.23 77.5318C198.148 78.0159 198.061 78.4992 197.967 78.9816C197.924 79.2012 197.88 79.4205 197.834 79.6397C204.707 79.1625 210.589 81.6138 215.374 83.6081ZM215.374 156.856C218.379 155.604 220.986 154.518 223.258 154.355C222.138 152.368 221.6 149.59 220.982 146.387C220.032 141.474 218.873 135.475 215.034 130.145C215.617 129.769 216.188 129.376 216.747 128.967C220.787 134.588 221.999 140.859 222.993 146.002C223.839 150.379 224.513 153.866 226.62 154.999L225.65 156.806C223.544 155.673 220.27 157.038 216.16 158.751C211.261 160.792 205.272 163.288 198.23 162.932C198.148 162.448 198.061 161.965 197.967 161.482C197.924 161.263 197.88 161.044 197.834 160.824C204.707 161.301 210.589 158.85 215.374 156.856ZM198.958 169.741C209.688 171.973 218.72 168.21 225.856 165.236C229.89 163.554 233.356 162.11 236.326 162.036C234.747 159.514 234.033 155.82 233.202 151.521C231.66 143.539 229.687 133.332 220.874 125.427C221.361 124.94 221.833 124.439 222.291 123.924C231.558 132.218 233.609 142.833 235.213 151.135C236.31 156.811 237.184 161.333 240 162.848L239.03 164.654C236.215 163.14 231.97 164.91 226.641 167.13C219.318 170.182 210.079 174.032 199.017 171.866C199.011 171.158 198.991 170.449 198.958 169.741ZM198.958 70.723C209.688 68.4904 218.72 72.2541 225.856 75.228C229.89 76.9091 233.356 78.3532 236.326 78.428C234.747 80.9498 234.033 84.6434 233.202 88.9427C231.66 96.9245 229.687 107.132 220.874 115.036C221.361 115.523 221.833 116.025 222.291 116.54C231.558 108.245 233.609 97.631 235.213 89.3281C236.31 83.6522 237.184 79.1305 240 77.6158L239.03 75.8094C236.215 77.3234 231.97 75.554 226.641 73.3332C219.318 70.2815 210.079 66.4314 199.017 68.5975C199.011 69.3063 198.991 70.0149 198.958 70.723Z" fill="url(#paint16_linear_590_94)"/>
<path fill-rule="evenodd" clip-rule="evenodd" d="M83.4468 24.6732C84.6966 21.6624 85.7805 19.051 85.9427 16.7747C87.9263 17.897 90.6987 18.4351 93.8954 19.0553C98.7989 20.0064 104.786 21.1679 110.106 25.0148C110.482 24.4305 110.874 23.8581 111.282 23.2984C105.672 19.2501 99.4127 18.0359 94.2799 17.0402C89.9111 16.1927 86.4306 15.5174 85.2995 13.4063L83.4964 14.3778C84.627 16.4878 83.265 19.7685 81.5554 23.8864C79.5179 28.7943 77.0267 34.7952 77.382 41.8512C77.8651 41.9328 78.3477 42.0207 78.829 42.1151C79.0482 42.1579 79.2671 42.2022 79.4857 42.2477C79.0098 35.3608 81.4563 29.4677 83.4468 24.6732ZM156.553 24.6732C155.304 21.6624 154.22 19.051 154.057 16.7747C152.074 17.897 149.301 18.4351 146.105 19.0553C141.201 20.0064 135.214 21.1679 129.894 25.0148C129.518 24.4305 129.126 23.8581 128.718 23.2984C134.328 19.2501 140.587 18.0359 145.72 17.0402C150.089 16.1927 153.569 15.5174 154.7 13.4063L156.503 14.3778C155.373 16.4878 156.735 19.7685 158.444 23.8864C160.482 28.7943 162.973 34.7952 162.618 41.8512C162.135 41.9328 161.652 42.0207 161.171 42.1151C160.952 42.1579 160.733 42.2022 160.514 42.2477C160.99 35.3608 158.544 29.4677 156.553 24.6732ZM169.414 41.1214C171.642 30.3701 167.886 21.3215 164.917 14.1716C163.239 10.1298 161.798 6.65705 161.723 3.68135C159.206 5.26321 155.52 5.97892 151.229 6.8112C143.263 8.35641 133.075 10.3327 125.186 19.163C124.7 18.6754 124.199 18.2019 123.685 17.7433C131.963 8.45852 142.557 6.40344 150.844 4.7959C156.509 3.69696 161.022 2.82155 162.534 0L164.337 0.971509C162.826 3.7919 164.592 8.04532 166.808 13.3847C169.854 20.7218 173.697 29.9783 171.535 41.0622C170.828 41.0686 170.12 41.0884 169.414 41.1214ZM70.5866 41.1214C68.3583 30.3701 72.1146 21.3215 75.0829 14.1716C76.7608 10.1298 78.2023 6.65705 78.2767 3.68135C80.7937 5.26321 84.4802 5.97892 88.7711 6.8112C96.7374 8.35641 106.925 10.3327 114.814 19.163C115.301 18.6754 115.801 18.2019 116.315 17.7433C108.037 8.45852 97.4426 6.40344 89.156 4.7959C83.4909 3.69696 78.978 2.82155 77.4661 0L75.6632 0.971509C77.1742 3.7919 75.4083 8.04532 73.1918 13.3847C70.146 20.7218 66.3034 29.9783 68.4651 41.0622C69.1726 41.0686 69.8797 41.0884 70.5866 41.1214Z" fill="url(#paint17_linear_590_94)"/>
<path fill-rule="evenodd" clip-rule="evenodd" d="M24.6256 156.856C21.6207 155.604 19.0143 154.518 16.7424 154.355C17.8625 152.368 18.3995 149.59 19.0185 146.387C19.9679 141.474 21.1271 135.475 24.9666 130.145C24.3835 129.769 23.812 129.376 23.2534 128.967C19.2129 134.588 18.0009 140.859 17.0071 146.002C16.1613 150.379 15.4874 153.866 13.3802 154.999L14.3498 156.806C16.4559 155.673 19.7304 157.038 23.8403 158.751C28.7387 160.792 34.728 163.288 41.7704 162.932C41.8519 162.448 41.9396 161.965 42.0337 161.482C42.0765 161.263 42.1207 161.044 42.1662 160.824C35.2926 161.301 29.4107 158.85 24.6256 156.856ZM24.6256 83.6081C21.6207 84.8602 19.0143 85.9462 16.7424 86.1088C17.8625 88.0962 18.3995 90.8741 19.0185 94.0769C19.9679 98.9899 21.1271 104.989 24.9666 110.319C24.3835 110.695 23.812 111.088 23.2534 111.497C19.2129 105.876 18.0009 99.6049 17.0071 94.4623C16.1613 90.085 15.4874 86.5979 13.3802 85.4645L14.3498 83.658C16.4559 84.7906 19.7304 83.426 23.8403 81.7133C28.7387 79.6718 34.728 77.1758 41.7704 77.5318C41.8519 78.0159 41.9396 78.4992 42.0337 78.9816C42.0765 79.2012 42.1207 79.4205 42.1662 79.6397C35.2926 79.1625 29.4107 81.6138 24.6256 83.6081ZM41.042 70.723C30.3116 68.4904 21.2804 72.2541 14.1443 75.228C10.1103 76.9091 6.6441 78.3532 3.67425 78.428C5.25307 80.9498 5.9674 84.6434 6.79807 88.9427C8.3403 96.9245 10.3128 107.132 19.1261 115.036C18.6392 115.523 18.1669 116.025 17.7091 116.54C8.44233 108.245 6.3911 97.631 4.78666 89.3281C3.68983 83.6522 2.81611 79.1305 0 77.6158L0.969637 75.8094C3.7846 77.3234 8.02993 75.554 13.359 73.3332C20.6818 70.2815 29.9206 66.4314 40.983 68.5975C40.9895 69.3063 41.0092 70.0149 41.042 70.723ZM41.042 169.741C30.3116 171.973 21.2804 168.21 14.1443 165.236C10.1103 163.554 6.6441 162.11 3.67425 162.036C5.25307 159.514 5.9674 155.82 6.79807 151.521C8.3403 143.539 10.3128 133.332 19.1261 125.427C18.6392 124.94 18.1669 124.439 17.7091 123.924C8.44233 132.218 6.3911 142.833 4.78666 151.135C3.68983 156.811 2.81611 161.333 0 162.848L0.969637 164.654C3.7846 163.14 8.02993 164.91 13.359 167.13C20.6818 170.182 29.9206 174.032 40.983 171.866C40.9895 171.158 41.0092 170.449 41.042 169.741Z" fill="url(#paint18_linear_590_94)"/>
<path fill-rule="evenodd" clip-rule="evenodd" d="M156.553 215.79C155.304 218.801 154.22 221.413 154.057 223.689C152.074 222.566 149.301 222.028 146.105 221.408C141.201 220.457 135.214 219.296 129.894 215.449C129.518 216.033 129.126 216.605 128.718 217.165C134.328 221.213 140.587 222.428 145.72 223.423C150.089 224.271 153.569 224.946 154.7 227.057L156.503 226.086C155.373 223.976 156.735 220.695 158.444 216.577C160.482 211.669 162.973 205.668 162.618 198.612C162.135 198.531 161.652 198.443 161.171 198.349C160.952 198.306 160.733 198.261 160.514 198.216C160.99 205.103 158.544 210.996 156.553 215.79ZM83.4468 215.79C84.6966 218.801 85.7805 221.413 85.9427 223.689C87.9263 222.566 90.6987 222.028 93.8954 221.408C98.7989 220.457 104.786 219.296 110.106 215.449C110.482 216.033 110.874 216.605 111.282 217.165C105.672 221.213 99.4127 222.428 94.2799 223.423C89.9111 224.271 86.4306 224.946 85.2995 227.057L83.4964 226.086C84.627 223.976 83.265 220.695 81.5554 216.577C79.5179 211.669 77.0267 205.668 77.382 198.612C77.8651 198.531 78.3477 198.443 78.829 198.349C79.0482 198.306 79.2671 198.261 79.4857 198.216C79.0098 205.103 81.4563 210.996 83.4468 215.79ZM70.5866 199.342C68.3583 210.093 72.1146 219.142 75.0829 226.292C76.7608 230.334 78.2023 233.807 78.2767 236.782C80.7937 235.2 84.4802 234.485 88.7711 233.652C96.7374 232.107 106.925 230.131 114.814 221.3C115.301 221.788 115.801 222.262 116.315 222.72C108.037 232.005 97.4426 234.06 89.156 235.667C83.4909 236.766 78.978 237.642 77.4661 240.463L75.6632 239.492C77.1742 236.671 75.4083 232.418 73.1918 227.079C70.146 219.742 66.3034 210.485 68.4651 199.401C69.1726 199.395 69.8797 199.375 70.5866 199.342ZM169.414 199.342C171.642 210.093 167.886 219.142 164.917 226.292C163.239 230.334 161.798 233.807 161.723 236.782C159.206 235.2 155.52 234.485 151.229 233.652C143.263 232.107 133.075 230.131 125.186 221.3C124.7 221.788 124.199 222.262 123.685 222.72C131.963 232.005 142.557 234.06 150.844 235.667C156.509 236.766 161.022 237.642 162.534 240.463L164.337 239.492C162.826 236.671 164.592 232.418 166.808 227.079C169.854 219.742 173.697 210.485 171.535 199.401C170.828 199.395 170.12 199.375 169.414 199.342Z" fill="url(#paint19_linear_590_94)"/>
<defs>
<linearGradient id="paint0_linear_590_94" x1="138.685" y1="120.213" x2="138.685" y2="157.592" gradientUnits="userSpaceOnUse">
<stop stop-color="white" stop-opacity="0.937255"/>
<stop offset="0.995605" stop-color="#444444"/>
</linearGradient>
<linearGradient id="paint1_linear_590_94" x1="146.412" y1="112.258" x2="146.412" y2="128.168" gradientUnits="userSpaceOnUse">
<stop stop-color="white" stop-opacity="0.937255"/>
<stop offset="0.995605" stop-color="#444444"/>
</linearGradient>
<linearGradient id="paint2_linear_590_94" x1="138.685" y1="82.8334" x2="138.685" y2="120.213" gradientUnits="userSpaceOnUse">
<stop stop-color="white" stop-opacity="0.937255"/>
<stop offset="0.995605" stop-color="#444444"/>
</linearGradient>
<linearGradient id="paint3_linear_590_94" x1="120.031" y1="67.3504" x2="120.031" y2="120.213" gradientUnits="userSpaceOnUse">
<stop stop-color="white" stop-opacity="0.937255"/>
<stop offset="0.995605" stop-color="#444444"/>
</linearGradient>
<linearGradient id="paint4_linear_590_94" x1="101.378" y1="82.8334" x2="101.378" y2="120.213" gradientUnits="userSpaceOnUse">
<stop stop-color="white" stop-opacity="0.937255"/>
<stop offset="0.995605" stop-color="#444444"/>
</linearGradient>
<linearGradient id="paint5_linear_590_94" x1="93.6512" y1="112.258" x2="93.6512" y2="128.168" gradientUnits="userSpaceOnUse">
<stop stop-color="white" stop-opacity="0.937255"/>
<stop offset="0.995605" stop-color="#444444"/>
</linearGradient>
<linearGradient id="paint6_linear_590_94" x1="101.378" y1="120.213" x2="101.378" y2="157.592" gradientUnits="userSpaceOnUse">
<stop stop-color="white" stop-opacity="0.937255"/>
<stop offset="0.995605" stop-color="#444444"/>
</linearGradient>
<linearGradient id="paint7_linear_590_94" x1="120.031" y1="120.213" x2="120.031" y2="173.075" gradientUnits="userSpaceOnUse">
<stop stop-color="white" stop-opacity="0.937255"/>
<stop offset="0.995605" stop-color="#444444"/>
</linearGradient>
<linearGradient id="paint8_linear_590_94" x1="160.649" y1="122.627" x2="160.649" y2="199.441" gradientUnits="userSpaceOnUse">
<stop stop-color="white" stop-opacity="0.937255"/>
<stop offset="0.995605" stop-color="#444444"/>
</linearGradient>
<linearGradient id="paint9_linear_590_94" x1="160.687" y1="41.0597" x2="160.687" y2="117.873" gradientUnits="userSpaceOnUse">
<stop stop-color="white" stop-opacity="0.937255"/>
<stop offset="0.995605" stop-color="#444444"/>
</linearGradient>
<linearGradient id="paint10_linear_590_94" x1="79.3133" y1="41.0598" x2="79.3133" y2="117.873" gradientUnits="userSpaceOnUse">
<stop stop-color="white" stop-opacity="0.937255"/>
<stop offset="0.995605" stop-color="#444444"/>
</linearGradient>
<linearGradient id="paint11_linear_590_94" x1="79.3133" y1="122.591" x2="79.3133" y2="199.404" gradientUnits="userSpaceOnUse">
<stop stop-color="white" stop-opacity="0.937255"/>
<stop offset="0.995605" stop-color="#444444"/>
</linearGradient>
<linearGradient id="paint12_linear_590_94" x1="198.189" y1="104.742" x2="198.189" y2="135.722" gradientUnits="userSpaceOnUse">
<stop stop-color="white" stop-opacity="0.937255"/>
<stop offset="0.995605" stop-color="#444444"/>
</linearGradient>
<linearGradient id="paint13_linear_590_94" x1="120" y1="14.8615" x2="120" y2="68.9225" gradientUnits="userSpaceOnUse">
<stop stop-color="white" stop-opacity="0.937255"/>
<stop offset="0.995605" stop-color="#444444"/>
</linearGradient>
<linearGradient id="paint14_linear_590_94" x1="41.8109" y1="104.742" x2="41.8109" y2="135.721" gradientUnits="userSpaceOnUse">
<stop stop-color="white" stop-opacity="0.937255"/>
<stop offset="0.995605" stop-color="#444444"/>
</linearGradient>
<linearGradient id="paint15_linear_590_94" x1="120" y1="171.541" x2="120" y2="225.602" gradientUnits="userSpaceOnUse">
<stop stop-color="white" stop-opacity="0.937255"/>
<stop offset="0.995605" stop-color="#444444"/>
</linearGradient>
<linearGradient id="paint16_linear_590_94" x1="218.917" y1="67.9651" x2="218.917" y2="172.499" gradientUnits="userSpaceOnUse">
<stop stop-color="white" stop-opacity="0.937255"/>
<stop offset="0.995605" stop-color="#444444"/>
</linearGradient>
<linearGradient id="paint17_linear_590_94" x1="120" y1="0" x2="120" y2="42.2477" gradientUnits="userSpaceOnUse">
<stop stop-color="white" stop-opacity="0.937255"/>
<stop offset="0.995605" stop-color="#444444"/>
</linearGradient>
<linearGradient id="paint18_linear_590_94" x1="21.0831" y1="67.9651" x2="21.0831" y2="172.499" gradientUnits="userSpaceOnUse">
<stop stop-color="white" stop-opacity="0.937255"/>
<stop offset="0.995605" stop-color="#444444"/>
</linearGradient>
<linearGradient id="paint19_linear_590_94" x1="120" y1="198.216" x2="120" y2="240.463" gradientUnits="userSpaceOnUse">
<stop stop-color="white" stop-opacity="0.937255"/>
<stop offset="0.995605" stop-color="#444444"/>
</linearGradient>
</defs>
</svg>

