<svg width="334" height="335" viewBox="0 0 334 335" fill="none" xmlns="http://www.w3.org/2000/svg">
<path d="M187.012 198.903C195.368 207.275 205.631 213.691 215.319 215.665C213.349 205.958 206.945 195.676 198.589 187.304C190.234 178.932 179.971 172.516 170.283 170.542C172.253 180.248 178.657 190.531 187.012 198.903ZM216.86 218.819C205.98 217.271 194.308 210.253 184.996 200.923C175.684 191.593 168.68 179.899 167.134 168.997L166.868 167.121L168.741 167.387C179.622 168.935 191.293 175.953 200.606 185.283C209.918 194.613 216.922 206.307 218.467 217.209L218.733 219.086L216.86 218.819Z" fill="url(#paint0_linear_562_86)"/>
<path d="M203.543 175.323C215.359 175.323 227.144 172.589 235.388 167.121C227.144 161.653 215.359 158.919 203.543 158.919C191.726 158.919 179.941 161.653 171.697 167.121C179.941 172.588 191.726 175.323 203.543 175.323ZM238.704 168.259C229.918 174.873 216.712 178.18 203.543 178.18C190.373 178.18 177.167 174.873 168.381 168.259L166.868 167.121L168.381 165.982C177.167 159.368 190.373 156.061 203.543 156.061C216.712 156.061 229.918 159.368 238.704 165.982L240.216 167.121L238.704 168.259Z" fill="url(#paint1_linear_562_86)"/>
<path d="M198.589 146.938C206.945 138.566 213.349 128.283 215.319 118.577C205.631 120.55 195.368 126.967 187.012 135.339C178.657 143.71 172.253 153.993 170.283 163.699C179.971 161.726 190.234 155.309 198.589 146.938ZM218.467 117.032C216.922 127.934 209.918 139.628 200.606 148.958C191.293 158.288 179.622 165.306 168.741 166.854L166.868 167.121L167.134 165.244C168.68 154.342 175.683 142.648 184.996 133.318C194.308 123.988 205.98 116.97 216.86 115.422L218.733 115.156L218.467 117.032Z" fill="url(#paint2_linear_562_86)"/>
<path d="M175.055 130.376C175.055 118.537 172.326 106.728 166.868 98.4692C161.411 106.728 158.682 118.537 158.682 130.376C158.682 142.215 161.411 154.023 166.868 162.283C172.326 154.023 175.055 142.215 175.055 130.376ZM168.005 95.1463C174.606 103.95 177.906 117.181 177.906 130.376C177.906 143.571 174.606 156.801 168.005 165.605L166.868 167.121L165.732 165.605C159.131 156.801 155.831 143.571 155.831 130.376C155.831 117.181 159.131 103.95 165.732 95.1463L166.868 93.6309L168.005 95.1463Z" fill="url(#paint3_linear_562_86)"/>
<path d="M146.724 135.339C138.369 126.967 128.106 120.55 118.418 118.577C120.388 128.283 126.792 138.566 135.147 146.938C143.503 155.309 153.766 161.726 163.454 163.699C161.484 153.993 155.08 143.71 146.724 135.339ZM116.877 115.422C127.757 116.97 139.429 123.988 148.741 133.318C158.053 142.648 165.057 154.342 166.603 165.244L166.868 167.121L164.996 166.854C154.115 165.306 142.443 158.288 133.131 148.958C123.819 139.628 116.815 127.934 115.27 117.032L115.004 115.156L116.877 115.422Z" fill="url(#paint4_linear_562_86)"/>
<path d="M130.194 158.919C118.378 158.919 106.593 161.653 98.3494 167.121C106.593 172.588 118.378 175.322 130.194 175.322C142.011 175.322 153.796 172.588 162.04 167.121C153.796 161.653 142.011 158.919 130.194 158.919ZM95.0329 165.982C103.819 159.368 117.025 156.061 130.194 156.061C143.364 156.061 156.569 159.368 165.356 165.982L166.868 167.121L165.356 168.259C156.569 174.873 143.364 178.18 130.194 178.18C117.025 178.18 103.819 174.873 95.0329 168.259L93.5206 167.121L95.0329 165.982Z" fill="url(#paint5_linear_562_86)"/>
<path d="M135.147 187.304C126.792 195.676 120.388 205.958 118.418 215.665C128.106 213.691 138.369 207.275 146.725 198.903C155.08 190.531 161.484 180.248 163.454 170.542C153.766 172.516 143.503 178.932 135.147 187.304ZM115.27 217.209C116.815 206.307 123.819 194.613 133.131 185.283C142.443 175.953 154.115 168.935 164.996 167.387L166.868 167.121L166.603 168.997C165.057 179.899 158.053 191.593 148.741 200.923C139.429 210.253 127.757 217.271 116.877 218.819L115.004 219.086L115.27 217.209Z" fill="url(#paint6_linear_562_86)"/>
<path d="M158.682 203.865C158.682 215.705 161.411 227.513 166.868 235.772C172.326 227.513 175.055 215.705 175.055 203.865C175.055 192.026 172.326 180.218 166.868 171.959C161.411 180.218 158.682 192.026 158.682 203.865ZM165.732 239.095C159.131 230.291 155.831 217.06 155.831 203.865C155.831 190.671 159.131 177.44 165.732 168.636L166.868 167.121L168.005 168.636C174.606 177.44 177.906 190.671 177.906 203.865C177.906 217.06 174.606 230.291 168.005 239.095L166.868 240.61L165.732 239.095Z" fill="url(#paint7_linear_562_86)"/>
<path fill-rule="evenodd" clip-rule="evenodd" d="M234.201 195.94C234.25 195.994 249.796 212.923 251.823 235.6C253.071 228.243 252.981 220.704 251.552 213.376C249.385 202.267 244.139 191.637 235.814 182.859C236.508 182.024 236.912 181.029 237.026 180.006C246.227 189.35 251.998 200.816 254.34 212.824C256.78 225.335 255.496 238.428 250.488 250.318L250.263 250.85L249.732 251.075C237.865 256.093 224.797 257.38 212.31 254.935C200.325 252.588 188.882 246.806 179.556 237.587C180.576 237.473 181.57 237.069 182.404 236.373C191.165 244.714 201.774 249.97 212.862 252.141C220.175 253.573 227.7 253.664 235.042 252.413C212.409 250.382 195.513 234.806 195.459 234.757L196.417 233.704C196.473 233.755 215.791 251.561 240.607 251.198L240.629 251.192C233.683 250.011 227.554 247.375 222.399 244.272C210.922 237.364 204.2 227.984 204.037 227.319L205.419 226.975C205.569 227.585 212.007 236.354 223.135 243.052C228.904 246.525 235.917 249.397 243.936 250.205C245.334 249.745 246.719 249.233 248.087 248.67C248.65 247.299 249.16 245.911 249.62 244.511C248.813 236.476 245.946 229.45 242.481 223.67C235.795 212.52 227.043 206.07 226.434 205.92L226.777 204.535C227.44 204.698 236.803 211.433 243.698 222.932C246.795 228.097 249.426 234.237 250.605 241.197L250.611 241.175C250.972 216.312 233.201 196.956 233.15 196.899L234.201 195.94Z" fill="url(#paint8_linear_562_86)"/>
<path fill-rule="evenodd" clip-rule="evenodd" d="M195.511 99.5881C195.565 99.5396 212.461 83.9636 235.094 81.9323C227.752 80.6819 220.227 80.7724 212.914 82.2045C201.826 84.3755 191.217 89.6312 182.456 97.9729C181.622 97.277 180.628 96.8722 179.608 96.7585C188.934 87.5395 200.377 81.7571 212.362 79.4105C224.849 76.9656 237.918 78.2525 249.784 83.2703L250.316 83.4951L250.54 84.0279C255.548 95.9172 256.832 109.011 254.392 121.522C252.05 133.53 246.279 144.995 237.078 154.339C236.964 153.317 236.56 152.321 235.866 151.486C244.191 142.708 249.437 132.079 251.604 120.969C253.033 113.642 253.123 106.103 251.875 98.7456C249.848 121.423 234.302 138.351 234.253 138.405L233.202 137.446C233.253 137.389 251.024 118.034 250.662 93.1707L250.656 93.1483C249.478 100.108 246.846 106.249 243.749 111.414C236.855 122.913 227.492 129.647 226.829 129.811L226.486 128.426C227.095 128.276 235.847 121.826 242.532 110.676C245.998 104.896 248.864 97.8694 249.671 89.8348C249.212 88.4342 248.702 87.0467 248.139 85.6754C246.77 85.1119 245.386 84.6004 243.988 84.1401C235.969 84.9488 228.956 87.8205 223.187 91.2931C212.058 97.9912 205.621 106.76 205.471 107.37L204.089 107.027C204.252 106.362 210.974 96.9813 222.45 90.0735C227.606 86.9707 233.734 84.3343 240.681 83.1532L240.658 83.1472C215.843 82.7848 196.525 100.59 196.468 100.642L195.511 99.5881ZM215.698 71.8543C215.698 71.2598 215.472 70.6653 215.019 70.2115C214.566 69.7576 213.973 69.5308 213.379 69.5308C212.786 69.5308 212.192 69.7578 211.74 70.2115C211.287 70.6653 211.06 71.2598 211.06 71.8543C211.06 72.4488 211.287 73.0437 211.74 73.4974C212.192 73.9512 212.786 74.178 213.379 74.178C213.973 74.178 214.566 73.9512 215.019 73.4974C215.472 73.0437 215.698 72.4488 215.698 71.8543Z" fill="url(#paint9_linear_562_86)"/>
<path fill-rule="evenodd" clip-rule="evenodd" d="M99.3962 138.405C99.3476 138.351 83.8016 121.423 81.7742 98.7456C80.5262 106.103 80.6165 113.642 82.0459 120.969C84.2127 132.079 89.4583 142.708 97.7841 151.486C97.0892 152.321 96.6853 153.317 96.572 154.339C87.3706 144.995 81.5995 133.53 79.2575 121.522C76.8172 109.011 78.1017 95.9172 83.1099 84.0279L83.3342 83.4951L83.8659 83.2704C95.7322 78.2527 108.801 76.9656 121.288 79.4105C133.272 81.7569 144.716 87.5395 154.042 96.7585C153.022 96.872 152.027 97.2768 151.194 97.9729C142.433 89.6312 131.824 84.3755 120.736 82.2045C113.423 80.7725 105.898 80.682 98.5554 81.9323C121.189 83.9636 138.085 99.5396 138.138 99.5881L137.181 100.642C137.125 100.59 117.806 82.7852 92.9911 83.1474L92.9686 83.1533C99.9151 84.3343 106.044 86.9709 111.199 90.0737C122.676 96.9815 129.397 106.362 129.56 107.027L128.178 107.37C128.029 106.76 121.591 97.9914 110.462 91.2932C104.693 87.8208 97.6806 84.9489 89.6616 84.1403C88.2636 84.6005 86.879 85.1121 85.5103 85.6756C84.9479 87.0467 84.4373 88.4343 83.9779 89.8349C84.785 97.8695 87.6513 104.896 91.117 110.676C97.8022 121.826 106.555 128.276 107.163 128.426L106.821 129.811C106.157 129.648 96.7944 122.913 89.9002 111.414C86.8031 106.249 84.1718 100.108 82.9931 93.1485L82.9871 93.1708C82.6255 118.034 100.396 137.389 100.448 137.446L99.3962 138.405Z" fill="url(#paint10_linear_562_86)"/>
<path fill-rule="evenodd" clip-rule="evenodd" d="M138.138 234.706C138.085 234.755 121.189 250.331 98.5554 252.362C105.898 253.612 113.423 253.522 120.736 252.09C131.824 249.919 142.433 244.663 151.194 236.321C152.027 237.017 153.022 237.422 154.042 237.535C144.716 246.754 133.272 252.537 121.288 254.883C108.801 257.328 95.7322 256.041 83.8659 251.024L83.3342 250.799L83.1099 250.266C78.1017 238.377 76.8174 225.283 79.2575 212.772C81.5995 200.764 87.3706 189.298 96.572 179.955C96.6853 180.977 97.0893 181.973 97.7841 182.808C89.4583 191.586 84.2127 202.215 82.0459 213.325C80.6167 220.652 80.5264 228.191 81.7742 235.548C83.8016 212.871 99.3476 195.942 99.3962 195.889L100.448 196.848C100.396 196.904 82.6254 216.26 82.9871 241.123L82.9931 241.145C84.1718 234.186 86.8031 228.045 89.9002 222.88C96.7944 211.381 106.157 204.646 106.821 204.483L107.163 205.868C106.554 206.018 97.8024 212.468 91.117 223.618C87.6513 229.398 84.785 236.424 83.9779 244.459C84.4373 245.86 84.9477 247.247 85.5103 248.618C86.8791 249.182 88.2636 249.693 89.6616 250.154C97.6806 249.345 104.693 246.473 110.462 243.001C121.591 236.303 128.029 227.533 128.178 226.924L129.56 227.267C129.397 227.932 122.676 237.312 111.199 244.22C106.044 247.323 99.9151 249.959 92.9686 251.14L92.9911 251.146C117.806 251.509 137.125 233.703 137.181 233.652L138.138 234.706Z" fill="url(#paint11_linear_562_86)"/>
<defs>
<linearGradient id="paint0_linear_562_86" x1="192.801" y1="167.121" x2="192.801" y2="219.086" gradientUnits="userSpaceOnUse">
<stop stop-color="#F3927A"/>
<stop offset="0.995605" stop-color="#218887"/>
</linearGradient>
<linearGradient id="paint1_linear_562_86" x1="203.542" y1="156.061" x2="203.542" y2="178.18" gradientUnits="userSpaceOnUse">
<stop stop-color="#F3927A"/>
<stop offset="0.995605" stop-color="#218887"/>
</linearGradient>
<linearGradient id="paint2_linear_562_86" x1="192.801" y1="115.156" x2="192.801" y2="167.121" gradientUnits="userSpaceOnUse">
<stop stop-color="#F3927A"/>
<stop offset="0.995605" stop-color="#218887"/>
</linearGradient>
<linearGradient id="paint3_linear_562_86" x1="166.868" y1="93.6309" x2="166.868" y2="167.121" gradientUnits="userSpaceOnUse">
<stop stop-color="#F3927A"/>
<stop offset="0.995605" stop-color="#218887"/>
</linearGradient>
<linearGradient id="paint4_linear_562_86" x1="140.936" y1="115.156" x2="140.936" y2="167.121" gradientUnits="userSpaceOnUse">
<stop stop-color="#F3927A"/>
<stop offset="0.995605" stop-color="#218887"/>
</linearGradient>
<linearGradient id="paint5_linear_562_86" x1="130.195" y1="156.061" x2="130.195" y2="178.18" gradientUnits="userSpaceOnUse">
<stop stop-color="#F3927A"/>
<stop offset="0.995605" stop-color="#218887"/>
</linearGradient>
<linearGradient id="paint6_linear_562_86" x1="140.936" y1="167.121" x2="140.936" y2="219.086" gradientUnits="userSpaceOnUse">
<stop stop-color="#F3927A"/>
<stop offset="0.995605" stop-color="#218887"/>
</linearGradient>
<linearGradient id="paint7_linear_562_86" x1="166.868" y1="167.121" x2="166.868" y2="240.61" gradientUnits="userSpaceOnUse">
<stop stop-color="#F3927A"/>
<stop offset="0.995605" stop-color="#218887"/>
</linearGradient>
<linearGradient id="paint8_linear_562_86" x1="223.336" y1="170.477" x2="223.336" y2="277.264" gradientUnits="userSpaceOnUse">
<stop stop-color="#F3927A"/>
<stop offset="0.995605" stop-color="#218887"/>
</linearGradient>
<linearGradient id="paint9_linear_562_86" x1="223.388" y1="57.0815" x2="223.388" y2="163.868" gradientUnits="userSpaceOnUse">
<stop stop-color="#F3927A"/>
<stop offset="0.995605" stop-color="#218887"/>
</linearGradient>
<linearGradient id="paint10_linear_562_86" x1="110.262" y1="57.0815" x2="110.262" y2="163.868" gradientUnits="userSpaceOnUse">
<stop stop-color="#F3927A"/>
<stop offset="0.995605" stop-color="#218887"/>
</linearGradient>
<linearGradient id="paint11_linear_562_86" x1="110.262" y1="170.426" x2="110.262" y2="277.213" gradientUnits="userSpaceOnUse">
<stop stop-color="#F3927A"/>
<stop offset="0.995605" stop-color="#218887"/>
</linearGradient>
<linearGradient id="paint12_linear_562_86" x1="275.524" y1="145.613" x2="275.524" y2="188.681" gradientUnits="userSpaceOnUse">
<stop stop-color="#F3927A"/>
<stop offset="0.995605" stop-color="#218887"/>
</linearGradient>
<linearGradient id="paint13_linear_562_86" x1="166.825" y1="20.6606" x2="166.825" y2="95.8166" gradientUnits="userSpaceOnUse">
<stop stop-color="#F3927A"/>
<stop offset="0.995605" stop-color="#218887"/>
</linearGradient>
<linearGradient id="paint14_linear_562_86" x1="58.1259" y1="145.614" x2="58.1259" y2="188.681" gradientUnits="userSpaceOnUse">
<stop stop-color="#F3927A"/>
<stop offset="0.995605" stop-color="#218887"/>
</linearGradient>
<linearGradient id="paint15_linear_562_86" x1="166.825" y1="238.478" x2="166.825" y2="313.634" gradientUnits="userSpaceOnUse">
<stop stop-color="#F3927A"/>
<stop offset="0.995605" stop-color="#218887"/>
</linearGradient>
<linearGradient id="paint16_linear_562_86" x1="304.34" y1="94.4854" x2="304.34" y2="239.809" gradientUnits="userSpaceOnUse">
<stop stop-color="#F3927A"/>
<stop offset="0.995605" stop-color="#218887"/>
</linearGradient>
<linearGradient id="paint17_linear_562_86" x1="166.825" y1="0" x2="166.825" y2="58.7331" gradientUnits="userSpaceOnUse">
<stop stop-color="#F3927A"/>
<stop offset="0.995605" stop-color="#218887"/>
</linearGradient>
<linearGradient id="paint18_linear_562_86" x1="29.3099" y1="94.4854" x2="29.3099" y2="239.809" gradientUnits="userSpaceOnUse">
<stop stop-color="#F3927A"/>
<stop offset="0.995605" stop-color="#218887"/>
</linearGradient>
<linearGradient id="paint19_linear_562_86" x1="166.825" y1="275.561" x2="166.825" y2="334.294" gradientUnits="userSpaceOnUse">
<stop stop-color="#F3927A"/>
<stop offset="0.995605" stop-color="#218887"/>
</linearGradient>
</defs>
</svg>

