<svg width="197" height="41" viewBox="0 0 197 41" fill="none" xmlns="http://www.w3.org/2000/svg">
<path d="M19.819 9.856L19.841 14.19H18.719L18.763 9.922V7.568H10.513V9.856L10.557 14.19H9.41299L9.45699 9.922L9.41299 0.132001H10.557L10.535 6.578H18.741L18.719 0.132001H19.863L19.819 9.856ZM34.6236 14.19H33.4356L33.1276 13.002L32.0716 9.966L28.7276 9.922L25.7136 9.966L24.5696 12.958L24.2396 14.19H23.0516L28.4196 0.132001H29.7176L34.6236 14.19ZM31.7196 8.954L29.1016 1.452H28.9696L26.1096 8.954L28.8596 8.976L31.7196 8.954ZM44.7593 9.856L44.8033 14.19H43.6593L43.7033 9.922V7.722H43.5493C42.4933 8.71934 41.3199 9.29134 40.0293 9.438C38.6946 9.438 37.7119 9.14467 37.0813 8.558C36.4506 7.97134 36.1353 7.05467 36.1353 5.808L36.1133 0.132001H37.2573L37.2353 5.522C37.2353 6.46067 37.4626 7.17934 37.9173 7.678C38.3866 8.162 39.0539 8.404 39.9193 8.404C41.2539 8.404 42.5079 7.77334 43.6813 6.512L43.6593 0.132001H44.8253L44.7593 9.856ZM60.4245 9.856L60.4465 14.19H59.3245L59.3685 9.922V7.568H51.1185V9.856L51.1625 14.19H50.0185L50.0625 9.922L50.0185 0.132001H51.1625L51.1405 6.578H59.3465L59.3245 0.132001H60.4685L60.4245 9.856ZM65.7031 9.922L65.6591 0.176002L66.8031 0.110001L66.7371 12.276H66.8911L74.8771 0.132001H76.0651L76.0211 9.856L76.0431 14.19H74.8991L74.9431 9.922V2.046H74.8111L66.8031 14.19H65.6591L65.7031 9.922ZM89.9445 0.0220013C90.6632 0.0220013 91.3525 0.124668 92.0125 0.330001C92.6725 0.520668 93.2665 0.806668 93.7945 1.188L93.5525 2.222L93.3765 2.244C92.3498 1.42267 91.1912 1.012 89.9005 1.012C88.3312 1.012 87.1285 1.54 86.2925 2.596C85.4712 3.652 85.0605 5.17734 85.0605 7.172C85.0605 9.16667 85.4638 10.692 86.2705 11.748C87.0772 12.7893 88.2358 13.31 89.7465 13.31C90.4212 13.31 91.0885 13.1927 91.7485 12.958C92.4085 12.7087 93.0245 12.364 93.5965 11.924L93.7725 11.99L93.6845 13.068C92.4232 13.904 91.0885 14.322 89.6805 14.322C87.8325 14.322 86.4025 13.7133 85.3905 12.496C84.3932 11.264 83.8945 9.51134 83.8945 7.238C83.8945 4.93534 84.4152 3.16067 85.4565 1.914C86.5125 0.652668 88.0085 0.0220013 89.9445 0.0220013ZM104.98 13.288L104.87 14.19H97.456L97.522 9.922L97.456 0.132001H104.848L104.936 0.264002L104.804 1.166L101.526 1.122L98.622 1.144L98.578 6.446L101.328 6.468L103.682 6.446L103.77 6.556L103.66 7.458L98.578 7.436L98.556 9.856L98.6 13.2L101.438 13.222L104.892 13.156L104.98 13.288ZM115.621 0.264002L115.511 1.122L109.923 1.1L109.879 9.856L109.901 14.19H108.757L108.801 9.922L108.757 0.132001H115.533L115.621 0.264002ZM122.216 1.54972e-06C124.108 1.54972e-06 125.56 0.601335 126.572 1.804C127.584 2.992 128.09 4.69334 128.09 6.908C128.09 9.29867 127.555 11.132 126.484 12.408C125.413 13.684 123.888 14.322 121.908 14.322C120.045 14.322 118.608 13.7133 117.596 12.496C116.584 11.264 116.078 9.51134 116.078 7.238C116.078 4.92067 116.606 3.13867 117.662 1.892C118.733 0.630668 120.251 1.54972e-06 122.216 1.54972e-06ZM122.15 0.968002C120.537 0.968002 119.312 1.48867 118.476 2.53C117.64 3.57134 117.222 5.104 117.222 7.128C117.222 9.196 117.625 10.758 118.432 11.814C119.239 12.87 120.427 13.398 121.996 13.398C123.609 13.398 124.834 12.8627 125.67 11.792C126.506 10.7213 126.924 9.152 126.924 7.084C126.924 5.06 126.521 3.53467 125.714 2.508C124.907 1.48134 123.719 0.968002 122.15 0.968002ZM141.866 16.72L140.942 16.852L140.788 14.19H130.536L130.404 16.72L129.48 16.852V13.2H130.69C131.262 12.8187 131.724 12.2393 132.076 11.462C132.428 10.67 132.714 9.56267 132.934 8.14C133.168 6.70267 133.381 4.752 133.572 2.288L133.748 0.132001H139.952L139.93 9.856L139.952 13.2H141.866V16.72ZM138.852 9.922L138.83 1.078H134.716L134.606 2.464C134.43 4.69334 134.224 6.512 133.99 7.92C133.77 9.31334 133.491 10.4353 133.154 11.286C132.831 12.122 132.42 12.76 131.922 13.2H138.83L138.852 9.922ZM156.008 9.856L156.03 14.19H154.908L154.952 9.922V7.568H146.702V9.856L146.746 14.19H145.602L145.646 9.922L145.602 0.132001H146.746L146.724 6.578H154.93L154.908 0.132001H156.052L156.008 9.856ZM168.305 9.922L168.349 14.19H167.205L167.249 9.856V8.69H164.499C163.399 10.5967 162.196 12.4593 160.891 14.278L160.693 14.366C160.268 14.2927 159.938 14.1973 159.703 14.08V13.926C161.214 12.0047 162.497 10.186 163.553 8.47C162.556 8.13267 161.793 7.61934 161.265 6.93C160.737 6.24067 160.473 5.39 160.473 4.378C160.473 3.08734 160.876 2.05334 161.683 1.276C162.504 0.484002 163.59 0.0880017 164.939 0.0880017L168.349 0.132001L168.305 9.922ZM167.249 7.678L167.205 1.122L164.895 1.078C163.912 1.09267 163.128 1.39334 162.541 1.98C161.954 2.56667 161.661 3.366 161.661 4.378C161.661 5.28734 161.896 6.028 162.365 6.6C162.834 7.15734 163.516 7.53134 164.411 7.722L167.249 7.678ZM177.357 9.922L177.313 0.176002L178.457 0.110001L178.391 12.276H178.545L186.531 0.132001H187.719L187.675 9.856L187.697 14.19H186.553L186.597 9.922V2.046H186.465L178.457 14.19H177.313L177.357 9.922ZM5.52199 32.82C6.48999 33.0253 7.23066 33.4287 7.74399 34.03C8.25733 34.6167 8.51399 35.3647 8.51399 36.274C8.51399 37.0807 8.30866 37.7993 7.89799 38.43C7.50199 39.046 6.93733 39.5227 6.20399 39.86C5.47066 40.1973 4.63466 40.366 3.69599 40.366C2.97733 40.366 2.29533 40.256 1.64999 40.036C1.00466 39.816 0.454661 39.5153 -6.08712e-06 39.134L0.263994 38.144L0.395994 38.1C0.806661 38.496 1.29799 38.804 1.86999 39.024C2.45666 39.244 3.05799 39.354 3.67399 39.354C4.75933 39.354 5.64666 39.068 6.33599 38.496C7.02533 37.9093 7.36999 37.154 7.36999 36.23C7.36999 35.4673 7.12066 34.8367 6.62199 34.338C6.13799 33.8247 5.45599 33.502 4.57599 33.37H1.91399L1.78199 33.26L1.84799 32.446H4.53199C5.14799 32.226 5.64666 31.8447 6.02799 31.302C6.40933 30.7447 6.59999 30.1287 6.59999 29.454C6.59999 28.706 6.35066 28.1193 5.85199 27.694C5.35333 27.2687 4.66399 27.056 3.78399 27.056C2.50799 27.056 1.33466 27.496 0.263994 28.376L0.065994 28.31L0.153994 27.276C0.696661 26.8653 1.28333 26.5573 1.91399 26.352C2.55933 26.132 3.20466 26.022 3.84999 26.022C5.02333 26.022 5.96933 26.3227 6.68799 26.924C7.40666 27.5253 7.76599 28.3173 7.76599 29.3C7.76599 30.048 7.56799 30.7447 7.17199 31.39C6.77599 32.0207 6.22599 32.4973 5.52199 32.82ZM22.1304 40.19H20.9424L20.6344 39.002L19.5784 35.966L16.2344 35.922L13.2204 35.966L12.0764 38.958L11.7464 40.19H10.5584L15.9264 26.132H17.2244L22.1304 40.19ZM19.2264 34.954L16.6084 27.452H16.4764L13.6164 34.954L16.3664 34.976L19.2264 34.954ZM30.4691 32.842C31.4665 33.0033 32.2291 33.3773 32.7571 33.964C33.2998 34.536 33.5711 35.3133 33.5711 36.296C33.5711 37.572 33.1091 38.5547 32.1851 39.244C31.2611 39.9187 29.9191 40.256 28.1591 40.256C27.1325 40.256 26.2011 40.234 25.3651 40.19L25.4311 35.922L25.3651 26.132L28.7091 26.11C29.9411 26.11 30.8945 26.396 31.5691 26.968C32.2438 27.54 32.5811 28.3613 32.5811 29.432C32.5811 30.2827 32.3978 30.994 32.0311 31.566C31.6645 32.138 31.1438 32.5633 30.4691 32.842ZM31.4151 29.542C31.4151 28.7353 31.1731 28.1267 30.6891 27.716C30.2198 27.2907 29.5231 27.078 28.5991 27.078H26.5311L26.4871 32.446L29.1271 32.49C29.8751 32.3287 30.4398 32.006 30.8211 31.522C31.2171 31.0233 31.4151 30.3633 31.4151 29.542ZM28.2471 39.288C29.5818 39.288 30.6085 39.024 31.3271 38.496C32.0605 37.968 32.4271 37.2127 32.4271 36.23C32.4271 35.4087 32.1631 34.7633 31.6351 34.294C31.1071 33.8247 30.3445 33.5387 29.3471 33.436L26.4871 33.458L26.4651 35.856L26.5091 39.222C27.0811 39.266 27.6605 39.288 28.2471 39.288ZM44.7413 26.264L44.6313 27.144L42.2773 27.078H40.5613L40.4953 35.856L40.5393 40.19H39.3953L39.4613 35.922L39.3953 27.078H37.6793L35.2813 27.144L35.1933 27.012L35.3033 26.132H44.6313L44.7413 26.264ZM51.3415 26.11C52.6761 26.11 53.7028 26.462 54.4215 27.166C55.1401 27.8553 55.4995 28.8453 55.4995 30.136C55.4995 31.6613 55.0595 32.8567 54.1795 33.722C53.3141 34.5727 52.0895 34.998 50.5055 34.998H48.7015V35.856L48.7455 40.19H47.6015L47.6675 35.922L47.6015 26.132L51.3415 26.11ZM51.1655 34.03C52.1921 33.898 52.9768 33.502 53.5195 32.842C54.0621 32.182 54.3335 31.3093 54.3335 30.224C54.3335 29.212 54.0621 28.442 53.5195 27.914C52.9915 27.386 52.2215 27.1073 51.2095 27.078L48.7675 27.122L48.7235 33.986L51.1655 34.03ZM67.5699 40.19H66.3819L66.0739 39.002L65.0179 35.966L61.6739 35.922L58.6599 35.966L57.5159 38.958L57.1859 40.19H55.9979L61.3659 26.132H62.6639L67.5699 40.19ZM64.6659 34.954L62.0479 27.452H61.9159L59.0559 34.954L61.8059 34.976L64.6659 34.954ZM74.6298 35.922L74.5858 26.176L75.7298 26.11L75.6638 38.276H75.8178L83.8038 26.132H84.9918L84.9478 35.856L84.9698 40.19H83.8258L83.8698 35.922V28.046H83.7378L75.7298 40.19H74.5858L74.6298 35.922ZM94.188 32.82C95.156 33.0253 95.8967 33.4287 96.41 34.03C96.9233 34.6167 97.18 35.3647 97.18 36.274C97.18 37.0807 96.9747 37.7993 96.564 38.43C96.168 39.046 95.6033 39.5227 94.87 39.86C94.1367 40.1973 93.3007 40.366 92.362 40.366C91.6433 40.366 90.9613 40.256 90.316 40.036C89.6707 39.816 89.1207 39.5153 88.666 39.134L88.93 38.144L89.062 38.1C89.4727 38.496 89.964 38.804 90.536 39.024C91.1227 39.244 91.724 39.354 92.34 39.354C93.4253 39.354 94.3127 39.068 95.002 38.496C95.6913 37.9093 96.036 37.154 96.036 36.23C96.036 35.4673 95.7867 34.8367 95.288 34.338C94.804 33.8247 94.122 33.502 93.242 33.37H90.58L90.448 33.26L90.514 32.446H93.198C93.814 32.226 94.3127 31.8447 94.694 31.302C95.0753 30.7447 95.266 30.1287 95.266 29.454C95.266 28.706 95.0167 28.1193 94.518 27.694C94.0193 27.2687 93.33 27.056 92.45 27.056C91.174 27.056 90.0007 27.496 88.93 28.376L88.732 28.31L88.82 27.276C89.3627 26.8653 89.9493 26.5573 90.58 26.352C91.2253 26.132 91.8707 26.022 92.516 26.022C93.6893 26.022 94.6353 26.3227 95.354 26.924C96.0727 27.5253 96.432 28.3173 96.432 29.3C96.432 30.048 96.234 30.7447 95.838 31.39C95.442 32.0207 94.892 32.4973 94.188 32.82ZM114.8 40.19H113.744L113.37 35.9L112.512 28.112H112.38L108.09 38.496H107.056L102.92 28.112H102.788L101.93 35.834L101.512 40.19H100.5L102.018 26.132H103.316L104.108 28.288L107.562 36.978H107.672L111.324 28.112L112.072 26.132H113.37L114.8 40.19ZM126.819 39.288L126.709 40.19H119.295L119.361 35.922L119.295 26.132H126.687L126.775 26.264L126.643 27.166L123.365 27.122L120.461 27.144L120.417 32.446L123.167 32.468L125.521 32.446L125.609 32.556L125.499 33.458L120.417 33.436L120.395 35.856L120.439 39.2L123.277 39.222L126.731 39.156L126.819 39.288ZM141.002 35.856L141.024 40.19H139.902L139.946 35.922V33.568H131.696V35.856L131.74 40.19H130.596L130.64 35.922L130.596 26.132H131.74L131.718 32.578H139.924L139.902 26.132H141.046L141.002 35.856ZM146.28 35.922L146.236 26.176L147.38 26.11L147.314 38.276H147.468L155.454 26.132H156.642L156.598 35.856L156.62 40.19H155.476L155.52 35.922V28.046H155.388L147.38 40.19H146.236L146.28 35.922ZM168.663 26.264L168.553 27.144L166.199 27.078H164.483L164.417 35.856L164.461 40.19H163.317L163.383 35.922L163.317 27.078H161.601L159.203 27.144L159.115 27.012L159.225 26.132H168.553L168.663 26.264ZM175.463 26.022C176.182 26.022 176.871 26.1247 177.531 26.33C178.191 26.5207 178.785 26.8067 179.313 27.188L179.071 28.222L178.895 28.244C177.868 27.4227 176.71 27.012 175.419 27.012C173.85 27.012 172.647 27.54 171.811 28.596C170.99 29.652 170.579 31.1773 170.579 33.172C170.579 35.1667 170.982 36.692 171.789 37.748C172.596 38.7893 173.754 39.31 175.265 39.31C175.94 39.31 176.607 39.1927 177.267 38.958C177.927 38.7087 178.543 38.364 179.115 37.924L179.291 37.99L179.203 39.068C177.942 39.904 176.607 40.322 175.199 40.322C173.351 40.322 171.921 39.7133 170.909 38.496C169.912 37.264 169.413 35.5113 169.413 33.238C169.413 30.9353 169.934 29.1607 170.975 27.914C172.031 26.6527 173.527 26.022 175.463 26.022ZM190.037 35.922L190.081 40.19H188.937L188.981 35.856V34.69H186.231C185.131 36.5967 183.928 38.4593 182.623 40.278L182.425 40.366C181.999 40.2927 181.669 40.1973 181.435 40.08V39.926C182.945 38.0047 184.229 36.186 185.285 34.47C184.287 34.1327 183.525 33.6193 182.997 32.93C182.469 32.2407 182.205 31.39 182.205 30.378C182.205 29.0873 182.608 28.0533 183.415 27.276C184.236 26.484 185.321 26.088 186.671 26.088L190.081 26.132L190.037 35.922ZM188.981 33.678L188.937 27.122L186.627 27.078C185.644 27.0927 184.859 27.3933 184.273 27.98C183.686 28.5667 183.393 29.366 183.393 30.378C183.393 31.2873 183.627 32.028 184.097 32.6C184.566 33.1573 185.248 33.5313 186.143 33.722L188.981 33.678ZM196.188 25.868L195.858 35.592L195.132 35.658L195 35.504L195.066 25.912L195.198 25.78L196.056 25.736L196.188 25.868ZM195.242 38.76C195.476 38.76 195.652 38.826 195.77 38.958C195.902 39.09 195.968 39.266 195.968 39.486C195.968 39.7207 195.902 39.9113 195.77 40.058C195.638 40.19 195.454 40.256 195.22 40.256C194.985 40.256 194.802 40.1973 194.67 40.08C194.552 39.948 194.494 39.7647 194.494 39.53C194.494 39.2953 194.56 39.112 194.692 38.98C194.824 38.8333 195.007 38.76 195.242 38.76Z" fill="white"/>
</svg>

