<svg width="334" height="335" viewBox="0 0 334 335" fill="none" xmlns="http://www.w3.org/2000/svg">
<path d="M187.012 198.903C195.368 207.275 205.631 213.691 215.319 215.665C213.349 205.958 206.945 195.676 198.589 187.304C190.234 178.932 179.971 172.516 170.283 170.542C172.253 180.248 178.657 190.531 187.012 198.903ZM216.86 218.819C205.98 217.271 194.308 210.253 184.996 200.923C175.684 191.593 168.68 179.899 167.134 168.997L166.868 167.121L168.741 167.387C179.622 168.935 191.293 175.953 200.606 185.283C209.918 194.613 216.922 206.307 218.467 217.209L218.733 219.086L216.86 218.819Z" fill="url(#paint0_linear_562_86)"/>
<path d="M203.543 175.323C215.359 175.323 227.144 172.589 235.388 167.121C227.144 161.653 215.359 158.919 203.543 158.919C191.726 158.919 179.941 161.653 171.697 167.121C179.941 172.588 191.726 175.323 203.543 175.323ZM238.704 168.259C229.918 174.873 216.712 178.18 203.543 178.18C190.373 178.18 177.167 174.873 168.381 168.259L166.868 167.121L168.381 165.982C177.167 159.368 190.373 156.061 203.543 156.061C216.712 156.061 229.918 159.368 238.704 165.982L240.216 167.121L238.704 168.259Z" fill="url(#paint1_linear_562_86)"/>
<path d="M198.589 146.938C206.945 138.566 213.349 128.283 215.319 118.577C205.631 120.55 195.368 126.967 187.012 135.339C178.657 143.71 172.253 153.993 170.283 163.699C179.971 161.726 190.234 155.309 198.589 146.938ZM218.467 117.032C216.922 127.934 209.918 139.628 200.606 148.958C191.293 158.288 179.622 165.306 168.741 166.854L166.868 167.121L167.134 165.244C168.68 154.342 175.683 142.648 184.996 133.318C194.308 123.988 205.98 116.97 216.86 115.422L218.733 115.156L218.467 117.032Z" fill="url(#paint2_linear_562_86)"/>
<path d="M175.055 130.376C175.055 118.537 172.326 106.728 166.868 98.4692C161.411 106.728 158.682 118.537 158.682 130.376C158.682 142.215 161.411 154.023 166.868 162.283C172.326 154.023 175.055 142.215 175.055 130.376ZM168.005 95.1463C174.606 103.95 177.906 117.181 177.906 130.376C177.906 143.571 174.606 156.801 168.005 165.605L166.868 167.121L165.732 165.605C159.131 156.801 155.831 143.571 155.831 130.376C155.831 117.181 159.131 103.95 165.732 95.1463L166.868 93.6309L168.005 95.1463Z" fill="url(#paint3_linear_562_86)"/>
<path d="M146.724 135.339C138.369 126.967 128.106 120.55 118.418 118.577C120.388 128.283 126.792 138.566 135.147 146.938C143.503 155.309 153.766 161.726 163.454 163.699C161.484 153.993 155.08 143.71 146.724 135.339ZM116.877 115.422C127.757 116.97 139.429 123.988 148.741 133.318C158.053 142.648 165.057 154.342 166.603 165.244L166.868 167.121L164.996 166.854C154.115 165.306 142.443 158.288 133.131 148.958C123.819 139.628 116.815 127.934 115.27 117.032L115.004 115.156L116.877 115.422Z" fill="url(#paint4_linear_562_86)"/>
<path d="M130.194 158.919C118.378 158.919 106.593 161.653 98.3494 167.121C106.593 172.588 118.378 175.322 130.194 175.322C142.011 175.322 153.796 172.588 162.04 167.121C153.796 161.653 142.011 158.919 130.194 158.919ZM95.0329 165.982C103.819 159.368 117.025 156.061 130.194 156.061C143.364 156.061 156.569 159.368 165.356 165.982L166.868 167.121L165.356 168.259C156.569 174.873 143.364 178.18 130.194 178.18C117.025 178.18 103.819 174.873 95.0329 168.259L93.5206 167.121L95.0329 165.982Z" fill="url(#paint5_linear_562_86)"/>
<path d="M135.147 187.304C126.792 195.676 120.388 205.958 118.418 215.665C128.106 213.691 138.369 207.275 146.725 198.903C155.08 190.531 161.484 180.248 163.454 170.542C153.766 172.516 143.503 178.932 135.147 187.304ZM115.27 217.209C116.815 206.307 123.819 194.613 133.131 185.283C142.443 175.953 154.115 168.935 164.996 167.387L166.868 167.121L166.603 168.997C165.057 179.899 158.053 191.593 148.741 200.923C139.429 210.253 127.757 217.271 116.877 218.819L115.004 219.086L115.27 217.209Z" fill="url(#paint6_linear_562_86)"/>
<path d="M158.682 203.865C158.682 215.705 161.411 227.513 166.868 235.772C172.326 227.513 175.055 215.705 175.055 203.865C175.055 192.026 172.326 180.218 166.868 171.959C161.411 180.218 158.682 192.026 158.682 203.865ZM165.732 239.095C159.131 230.291 155.831 217.06 155.831 203.865C155.831 190.671 159.131 177.44 165.732 168.636L166.868 167.121L168.005 168.636C174.606 177.44 177.906 190.671 177.906 203.865C177.906 217.06 174.606 230.291 168.005 239.095L166.868 240.61L165.732 239.095Z" fill="url(#paint7_linear_562_86)"/>
<path fill-rule="evenodd" clip-rule="evenodd" d="M234.201 195.94C234.25 195.994 249.796 212.923 251.823 235.6C253.071 228.243 252.981 220.704 251.552 213.376C249.385 202.267 244.139 191.637 235.814 182.859C236.508 182.024 236.912 181.029 237.026 180.006C246.227 189.35 251.998 200.816 254.34 212.824C256.78 225.335 255.496 238.428 250.488 250.318L250.263 250.85L249.732 251.075C237.865 256.093 224.797 257.38 212.31 254.935C200.325 252.588 188.882 246.806 179.556 237.587C180.576 237.473 181.57 237.069 182.404 236.373C191.165 244.714 201.774 249.97 212.862 252.141C220.175 253.573 227.7 253.664 235.042 252.413C212.409 250.382 195.513 234.806 195.459 234.757L196.417 233.704C196.473 233.755 215.791 251.561 240.607 251.198L240.629 251.192C233.683 250.011 227.554 247.375 222.399 244.272C210.922 237.364 204.2 227.984 204.037 227.319L205.419 226.975C205.569 227.585 212.007 236.354 223.135 243.052C228.904 246.525 235.917 249.397 243.936 250.205C245.334 249.745 246.719 249.233 248.087 248.67C248.65 247.299 249.16 245.911 249.62 244.511C248.813 236.476 245.946 229.45 242.481 223.67C235.795 212.52 227.043 206.07 226.434 205.92L226.777 204.535C227.44 204.698 236.803 211.433 243.698 222.932C246.795 228.097 249.426 234.237 250.605 241.197L250.611 241.175C250.972 216.312 233.201 196.956 233.15 196.899L234.201 195.94ZM261.882 216.166C262.475 216.166 263.069 215.939 263.522 215.486C263.974 215.032 264.201 214.437 264.201 213.843C264.201 213.248 263.974 212.653 263.522 212.2C263.069 211.746 262.475 211.519 261.882 211.519C261.288 211.519 260.695 211.746 260.242 212.2C259.789 212.653 259.563 213.248 259.563 213.843C259.563 214.437 259.789 215.032 260.242 215.486C260.695 215.939 261.288 216.166 261.882 216.166ZM264.866 216.833C264.042 217.658 262.962 218.071 261.882 218.071C260.802 218.071 259.721 217.658 258.897 216.833C258.074 216.007 257.661 214.925 257.662 213.843C257.661 212.761 258.074 211.678 258.897 210.853C259.721 210.027 260.802 209.614 261.882 209.614C262.962 209.614 264.042 210.027 264.866 210.853C265.69 211.678 266.102 212.761 266.102 213.843C266.102 214.925 265.69 216.007 264.866 216.833ZM264.194 227.947C264.928 227.947 265.664 227.666 266.225 227.104C266.786 226.542 267.066 225.805 267.066 225.069C267.066 224.332 266.786 223.596 266.225 223.034C265.664 222.472 264.929 222.191 264.194 222.191C263.459 222.191 262.724 222.472 262.162 223.034C261.602 223.596 261.321 224.332 261.321 225.069C261.321 225.805 261.601 226.542 262.162 227.104C262.724 227.666 263.459 227.947 264.194 227.947ZM267.569 228.451C266.637 229.384 265.415 229.851 264.193 229.851C262.972 229.851 261.75 229.384 260.818 228.451C259.886 227.517 259.42 226.293 259.42 225.069C259.42 223.845 259.886 222.621 260.818 221.687C261.75 220.753 262.972 220.286 264.193 220.286C265.415 220.286 266.637 220.753 267.569 221.687C268.501 222.62 268.967 223.845 268.967 225.069C268.967 226.293 268.501 227.517 267.569 228.451ZM264.948 241.531C265.825 241.531 266.702 241.196 267.371 240.526C268.039 239.855 268.374 238.977 268.374 238.099C268.374 237.221 268.04 236.342 267.371 235.672C266.701 235.001 265.825 234.666 264.948 234.666C264.072 234.666 263.195 235.001 262.526 235.672C261.857 236.342 261.522 237.221 261.522 238.099C261.522 238.977 261.857 239.855 262.526 240.526C263.195 241.196 264.072 241.531 264.948 241.531ZM268.715 241.873C267.675 242.915 266.311 243.436 264.948 243.436C263.585 243.436 262.221 242.915 261.181 241.873C260.141 240.831 259.621 239.465 259.621 238.099C259.621 236.733 260.141 235.367 261.181 234.325C262.221 233.283 263.585 232.762 264.948 232.762C266.311 232.762 267.675 233.283 268.715 234.325C269.755 235.367 270.275 236.733 270.275 238.099C270.275 239.465 269.755 240.831 268.715 241.873ZM263.233 257.179C264.38 257.179 265.528 256.741 266.403 255.864C267.278 254.987 267.716 253.837 267.716 252.688C267.716 251.539 267.278 250.39 266.403 249.513C265.527 248.636 264.38 248.197 263.233 248.197C262.086 248.197 260.939 248.636 260.064 249.513C259.188 250.39 258.751 251.539 258.751 252.688C258.751 253.837 259.188 254.987 260.064 255.864C260.939 256.741 262.086 257.179 263.233 257.179ZM267.747 257.211C266.501 258.46 264.867 259.084 263.233 259.084C261.6 259.084 259.966 258.46 258.72 257.211C257.473 255.962 256.85 254.325 256.85 252.688C256.85 251.052 257.473 249.415 258.72 248.166C259.966 246.917 261.6 246.293 263.233 246.293C264.867 246.293 266.501 246.917 267.747 248.166C268.993 249.415 269.617 251.052 269.617 252.688C269.617 254.325 268.993 255.962 267.747 257.211ZM215.646 262.491C215.646 263.085 215.42 263.68 214.967 264.134C214.514 264.588 213.921 264.815 213.327 264.815C212.734 264.815 212.14 264.588 211.687 264.134C211.235 263.68 211.008 263.085 211.008 262.491C211.008 261.896 211.234 261.302 211.687 260.848C212.14 260.394 212.734 260.167 213.327 260.167C213.921 260.167 214.514 260.394 214.967 260.848C215.42 261.302 215.646 261.896 215.646 262.491ZM216.311 265.481C217.135 264.655 217.547 263.573 217.547 262.491C217.547 261.409 217.135 260.326 216.311 259.501C215.487 258.675 214.407 258.263 213.327 258.263C212.247 258.263 211.167 258.675 210.343 259.501C209.519 260.326 209.107 261.409 209.107 262.491C209.107 263.573 209.519 264.655 210.343 265.481C211.167 266.306 212.247 266.719 213.327 266.719C214.407 266.719 215.488 266.306 216.311 265.481ZM227.404 264.807C227.404 265.544 227.124 266.28 226.563 266.843C226.001 267.404 225.266 267.686 224.531 267.686C223.796 267.686 223.061 267.404 222.5 266.843C221.939 266.28 221.659 265.544 221.659 264.807C221.659 264.071 221.939 263.334 222.5 262.772C223.061 262.21 223.797 261.929 224.531 261.929C225.266 261.929 226.001 262.21 226.563 262.772C227.124 263.334 227.404 264.071 227.404 264.807ZM227.907 268.189C228.839 267.256 229.305 266.031 229.305 264.807C229.305 263.583 228.839 262.359 227.907 261.425C226.975 260.492 225.753 260.025 224.531 260.025C223.31 260.025 222.088 260.492 221.156 261.425C220.224 262.359 219.758 263.583 219.758 264.807C219.758 266.031 220.224 267.256 221.156 268.189C222.088 269.123 223.31 269.59 224.531 269.59C225.753 269.59 226.975 269.123 227.907 268.189ZM240.962 265.563C240.962 266.442 240.628 267.32 239.959 267.99C239.29 268.661 238.413 268.996 237.536 268.996C236.66 268.996 235.783 268.661 235.114 267.99C234.445 267.32 234.11 266.441 234.11 265.563C234.11 264.685 234.445 263.807 235.114 263.136C235.783 262.466 236.66 262.131 237.536 262.131C238.413 262.131 239.29 262.466 239.959 263.136C240.628 263.807 240.962 264.685 240.962 265.563ZM241.303 269.337C242.343 268.295 242.863 266.929 242.863 265.563C242.863 264.198 242.343 262.831 241.303 261.789C240.263 260.747 238.9 260.226 237.536 260.226C236.173 260.226 234.81 260.747 233.77 261.789C232.729 262.831 232.21 264.198 232.21 265.563C232.21 266.929 232.73 268.295 233.77 269.337C234.809 270.38 236.173 270.901 237.536 270.901C238.9 270.901 240.263 270.379 241.303 269.337ZM256.58 263.845C256.58 264.994 256.143 266.144 255.267 267.021C254.392 267.897 253.245 268.336 252.098 268.336C250.951 268.336 249.804 267.897 248.928 267.021C248.053 266.144 247.615 264.994 247.615 263.845C247.615 262.696 248.053 261.546 248.928 260.67C249.804 259.792 250.951 259.354 252.098 259.354C253.245 259.354 254.392 259.792 255.267 260.67C256.143 261.547 256.58 262.696 256.58 263.845ZM256.611 268.368C257.858 267.119 258.481 265.482 258.481 263.845C258.481 262.208 257.858 260.571 256.611 259.323C255.365 258.074 253.731 257.449 252.098 257.449C250.464 257.449 248.83 258.074 247.584 259.323C246.338 260.571 245.715 262.208 245.715 263.845C245.715 265.482 246.338 267.119 247.584 268.368C248.83 269.616 250.464 270.241 252.098 270.241C253.732 270.241 255.365 269.616 256.611 268.368ZM253.641 184.092C248.115 178.555 241.968 174.017 235.425 170.477C234.46 171.057 233.457 171.605 232.42 172.12C239.341 175.648 245.834 180.311 251.624 186.113C262.672 197.182 269.588 210.817 272.374 225.097C275.207 239.624 273.767 254.825 268.057 268.678C254.231 274.399 239.059 275.842 224.56 273.003C210.308 270.212 196.699 263.283 185.651 252.214C179.861 246.413 175.206 239.906 171.686 232.972C171.171 234.011 170.624 235.016 170.045 235.983C173.579 242.539 178.108 248.697 183.634 254.234C195.09 265.712 209.212 272.9 224.009 275.797C239.255 278.782 255.212 277.21 269.702 271.084L270.234 270.859L270.458 270.326C276.573 255.808 278.142 239.821 275.162 224.545C272.27 209.72 265.097 195.571 253.641 184.092Z" fill="url(#paint8_linear_562_86)"/>
<path fill-rule="evenodd" clip-rule="evenodd" d="M195.511 99.5881C195.565 99.5396 212.461 83.9636 235.094 81.9323C227.752 80.6819 220.227 80.7724 212.914 82.2045C201.826 84.3755 191.217 89.6312 182.456 97.9729C181.622 97.277 180.628 96.8722 179.608 96.7585C188.934 87.5395 200.377 81.7571 212.362 79.4105C224.849 76.9656 237.918 78.2525 249.784 83.2703L250.316 83.4951L250.54 84.0279C255.548 95.9172 256.832 109.011 254.392 121.522C252.05 133.53 246.279 144.995 237.078 154.339C236.964 153.317 236.56 152.321 235.866 151.486C244.191 142.708 249.437 132.079 251.604 120.969C253.033 113.642 253.123 106.103 251.875 98.7456C249.848 121.423 234.302 138.351 234.253 138.405L233.202 137.446C233.253 137.389 251.024 118.034 250.662 93.1707L250.656 93.1483C249.478 100.108 246.846 106.249 243.749 111.414C236.855 122.913 227.492 129.647 226.829 129.811L226.486 128.426C227.095 128.276 235.847 121.826 242.532 110.676C245.998 104.896 248.864 97.8694 249.671 89.8348C249.212 88.4342 248.702 87.0467 248.139 85.6754C246.77 85.1119 245.386 84.6004 243.988 84.1401C235.969 84.9488 228.956 87.8205 223.187 91.2931C212.058 97.9912 205.621 106.76 205.471 107.37L204.089 107.027C204.252 106.362 210.974 96.9813 222.45 90.0735C227.606 86.9707 233.734 84.3343 240.681 83.1532L240.658 83.1472C215.843 82.7848 196.525 100.59 196.468 100.642L195.511 99.5881ZM215.698 71.8543C215.698 71.2598 215.472 70.6653 215.019 70.2115C214.566 69.7576 213.973 69.5308 213.379 69.5308C212.786 69.5308 212.192 69.7578 211.74 70.2115C211.287 70.6653 211.06 71.2598 211.06 71.8543C211.06 72.4488 211.287 73.0437 211.74 73.4974C212.192 73.9512 212.786 74.178 213.379 74.178C213.973 74.178 214.566 73.9512 215.019 73.4974C215.472 73.0437 215.698 72.4488 215.698 71.8543ZM216.364 68.8646C217.187 69.6901 217.599 70.7722 217.599 71.8545C217.599 72.9368 217.187 74.019 216.364 74.8444C215.539 75.67 214.459 76.083 213.379 76.0828C212.3 76.083 211.219 75.67 210.395 74.8444C209.571 74.019 209.159 72.9366 209.159 71.8545C209.159 70.7724 209.571 69.6901 210.395 68.8646C211.219 68.039 212.299 67.6262 213.379 67.6262C214.46 67.6262 215.54 68.039 216.364 68.8646ZM227.456 69.538C227.456 68.8017 227.176 68.0649 226.615 67.5029C226.054 66.9408 225.319 66.66 224.584 66.66C223.849 66.66 223.113 66.9408 222.552 67.5029C221.992 68.0649 221.711 68.8015 221.711 69.538C221.711 70.2743 221.992 71.011 222.552 71.573C223.113 72.135 223.849 72.416 224.584 72.4162C225.318 72.416 226.054 72.1352 226.615 71.573C227.176 71.011 227.456 70.2743 227.456 69.538ZM227.959 66.156C228.891 67.0897 229.357 68.3141 229.357 69.538C229.357 70.7621 228.891 71.9863 227.959 72.9201C227.027 73.8536 225.805 74.3207 224.584 74.3208C223.362 74.3207 222.14 73.8536 221.208 72.9201C220.276 71.9862 219.81 70.7619 219.81 69.538C219.81 68.3141 220.276 67.0897 221.208 66.156C222.14 65.2221 223.362 64.7552 224.584 64.7552C225.805 64.7552 227.027 65.2221 227.959 66.156ZM241.015 68.7819C241.014 67.9037 240.68 67.0252 240.011 66.355C239.342 65.6846 238.465 65.3494 237.589 65.3494C236.712 65.3494 235.835 65.6846 235.166 66.355C234.497 67.0252 234.163 67.9038 234.163 68.7819C234.163 69.6602 234.497 70.5388 235.166 71.209C235.835 71.8794 236.712 72.2144 237.589 72.2146C238.465 72.2144 239.342 71.8794 240.011 71.209C240.68 70.5388 241.015 69.6602 241.015 68.7819ZM241.355 65.0079C242.395 66.05 242.915 67.4162 242.915 68.7819C242.915 70.1478 242.395 71.514 241.355 72.5561C240.315 73.5982 238.952 74.119 237.588 74.1192C236.225 74.119 234.862 73.5982 233.822 72.5561C232.782 71.514 232.262 70.1478 232.262 68.7819C232.262 67.4162 232.782 66.05 233.822 65.0079C234.862 63.9658 236.225 63.4448 237.588 63.4448C238.952 63.4448 240.316 63.9658 241.355 65.0079ZM256.632 70.5002C256.632 69.351 256.195 68.2016 255.32 67.3246C254.444 66.4478 253.297 66.009 252.15 66.009C251.003 66.009 249.856 66.4478 248.981 67.3246C248.105 68.2017 247.668 69.351 247.668 70.5002C247.668 71.6494 248.105 72.7988 248.981 73.6756C249.856 74.5528 251.003 74.9912 252.15 74.9912C253.297 74.9912 254.444 74.5528 255.32 73.6756C256.195 72.7988 256.632 71.6494 256.632 70.5002ZM256.664 65.9777C257.91 67.2264 258.533 68.8634 258.533 70.5002C258.533 72.1371 257.91 73.774 256.664 75.0227C255.418 76.2714 253.784 76.8958 252.15 76.8958C250.516 76.8958 248.882 76.2714 247.636 75.0227C246.39 73.774 245.767 72.1371 245.767 70.5002C245.767 68.8634 246.39 67.2264 247.636 65.9777C248.882 64.729 250.516 64.1044 252.15 64.1044C253.784 64.1044 255.418 64.729 256.664 65.9777ZM261.934 118.179C262.527 118.179 263.121 118.406 263.574 118.86C264.027 119.314 264.253 119.909 264.253 120.503C264.253 121.098 264.027 121.692 263.574 122.146C263.121 122.6 262.527 122.827 261.934 122.827C261.34 122.827 260.747 122.6 260.294 122.146C259.841 121.692 259.615 121.098 259.615 120.503C259.615 119.909 259.841 119.314 260.294 118.86C260.747 118.406 261.34 118.179 261.934 118.179ZM264.918 117.513C264.094 116.687 263.014 116.275 261.934 116.275C260.854 116.275 259.774 116.687 258.95 117.513C258.126 118.338 257.714 119.421 257.714 120.503C257.714 121.585 258.126 122.667 258.95 123.493C259.774 124.318 260.854 124.731 261.934 124.731C263.014 124.731 264.094 124.318 264.918 123.493C265.742 122.667 266.154 121.585 266.154 120.503C266.154 119.421 265.742 118.338 264.918 117.513ZM264.246 106.399C264.981 106.399 265.716 106.68 266.277 107.242C266.838 107.804 267.118 108.54 267.118 109.277C267.118 110.013 266.838 110.75 266.277 111.312C265.716 111.874 264.981 112.155 264.246 112.155C263.511 112.155 262.776 111.874 262.215 111.312C261.654 110.75 261.373 110.013 261.373 109.277C261.373 108.54 261.654 107.804 262.215 107.242C262.776 106.68 263.511 106.399 264.246 106.399ZM267.621 105.895C266.689 104.961 265.467 104.494 264.246 104.494C263.024 104.494 261.802 104.961 260.87 105.895C259.938 106.828 259.472 108.053 259.472 109.277C259.472 110.501 259.938 111.725 260.87 112.659C261.802 113.593 263.024 114.06 264.246 114.06C265.467 114.06 266.689 113.592 267.621 112.659C268.553 111.725 269.019 110.501 269.019 109.277C269.019 108.053 268.553 106.829 267.621 105.895ZM265 92.8141C265.877 92.8141 266.754 93.1493 267.423 93.8195C268.092 94.4898 268.426 95.3685 268.426 96.2464C268.426 97.1247 268.092 98.0033 267.423 98.6735C266.754 99.3438 265.877 99.679 265 99.6791C264.124 99.6791 263.247 99.3439 262.578 98.6735C261.909 98.0033 261.574 97.1249 261.574 96.2464C261.574 95.3682 261.909 94.4898 262.578 93.8195C263.247 93.1493 264.124 92.8141 265 92.8141ZM268.767 92.4726C267.727 91.4305 266.363 90.9096 265 90.9095C263.637 90.9095 262.273 91.4307 261.234 92.4726C260.193 93.5147 259.674 94.8809 259.673 96.2466C259.674 97.6125 260.193 98.9787 261.234 100.021C262.273 101.063 263.637 101.584 265 101.584C266.363 101.584 267.727 101.063 268.767 100.021C269.807 98.9787 270.327 97.6125 270.327 96.2466C270.327 94.8809 269.807 93.5147 268.767 92.4726ZM263.286 77.1661C264.432 77.1661 265.58 77.6046 266.455 78.4816C267.33 79.3584 267.768 80.5079 267.768 81.6571C267.768 82.8062 267.33 83.9557 266.455 84.8325C265.58 85.7097 264.432 86.1481 263.286 86.1481C262.138 86.1481 260.991 85.7097 260.116 84.8325C259.241 83.9555 258.803 82.8062 258.803 81.6571C258.803 80.5079 259.241 79.3584 260.116 78.4816C260.992 77.6048 262.138 77.1661 263.286 77.1661ZM267.799 77.1345C266.553 75.8859 264.919 75.2615 263.286 75.2615C261.652 75.2615 260.018 75.8859 258.772 77.1345C257.525 78.3832 256.902 80.0201 256.902 81.6571C256.902 83.2938 257.525 84.9309 258.772 86.1794C260.018 87.4284 261.652 88.0527 263.286 88.0527C264.919 88.0527 266.553 87.4284 267.799 86.1794C269.045 84.9309 269.669 83.2938 269.669 81.6571C269.669 80.0201 269.045 78.3832 267.799 77.1345ZM183.686 80.1111C178.16 85.6479 173.631 91.8061 170.097 98.3621C170.676 99.3287 171.223 100.334 171.738 101.373C175.258 94.4391 179.913 87.9329 185.703 82.1316C196.751 71.0622 210.36 64.1331 224.612 61.3423C239.111 58.5033 254.283 59.946 268.109 65.6672C273.819 79.5202 275.259 94.7211 272.426 109.248C269.64 123.528 262.725 137.163 251.676 148.233C245.886 154.034 239.393 158.698 232.472 162.225C233.509 162.74 234.512 163.288 235.477 163.868C242.02 160.328 248.167 155.79 253.693 150.253C265.149 138.775 272.322 124.626 275.214 109.8C278.194 94.5248 276.625 78.5372 270.51 64.0192L270.285 63.4866L269.754 63.2615C255.264 57.1346 239.307 55.5631 224.061 58.5482C209.264 61.4457 195.143 68.6327 183.686 80.1111Z" fill="url(#paint9_linear_562_86)"/>
<path fill-rule="evenodd" clip-rule="evenodd" d="M99.3962 138.405C99.3476 138.351 83.8016 121.423 81.7742 98.7456C80.5262 106.103 80.6165 113.642 82.0459 120.969C84.2127 132.079 89.4583 142.708 97.7841 151.486C97.0892 152.321 96.6853 153.317 96.572 154.339C87.3706 144.995 81.5995 133.53 79.2575 121.522C76.8172 109.011 78.1017 95.9172 83.1099 84.0279L83.3342 83.4951L83.8659 83.2704C95.7322 78.2527 108.801 76.9656 121.288 79.4105C133.272 81.7569 144.716 87.5395 154.042 96.7585C153.022 96.872 152.027 97.2768 151.194 97.9729C142.433 89.6312 131.824 84.3755 120.736 82.2045C113.423 80.7725 105.898 80.682 98.5554 81.9323C121.189 83.9636 138.085 99.5396 138.138 99.5881L137.181 100.642C137.125 100.59 117.806 82.7852 92.9911 83.1474L92.9686 83.1533C99.9151 84.3343 106.044 86.9709 111.199 90.0737C122.676 96.9815 129.397 106.362 129.56 107.027L128.178 107.37C128.029 106.76 121.591 97.9914 110.462 91.2932C104.693 87.8208 97.6806 84.9489 89.6616 84.1403C88.2636 84.6005 86.879 85.1121 85.5103 85.6756C84.9479 87.0467 84.4373 88.4343 83.9779 89.8349C84.785 97.8695 87.6513 104.896 91.117 110.676C97.8022 121.826 106.555 128.276 107.163 128.426L106.821 129.811C106.157 129.648 96.7944 122.913 89.9002 111.414C86.8031 106.249 84.1718 100.108 82.9931 93.1485L82.9871 93.1708C82.6255 118.034 100.396 137.389 100.448 137.446L99.3962 138.405ZM71.7159 118.179C71.1226 118.179 70.5291 118.406 70.0761 118.86C69.6233 119.314 69.3968 119.909 69.3968 120.503C69.3968 121.098 69.6233 121.692 70.0761 122.146C70.5291 122.6 71.1228 122.827 71.7159 122.827C72.3092 122.827 72.9031 122.6 73.3557 122.146C73.8087 121.692 74.0351 121.098 74.0351 120.503C74.0351 119.909 73.8087 119.314 73.3557 118.86C72.9029 118.406 72.3091 118.179 71.7159 118.179ZM68.7318 117.513C69.5556 116.687 70.6358 116.275 71.7159 116.275C72.796 116.275 73.8762 116.687 74.7003 117.513C75.5241 118.338 75.9363 119.421 75.936 120.503C75.9362 121.585 75.5241 122.667 74.7003 123.493C73.8762 124.318 72.796 124.731 71.7159 124.731C70.6358 124.731 69.5556 124.318 68.7318 123.493C67.9081 122.667 67.4958 121.585 67.4958 120.503C67.4958 119.421 67.9079 118.338 68.7318 117.513ZM69.404 106.399C68.6691 106.399 67.9337 106.68 67.3728 107.242C66.8117 107.804 66.5315 108.54 66.5315 109.277C66.5315 110.013 66.8117 110.75 67.3728 111.312C67.9336 111.874 68.6691 112.155 69.404 112.155C70.1387 112.155 70.8741 111.874 71.4352 111.312C71.996 110.75 72.2765 110.013 72.2768 109.277C72.2766 108.54 71.9962 107.804 71.4352 107.242C70.8739 106.68 70.1387 106.399 69.404 106.399ZM66.0285 105.895C66.9604 104.961 68.1823 104.494 69.404 104.494C70.6257 104.494 71.8476 104.961 72.7795 105.895C73.7113 106.828 74.1774 108.053 74.1776 109.277C74.1774 110.501 73.7111 111.725 72.7795 112.659C71.8476 113.593 70.6257 114.06 69.404 114.06C68.1823 114.06 66.9604 113.592 66.0285 112.659C65.0964 111.725 64.6304 110.501 64.6304 109.277C64.6304 108.053 65.0962 106.829 66.0285 105.895ZM68.6494 92.8141C67.7728 92.8141 66.8959 93.1493 66.227 93.8195C65.558 94.4898 65.2235 95.3685 65.2235 96.2464C65.2235 97.1247 65.558 98.0033 66.227 98.6735C66.8959 99.3438 67.773 99.679 68.6494 99.6791C69.5259 99.6791 70.4028 99.3439 71.0718 98.6735C71.7407 98.0033 72.0753 97.1249 72.0754 96.2464C72.0753 95.3682 71.7407 94.4898 71.0718 93.8195C70.4028 93.1493 69.5258 92.8141 68.6494 92.8141ZM64.8827 92.4726C65.9226 91.4305 67.2863 90.9096 68.6494 90.9095C70.0125 90.9095 71.3762 91.4307 72.4161 92.4726C73.4563 93.5147 73.976 94.8809 73.9764 96.2466C73.9762 97.6125 73.4563 98.9787 72.4161 100.021C71.376 101.063 70.0125 101.584 68.6494 101.584C67.2863 101.584 65.9226 101.063 64.8827 100.021C63.8426 98.9787 63.3227 97.6125 63.3227 96.2466C63.3225 94.8809 63.8426 93.5147 64.8827 92.4726ZM70.3642 77.1661C69.2174 77.1661 68.07 77.6046 67.1947 78.4816C66.3195 79.3584 65.882 80.5079 65.8818 81.6571C65.882 82.8062 66.3195 83.9557 67.1947 84.8325C68.0701 85.7097 69.2176 86.1481 70.3642 86.1481C71.5114 86.1481 72.6584 85.7097 73.5337 84.8325C74.4091 83.9555 74.8467 82.8062 74.8467 81.6571C74.8467 80.5079 74.4091 79.3584 73.5337 78.4816C72.6582 77.6048 71.5114 77.1661 70.3642 77.1661ZM65.8504 77.1345C67.0968 75.8859 68.7306 75.2615 70.3642 75.2615C71.9979 75.2615 73.6319 75.8859 74.878 77.1345C76.1244 78.3832 76.7478 80.0201 76.7478 81.6571C76.7478 83.2938 76.1244 84.9309 74.878 86.1794C73.6317 87.4284 71.9979 88.0527 70.3642 88.0527C68.7306 88.0527 67.0968 87.4284 65.8504 86.1794C64.6041 84.9309 63.9809 83.2938 63.9809 81.6571C63.9809 80.0201 64.6043 78.3832 65.8504 77.1345ZM117.951 71.8543C117.951 71.2598 118.178 70.6653 118.63 70.2115C119.083 69.7576 119.677 69.5308 120.27 69.5308C120.864 69.5308 121.458 69.7578 121.91 70.2115C122.363 70.6653 122.59 71.2598 122.59 71.8543C122.59 72.4489 122.363 73.0437 121.91 73.4974C121.457 73.9512 120.864 74.178 120.27 74.178C119.677 74.178 119.083 73.9512 118.63 73.4974C118.178 73.0437 117.951 72.4489 117.951 71.8543ZM117.286 68.8646C116.462 69.6901 116.05 70.7722 116.05 71.8545C116.05 72.9368 116.462 74.0191 117.286 74.8444C118.11 75.67 119.19 76.083 120.27 76.0828C121.35 76.083 122.431 75.67 123.254 74.8444C124.079 74.0191 124.49 72.9366 124.49 71.8545C124.49 70.7724 124.079 69.6901 123.254 68.8646C122.43 68.039 121.35 67.6262 120.27 67.6262C119.19 67.6262 118.11 68.039 117.286 68.8646ZM106.193 69.538C106.193 68.8017 106.474 68.0649 107.035 67.5029C107.596 66.9408 108.331 66.66 109.066 66.66C109.801 66.66 110.536 66.9408 111.097 67.5029C111.658 68.0649 111.939 68.8016 111.939 69.538C111.939 70.2743 111.658 71.011 111.097 71.573C110.536 72.135 109.801 72.4161 109.066 72.4162C108.331 72.4161 107.596 72.1352 107.035 71.573C106.474 71.011 106.194 70.2743 106.193 69.538ZM105.691 66.156C104.759 67.0897 104.293 68.3141 104.293 69.538C104.293 70.7621 104.759 71.9863 105.691 72.9201C106.622 73.8536 107.844 74.3207 109.066 74.3208C110.288 74.3207 111.51 73.8536 112.442 72.9201C113.374 71.9862 113.84 70.7619 113.84 69.538C113.84 68.3141 113.374 67.0897 112.442 66.156C111.51 65.2221 110.288 64.7552 109.066 64.7552C107.844 64.7552 106.623 65.2221 105.691 66.156ZM92.6351 68.7819C92.6352 67.9037 92.9698 67.0252 93.6387 66.355C94.3077 65.6846 95.1847 65.3494 96.0611 65.3494C96.9374 65.3494 97.8144 65.6846 98.4834 66.355C99.1523 67.0252 99.487 67.9038 99.487 68.7819C99.487 69.6602 99.1526 70.5388 98.4834 71.209C97.8144 71.8794 96.9377 72.2144 96.0611 72.2146C95.1844 72.2144 94.3077 71.8794 93.6387 71.209C92.9698 70.5388 92.6351 69.6602 92.6351 68.7819ZM92.2942 65.0079C91.2545 66.05 90.7343 67.4162 90.7343 68.7819C90.7343 70.1478 91.2545 71.514 92.2942 72.5561C93.3345 73.5982 94.6979 74.1191 96.0611 74.1192C97.4242 74.1191 98.7876 73.5982 99.8278 72.5561C100.868 71.514 101.388 70.1478 101.388 68.7819C101.388 67.4162 100.868 66.05 99.8278 65.0079C98.7878 63.9658 97.4242 63.4448 96.0611 63.4448C94.6979 63.4448 93.3343 63.9658 92.2942 65.0079ZM77.0173 70.5002C77.0173 69.351 77.4549 68.2016 78.3304 67.3246C79.2055 66.4478 80.3527 66.009 81.4998 66.009C82.6466 66.009 83.7941 66.4478 84.6692 67.3246C85.5445 68.2017 85.982 69.351 85.982 70.5002C85.982 71.6494 85.5445 72.7988 84.6692 73.6757C83.7941 74.5528 82.6466 74.9912 81.4998 74.9912C80.3527 74.9912 79.2056 74.5528 78.3304 73.6757C77.4549 72.7988 77.0173 71.6494 77.0173 70.5002ZM76.9859 65.9777C75.7395 67.2264 75.1161 68.8634 75.1161 70.5002C75.1161 72.1371 75.7395 73.774 76.9859 75.0227C78.232 76.2714 79.8659 76.8958 81.4997 76.8958C83.1333 76.8958 84.7671 76.2714 86.0135 75.0227C87.2596 73.774 87.8828 72.1371 87.8828 70.5002C87.8828 68.8634 87.2598 67.2264 86.0135 65.9777C84.7671 64.729 83.1333 64.1044 81.4997 64.1044C79.8659 64.1044 78.2322 64.729 76.9859 65.9777ZM79.9566 150.253C85.4829 155.79 91.6292 160.328 98.1726 163.868C99.1372 163.288 100.14 162.74 101.177 162.225C94.2569 158.698 87.7631 154.034 81.9732 148.233C70.9251 137.163 64.0093 123.528 61.2239 109.248C58.3904 94.7212 59.8304 79.5203 65.5404 65.6672C79.3668 59.9461 94.5384 58.5033 109.037 61.3423C123.29 64.1331 136.899 71.0621 147.947 82.1316C153.737 87.9329 158.392 94.439 161.912 101.373C162.426 100.334 162.973 99.3288 163.552 98.3621C160.019 91.8062 155.489 85.6479 149.963 80.1111C138.507 68.6327 124.385 61.4457 109.588 58.5484C94.3423 55.5631 78.3856 57.1347 63.8959 63.2617L63.3641 63.4868L63.1398 64.0194C57.0246 78.5372 55.456 94.525 58.4355 109.8C61.3271 124.625 68.5003 138.775 79.9566 150.253Z" fill="url(#paint10_linear_562_86)"/>
<path fill-rule="evenodd" clip-rule="evenodd" d="M138.138 234.706C138.085 234.755 121.189 250.331 98.5554 252.362C105.898 253.612 113.423 253.522 120.736 252.09C131.824 249.919 142.433 244.663 151.194 236.321C152.027 237.017 153.022 237.422 154.042 237.535C144.716 246.754 133.272 252.537 121.288 254.883C108.801 257.328 95.7322 256.041 83.8659 251.024L83.3342 250.799L83.1099 250.266C78.1017 238.377 76.8174 225.283 79.2575 212.772C81.5995 200.764 87.3706 189.298 96.572 179.955C96.6853 180.977 97.0893 181.973 97.7841 182.808C89.4583 191.586 84.2127 202.215 82.0459 213.325C80.6167 220.652 80.5264 228.191 81.7742 235.548C83.8016 212.871 99.3476 195.942 99.3962 195.889L100.448 196.848C100.396 196.904 82.6254 216.26 82.9871 241.123L82.9931 241.145C84.1718 234.186 86.8031 228.045 89.9002 222.88C96.7944 211.381 106.157 204.646 106.821 204.483L107.163 205.868C106.554 206.018 97.8024 212.468 91.117 223.618C87.6513 229.398 84.785 236.424 83.9779 244.459C84.4373 245.86 84.9477 247.247 85.5103 248.618C86.8791 249.182 88.2636 249.693 89.6616 250.154C97.6806 249.345 104.693 246.473 110.462 243.001C121.591 236.303 128.029 227.533 128.178 226.924L129.56 227.267C129.397 227.932 122.676 237.312 111.199 244.22C106.044 247.323 99.9151 249.959 92.9686 251.14L92.9911 251.146C117.806 251.509 137.125 233.703 137.181 233.652L138.138 234.706ZM117.951 262.44C117.951 263.034 118.178 263.629 118.63 264.083C119.083 264.536 119.677 264.763 120.27 264.763C120.864 264.763 121.458 264.536 121.91 264.083C122.363 263.629 122.59 263.034 122.59 262.44C122.59 261.845 122.363 261.25 121.91 260.797C121.457 260.343 120.864 260.116 120.27 260.116C119.677 260.116 119.083 260.343 118.63 260.797C118.178 261.25 117.951 261.845 117.951 262.44ZM117.286 265.43C116.462 264.604 116.05 263.522 116.05 262.44C116.05 261.358 116.462 260.275 117.286 259.45C118.11 258.624 119.19 258.211 120.27 258.211C121.35 258.211 122.431 258.624 123.254 259.45C124.078 260.275 124.49 261.358 124.49 262.44C124.49 263.522 124.079 264.604 123.254 265.43C122.43 266.255 121.35 266.668 120.27 266.668C119.19 266.668 118.11 266.255 117.286 265.43ZM106.193 264.756C106.193 265.492 106.474 266.229 107.035 266.791C107.596 267.353 108.331 267.634 109.066 267.634C109.801 267.634 110.536 267.353 111.097 266.791C111.658 266.229 111.939 265.492 111.939 264.756C111.939 264.02 111.658 263.283 111.097 262.721C110.536 262.159 109.801 261.878 109.066 261.878C108.331 261.878 107.596 262.159 107.035 262.721C106.474 263.283 106.194 264.02 106.193 264.756ZM105.691 268.138C104.759 267.205 104.293 265.98 104.293 264.756C104.293 263.532 104.759 262.308 105.691 261.374C106.622 260.44 107.844 259.973 109.066 259.973C110.288 259.973 111.51 260.44 112.442 261.374C113.374 262.308 113.84 263.532 113.84 264.756C113.84 265.98 113.374 267.204 112.442 268.138C111.51 269.072 110.288 269.539 109.066 269.539C107.844 269.539 106.623 269.072 105.691 268.138ZM92.6351 265.512C92.6352 266.39 92.9698 267.269 93.6387 267.939C94.3077 268.609 95.1847 268.945 96.0611 268.945C96.9374 268.945 97.8144 268.61 98.4834 267.939C99.1523 267.269 99.487 266.39 99.487 265.512C99.487 264.634 99.1526 263.755 98.4834 263.085C97.8144 262.415 96.9377 262.079 96.0611 262.079C95.1844 262.08 94.3077 262.415 93.6387 263.085C92.9698 263.755 92.6351 264.634 92.6351 265.512ZM92.2942 269.286C91.2545 268.244 90.7343 266.878 90.7343 265.512C90.7343 264.146 91.2545 262.78 92.2942 261.738C93.3345 260.696 94.6979 260.175 96.0611 260.175C97.4242 260.175 98.7876 260.696 99.8278 261.738C100.868 262.78 101.388 264.146 101.388 265.512C101.388 266.878 100.868 268.244 99.8278 269.286C98.7877 270.328 97.4242 270.849 96.0611 270.849C94.6979 270.849 93.3343 270.328 92.2942 269.286ZM77.0173 263.794C77.0173 264.943 77.4549 266.092 78.3304 266.969C79.2055 267.846 80.3527 268.285 81.4998 268.285C82.6466 268.285 83.7941 267.846 84.6692 266.969C85.5445 266.092 85.982 264.943 85.982 263.794C85.982 262.645 85.5445 261.495 84.6692 260.618C83.7941 259.741 82.6466 259.303 81.4998 259.303C80.3527 259.303 79.2056 259.741 78.3304 260.618C77.4549 261.495 77.0173 262.645 77.0173 263.794ZM76.9859 268.316C75.7395 267.068 75.1161 265.43 75.1161 263.794C75.1161 262.157 75.7395 260.52 76.9859 259.271C78.232 258.023 79.8659 257.398 81.4997 257.398C83.1333 257.398 84.7671 258.023 86.0135 259.271C87.2596 260.52 87.8828 262.157 87.8828 263.794C87.8828 265.43 87.2597 267.068 86.0135 268.316C84.7671 269.565 83.1333 270.189 81.4997 270.189C79.8659 270.189 78.2321 269.565 76.9859 268.316ZM71.7158 216.115C71.1226 216.115 70.5291 215.888 70.0761 215.434C69.6233 214.981 69.3968 214.386 69.3968 213.791C69.3968 213.197 69.6233 212.602 70.0761 212.148C70.5291 211.695 71.1228 211.468 71.7158 211.468C72.3092 211.468 72.9031 211.695 73.3557 212.148C73.8087 212.602 74.0351 213.197 74.0351 213.791C74.0351 214.386 73.8087 214.981 73.3557 215.434C72.9029 215.888 72.3091 216.115 71.7158 216.115ZM68.7318 216.781C69.5556 217.607 70.6358 218.02 71.7158 218.02C72.796 218.02 73.8762 217.607 74.7003 216.781C75.5241 215.956 75.9363 214.873 75.936 213.791C75.9362 212.709 75.5241 211.627 74.7003 210.801C73.8762 209.976 72.796 209.563 71.7158 209.563C70.6358 209.563 69.5556 209.976 68.7318 210.801C67.908 211.627 67.4958 212.709 67.4958 213.791C67.4958 214.874 67.9079 215.956 68.7318 216.781ZM69.404 227.896C68.6691 227.896 67.9337 227.614 67.3728 227.052C66.8117 226.49 66.5315 225.754 66.5315 225.018C66.5315 224.281 66.8117 223.545 67.3728 222.982C67.9336 222.42 68.6691 222.139 69.404 222.139C70.1387 222.139 70.8741 222.421 71.4352 222.982C71.996 223.544 72.2765 224.281 72.2768 225.018C72.2766 225.754 71.9962 226.49 71.4352 227.052C70.8739 227.614 70.1387 227.896 69.404 227.896ZM66.0285 228.399C66.9604 229.333 68.1823 229.8 69.404 229.8C70.6257 229.8 71.8476 229.333 72.7795 228.399C73.7113 227.466 74.1774 226.241 74.1776 225.018C74.1774 223.793 73.7111 222.569 72.7795 221.636C71.8476 220.702 70.6257 220.235 69.404 220.235C68.1823 220.235 66.9604 220.702 66.0285 221.636C65.0964 222.569 64.6304 223.793 64.6304 225.018C64.6304 226.241 65.0962 227.466 66.0285 228.399ZM68.6494 241.48C67.7728 241.48 66.8959 241.145 66.227 240.475C65.558 239.804 65.2235 238.926 65.2235 238.047C65.2235 237.169 65.558 236.291 66.227 235.62C66.8959 234.95 67.773 234.615 68.6494 234.615C69.5259 234.615 70.4028 234.95 71.0718 235.62C71.7407 236.291 72.0753 237.169 72.0754 238.047C72.0753 238.926 71.7407 239.804 71.0718 240.475C70.4028 241.145 69.5258 241.48 68.6494 241.48ZM64.8827 241.821C65.9226 242.863 67.2863 243.384 68.6494 243.385C70.0124 243.385 71.3762 242.864 72.4161 241.821C73.4563 240.779 73.976 239.413 73.9764 238.047C73.9762 236.682 73.4563 235.315 72.4161 234.273C71.376 233.231 70.0124 232.71 68.6494 232.71C67.2863 232.71 65.9226 233.231 64.8827 234.273C63.8426 235.315 63.3227 236.682 63.3227 238.047C63.3225 239.413 63.8426 240.78 64.8827 241.821ZM70.3642 257.128C69.2174 257.128 68.07 256.689 67.1947 255.812C66.3195 254.936 65.882 253.786 65.8818 252.637C65.882 251.488 66.3195 250.338 67.1947 249.461C68.0701 248.585 69.2175 248.146 70.3642 248.146C71.5114 248.146 72.6584 248.585 73.5337 249.461C74.4091 250.339 74.8467 251.488 74.8467 252.637C74.8467 253.786 74.4091 254.936 73.5337 255.812C72.6584 256.69 71.5114 257.128 70.3642 257.128ZM65.8504 257.16C67.0968 258.408 68.7306 259.033 70.3642 259.033C71.9979 259.033 73.6319 258.408 74.878 257.16C76.1244 255.911 76.7478 254.274 76.7478 252.637C76.7478 251 76.1244 249.363 74.878 248.114C73.6317 246.866 71.9979 246.241 70.3642 246.241C68.7306 246.241 67.0968 246.866 65.8504 248.114C64.6041 249.363 63.9809 251 63.9809 252.637C63.9809 254.274 64.6042 255.911 65.8504 257.16ZM149.963 254.183C155.49 248.646 160.019 242.488 163.552 235.932C162.973 234.965 162.427 233.96 161.912 232.921C158.392 239.855 153.737 246.361 147.947 252.162C136.899 263.232 123.29 270.161 109.037 272.952C94.5385 275.791 79.3669 274.348 65.5405 268.627C59.8305 254.774 58.3906 239.573 61.2241 225.046C64.0094 210.766 70.9251 197.131 81.9734 186.062C87.7633 180.26 94.257 175.597 101.178 172.069C100.141 171.554 99.1374 171.006 98.1727 170.426C91.6293 173.966 85.483 178.504 79.9567 184.041C68.5006 195.52 61.3272 209.669 58.4357 224.494C55.4561 239.77 57.0248 255.757 63.1399 270.275L63.3643 270.808L63.896 271.033C78.3857 277.16 94.3425 278.731 109.589 275.746C124.385 272.848 138.507 265.661 149.963 254.183Z" fill="url(#paint11_linear_562_86)"/>
<path fill-rule="evenodd" clip-rule="evenodd" d="M303.725 160.667C305.856 162.637 307.801 164.807 309.53 167.147C307.801 169.487 305.856 171.657 303.725 173.627C300.414 170.38 296.745 168.367 293.795 167.147C296.746 165.927 300.415 163.914 303.725 160.667ZM294.685 154.141C297.543 155.716 300.216 157.588 302.663 159.714C297.746 164.514 292.017 166.459 289.359 167.147C292.017 167.835 297.745 169.78 302.663 174.58C300.216 176.706 297.543 178.577 294.685 180.153C290.668 172.824 284.379 169.035 279.811 167.147C284.379 165.259 290.668 161.47 294.685 154.141ZM282.708 149.595C286.477 150.444 290.07 151.757 293.423 153.471C288.202 162.98 278.973 166.215 275.375 167.147C278.973 168.079 288.202 171.314 293.423 180.823C290.07 182.537 286.477 183.85 282.708 184.699C279.123 174.324 271.258 169.393 265.827 167.147C271.258 164.902 279.123 159.97 282.708 149.595ZM269.048 148.603C270.209 148.515 271.382 148.471 272.566 148.471C275.553 148.471 278.473 148.756 281.3 149.3C276.792 162.072 265.472 166.09 261.391 167.147C265.472 168.204 276.792 172.222 281.3 184.994C278.473 185.538 275.553 185.823 272.566 185.823C271.382 185.823 270.209 185.778 269.048 185.69C265.634 174.635 257.444 169.463 251.842 167.147C257.444 164.831 265.634 159.659 269.048 148.603ZM272.566 145.613C266.395 145.613 260.489 146.763 255.05 148.861C254.604 149.329 254.152 149.793 253.693 150.253C251.547 152.404 249.307 154.403 246.987 156.252C248.396 155.302 249.861 154.435 251.376 153.643C247.747 160.14 242.245 163.672 238.018 165.537C238.235 165.692 238.449 165.85 238.661 166.009L239.317 166.503C244.027 164.287 249.959 160.143 253.519 152.596C257.859 150.614 262.563 149.289 267.505 148.747C263.134 161.957 251.546 166.075 247.407 167.147C251.546 168.22 263.133 172.338 267.505 185.548C262.563 185.006 257.859 183.681 253.519 181.699C249.958 174.152 244.027 170.008 239.317 167.792L238.661 168.286C238.449 168.445 238.235 168.603 238.018 168.758C242.245 170.623 247.747 174.155 251.376 180.652C249.862 179.862 248.397 178.99 246.987 178.042C249.307 179.891 251.547 181.891 253.693 184.041C254.152 184.501 254.605 184.966 255.05 185.434C260.489 187.531 266.395 188.681 272.566 188.681C280.645 188.681 288.27 186.71 294.988 183.223C301.96 179.603 307.949 174.349 312.451 167.968L313.029 167.148L312.451 166.327C307.949 159.947 301.96 154.693 294.988 151.073C288.27 147.584 280.645 145.613 272.566 145.613Z" fill="url(#paint12_linear_562_86)"/>
<path fill-rule="evenodd" clip-rule="evenodd" d="M160.357 29.9823C162.324 27.8473 164.489 25.8987 166.825 24.1667C169.16 25.8985 171.326 27.8471 173.293 29.9824C170.051 33.2994 168.043 36.9756 166.825 39.9318C165.607 36.9755 163.598 33.2994 160.357 29.9823ZM153.844 39.0405C155.416 36.1768 157.284 33.4982 159.406 31.047C164.197 35.9736 166.138 41.7134 166.825 44.3762C167.512 41.7134 169.452 35.9739 174.244 31.047C176.366 33.4986 178.233 36.1768 179.805 39.0405C172.491 43.065 168.71 49.3664 166.825 53.9431C164.94 49.3664 161.159 43.065 153.844 39.0405ZM149.306 51.0404C150.154 47.2637 151.465 43.664 153.175 40.304C162.666 45.5356 165.895 54.7818 166.825 58.3871C167.755 54.7818 170.983 45.5359 180.474 40.3043C182.185 43.6641 183.495 47.2637 184.343 51.0404C173.987 54.6322 169.066 62.5125 166.825 67.9542C164.584 62.5122 159.662 54.6322 149.306 51.0404ZM148.317 64.7269C148.229 63.5638 148.185 62.3881 148.185 61.2021C148.185 58.2093 148.469 55.2838 149.012 52.4513C161.76 56.9674 165.77 68.3099 166.825 72.3985C167.88 68.3099 171.89 56.9674 184.637 52.4513C185.18 55.2837 185.465 58.2091 185.465 61.2021C185.465 62.3881 185.42 63.5636 185.332 64.7272C174.299 68.1474 169.136 76.3532 166.825 81.9654C164.514 76.3531 159.351 68.1472 148.317 64.7269ZM145.333 61.202C145.333 67.385 146.48 73.3024 148.574 78.7519C149.041 79.1982 149.504 79.6512 149.963 80.111C152.11 82.2614 154.105 84.5055 155.951 86.8302C155.003 85.4184 154.137 83.9512 153.347 82.4328C159.831 86.069 163.356 91.5813 165.218 95.8166C165.373 95.5994 165.53 95.3849 165.689 95.1729L166.182 94.5152C163.97 89.796 159.834 83.853 152.302 80.2854C150.323 75.937 149.001 71.2238 148.46 66.2729C161.645 70.6525 165.755 82.2627 166.825 86.4096C167.895 82.2627 172.005 70.6526 185.19 66.273C184.649 71.224 183.326 75.937 181.348 80.2856C173.816 83.8533 169.68 89.7962 167.468 94.5152L167.961 95.1729C168.12 95.3848 168.277 95.5994 168.432 95.8166C170.294 91.5815 173.819 86.0691 180.303 82.4331C179.515 83.9502 178.645 85.418 177.699 86.8302C179.544 84.5055 181.54 82.2616 183.686 80.111C184.145 79.651 184.608 79.1982 185.076 78.7519C187.169 73.3024 188.317 67.385 188.317 61.202C188.317 53.1069 186.35 45.4675 182.869 38.737C179.256 31.7517 174.012 25.7507 167.644 21.2404L166.825 20.6606L166.006 21.2404C159.638 25.7507 154.394 31.7515 150.781 38.737C147.299 45.4675 145.333 53.1069 145.333 61.202Z" fill="url(#paint13_linear_562_86)"/>
<path fill-rule="evenodd" clip-rule="evenodd" d="M29.9243 173.628C27.7934 171.657 25.8485 169.487 24.1198 167.147C25.8485 164.807 27.7934 162.637 29.9245 160.667C33.2352 163.914 36.9042 165.927 39.8546 167.147C36.9042 168.367 33.2352 170.38 29.9243 173.628ZM38.9651 180.153C36.1069 178.578 33.4335 176.706 30.987 174.58C35.904 169.78 41.6328 167.835 44.2905 167.147C41.6328 166.459 35.9044 164.514 30.987 159.714C33.4338 157.588 36.1069 155.717 38.9651 154.142C42.9818 161.47 49.271 165.259 53.8388 167.147C49.2712 169.036 42.9819 172.824 38.9651 180.153ZM50.942 184.7C47.1726 183.85 43.5798 182.537 40.2263 180.823C45.4478 171.314 54.676 168.079 58.2744 167.147C54.676 166.215 45.448 162.981 40.2264 153.472C43.5796 151.758 47.1724 150.444 50.9419 149.595C54.5266 159.97 62.3917 164.902 67.8229 167.147C62.3919 169.393 54.5268 174.324 50.942 184.7ZM64.602 185.691C63.4413 185.779 62.2677 185.823 61.084 185.823C58.0971 185.823 55.1773 185.538 52.35 184.994C56.8574 172.222 68.1783 168.204 72.2588 167.147C68.1783 166.09 56.8577 162.072 52.3502 149.3C55.1773 148.756 58.0969 148.471 61.084 148.471C62.2677 148.471 63.4411 148.516 64.6023 148.604C68.0162 159.659 76.2059 164.831 81.8075 167.147C76.2058 169.463 68.0157 174.636 64.602 185.691ZM61.0838 188.681C67.255 188.681 73.1611 187.531 78.5999 185.434C79.0452 184.965 79.4974 184.501 79.9564 184.041C82.1027 181.891 84.3427 179.891 86.6627 178.042C85.2537 178.992 83.7891 179.859 82.2737 180.651C85.9028 174.155 91.4045 170.622 95.6314 168.758C95.4148 168.602 95.2009 168.445 94.9889 168.285L94.3325 167.791C89.6225 170.008 83.6911 174.152 80.1304 181.699C75.7903 183.681 71.0862 185.006 66.1448 185.548C70.516 172.338 82.1037 168.219 86.2428 167.147C82.1038 166.075 70.5163 161.957 66.145 148.747C71.0861 149.289 75.7902 150.614 80.1304 152.596C83.6914 160.143 89.6228 164.286 94.3325 166.503L94.9889 166.009C95.2007 165.849 95.4146 165.692 95.6314 165.537C91.4047 163.672 85.9031 160.14 82.2739 153.643C83.7881 154.433 85.2529 155.304 86.6625 156.253C84.3425 154.403 82.1027 152.404 79.9562 150.253C79.4972 149.793 79.045 149.329 78.5998 148.861C73.1609 146.763 67.2548 145.614 61.0837 145.614C53.0044 145.614 45.3796 147.584 38.662 151.072C31.6901 154.692 25.7008 159.946 21.1992 166.327L20.6204 167.147L21.1992 167.968C25.7008 174.348 31.69 179.602 38.662 183.222C45.3798 186.71 53.0045 188.681 61.0838 188.681Z" fill="url(#paint14_linear_562_86)"/>
<path fill-rule="evenodd" clip-rule="evenodd" d="M173.293 304.312C171.326 306.447 169.16 308.395 166.825 310.127C164.489 308.395 162.324 306.447 160.357 304.312C163.598 300.994 165.607 297.319 166.825 294.362C168.042 297.319 170.051 300.995 173.293 304.312ZM179.805 295.254C178.233 298.117 176.366 300.796 174.244 303.247C169.452 298.321 167.512 292.581 166.825 289.918C166.138 292.581 164.197 298.32 159.406 303.247C157.284 300.796 155.417 298.117 153.844 295.254C161.159 291.229 164.94 284.928 166.825 280.351C168.71 284.928 172.491 291.229 179.805 295.254ZM184.344 283.254C183.495 287.03 182.185 290.63 180.474 293.99C170.983 288.758 167.755 279.512 166.825 275.907C165.895 279.512 162.666 288.758 153.176 293.99C151.465 290.63 150.154 287.03 149.306 283.254C159.662 279.662 164.584 271.781 166.825 266.34C169.066 271.782 173.988 279.662 184.344 283.254ZM185.333 269.567C185.42 270.73 185.465 271.906 185.465 273.092C185.465 276.085 185.181 279.01 184.637 281.843C171.89 277.327 167.88 265.984 166.825 261.896C165.77 265.984 161.76 277.327 149.012 281.843C148.469 279.01 148.185 276.085 148.185 273.092C148.185 271.906 148.23 270.731 148.317 269.567C159.351 266.147 164.513 257.941 166.825 252.329C169.136 257.941 174.299 266.147 185.333 269.567ZM188.317 273.092C188.317 266.909 187.17 260.992 185.076 255.542C184.609 255.096 184.145 254.643 183.686 254.183C181.54 252.033 179.544 249.789 177.699 247.464C178.647 248.876 179.513 250.343 180.303 251.862C173.819 248.225 170.294 242.713 168.432 238.478C168.277 238.695 168.12 238.909 167.961 239.121L167.468 239.779C169.68 244.498 173.816 250.441 181.348 254.009C183.327 258.357 184.649 263.07 185.19 268.021C172.005 263.642 167.895 252.032 166.825 247.884C165.755 252.031 161.644 263.641 148.46 268.021C149 263.07 150.323 258.357 152.301 254.009C159.834 250.441 163.969 244.498 166.182 239.779L165.689 239.121C165.529 238.909 165.372 238.695 165.217 238.478C163.356 242.713 159.831 248.225 153.347 251.861C154.135 250.344 155.005 248.876 155.951 247.464C154.105 249.789 152.11 252.033 149.963 254.183C149.504 254.643 149.041 255.096 148.574 255.542C146.48 260.992 145.333 266.909 145.333 273.092C145.333 281.187 147.299 288.827 150.781 295.557C154.394 302.543 159.638 308.544 166.006 313.054L166.825 313.634L167.644 313.054C174.012 308.544 179.256 302.543 182.869 295.557C186.35 288.827 188.317 281.187 188.317 273.092Z" fill="url(#paint15_linear_562_86)"/>
<path fill-rule="evenodd" clip-rule="evenodd" d="M299.415 116.232C303.593 117.973 307.216 119.483 310.374 119.709C308.817 122.472 308.07 126.334 307.21 130.786C305.89 137.616 304.279 145.956 298.941 153.366C299.752 153.889 300.546 154.435 301.323 155.004C306.94 147.189 308.625 138.471 310.006 131.322C311.182 125.237 312.119 120.389 315.049 118.813L313.701 116.302C310.773 117.876 306.221 115.979 300.507 113.598C293.697 110.76 285.371 107.29 275.581 107.785C275.467 108.458 275.345 109.13 275.215 109.801C275.155 110.106 275.094 110.411 275.03 110.715C284.586 110.052 292.763 113.46 299.415 116.232ZM299.415 218.062C303.593 216.321 307.216 214.811 310.374 214.585C308.817 211.822 308.07 207.961 307.21 203.508C305.89 196.678 304.279 188.339 298.941 180.928C299.752 180.405 300.546 179.859 301.323 179.29C306.94 187.105 308.625 195.823 310.006 202.972C311.182 209.058 312.119 213.906 315.049 215.481L313.701 217.993C310.773 216.418 306.221 218.315 300.507 220.696C293.697 223.534 285.371 227.004 275.581 226.509C275.467 225.836 275.345 225.164 275.215 224.494C275.155 224.189 275.094 223.884 275.03 223.579C284.586 224.242 292.763 220.834 299.415 218.062ZM276.593 235.975C291.51 239.078 304.065 233.846 313.986 229.712C319.594 227.374 324.413 225.367 328.542 225.263C326.347 221.757 325.354 216.622 324.199 210.645C322.055 199.549 319.313 185.359 307.06 174.37C307.737 173.693 308.394 172.996 309.03 172.28C321.913 183.811 324.765 198.567 326.995 210.109C328.52 218 329.735 224.286 333.65 226.392L332.302 228.903C328.388 226.799 322.486 229.258 315.078 232.346C304.898 236.588 292.054 241.941 276.675 238.93C276.666 237.944 276.638 236.959 276.593 235.975ZM276.593 98.3194C291.51 95.2156 304.065 100.448 313.986 104.582C319.594 106.919 324.413 108.927 328.542 109.031C326.347 112.537 325.354 117.672 324.199 123.649C322.055 134.745 319.313 148.935 307.06 159.924C307.737 160.601 308.394 161.298 309.03 162.014C321.913 150.483 324.765 135.727 326.995 124.184C328.52 116.294 329.735 110.008 333.65 107.902L332.302 105.391C328.388 107.495 322.486 105.036 315.078 101.948C304.898 97.7056 292.054 92.3532 276.675 95.3645C276.666 96.3499 276.638 97.335 276.593 98.3194Z" fill="url(#paint16_linear_562_86)"/>
<path fill-rule="evenodd" clip-rule="evenodd" d="M116.008 34.3008C117.746 30.1152 119.253 26.4848 119.478 23.3203C122.236 24.8805 126.09 25.6286 130.534 26.4907C137.351 27.813 145.674 29.4278 153.071 34.7757C153.593 33.9635 154.137 33.1677 154.705 32.3896C146.906 26.7616 138.204 25.0736 131.069 23.6894C124.995 22.5111 120.156 21.5724 118.584 18.6375L116.077 19.9881C117.649 22.9214 115.756 27.4823 113.379 33.2071C110.546 40.03 107.083 48.3725 107.577 58.1818C108.249 58.2953 108.919 58.4175 109.589 58.5487C109.893 58.6082 110.198 58.6697 110.502 58.7331C109.84 49.1588 113.241 40.9662 116.008 34.3008ZM217.641 34.3008C215.904 30.1152 214.397 26.4848 214.172 23.3203C211.414 24.8805 207.56 25.6286 203.116 26.4907C196.299 27.813 187.975 29.4278 180.579 34.7757C180.057 33.9635 179.512 33.1677 178.945 32.3896C186.744 26.7616 195.445 25.0736 202.581 23.6894C208.654 22.5111 213.493 21.5724 215.065 18.6375L217.572 19.9881C216.001 22.9214 217.894 27.4823 220.271 33.2071C223.103 40.03 226.566 48.3725 226.072 58.1818C225.401 58.2953 224.73 58.4175 224.061 58.5487C223.756 58.6082 223.452 58.6697 223.148 58.7331C223.81 49.1588 220.409 40.9662 217.641 34.3008ZM235.52 57.1672C238.618 42.2208 233.396 29.6413 229.269 19.7014C226.936 14.0825 224.932 9.25467 224.829 5.11783C221.33 7.31696 216.205 8.31194 210.239 9.46897C199.165 11.6171 185.002 14.3646 174.034 26.6406C173.358 25.9626 172.662 25.3045 171.948 24.6669C183.456 11.7591 198.184 8.90211 209.704 6.6673C217.58 5.13954 223.854 3.92254 225.956 0L228.462 1.3506C226.361 5.27153 228.817 11.1847 231.898 18.6076C236.132 28.8075 241.475 41.6761 238.469 57.0849C237.486 57.0939 236.502 57.1214 235.52 57.1672ZM98.1299 57.1672C95.0321 42.2208 100.254 29.6413 104.381 19.7014C106.713 14.0825 108.717 9.25467 108.821 5.11783C112.32 7.31696 117.445 8.31194 123.41 9.46897C134.485 11.6171 148.648 14.3646 159.616 26.6406C160.292 25.9626 160.987 25.3045 161.702 24.6669C150.193 11.7591 135.465 8.90211 123.945 6.6673C116.07 5.13954 109.796 3.92254 107.694 0L105.187 1.3506C107.288 5.27153 104.833 11.1847 101.752 18.6076C97.5175 28.8075 92.1754 41.6761 95.1806 57.0849C96.1642 57.0939 97.1473 57.1214 98.1299 57.1672Z" fill="url(#paint17_linear_562_86)"/>
<path fill-rule="evenodd" clip-rule="evenodd" d="M34.2347 218.062C30.0572 216.321 26.4338 214.811 23.2753 214.585C24.8326 211.822 25.5792 207.961 26.4397 203.508C27.7595 196.678 29.3711 188.339 34.7087 180.928C33.898 180.405 33.1036 179.859 32.327 179.29C26.7099 187.105 25.025 195.823 23.6434 202.972C22.4676 209.058 21.5307 213.906 18.6012 215.481L19.9492 217.993C22.8771 216.418 27.4294 218.315 33.1429 220.696C39.9527 223.534 48.2791 227.004 58.0695 226.509C58.1828 225.836 58.3048 225.164 58.4355 224.494C58.4951 224.189 58.5565 223.884 58.6197 223.579C49.0641 224.242 40.8869 220.834 34.2347 218.062ZM34.2347 116.232C30.0572 117.973 26.4338 119.483 23.2753 119.709C24.8326 122.472 25.5792 126.334 26.4397 130.786C27.7595 137.616 29.3711 145.956 34.7087 153.366C33.898 153.889 33.1036 154.435 32.327 155.004C26.7099 147.189 25.025 138.471 23.6434 131.322C22.4676 125.237 21.5307 120.389 18.6012 118.813L19.9492 116.302C22.8771 117.876 27.4294 115.979 33.1429 113.598C39.9527 110.76 48.2791 107.29 58.0695 107.785C58.1828 108.458 58.3048 109.13 58.4355 109.801C58.4951 110.106 58.5565 110.411 58.6197 110.715C49.0641 110.052 40.8869 113.46 34.2347 116.232ZM57.0569 98.3194C42.1394 95.2156 29.5842 100.448 19.6635 104.582C14.0554 106.919 9.23668 108.927 5.10797 109.031C7.30286 112.537 8.29592 117.672 9.45073 123.649C11.5947 134.745 14.3369 148.935 26.5892 159.924C25.9123 160.601 25.2557 161.298 24.6193 162.014C11.7366 150.483 8.88496 135.727 6.65445 124.184C5.12963 116.294 3.91498 110.008 0 107.902L1.348 105.391C5.26137 107.495 11.1633 105.036 18.5717 101.948C28.752 97.7056 41.5958 92.3532 56.9749 95.3645C56.9839 96.3499 57.0113 97.335 57.0569 98.3194ZM57.0569 235.975C42.1394 239.078 29.5842 233.846 19.6635 229.712C14.0554 227.374 9.23668 225.367 5.10797 225.263C7.30286 221.757 8.29592 216.622 9.45073 210.645C11.5947 199.549 14.3369 185.359 26.5892 174.37C25.9123 173.693 25.2557 172.996 24.6193 172.28C11.7366 183.811 8.88496 198.567 6.65445 210.109C5.12963 218 3.91498 224.286 0 226.392L1.348 228.903C5.26137 226.799 11.1633 229.258 18.5717 232.346C28.752 236.588 41.5958 241.941 56.9749 238.93C56.9839 237.944 57.0113 236.959 57.0569 235.975Z" fill="url(#paint18_linear_562_86)"/>
<path fill-rule="evenodd" clip-rule="evenodd" d="M217.641 299.993C215.904 304.179 214.397 307.809 214.172 310.974C211.414 309.413 207.56 308.665 203.116 307.803C196.299 306.481 187.975 304.866 180.579 299.518C180.057 300.33 179.512 301.126 178.945 301.905C186.744 307.532 195.445 309.221 202.581 310.605C208.654 311.783 213.493 312.722 215.065 315.656L217.572 314.306C216.001 311.373 217.894 306.812 220.271 301.087C223.103 294.264 226.566 285.921 226.072 276.112C225.401 275.999 224.73 275.876 224.061 275.745C223.756 275.686 223.452 275.624 223.148 275.561C223.81 285.135 220.409 293.328 217.641 299.993ZM116.008 299.993C117.746 304.179 119.253 307.809 119.478 310.974C122.236 309.413 126.09 308.665 130.534 307.803C137.351 306.481 145.674 304.866 153.071 299.518C153.593 300.33 154.137 301.126 154.705 301.905C146.906 307.532 138.204 309.221 131.069 310.605C124.995 311.783 120.156 312.722 118.584 315.656L116.077 314.306C117.649 311.373 115.756 306.812 113.379 301.087C110.546 294.264 107.083 285.921 107.577 276.112C108.249 275.999 108.919 275.876 109.589 275.745C109.893 275.686 110.198 275.624 110.502 275.561C109.84 285.135 113.241 293.328 116.008 299.993ZM98.1299 277.127C95.0321 292.073 100.254 304.653 104.381 314.593C106.713 320.212 108.717 325.039 108.821 329.176C112.32 326.977 117.445 325.982 123.41 324.825C134.485 322.677 148.648 319.929 159.616 307.653C160.292 308.331 160.987 308.989 161.702 309.627C150.193 322.535 135.465 325.392 123.945 327.626C116.07 329.154 109.796 330.371 107.694 334.294L105.187 332.943C107.288 329.022 104.833 323.109 101.752 315.686C97.5175 305.486 92.1754 292.618 95.1806 277.209C96.1642 277.2 97.1473 277.173 98.1299 277.127ZM235.52 277.127C238.618 292.073 233.396 304.653 229.269 314.593C226.936 320.212 224.932 325.039 224.829 329.176C221.33 326.977 216.205 325.982 210.239 324.825C199.165 322.677 185.002 319.929 174.034 307.653C173.358 308.331 172.662 308.989 171.948 309.627C183.456 322.535 198.184 325.392 209.704 327.626C217.58 329.154 223.854 330.371 225.956 334.294L228.462 332.943C226.361 329.022 228.817 323.109 231.898 315.686C236.132 305.486 241.475 292.618 238.469 277.209C237.486 277.2 236.502 277.173 235.52 277.127Z" fill="url(#paint19_linear_562_86)"/>
<defs>
<linearGradient id="paint0_linear_562_86" x1="192.801" y1="167.121" x2="192.801" y2="219.086" gradientUnits="userSpaceOnUse">
<stop stop-color="#F3927A"/>
<stop offset="0.995605" stop-color="#218887"/>
</linearGradient>
<linearGradient id="paint1_linear_562_86" x1="203.542" y1="156.061" x2="203.542" y2="178.18" gradientUnits="userSpaceOnUse">
<stop stop-color="#F3927A"/>
<stop offset="0.995605" stop-color="#218887"/>
</linearGradient>
<linearGradient id="paint2_linear_562_86" x1="192.801" y1="115.156" x2="192.801" y2="167.121" gradientUnits="userSpaceOnUse">
<stop stop-color="#F3927A"/>
<stop offset="0.995605" stop-color="#218887"/>
</linearGradient>
<linearGradient id="paint3_linear_562_86" x1="166.868" y1="93.6309" x2="166.868" y2="167.121" gradientUnits="userSpaceOnUse">
<stop stop-color="#F3927A"/>
<stop offset="0.995605" stop-color="#218887"/>
</linearGradient>
<linearGradient id="paint4_linear_562_86" x1="140.936" y1="115.156" x2="140.936" y2="167.121" gradientUnits="userSpaceOnUse">
<stop stop-color="#F3927A"/>
<stop offset="0.995605" stop-color="#218887"/>
</linearGradient>
<linearGradient id="paint5_linear_562_86" x1="130.195" y1="156.061" x2="130.195" y2="178.18" gradientUnits="userSpaceOnUse">
<stop stop-color="#F3927A"/>
<stop offset="0.995605" stop-color="#218887"/>
</linearGradient>
<linearGradient id="paint6_linear_562_86" x1="140.936" y1="167.121" x2="140.936" y2="219.086" gradientUnits="userSpaceOnUse">
<stop stop-color="#F3927A"/>
<stop offset="0.995605" stop-color="#218887"/>
</linearGradient>
<linearGradient id="paint7_linear_562_86" x1="166.868" y1="167.121" x2="166.868" y2="240.61" gradientUnits="userSpaceOnUse">
<stop stop-color="#F3927A"/>
<stop offset="0.995605" stop-color="#218887"/>
</linearGradient>
<linearGradient id="paint8_linear_562_86" x1="223.336" y1="170.477" x2="223.336" y2="277.264" gradientUnits="userSpaceOnUse">
<stop stop-color="#F3927A"/>
<stop offset="0.995605" stop-color="#218887"/>
</linearGradient>
<linearGradient id="paint9_linear_562_86" x1="223.388" y1="57.0815" x2="223.388" y2="163.868" gradientUnits="userSpaceOnUse">
<stop stop-color="#F3927A"/>
<stop offset="0.995605" stop-color="#218887"/>
</linearGradient>
<linearGradient id="paint10_linear_562_86" x1="110.262" y1="57.0815" x2="110.262" y2="163.868" gradientUnits="userSpaceOnUse">
<stop stop-color="#F3927A"/>
<stop offset="0.995605" stop-color="#218887"/>
</linearGradient>
<linearGradient id="paint11_linear_562_86" x1="110.262" y1="170.426" x2="110.262" y2="277.213" gradientUnits="userSpaceOnUse">
<stop stop-color="#F3927A"/>
<stop offset="0.995605" stop-color="#218887"/>
</linearGradient>
<linearGradient id="paint12_linear_562_86" x1="275.524" y1="145.613" x2="275.524" y2="188.681" gradientUnits="userSpaceOnUse">
<stop stop-color="#F3927A"/>
<stop offset="0.995605" stop-color="#218887"/>
</linearGradient>
<linearGradient id="paint13_linear_562_86" x1="166.825" y1="20.6606" x2="166.825" y2="95.8166" gradientUnits="userSpaceOnUse">
<stop stop-color="#F3927A"/>
<stop offset="0.995605" stop-color="#218887"/>
</linearGradient>
<linearGradient id="paint14_linear_562_86" x1="58.1259" y1="145.614" x2="58.1259" y2="188.681" gradientUnits="userSpaceOnUse">
<stop stop-color="#F3927A"/>
<stop offset="0.995605" stop-color="#218887"/>
</linearGradient>
<linearGradient id="paint15_linear_562_86" x1="166.825" y1="238.478" x2="166.825" y2="313.634" gradientUnits="userSpaceOnUse">
<stop stop-color="#F3927A"/>
<stop offset="0.995605" stop-color="#218887"/>
</linearGradient>
<linearGradient id="paint16_linear_562_86" x1="304.34" y1="94.4854" x2="304.34" y2="239.809" gradientUnits="userSpaceOnUse">
<stop stop-color="#F3927A"/>
<stop offset="0.995605" stop-color="#218887"/>
</linearGradient>
<linearGradient id="paint17_linear_562_86" x1="166.825" y1="0" x2="166.825" y2="58.7331" gradientUnits="userSpaceOnUse">
<stop stop-color="#F3927A"/>
<stop offset="0.995605" stop-color="#218887"/>
</linearGradient>
<linearGradient id="paint18_linear_562_86" x1="29.3099" y1="94.4854" x2="29.3099" y2="239.809" gradientUnits="userSpaceOnUse">
<stop stop-color="#F3927A"/>
<stop offset="0.995605" stop-color="#218887"/>
</linearGradient>
<linearGradient id="paint19_linear_562_86" x1="166.825" y1="275.561" x2="166.825" y2="334.294" gradientUnits="userSpaceOnUse">
<stop stop-color="#F3927A"/>
<stop offset="0.995605" stop-color="#218887"/>
</linearGradient>
</defs>
</svg>
