<svg width="231" height="110" viewBox="0 0 231 110" fill="none" xmlns="http://www.w3.org/2000/svg">
<path d="M47.904 98.688C47.0507 99.5413 45.984 100.053 44.704 100.224C39.4987 100.907 31.5627 101.248 20.896 101.248L5.92 100.992C4.64 100.907 4 100.309 4 99.2L4.256 97.92C5.45067 95.0187 7.15733 91.0507 9.376 86.016C11.68 80.9813 16.4587 71.7227 23.712 58.24C30.9653 44.672 38.3893 32.2987 45.984 21.12C53.7493 9.856 58.8267 3.28533 61.216 1.408C62.3253 0.469335 63.3493 0 64.288 0C64.9707 0 65.312 0.384 65.312 1.152C65.312 2.51734 64.16 5.54667 61.856 10.24C59.552 14.9333 57.5467 18.7307 55.84 21.632C35.9573 57.472 23.584 81.792 18.72 94.592C18.6347 94.848 18.592 95.104 18.592 95.36C18.592 96.8107 20.0853 97.536 23.072 97.536C28.8747 97.536 34.2507 95.6587 39.2 91.904C46.5387 86.016 53.1093 79.3173 58.912 71.808C59.5947 71.1253 60.2773 70.784 60.96 70.784C61.6427 70.784 61.984 71.2107 61.984 72.064C61.984 72.9173 61.5147 74.4107 60.576 76.544C55.0293 88.576 50.8053 95.9573 47.904 98.688ZM90.149 77.056L94.117 70.272C94.117 70.016 94.0317 69.888 93.861 69.888C93.6903 69.888 93.477 70.016 93.221 70.272C90.0637 73.9413 86.7783 77.5253 83.365 81.024C79.9517 84.4373 77.349 86.9547 75.557 88.576L72.741 91.008C66.085 97.3227 61.477 100.48 58.917 100.48C57.7223 100.48 57.125 99.712 57.125 98.176C57.125 96.4693 57.8503 93.8667 59.301 90.368C60.6663 86.8693 62.0743 83.7547 63.525 81.024L65.573 77.056C72.741 63.6587 78.0317 54.6987 81.445 50.176C83.1517 47.9573 85.2423 46.1227 87.717 44.672C90.1917 43.136 92.1117 42.368 93.477 42.368C94.3303 42.368 94.757 42.6667 94.757 43.264C94.757 43.6053 94.5863 44.0747 94.245 44.672C94.0743 45.0133 92.325 47.872 88.997 53.248C85.669 58.5387 82.981 63.104 80.933 66.944C75.301 77.2693 72.485 83.2 72.485 84.736C72.485 85.3333 72.741 85.632 73.253 85.632C74.021 85.632 75.3437 84.864 77.221 83.328C82.7677 78.5493 88.869 72.1067 95.525 64C99.1943 60.0747 103.034 54.9547 107.045 48.64C109.776 44.4587 113.402 42.368 117.925 42.368C118.693 42.368 119.077 42.7093 119.077 43.392L118.053 45.824C116.858 47.9573 114.17 52.6507 109.989 59.904C105.893 67.072 103.546 71.168 102.949 72.192C99.4503 78.336 97.701 82.3893 97.701 84.352C97.701 85.12 97.957 85.504 98.469 85.504C99.3223 85.504 102.053 83.3707 106.661 79.104C110.245 75.52 114.981 70.3573 120.869 63.616C121.125 63.36 121.338 63.232 121.509 63.232C121.68 63.232 121.765 63.4027 121.765 63.744C121.765 65.3653 121.125 66.944 119.845 68.48C113.53 75.4773 107.941 81.3227 103.077 86.016C99.749 89.1733 95.9943 92.3307 91.813 95.488C87.717 98.6453 84.7303 100.224 82.853 100.224C81.573 100.224 80.933 99.328 80.933 97.536C80.933 96.512 81.701 94.2933 83.237 90.88C84.773 87.4667 86.309 84.3093 87.845 81.408L90.149 77.056ZM180.913 79.104C184.497 75.52 189.233 70.3573 195.121 63.616C195.377 63.36 195.59 63.232 195.761 63.232C195.932 63.232 196.017 63.4027 196.017 63.744C196.017 65.3653 195.377 66.944 194.097 68.48C187.782 75.4773 182.193 81.3227 177.329 86.016C167.26 95.4027 160.646 100.096 157.489 100.096C156.124 100.096 155.441 99.2853 155.441 97.664C155.441 96.0427 156.294 93.3547 158.001 89.6C159.793 85.8453 161.542 82.432 163.249 79.36C165.041 76.288 167.26 72.5333 169.905 68.096C172.636 63.6587 174.086 61.2693 174.257 60.928C175.793 58.4533 176.561 56.8747 176.561 56.192C176.561 55.7653 176.348 55.552 175.921 55.552L174.129 56.192C170.204 59.008 165.51 63.4027 160.049 69.376C154.588 75.264 150.108 80.4267 146.609 84.864L141.361 91.648C137.436 97.28 133.596 100.096 129.841 100.096C128.732 100.096 128.177 99.7547 128.177 99.072C128.177 98.304 128.988 96.2987 130.609 93.056C132.23 89.728 133.852 86.6133 135.473 83.712L137.905 79.36C138.502 78.1653 139.953 75.6053 142.257 71.68C144.646 67.6693 146.609 64.256 148.145 61.44C149.766 58.5387 150.577 56.7467 150.577 56.064C150.577 55.6373 150.406 55.424 150.065 55.424L148.273 56.192C144.262 59.008 139.526 63.4027 134.065 69.376C128.604 75.264 124.166 80.4267 120.753 84.864L115.505 91.648C111.494 97.1947 107.654 99.968 103.985 99.968C102.876 99.968 102.321 99.6693 102.321 99.072C102.321 98.304 103.132 96.2987 104.753 93.056C106.374 89.728 107.996 86.6133 109.617 83.712L112.049 79.36L124.465 57.344C126.513 53.504 128.988 50.0907 131.889 47.104C134.79 44.032 137.82 42.496 140.977 42.496C141.66 42.496 142.001 42.7947 142.001 43.392C142.001 43.904 141.489 45.0133 140.465 46.72C139.526 48.3413 138.118 50.6453 136.241 53.632C134.449 56.5333 132.913 59.2213 131.633 61.696C130.865 63.1467 129.926 64.8107 128.817 66.688C127.793 68.48 126.94 70.016 126.257 71.296C125.574 72.4907 125.105 73.344 124.849 73.856C124.593 74.368 124.465 74.752 124.465 75.008C124.465 75.1787 124.55 75.264 124.721 75.264C124.977 75.264 125.404 74.9653 126.001 74.368C127.622 72.4907 129.713 70.144 132.273 67.328C134.918 64.512 139.356 60.288 145.585 54.656C151.814 48.9387 156.934 45.0987 160.945 43.136C161.798 42.7093 162.652 42.496 163.505 42.496C164.7 42.496 165.297 43.0933 165.297 44.288C165.297 46.5067 162.78 52.2667 157.745 61.568C157.318 62.336 156.422 63.8293 155.057 66.048C153.777 68.2667 152.668 70.1867 151.729 71.808C150.876 73.4293 150.449 74.4533 150.449 74.88C150.449 75.136 150.534 75.264 150.705 75.264C150.961 75.264 151.388 74.9653 151.985 74.368C153.606 72.4907 155.697 70.144 158.257 67.328C160.902 64.512 165.297 60.288 171.441 54.656C177.67 48.9387 182.79 45.0987 186.801 43.136C187.825 42.7093 188.721 42.496 189.489 42.496C190.769 42.496 191.409 43.0933 191.409 44.288C191.409 44.6293 191.238 45.3973 190.897 46.592C190.556 47.7013 189.574 50.048 187.953 53.632C186.332 57.1307 184.198 61.0133 181.553 65.28C175.068 75.264 171.825 81.536 171.825 84.096C171.825 84.864 172.081 85.248 172.593 85.248C174.044 85.248 176.817 83.2 180.913 79.104ZM200.635 86.016C190.651 95.4027 184.251 100.096 181.435 100.096C179.984 100.096 179.259 99.1147 179.259 97.152C179.259 95.1893 180.027 92.3307 181.563 88.576C183.099 84.8213 184.635 81.536 186.171 78.72L188.475 74.624C194.96 63.2747 199.867 55.1253 203.195 50.176C204.646 48.0427 206.48 46.2507 208.699 44.8C211.003 43.264 213.136 42.496 215.099 42.496C215.782 42.496 216.123 42.7947 216.123 43.392C216.123 43.8187 215.824 44.6293 215.227 45.824C214.203 47.7013 211.686 52.1813 207.675 59.264C203.664 66.3467 201.275 70.6133 200.507 72.064C197.008 78.208 195.259 82.304 195.259 84.352C195.259 85.12 195.515 85.504 196.027 85.504C196.88 85.504 199.611 83.3707 204.219 79.104C207.803 75.52 212.539 70.3573 218.427 63.616C218.683 63.36 218.896 63.232 219.067 63.232C219.238 63.232 219.323 63.4027 219.323 63.744C219.323 65.3653 218.683 66.944 217.403 68.48C211.088 75.4773 205.499 81.3227 200.635 86.016ZM217.659 35.2C215.526 35.2 214.459 33.92 214.459 31.36C214.459 28.9707 215.355 26.5813 217.147 24.192C218.939 21.7173 220.902 20.48 223.035 20.48C225.595 20.48 226.875 21.9307 226.875 24.832C226.875 27.2213 225.894 29.568 223.931 31.872C221.968 34.0907 219.878 35.2 217.659 35.2Z" fill="white"/>
</svg>

