<svg width="240" height="241" viewBox="0 0 240 241" fill="none" xmlns="http://www.w3.org/2000/svg">
<path d="M134.521 143.074C140.532 149.096 147.914 153.712 154.883 155.131C153.466 148.149 148.859 140.753 142.849 134.731C136.838 128.709 129.456 124.094 122.487 122.674C123.905 129.656 128.511 137.052 134.521 143.074ZM155.992 157.4C148.165 156.287 139.769 151.239 133.071 144.528C126.372 137.816 121.335 129.405 120.223 121.563L120.031 120.213L121.379 120.405C129.205 121.518 137.601 126.566 144.299 133.277C150.998 139.989 156.036 148.401 157.147 156.242L157.339 157.592L155.992 157.4Z" fill="url(#paint0_linear_590_94)"/>
<path d="M146.412 126.113C154.912 126.113 163.389 124.146 169.319 120.213C163.389 116.28 154.912 114.313 146.412 114.313C137.912 114.313 129.435 116.28 123.505 120.213C129.435 124.146 137.912 126.113 146.412 126.113ZM171.704 121.032C165.384 125.789 155.885 128.168 146.412 128.168C136.939 128.168 127.44 125.789 121.12 121.032L120.031 120.213L121.12 119.394C127.44 114.636 136.939 112.258 146.412 112.258C155.885 112.258 165.384 114.636 171.704 119.394L172.792 120.213L171.704 121.032Z" fill="url(#paint1_linear_590_94)"/>
<path d="M142.849 105.695C148.859 99.6729 153.466 92.2764 154.883 85.2943C147.914 86.714 140.532 91.3294 134.521 97.3514C128.511 103.373 123.905 110.77 122.488 117.752C129.456 116.332 136.838 111.717 142.849 105.695ZM157.147 84.1832C156.036 92.025 150.998 100.437 144.299 107.148C137.601 113.859 129.205 118.907 121.379 120.021L120.031 120.213L120.223 118.863C121.334 111.021 126.372 102.609 133.071 95.898C139.769 89.1866 148.165 84.1388 155.991 83.0252L157.339 82.8334L157.147 84.1832Z" fill="url(#paint2_linear_590_94)"/>
<path d="M125.92 93.7817C125.92 85.2654 123.957 76.7716 120.031 70.8306C116.106 76.7716 114.143 85.2654 114.143 93.7817C114.143 102.298 116.106 110.792 120.031 116.733C123.957 110.792 125.92 102.298 125.92 93.7817ZM120.849 68.4404C125.597 74.773 127.971 84.2903 127.971 93.7815C127.971 103.273 125.597 112.79 120.849 119.123L120.031 120.213L119.214 119.123C114.466 112.79 112.092 103.273 112.092 93.7815C112.092 84.2903 114.466 74.773 119.214 68.4404L120.031 67.3504L120.849 68.4404Z" fill="url(#paint3_linear_590_94)"/>
<path d="M105.541 97.3514C99.5311 91.3294 92.1488 86.714 85.18 85.2943C86.5971 92.2764 91.2036 99.6729 97.2139 105.695C103.224 111.717 110.607 116.332 117.575 117.752C116.158 110.77 111.552 103.373 105.541 97.3514ZM84.0714 83.0252C91.898 84.1388 100.294 89.1866 106.992 95.898C113.69 102.609 118.728 111.021 119.84 118.863L120.031 120.213L118.684 120.021C110.858 118.907 102.462 113.859 95.7636 107.148C89.0653 100.437 84.027 92.025 82.9156 84.1832L82.7241 82.8334L84.0714 83.0252Z" fill="url(#paint4_linear_590_94)"/>
<path d="M93.6511 114.313C85.1513 114.313 76.674 116.28 70.7444 120.213C76.674 124.146 85.1513 126.113 93.6511 126.113C102.151 126.113 110.628 124.146 116.558 120.213C110.628 116.28 102.151 114.313 93.6511 114.313ZM68.3588 119.394C74.6792 114.636 84.1783 112.258 93.6511 112.258C103.124 112.258 112.623 114.636 118.943 119.394L120.031 120.213L118.943 121.032C112.623 125.789 103.124 128.168 93.6511 128.168C84.1782 128.168 74.6792 125.789 68.3588 121.032L67.271 120.213L68.3588 119.394Z" fill="url(#paint5_linear_590_94)"/>
<path d="M97.214 134.731C91.2037 140.753 86.5972 148.149 85.1801 155.131C92.1488 153.712 99.5311 149.096 105.542 143.074C111.552 137.052 116.158 129.656 117.575 122.674C110.607 124.094 103.224 128.709 97.214 134.731ZM82.9156 156.242C84.027 148.401 89.0651 139.989 95.7636 133.277C102.462 126.566 110.857 121.518 118.684 120.405L120.031 120.213L119.84 121.563C118.728 129.405 113.69 137.816 106.992 144.528C100.294 151.239 91.898 156.287 84.0714 157.4L82.7242 157.592L82.9156 156.242Z" fill="url(#paint6_linear_590_94)"/>
<path d="M114.143 146.644C114.143 155.16 116.106 163.654 120.031 169.595C123.957 163.654 125.92 155.16 125.92 146.644C125.92 138.128 123.957 129.634 120.031 123.693C116.106 129.634 114.143 138.128 114.143 146.644ZM119.214 171.985C114.466 165.653 112.092 156.135 112.092 146.644C112.092 137.153 114.466 127.635 119.214 121.303L120.031 120.213L120.849 121.303C125.597 127.635 127.971 137.153 127.971 146.644C127.971 156.135 125.597 165.653 120.849 171.985L120.031 173.075L119.214 171.985Z" fill="url(#paint7_linear_590_94)"/>
<path fill-rule="evenodd" clip-rule="evenodd" d="M168.465 140.943C168.5 140.982 179.682 153.159 181.141 169.471C182.039 164.179 181.974 158.756 180.945 153.485C179.387 145.494 175.614 137.848 169.625 131.534C170.125 130.933 170.415 130.217 170.497 129.482C177.115 136.203 181.267 144.45 182.951 153.088C184.707 162.087 183.783 171.506 180.18 180.058L180.019 180.441L179.636 180.603C171.101 184.212 161.7 185.138 152.718 183.379C144.097 181.691 135.866 177.532 129.158 170.9C129.892 170.819 130.607 170.528 131.206 170.027C137.508 176.027 145.139 179.808 153.115 181.37C158.376 182.4 163.788 182.465 169.07 181.565C152.789 180.104 140.636 168.9 140.597 168.865L141.286 168.107C141.327 168.144 155.222 180.952 173.073 180.691L173.089 180.687C168.092 179.838 163.683 177.941 159.975 175.709C151.72 170.74 146.885 163.993 146.768 163.514L147.762 163.267C147.869 163.706 152.5 170.014 160.505 174.832C164.655 177.33 169.699 179.395 175.467 179.977C176.473 179.646 177.469 179.278 178.454 178.873C178.858 177.886 179.225 176.888 179.556 175.881C178.975 170.102 176.913 165.047 174.421 160.89C169.612 152.869 163.316 148.23 162.878 148.122L163.125 147.126C163.602 147.243 170.337 152.087 175.296 160.359C177.524 164.074 179.417 168.491 180.264 173.497L180.269 173.481C180.529 155.597 167.746 141.674 167.709 141.633L168.465 140.943Z" fill="url(#paint8_linear_590_94)"/>
<path fill-rule="evenodd" clip-rule="evenodd" d="M140.635 71.6355C140.673 71.6006 152.827 60.3965 169.107 58.9353C163.826 58.0359 158.413 58.101 153.152 59.1311C145.177 60.6927 137.546 64.4733 131.244 70.4736C130.644 69.973 129.929 69.6818 129.195 69.6001C135.903 62.9687 144.135 58.8093 152.756 57.1214C161.738 55.3627 171.138 56.2884 179.674 59.8978L180.056 60.0595L180.218 60.4427C183.82 68.9949 184.744 78.4134 182.989 87.4128C181.304 96.0503 177.153 104.298 170.534 111.019C170.453 110.284 170.162 109.567 169.662 108.966C175.651 102.652 179.424 95.0064 180.983 87.0154C182.011 81.7446 182.076 76.3215 181.178 71.0294C179.72 87.3414 168.537 99.5186 168.503 99.5573L167.746 98.8675C167.783 98.8266 180.566 84.9039 180.306 67.0193L180.302 67.0032C179.454 72.0096 177.561 76.4265 175.333 80.1419C170.374 88.4133 163.639 93.2577 163.162 93.3751L162.915 92.3789C163.353 92.271 169.649 87.6313 174.458 79.611C176.951 75.4533 179.012 70.3992 179.593 64.6197C179.263 63.6122 178.895 62.6143 178.491 61.6278C177.506 61.2225 176.51 60.8545 175.505 60.5235C169.736 61.1051 164.692 63.1708 160.542 65.6687C152.537 70.4868 147.907 76.7945 147.799 77.2333L146.805 76.9862C146.922 76.5081 151.757 69.7604 160.012 64.7914C163.721 62.5596 168.129 60.6631 173.126 59.8135L173.11 59.8092C155.259 59.5486 141.364 72.3563 141.323 72.3934L140.635 71.6355Z" fill="url(#paint9_linear_590_94)"/>
<defs>
<linearGradient id="paint0_linear_590_94" x1="138.685" y1="120.213" x2="138.685" y2="157.592" gradientUnits="userSpaceOnUse">
<stop stop-color="white" stop-opacity="0.937255"/>
<stop offset="0.995605" stop-color="#444444"/>
</linearGradient>
<linearGradient id="paint1_linear_590_94" x1="146.412" y1="112.258" x2="146.412" y2="128.168" gradientUnits="userSpaceOnUse">
<stop stop-color="white" stop-opacity="0.937255"/>
<stop offset="0.995605" stop-color="#444444"/>
</linearGradient>
<linearGradient id="paint2_linear_590_94" x1="138.685" y1="82.8334" x2="138.685" y2="120.213" gradientUnits="userSpaceOnUse">
<stop stop-color="white" stop-opacity="0.937255"/>
<stop offset="0.995605" stop-color="#444444"/>
</linearGradient>
<linearGradient id="paint3_linear_590_94" x1="120.031" y1="67.3504" x2="120.031" y2="120.213" gradientUnits="userSpaceOnUse">
<stop stop-color="white" stop-opacity="0.937255"/>
<stop offset="0.995605" stop-color="#444444"/>
</linearGradient>
<linearGradient id="paint4_linear_590_94" x1="101.378" y1="82.8334" x2="101.378" y2="120.213" gradientUnits="userSpaceOnUse">
<stop stop-color="white" stop-opacity="0.937255"/>
<stop offset="0.995605" stop-color="#444444"/>
</linearGradient>
<linearGradient id="paint5_linear_590_94" x1="93.6512" y1="112.258" x2="93.6512" y2="128.168" gradientUnits="userSpaceOnUse">
<stop stop-color="white" stop-opacity="0.937255"/>
<stop offset="0.995605" stop-color="#444444"/>
</linearGradient>
<linearGradient id="paint6_linear_590_94" x1="101.378" y1="120.213" x2="101.378" y2="157.592" gradientUnits="userSpaceOnUse">
<stop stop-color="white" stop-opacity="0.937255"/>
<stop offset="0.995605" stop-color="#444444"/>
</linearGradient>
<linearGradient id="paint7_linear_590_94" x1="120.031" y1="120.213" x2="120.031" y2="173.075" gradientUnits="userSpaceOnUse">
<stop stop-color="white" stop-opacity="0.937255"/>
<stop offset="0.995605" stop-color="#444444"/>
</linearGradient>
<linearGradient id="paint8_linear_590_94" x1="160.649" y1="122.627" x2="160.649" y2="199.441" gradientUnits="userSpaceOnUse">
<stop stop-color="white" stop-opacity="0.937255"/>
<stop offset="0.995605" stop-color="#444444"/>
</linearGradient>
<linearGradient id="paint9_linear_590_94" x1="160.687" y1="41.0597" x2="160.687" y2="117.873" gradientUnits="userSpaceOnUse">
<stop stop-color="white" stop-opacity="0.937255"/>
<stop offset="0.995605" stop-color="#444444"/>
</linearGradient>
</defs>
</svg>

