<svg width="240" height="241" viewBox="0 0 240 241" fill="none" xmlns="http://www.w3.org/2000/svg">
<path d="M134.521 143.074C140.532 149.096 147.914 153.712 154.883 155.131C153.466 148.149 148.859 140.753 142.849 134.731C136.838 128.709 129.456 124.094 122.487 122.674C123.905 129.656 128.511 137.052 134.521 143.074ZM155.992 157.4C148.165 156.287 139.769 151.239 133.071 144.528C126.372 137.816 121.335 129.405 120.223 121.563L120.031 120.213L121.379 120.405C129.205 121.518 137.601 126.566 144.299 133.277C150.998 139.989 156.036 148.401 157.147 156.242L157.339 157.592L155.992 157.4Z" fill="url(#paint0_linear_590_94)"/>
<path d="M146.412 126.113C154.912 126.113 163.389 124.146 169.319 120.213C163.389 116.28 154.912 114.313 146.412 114.313C137.912 114.313 129.435 116.28 123.505 120.213C129.435 124.146 137.912 126.113 146.412 126.113ZM171.704 121.032C165.384 125.789 155.885 128.168 146.412 128.168C136.939 128.168 127.44 125.789 121.12 121.032L120.031 120.213L121.12 119.394C127.44 114.636 136.939 112.258 146.412 112.258C155.885 112.258 165.384 114.636 171.704 119.394L172.792 120.213L171.704 121.032Z" fill="url(#paint1_linear_590_94)"/>
<path d="M142.849 105.695C148.859 99.6729 153.466 92.2764 154.883 85.2943C147.914 86.714 140.532 91.3294 134.521 97.3514C128.511 103.373 123.905 110.77 122.488 117.752C129.456 116.332 136.838 111.717 142.849 105.695ZM157.147 84.1832C156.036 92.025 150.998 100.437 144.299 107.148C137.601 113.859 129.205 118.907 121.379 120.021L120.031 120.213L120.223 118.863C121.334 111.021 126.372 102.609 133.071 95.898C139.769 89.1866 148.165 84.1388 155.991 83.0252L157.339 82.8334L157.147 84.1832Z" fill="url(#paint2_linear_590_94)"/>
<path d="M125.92 93.7817C125.92 85.2654 123.957 76.7716 120.031 70.8306C116.106 76.7716 114.143 85.2654 114.143 93.7817C114.143 102.298 116.106 110.792 120.031 116.733C123.957 110.792 125.92 102.298 125.92 93.7817ZM120.849 68.4404C125.597 74.773 127.971 84.2903 127.971 93.7815C127.971 103.273 125.597 112.79 120.849 119.123L120.031 120.213L119.214 119.123C114.466 112.79 112.092 103.273 112.092 93.7815C112.092 84.2903 114.466 74.773 119.214 68.4404L120.031 67.3504L120.849 68.4404Z" fill="url(#paint3_linear_590_94)"/>
<path d="M105.541 97.3514C99.5311 91.3294 92.1488 86.714 85.18 85.2943C86.5971 92.2764 91.2036 99.6729 97.2139 105.695C103.224 111.717 110.607 116.332 117.575 117.752C116.158 110.77 111.552 103.373 105.541 97.3514ZM84.0714 83.0252C91.898 84.1388 100.294 89.1866 106.992 95.898C113.69 102.609 118.728 111.021 119.84 118.863L120.031 120.213L118.684 120.021C110.858 118.907 102.462 113.859 95.7636 107.148C89.0653 100.437 84.027 92.025 82.9156 84.1832L82.7241 82.8334L84.0714 83.0252Z" fill="url(#paint4_linear_590_94)"/>
<path d="M93.6511 114.313C85.1513 114.313 76.674 116.28 70.7444 120.213C76.674 124.146 85.1513 126.113 93.6511 126.113C102.151 126.113 110.628 124.146 116.558 120.213C110.628 116.28 102.151 114.313 93.6511 114.313ZM68.3588 119.394C74.6792 114.636 84.1783 112.258 93.6511 112.258C103.124 112.258 112.623 114.636 118.943 119.394L120.031 120.213L118.943 121.032C112.623 125.789 103.124 128.168 93.6511 128.168C84.1782 128.168 74.6792 125.789 68.3588 121.032L67.271 120.213L68.3588 119.394Z" fill="url(#paint5_linear_590_94)"/>
<path d="M97.214 134.731C91.2037 140.753 86.5972 148.149 85.1801 155.131C92.1488 153.712 99.5311 149.096 105.542 143.074C111.552 137.052 116.158 129.656 117.575 122.674C110.607 124.094 103.224 128.709 97.214 134.731ZM82.9156 156.242C84.027 148.401 89.0651 139.989 95.7636 133.277C102.462 126.566 110.857 121.518 118.684 120.405L120.031 120.213L119.84 121.563C118.728 129.405 113.69 137.816 106.992 144.528C100.294 151.239 91.898 156.287 84.0714 157.4L82.7242 157.592L82.9156 156.242Z" fill="url(#paint6_linear_590_94)"/>
<path d="M114.143 146.644C114.143 155.16 116.106 163.654 120.031 169.595C123.957 163.654 125.92 155.16 125.92 146.644C125.92 138.128 123.957 129.634 120.031 123.693C116.106 129.634 114.143 138.128 114.143 146.644ZM119.214 171.985C114.466 165.653 112.092 156.135 112.092 146.644C112.092 137.153 114.466 127.635 119.214 121.303L120.031 120.213L120.849 121.303C125.597 127.635 127.971 137.153 127.971 146.644C127.971 156.135 125.597 165.653 120.849 171.985L120.031 173.075L119.214 171.985Z" fill="url(#paint7_linear_590_94)"/>
<path fill-rule="evenodd" clip-rule="evenodd" d="M168.465 140.943C168.5 140.982 179.682 153.159 181.141 169.471C182.039 164.179 181.974 158.756 180.945 153.485C179.387 145.494 175.614 137.848 169.625 131.534C170.125 130.933 170.415 130.217 170.497 129.482C177.115 136.203 181.267 144.45 182.951 153.088C184.707 162.087 183.783 171.506 180.18 180.058L180.019 180.441L179.636 180.603C171.101 184.212 161.7 185.138 152.718 183.379C144.097 181.691 135.866 177.532 129.158 170.9C129.892 170.819 130.607 170.528 131.206 170.027C137.508 176.027 145.139 179.808 153.115 181.37C158.376 182.4 163.788 182.465 169.07 181.565C152.789 180.104 140.636 168.9 140.597 168.865L141.286 168.107C141.327 168.144 155.222 180.952 173.073 180.691L173.089 180.687C168.092 179.838 163.683 177.941 159.975 175.709C151.72 170.74 146.885 163.993 146.768 163.514L147.762 163.267C147.869 163.706 152.5 170.014 160.505 174.832C164.655 177.33 169.699 179.395 175.467 179.977C176.473 179.646 177.469 179.278 178.454 178.873C178.858 177.886 179.225 176.888 179.556 175.881C178.975 170.102 176.913 165.047 174.421 160.89C169.612 152.869 163.316 148.23 162.878 148.122L163.125 147.126C163.602 147.243 170.337 152.087 175.296 160.359C177.524 164.074 179.417 168.491 180.264 173.497L180.269 173.481C180.529 155.597 167.746 141.674 167.709 141.633L168.465 140.943ZM188.376 155.492C188.803 155.492 189.23 155.329 189.556 155.003C189.881 154.676 190.044 154.248 190.044 153.821C190.044 153.393 189.881 152.965 189.556 152.639C189.23 152.313 188.803 152.149 188.376 152.149C187.949 152.149 187.522 152.313 187.197 152.639C186.871 152.965 186.708 153.393 186.708 153.821C186.708 154.248 186.871 154.676 187.197 155.003C187.522 155.329 187.949 155.492 188.376 155.492ZM190.523 155.972C189.93 156.565 189.153 156.862 188.376 156.862C187.599 156.862 186.822 156.565 186.229 155.972C185.637 155.378 185.34 154.599 185.341 153.821C185.34 153.042 185.637 152.264 186.229 151.67C186.822 151.076 187.599 150.779 188.376 150.779C189.153 150.779 189.93 151.076 190.523 151.67C191.115 152.264 191.412 153.042 191.412 153.821C191.412 154.599 191.115 155.378 190.523 155.972ZM190.039 163.966C190.568 163.966 191.097 163.764 191.5 163.36C191.904 162.955 192.105 162.426 192.105 161.896C192.105 161.366 191.904 160.836 191.5 160.432C191.097 160.028 190.568 159.826 190.039 159.826C189.51 159.826 188.982 160.028 188.578 160.432C188.175 160.836 187.973 161.366 187.973 161.896C187.973 162.426 188.175 162.955 188.578 163.36C188.982 163.764 189.51 163.966 190.039 163.966ZM192.467 164.329C191.797 165 190.918 165.336 190.039 165.336C189.16 165.336 188.281 165 187.611 164.329C186.941 163.657 186.605 162.776 186.605 161.896C186.605 161.015 186.941 160.135 187.611 159.463C188.281 158.791 189.16 158.456 190.039 158.456C190.918 158.456 191.797 158.792 192.467 159.463C193.137 160.135 193.473 161.015 193.473 161.896C193.473 162.776 193.137 163.657 192.467 164.329ZM190.582 173.738C191.212 173.738 191.843 173.496 192.324 173.015C192.806 172.532 193.046 171.9 193.046 171.269C193.046 170.637 192.806 170.005 192.324 169.523C191.843 169.041 191.212 168.8 190.582 168.8C189.951 168.8 189.321 169.041 188.839 169.523C188.358 170.005 188.118 170.637 188.117 171.269C188.118 171.9 188.358 172.532 188.839 173.015C189.321 173.497 189.951 173.738 190.582 173.738ZM193.291 173.983C192.543 174.733 191.562 175.108 190.582 175.108C189.601 175.108 188.62 174.733 187.872 173.983C187.124 173.234 186.75 172.251 186.75 171.269C186.75 170.286 187.124 169.303 187.872 168.554C188.62 167.804 189.601 167.429 190.582 167.429C191.562 167.429 192.543 167.804 193.291 168.554C194.039 169.303 194.414 170.286 194.414 171.269C194.414 172.251 194.039 173.234 193.291 173.983ZM189.348 184.994C190.173 184.994 190.999 184.678 191.628 184.047C192.258 183.417 192.572 182.59 192.573 181.763C192.573 180.937 192.258 180.11 191.628 179.479C190.999 178.848 190.173 178.533 189.348 178.533C188.523 178.533 187.698 178.848 187.068 179.479C186.439 180.11 186.124 180.937 186.124 181.763C186.124 182.59 186.439 183.417 187.068 184.047C187.698 184.678 188.523 184.994 189.348 184.994ZM192.595 185.016C191.699 185.915 190.523 186.364 189.348 186.364C188.173 186.364 186.998 185.915 186.101 185.016C185.205 184.118 184.757 182.941 184.757 181.763C184.757 180.586 185.205 179.408 186.101 178.51C186.998 177.612 188.173 177.163 189.348 177.163C190.523 177.163 191.699 177.612 192.595 178.51C193.492 179.408 193.94 180.586 193.94 181.763C193.94 182.941 193.492 184.118 192.595 185.016ZM155.118 188.814C155.118 189.242 154.955 189.67 154.63 189.996C154.304 190.323 153.877 190.486 153.45 190.486C153.023 190.486 152.596 190.323 152.271 189.996C151.945 189.67 151.782 189.242 151.782 188.814C151.782 188.387 151.945 187.959 152.271 187.632C152.596 187.306 153.023 187.143 153.45 187.143C153.877 187.143 154.304 187.306 154.63 187.632C154.955 187.959 155.118 188.387 155.118 188.814ZM155.597 190.965C156.189 190.371 156.485 189.593 156.485 188.814C156.485 188.036 156.189 187.257 155.597 186.664C155.004 186.07 154.227 185.773 153.45 185.773C152.673 185.773 151.896 186.07 151.303 186.664C150.711 187.257 150.414 188.036 150.414 188.814C150.414 189.593 150.711 190.371 151.303 190.965C151.896 191.559 152.673 191.856 153.45 191.856C154.227 191.856 155.004 191.559 155.597 190.965ZM163.576 190.481C163.576 191.01 163.374 191.54 162.97 191.945C162.567 192.349 162.038 192.551 161.509 192.551C160.981 192.551 160.452 192.349 160.048 191.945C159.645 191.54 159.443 191.01 159.443 190.481C159.443 189.951 159.645 189.421 160.048 189.017C160.452 188.612 160.981 188.41 161.509 188.41C162.038 188.41 162.567 188.613 162.97 189.017C163.374 189.421 163.576 189.951 163.576 190.481ZM163.937 192.913C164.608 192.242 164.943 191.361 164.943 190.481C164.943 189.6 164.608 188.72 163.937 188.048C163.267 187.376 162.388 187.04 161.509 187.04C160.631 187.04 159.752 187.376 159.081 188.048C158.411 188.72 158.076 189.6 158.076 190.481C158.076 191.361 158.411 192.242 159.081 192.913C159.752 193.585 160.631 193.921 161.509 193.921C162.388 193.921 163.267 193.585 163.937 192.913ZM173.329 191.024C173.328 191.656 173.088 192.288 172.607 192.77C172.125 193.252 171.495 193.493 170.864 193.493C170.234 193.493 169.603 193.252 169.122 192.77C168.641 192.288 168.4 191.656 168.4 191.024C168.4 190.393 168.64 189.761 169.122 189.279C169.603 188.796 170.234 188.555 170.864 188.555C171.495 188.555 172.125 188.796 172.607 189.279C173.088 189.761 173.329 190.393 173.329 191.024ZM173.574 193.739C174.322 192.99 174.696 192.007 174.696 191.024C174.696 190.042 174.322 189.059 173.574 188.31C172.825 187.56 171.845 187.185 170.864 187.185C169.883 187.185 168.903 187.56 168.155 188.31C167.406 189.059 167.032 190.042 167.032 191.024C167.032 192.007 167.406 192.99 168.155 193.739C168.903 194.489 169.883 194.864 170.864 194.864C171.845 194.864 172.826 194.489 173.574 193.739ZM184.563 189.788C184.563 190.615 184.248 191.442 183.618 192.073C182.989 192.703 182.163 193.019 181.338 193.019C180.513 193.019 179.688 192.703 179.059 192.073C178.429 191.442 178.114 190.615 178.114 189.788C178.114 188.962 178.429 188.135 179.059 187.504C179.688 186.873 180.513 186.558 181.338 186.558C182.163 186.558 182.989 186.873 183.618 187.504C184.248 188.135 184.563 188.962 184.563 189.788ZM184.585 193.042C185.482 192.143 185.93 190.966 185.93 189.788C185.93 188.611 185.482 187.433 184.585 186.535C183.689 185.637 182.513 185.188 181.338 185.188C180.163 185.188 178.988 185.637 178.091 186.535C177.195 187.433 176.747 188.611 176.747 189.788C176.747 190.966 177.195 192.143 178.091 193.042C178.988 193.94 180.163 194.389 181.338 194.389C182.514 194.389 183.689 193.94 184.585 193.042ZM182.448 132.421C178.473 128.438 174.052 125.174 169.345 122.627C168.651 123.045 167.93 123.439 167.184 123.809C172.162 126.346 176.833 129.701 180.998 133.874C188.945 141.837 193.92 151.645 195.923 161.917C197.961 172.366 196.926 183.3 192.818 193.265C182.873 197.38 171.959 198.418 161.53 196.376C151.278 194.369 141.489 189.384 133.542 181.422C129.377 177.249 126.029 172.569 123.496 167.581C123.126 168.329 122.733 169.051 122.317 169.747C124.858 174.463 128.116 178.892 132.091 182.875C140.332 191.132 150.49 196.302 161.134 198.386C172.1 200.533 183.579 199.402 194.001 194.995L194.384 194.833L194.545 194.45C198.944 184.007 200.072 172.507 197.929 161.519C195.849 150.855 190.689 140.678 182.448 132.421Z" fill="url(#paint8_linear_590_94)"/>
<path fill-rule="evenodd" clip-rule="evenodd" d="M140.635 71.6355C140.673 71.6006 152.827 60.3965 169.107 58.9353C163.826 58.0359 158.413 58.101 153.152 59.1311C145.177 60.6927 137.546 64.4733 131.244 70.4736C130.644 69.973 129.929 69.6818 129.195 69.6001C135.903 62.9687 144.135 58.8093 152.756 57.1214C161.738 55.3627 171.138 56.2884 179.674 59.8978L180.056 60.0595L180.218 60.4427C183.82 68.9949 184.744 78.4134 182.989 87.4128C181.304 96.0503 177.153 104.298 170.534 111.019C170.453 110.284 170.162 109.567 169.662 108.966C175.651 102.652 179.424 95.0064 180.983 87.0154C182.011 81.7446 182.076 76.3215 181.178 71.0294C179.72 87.3414 168.537 99.5186 168.503 99.5573L167.746 98.8675C167.783 98.8266 180.566 84.9039 180.306 67.0193L180.302 67.0032C179.454 72.0096 177.561 76.4265 175.333 80.1419C170.374 88.4133 163.639 93.2577 163.162 93.3751L162.915 92.3789C163.353 92.271 169.649 87.6313 174.458 79.611C176.951 75.4533 179.012 70.3992 179.593 64.6197C179.263 63.6122 178.895 62.6143 178.491 61.6278C177.506 61.2225 176.51 60.8545 175.505 60.5235C169.736 61.1051 164.692 63.1708 160.542 65.6687C152.537 70.4868 147.907 76.7945 147.799 77.2333L146.805 76.9862C146.922 76.5081 151.757 69.7604 160.012 64.7914C163.721 62.5596 168.129 60.6631 173.126 59.8135L173.11 59.8092C155.259 59.5486 141.364 72.3563 141.323 72.3934L140.635 71.6355ZM155.156 51.6861C155.156 51.2584 154.993 50.8308 154.667 50.5043C154.341 50.1779 153.914 50.0147 153.488 50.0147C153.061 50.0147 152.634 50.178 152.308 50.5043C151.982 50.8308 151.819 51.2584 151.819 51.6861C151.819 52.1137 151.982 52.5416 152.308 52.8679C152.634 53.1944 153.061 53.3576 153.488 53.3576C153.914 53.3576 154.341 53.1944 154.667 52.8679C154.993 52.5416 155.156 52.1137 155.156 51.6861Z" fill="url(#paint9_linear_590_94)"/>
<defs>
<linearGradient id="paint0_linear_590_94" x1="138.685" y1="120.213" x2="138.685" y2="157.592" gradientUnits="userSpaceOnUse">
<stop stop-color="white" stop-opacity="0.937255"/>
<stop offset="0.995605" stop-color="#444444"/>
</linearGradient>
<linearGradient id="paint1_linear_590_94" x1="146.412" y1="112.258" x2="146.412" y2="128.168" gradientUnits="userSpaceOnUse">
<stop stop-color="white" stop-opacity="0.937255"/>
<stop offset="0.995605" stop-color="#444444"/>
</linearGradient>
<linearGradient id="paint2_linear_590_94" x1="138.685" y1="82.8334" x2="138.685" y2="120.213" gradientUnits="userSpaceOnUse">
<stop stop-color="white" stop-opacity="0.937255"/>
<stop offset="0.995605" stop-color="#444444"/>
</linearGradient>
<linearGradient id="paint3_linear_590_94" x1="120.031" y1="67.3504" x2="120.031" y2="120.213" gradientUnits="userSpaceOnUse">
<stop stop-color="white" stop-opacity="0.937255"/>
<stop offset="0.995605" stop-color="#444444"/>
</linearGradient>
<linearGradient id="paint4_linear_590_94" x1="101.378" y1="82.8334" x2="101.378" y2="120.213" gradientUnits="userSpaceOnUse">
<stop stop-color="white" stop-opacity="0.937255"/>
<stop offset="0.995605" stop-color="#444444"/>
</linearGradient>
<linearGradient id="paint5_linear_590_94" x1="93.6512" y1="112.258" x2="93.6512" y2="128.168" gradientUnits="userSpaceOnUse">
<stop stop-color="white" stop-opacity="0.937255"/>
<stop offset="0.995605" stop-color="#444444"/>
</linearGradient>
<linearGradient id="paint6_linear_590_94" x1="101.378" y1="120.213" x2="101.378" y2="157.592" gradientUnits="userSpaceOnUse">
<stop stop-color="white" stop-opacity="0.937255"/>
<stop offset="0.995605" stop-color="#444444"/>
</linearGradient>
<linearGradient id="paint7_linear_590_94" x1="120.031" y1="120.213" x2="120.031" y2="173.075" gradientUnits="userSpaceOnUse">
<stop stop-color="white" stop-opacity="0.937255"/>
<stop offset="0.995605" stop-color="#444444"/>
</linearGradient>
<linearGradient id="paint8_linear_590_94" x1="160.649" y1="122.627" x2="160.649" y2="199.441" gradientUnits="userSpaceOnUse">
<stop stop-color="white" stop-opacity="0.937255"/>
<stop offset="0.995605" stop-color="#444444"/>
</linearGradient>
<linearGradient id="paint9_linear_590_94" x1="160.687" y1="41.0597" x2="160.687" y2="117.873" gradientUnits="userSpaceOnUse">
<stop stop-color="white" stop-opacity="0.937255"/>
<stop offset="0.995605" stop-color="#444444"/>
</linearGradient>
<linearGradient id="paint10_linear_590_94" x1="79.3133" y1="41.0598" x2="79.3133" y2="117.873" gradientUnits="userSpaceOnUse">
<stop stop-color="white" stop-opacity="0.937255"/>
<stop offset="0.995605" stop-color="#444444"/>
</linearGradient>
<linearGradient id="paint11_linear_590_94" x1="79.3133" y1="122.591" x2="79.3133" y2="199.404" gradientUnits="userSpaceOnUse">
<stop stop-color="white" stop-opacity="0.937255"/>
<stop offset="0.995605" stop-color="#444444"/>
</linearGradient>
<linearGradient id="paint12_linear_590_94" x1="198.189" y1="104.742" x2="198.189" y2="135.722" gradientUnits="userSpaceOnUse">
<stop stop-color="white" stop-opacity="0.937255"/>
<stop offset="0.995605" stop-color="#444444"/>
</linearGradient>
<linearGradient id="paint13_linear_590_94" x1="120" y1="14.8615" x2="120" y2="68.9225" gradientUnits="userSpaceOnUse">
<stop stop-color="white" stop-opacity="0.937255"/>
<stop offset="0.995605" stop-color="#444444"/>
</linearGradient>
<linearGradient id="paint14_linear_590_94" x1="41.8109" y1="104.742" x2="41.8109" y2="135.721" gradientUnits="userSpaceOnUse">
<stop stop-color="white" stop-opacity="0.937255"/>
<stop offset="0.995605" stop-color="#444444"/>
</linearGradient>
<linearGradient id="paint15_linear_590_94" x1="120" y1="171.541" x2="120" y2="225.602" gradientUnits="userSpaceOnUse">
<stop stop-color="white" stop-opacity="0.937255"/>
<stop offset="0.995605" stop-color="#444444"/>
</linearGradient>
<linearGradient id="paint16_linear_590_94" x1="218.917" y1="67.9651" x2="218.917" y2="172.499" gradientUnits="userSpaceOnUse">
<stop stop-color="white" stop-opacity="0.937255"/>
<stop offset="0.995605" stop-color="#444444"/>
</linearGradient>
<linearGradient id="paint17_linear_590_94" x1="120" y1="0" x2="120" y2="42.2477" gradientUnits="userSpaceOnUse">
<stop stop-color="white" stop-opacity="0.937255"/>
<stop offset="0.995605" stop-color="#444444"/>
</linearGradient>
<linearGradient id="paint18_linear_590_94" x1="21.0831" y1="67.9651" x2="21.0831" y2="172.499" gradientUnits="userSpaceOnUse">
<stop stop-color="white" stop-opacity="0.937255"/>
<stop offset="0.995605" stop-color="#444444"/>
</linearGradient>
<linearGradient id="paint19_linear_590_94" x1="120" y1="198.216" x2="120" y2="240.463" gradientUnits="userSpaceOnUse">
<stop stop-color="white" stop-opacity="0.937255"/>
<stop offset="0.995605" stop-color="#444444"/>
</linearGradient>
</defs>
</svg>
<svg width="240" height="241" viewBox="0 0 240 241" fill="none" xmlns="http://www.w3.org/2000/svg">
<path d="M134.521 143.074C140.532 149.096 147.914 153.712 154.883 155.131C153.466 148.149 148.859 140.753 142.849 134.731C136.838 128.709 129.456 124.094 122.487 122.674C123.905 129.656 128.511 137.052 134.521 143.074ZM155.992 157.4C148.165 156.287 139.769 151.239 133.071 144.528C126.372 137.816 121.335 129.405 120.223 121.563L120.031 120.213L121.379 120.405C129.205 121.518 137.601 126.566 144.299 133.277C150.998 139.989 156.036 148.401 157.147 156.242L157.339 157.592L155.992 157.4Z" fill="url(#paint0_linear_590_94)"/>
<path d="M146.412 126.113C154.912 126.113 163.389 124.146 169.319 120.213C163.389 116.28 154.912 114.313 146.412 114.313C137.912 114.313 129.435 116.28 123.505 120.213C129.435 124.146 137.912 126.113 146.412 126.113ZM171.704 121.032C165.384 125.789 155.885 128.168 146.412 128.168C136.939 128.168 127.44 125.789 121.12 121.032L120.031 120.213L121.12 119.394C127.44 114.636 136.939 112.258 146.412 112.258C155.885 112.258 165.384 114.636 171.704 119.394L172.792 120.213L171.704 121.032Z" fill="url(#paint1_linear_590_94)"/>
<path d="M142.849 105.695C148.859 99.6729 153.466 92.2764 154.883 85.2943C147.914 86.714 140.532 91.3294 134.521 97.3514C128.511 103.373 123.905 110.77 122.488 117.752C129.456 116.332 136.838 111.717 142.849 105.695ZM157.147 84.1832C156.036 92.025 150.998 100.437 144.299 107.148C137.601 113.859 129.205 118.907 121.379 120.021L120.031 120.213L120.223 118.863C121.334 111.021 126.372 102.609 133.071 95.898C139.769 89.1866 148.165 84.1388 155.991 83.0252L157.339 82.8334L157.147 84.1832Z" fill="url(#paint2_linear_590_94)"/>
<path d="M125.92 93.7817C125.92 85.2654 123.957 76.7716 120.031 70.8306C116.106 76.7716 114.143 85.2654 114.143 93.7817C114.143 102.298 116.106 110.792 120.031 116.733C123.957 110.792 125.92 102.298 125.92 93.7817ZM120.849 68.4404C125.597 74.773 127.971 84.2903 127.971 93.7815C127.971 103.273 125.597 112.79 120.849 119.123L120.031 120.213L119.214 119.123C114.466 112.79 112.092 103.273 112.092 93.7815C112.092 84.2903 114.466 74.773 119.214 68.4404L120.031 67.3504L120.849 68.4404Z" fill="url(#paint3_linear_590_94)"/>
<path d="M105.541 97.3514C99.5311 91.3294 92.1488 86.714 85.18 85.2943C86.5971 92.2764 91.2036 99.6729 97.2139 105.695C103.224 111.717 110.607 116.332 117.575 117.752C116.158 110.77 111.552 103.373 105.541 97.3514ZM84.0714 83.0252C91.898 84.1388 100.294 89.1866 106.992 95.898C113.69 102.609 118.728 111.021 119.84 118.863L120.031 120.213L118.684 120.021C110.858 118.907 102.462 113.859 95.7636 107.148C89.0653 100.437 84.027 92.025 82.9156 84.1832L82.7241 82.8334L84.0714 83.0252Z" fill="url(#paint4_linear_590_94)"/>
<path d="M93.6511 114.313C85.1513 114.313 76.674 116.28 70.7444 120.213C76.674 124.146 85.1513 126.113 93.6511 126.113C102.151 126.113 110.628 124.146 116.558 120.213C110.628 116.28 102.151 114.313 93.6511 114.313ZM68.3588 119.394C74.6792 114.636 84.1783 112.258 93.6511 112.258C103.124 112.258 112.623 114.636 118.943 119.394L120.031 120.213L118.943 121.032C112.623 125.789 103.124 128.168 93.6511 128.168C84.1782 128.168 74.6792 125.789 68.3588 121.032L67.271 120.213L68.3588 119.394Z" fill="url(#paint5_linear_590_94)"/>
<path d="M97.214 134.731C91.2037 140.753 86.5972 148.149 85.1801 155.131C92.1488 153.712 99.5311 149.096 105.542 143.074C111.552 137.052 116.158 129.656 117.575 122.674C110.607 124.094 103.224 128.709 97.214 134.731ZM82.9156 156.242C84.027 148.401 89.0651 139.989 95.7636 133.277C102.462 126.566 110.857 121.518 118.684 120.405L120.031 120.213L119.84 121.563C118.728 129.405 113.69 137.816 106.992 144.528C100.294 151.239 91.898 156.287 84.0714 157.4L82.7242 157.592L82.9156 156.242Z" fill="url(#paint6_linear_590_94)"/>
<path d="M114.143 146.644C114.143 155.16 116.106 163.654 120.031 169.595C123.957 163.654 125.92 155.16 125.92 146.644C125.92 138.128 123.957 129.634 120.031 123.693C116.106 129.634 114.143 138.128 114.143 146.644ZM119.214 171.985C114.466 165.653 112.092 156.135 112.092 146.644C112.092 137.153 114.466 127.635 119.214 121.303L120.031 120.213L120.849 121.303C125.597 127.635 127.971 137.153 127.971 146.644C127.971 156.135 125.597 165.653 120.849 171.985L120.031 173.075L119.214 171.985Z" fill="url(#paint7_linear_590_94)"/>
<path fill-rule="evenodd" clip-rule="evenodd" d="M168.465 140.943C168.5 140.982 179.682 153.159 181.141 169.471C182.039 164.179 181.974 158.756 180.945 153.485C179.387 145.494 175.614 137.848 169.625 131.534C170.125 130.933 170.415 130.217 170.497 129.482C177.115 136.203 181.267 144.45 182.951 153.088C184.707 162.087 183.783 171.506 180.18 180.058L180.019 180.441L179.636 180.603C171.101 184.212 161.7 185.138 152.718 183.379C144.097 181.691 135.866 177.532 129.158 170.9C129.892 170.819 130.607 170.528 131.206 170.027C137.508 176.027 145.139 179.808 153.115 181.37C158.376 182.4 163.788 182.465 169.07 181.565C152.789 180.104 140.636 168.9 140.597 168.865L141.286 168.107C141.327 168.144 155.222 180.952 173.073 180.691L173.089 180.687C168.092 179.838 163.683 177.941 159.975 175.709C151.72 170.74 146.885 163.993 146.768 163.514L147.762 163.267C147.869 163.706 152.5 170.014 160.505 174.832C164.655 177.33 169.699 179.395 175.467 179.977C176.473 179.646 177.469 179.278 178.454 178.873C178.858 177.886 179.225 176.888 179.556 175.881C178.975 170.102 176.913 165.047 174.421 160.89C169.612 152.869 163.316 148.23 162.878 148.122L163.125 147.126C163.602 147.243 170.337 152.087 175.296 160.359C177.524 164.074 179.417 168.491 180.264 173.497L180.269 173.481C180.529 155.597 167.746 141.674 167.709 141.633L168.465 140.943Z" fill="url(#paint8_linear_590_94)"/>
<path fill-rule="evenodd" clip-rule="evenodd" d="M140.635 71.6355C140.673 71.6006 152.827 60.3965 169.107 58.9353C163.826 58.0359 158.413 58.101 153.152 59.1311C145.177 60.6927 137.546 64.4733 131.244 70.4736C130.644 69.973 129.929 69.6818 129.195 69.6001C135.903 62.9687 144.135 58.8093 152.756 57.1214C161.738 55.3627 171.138 56.2884 179.674 59.8978L180.056 60.0595L180.218 60.4427C183.82 68.9949 184.744 78.4134 182.989 87.4128C181.304 96.0503 177.153 104.298 170.534 111.019C170.453 110.284 170.162 109.567 169.662 108.966C175.651 102.652 179.424 95.0064 180.983 87.0154C182.011 81.7446 182.076 76.3215 181.178 71.0294C179.72 87.3414 168.537 99.5186 168.503 99.5573L167.746 98.8675C167.783 98.8266 180.566 84.9039 180.306 67.0193L180.302 67.0032C179.454 72.0096 177.561 76.4265 175.333 80.1419C170.374 88.4133 163.639 93.2577 163.162 93.3751L162.915 92.3789C163.353 92.271 169.649 87.6313 174.458 79.611C176.951 75.4533 179.012 70.3992 179.593 64.6197C179.263 63.6122 178.895 62.6143 178.491 61.6278C177.506 61.2225 176.51 60.8545 175.505 60.5235C169.736 61.1051 164.692 63.1708 160.542 65.6687C152.537 70.4868 147.907 76.7945 147.799 77.2333L146.805 76.9862C146.922 76.5081 151.757 69.7604 160.012 64.7914C163.721 62.5596 168.129 60.6631 173.126 59.8135L173.11 59.8092C155.259 59.5486 141.364 72.3563 141.323 72.3934L140.635 71.6355Z" fill="url(#paint9_linear_590_94)"/>
<path fill-rule="evenodd" clip-rule="evenodd" d="M71.4974 99.5573C71.4624 99.5187 60.2799 87.3416 58.8216 71.0295C57.9239 76.3216 57.9889 81.7446 59.017 87.0155C60.5756 95.0065 64.3489 102.652 70.3378 108.966C69.8379 109.567 69.5474 110.284 69.4659 111.019C62.8472 104.298 58.6959 96.0504 57.0113 87.4128C55.256 78.4134 56.1799 68.995 59.7824 60.4428L59.9437 60.0595L60.3262 59.8979C68.8618 56.2886 78.2624 55.3627 87.2444 57.1214C95.8652 58.8092 104.097 62.9688 110.805 69.6001C110.071 69.6818 109.356 69.973 108.756 70.4737C102.455 64.4734 94.8233 60.6928 86.8476 59.1312C81.5869 58.1012 76.1743 58.036 70.8926 58.9354C87.1732 60.3965 99.3267 71.6006 99.3652 71.6355L98.6768 72.3936C98.6362 72.3565 84.7401 59.5489 66.8901 59.8094L66.8739 59.8137C71.8707 60.6632 76.2792 62.5597 79.9873 64.7916C88.2428 69.7605 93.0778 76.5082 93.1951 76.9864L92.2008 77.2334C92.0932 76.7947 87.4624 70.487 79.4574 65.6689C75.3077 63.1711 70.2633 61.1053 64.4952 60.5236C63.4895 60.8547 62.4936 61.2227 61.509 61.628C61.1045 62.6143 60.7372 63.6124 60.4068 64.6199C60.9873 70.3993 63.0491 75.4535 65.542 79.6111C70.3508 87.6315 76.6465 92.2712 77.0844 92.3791L76.838 93.3753C76.3605 93.2578 69.6259 88.4135 64.6668 80.1421C62.439 76.4267 60.5462 72.0098 59.6983 67.0034L59.6941 67.0195C59.4339 84.9041 72.2169 98.8267 72.2539 98.8676L71.4974 99.5573Z" fill="url(#paint10_linear_590_94)"/>
<path fill-rule="evenodd" clip-rule="evenodd" d="M140.636 71.6355C140.673 71.6006 152.827 60.3965 169.107 58.9353C163.826 58.0359 158.413 58.101 153.152 59.1311C145.177 60.6927 137.546 64.4733 131.244 70.4736C130.644 69.973 129.929 69.6818 129.195 69.6001C135.903 62.9687 144.135 58.8093 152.756 57.1214C161.738 55.3627 171.138 56.2884 179.674 59.8978L180.056 60.0595L180.218 60.4427C183.82 68.9949 184.744 78.4134 182.989 87.4128C181.304 96.0503 177.153 104.298 170.534 111.019C170.453 110.284 170.162 109.567 169.662 108.966C175.651 102.652 179.424 95.0064 180.983 87.0154C182.011 81.7446 182.076 76.3215 181.178 71.0294C179.72 87.3414 168.537 99.5186 168.503 99.5573L167.746 98.8675C167.783 98.8266 180.566 84.9039 180.306 67.0193L180.302 67.0032C179.454 72.0096 177.561 76.4265 175.333 80.1419C170.374 88.4133 163.639 93.2577 163.162 93.3751L162.915 92.3789C163.353 92.271 169.649 87.6313 174.458 79.611C176.951 75.4533 179.012 70.3992 179.593 64.6197C179.263 63.6122 178.895 62.6143 178.491 61.6278C177.506 61.2225 176.51 60.8545 175.505 60.5235C169.736 61.1051 164.692 63.1708 160.542 65.6687C152.537 70.4868 147.907 76.7945 147.799 77.2333L146.805 76.9862C146.922 76.5081 151.757 69.7604 160.012 64.7914C163.721 62.5596 168.129 60.6631 173.126 59.8135L173.11 59.8092C155.259 59.5486 141.364 72.3563 141.323 72.3934L140.636 71.6355ZM155.156 51.6861C155.156 51.2584 154.993 50.8308 154.667 50.5043C154.341 50.1779 153.914 50.0147 153.488 50.0147C153.061 50.0147 152.634 50.178 152.308 50.5043C151.982 50.8308 151.819 51.2584 151.819 51.6861C151.819 52.1137 151.982 52.5416 152.308 52.8679C152.634 53.1944 153.061 53.3576 153.488 53.3576C153.914 53.3576 154.341 53.1944 154.667 52.8679C154.993 52.5416 155.156 52.1137 155.156 51.6861ZM155.634 49.5355C156.227 50.1293 156.523 50.9077 156.523 51.6862C156.523 52.4647 156.227 53.2432 155.634 53.8369C155.041 54.4307 154.264 54.7278 153.488 54.7277C152.711 54.7278 151.934 54.4307 151.341 53.8369C150.748 53.2432 150.452 52.4646 150.452 51.6862C150.452 50.9078 150.748 50.1293 151.341 49.5355C151.934 48.9417 152.711 48.6447 153.488 48.6447C154.265 48.6447 155.042 48.9417 155.634 49.5355Z" fill="url(#paint9_linear_590_94)"/>
<defs>
<linearGradient id="paint0_linear_590_94" x1="138.685" y1="120.213" x2="138.685" y2="157.592" gradientUnits="userSpaceOnUse">
<stop stop-color="white" stop-opacity="0.937255"/>
<stop offset="0.995605" stop-color="#444444"/>
</linearGradient>
<linearGradient id="paint1_linear_590_94" x1="146.412" y1="112.258" x2="146.412" y2="128.168" gradientUnits="userSpaceOnUse">
<stop stop-color="white" stop-opacity="0.937255"/>
<stop offset="0.995605" stop-color="#444444"/>
</linearGradient>
<linearGradient id="paint2_linear_590_94" x1="138.685" y1="82.8334" x2="138.685" y2="120.213" gradientUnits="userSpaceOnUse">
<stop stop-color="white" stop-opacity="0.937255"/>
<stop offset="0.995605" stop-color="#444444"/>
</linearGradient>
<linearGradient id="paint3_linear_590_94" x1="120.031" y1="67.3504" x2="120.031" y2="120.213" gradientUnits="userSpaceOnUse">
<stop stop-color="white" stop-opacity="0.937255"/>
<stop offset="0.995605" stop-color="#444444"/>
</linearGradient>
<linearGradient id="paint4_linear_590_94" x1="101.378" y1="82.8334" x2="101.378" y2="120.213" gradientUnits="userSpaceOnUse">
<stop stop-color="white" stop-opacity="0.937255"/>
<stop offset="0.995605" stop-color="#444444"/>
</linearGradient>
<linearGradient id="paint5_linear_590_94" x1="93.6512" y1="112.258" x2="93.6512" y2="128.168" gradientUnits="userSpaceOnUse">
<stop stop-color="white" stop-opacity="0.937255"/>
<stop offset="0.995605" stop-color="#444444"/>
</linearGradient>
<linearGradient id="paint6_linear_590_94" x1="101.378" y1="120.213" x2="101.378" y2="157.592" gradientUnits="userSpaceOnUse">
<stop stop-color="white" stop-opacity="0.937255"/>
<stop offset="0.995605" stop-color="#444444"/>
</linearGradient>
<linearGradient id="paint7_linear_590_94" x1="120.031" y1="120.213" x2="120.031" y2="173.075" gradientUnits="userSpaceOnUse">
<stop stop-color="white" stop-opacity="0.937255"/>
<stop offset="0.995605" stop-color="#444444"/>
</linearGradient>
<linearGradient id="paint8_linear_590_94" x1="160.649" y1="122.627" x2="160.649" y2="199.441" gradientUnits="userSpaceOnUse">
<stop stop-color="white" stop-opacity="0.937255"/>
<stop offset="0.995605" stop-color="#444444"/>
</linearGradient>
<linearGradient id="paint9_linear_590_94" x1="160.687" y1="41.0597" x2="160.687" y2="117.873" gradientUnits="userSpaceOnUse">
<stop stop-color="white" stop-opacity="0.937255"/>
<stop offset="0.995605" stop-color="#444444"/>
</linearGradient>
<linearGradient id="paint10_linear_590_94" x1="79.3133" y1="41.0598" x2="79.3133" y2="117.873" gradientUnits="userSpaceOnUse">
<stop stop-color="white" stop-opacity="0.937255"/>
<stop offset="0.995605" stop-color="#444444"/>
</linearGradient>
</defs>
</svg>

