<svg width="115" height="115" viewBox="0 0 115 115" fill="none" xmlns="http://www.w3.org/2000/svg">
<circle cx="57.5" cy="57.5" r="57.5" fill="white"/>
<path d="M62.828 64.9325C65.0096 67.1183 67.6892 68.7936 70.2186 69.3089C69.7043 66.7746 68.0322 64.0899 65.8507 61.904C63.669 59.7182 60.9895 58.0429 58.46 57.5276C58.9744 60.0619 60.6464 62.7467 62.828 64.9325ZM70.6212 70.1325C67.7803 69.7283 64.7329 67.896 62.3015 65.46C59.8701 63.0239 58.0415 59.9707 57.638 57.1243L57.5685 56.6343L58.0575 56.7039C60.8984 57.1082 63.9457 58.9404 66.3772 61.3765C68.8085 63.8125 70.6373 66.8658 71.0407 69.7122L71.1101 70.2021L70.6212 70.1325Z" fill="url(#paint0_linear_570_110)"/>
<path d="M67.144 58.7758C70.2292 58.7758 73.3063 58.062 75.4585 56.6344C73.3063 55.2068 70.2292 54.4929 67.144 54.4929C64.0587 54.4929 60.9816 55.2068 58.8293 56.6344C60.9816 58.062 64.0587 58.7758 67.144 58.7758ZM76.3245 56.9316C74.0303 58.6584 70.5824 59.5219 67.144 59.5219C63.7055 59.5219 60.2575 58.6584 57.9635 56.9316L57.5685 56.6343L57.9635 56.3371C60.2575 54.6103 63.7055 53.7468 67.144 53.7468C70.5824 53.7468 74.0303 54.6103 76.3245 56.3371L76.7193 56.6343L76.3245 56.9316Z" fill="url(#paint1_linear_570_110)"/>
<path d="M65.8507 51.3647C68.0322 49.1789 69.7043 46.4942 70.2186 43.9598C67.6892 44.4752 65.0096 46.1504 62.828 48.3362C60.6464 50.5221 58.9744 53.2069 58.46 55.7411C60.9895 55.2258 63.669 53.5505 65.8507 51.3647ZM71.0406 43.5565C70.6372 46.4029 68.8085 49.4562 66.3771 51.8922C63.9457 54.3283 60.8984 56.1605 58.0575 56.5648L57.5684 56.6344L57.6379 56.1444C58.0414 53.298 59.8701 50.2448 62.3015 47.8087C64.7328 45.3726 67.7803 43.5404 70.6211 43.1362L71.1101 43.0666L71.0406 43.5565Z" fill="url(#paint2_linear_570_110)"/>
<path d="M59.7059 47.0405C59.7059 43.9493 58.9934 40.8663 57.5685 38.7098C56.1436 40.8663 55.4311 43.9493 55.4311 47.0405C55.4311 50.1317 56.1436 53.2147 57.5685 55.3712C58.9934 53.2147 59.7059 50.1317 59.7059 47.0405ZM57.8652 37.8423C59.5887 40.1408 60.4504 43.5954 60.4504 47.0405C60.4504 50.4856 59.5887 53.9401 57.8652 56.2387L57.5685 56.6344L57.2718 56.2387C55.5483 53.9401 54.6866 50.4856 54.6866 47.0405C54.6866 43.5954 55.5483 40.1408 57.2718 37.8423L57.5685 37.4466L57.8652 37.8423Z" fill="url(#paint3_linear_570_110)"/>
<path d="M52.309 48.3362C50.1274 46.1504 47.4478 44.4752 44.9183 43.9598C45.4327 46.4942 47.1047 49.1789 49.2863 51.3647C51.4679 53.5505 54.1475 55.2258 56.677 55.7411C56.1626 53.2068 54.4907 50.5221 52.309 48.3362ZM44.5159 43.1362C47.3568 43.5404 50.4041 45.3726 52.8355 47.8087C55.2669 50.2447 57.0956 53.298 57.4991 56.1444L57.5685 56.6344L57.0795 56.5648C54.2386 56.1605 51.1913 54.3283 48.7599 51.8922C46.3285 49.4562 44.4998 46.4029 44.0964 43.5565L44.0269 43.0666L44.5159 43.1362Z" fill="url(#paint4_linear_570_110)"/>
<path d="M47.9931 54.4929C44.9079 54.4929 41.8308 55.2067 39.6785 56.6343C41.8308 58.062 44.9079 58.7758 47.9931 58.7758C51.0784 58.7758 54.1555 58.062 56.3077 56.6343C54.1554 55.2067 51.0784 54.4929 47.9931 54.4929ZM38.8126 56.3371C41.1067 54.6103 44.5547 53.7468 47.9931 53.7468C51.4316 53.7468 54.8795 54.6103 57.1736 56.3371L57.5685 56.6343L57.1736 56.9316C54.8795 58.6584 51.4316 59.5219 47.9931 59.5219C44.5547 59.5219 41.1067 58.6584 38.8126 56.9316L38.4178 56.6343L38.8126 56.3371Z" fill="url(#paint5_linear_570_110)"/>
<path d="M49.2863 61.904C47.1047 64.0899 45.4327 66.7746 44.9183 69.3089C47.4478 68.7936 50.1274 67.1183 52.309 64.9325C54.4907 62.7467 56.1626 60.062 56.677 57.5276C54.1475 58.0429 51.468 59.7182 49.2863 61.904ZM44.0963 69.7122C44.4997 66.8658 46.3285 63.8125 48.7599 61.3765C51.1912 58.9404 54.2386 57.1082 57.0795 56.7039L57.5685 56.6343L57.4991 57.1243C57.0955 59.9707 55.2669 63.0239 52.8355 65.46C50.4042 67.896 47.3567 69.7283 44.5159 70.1325L44.0269 70.2021L44.0963 69.7122Z" fill="url(#paint6_linear_570_110)"/>
<path d="M55.4311 66.2282C55.4311 69.3194 56.1436 72.4025 57.5685 74.5589C58.9934 72.4025 59.7059 69.3194 59.7059 66.2282C59.7059 63.137 58.9934 60.054 57.5685 57.8975C56.1436 60.054 55.4311 63.137 55.4311 66.2282ZM57.2718 75.4265C55.5483 73.1279 54.6866 69.6733 54.6866 66.2282C54.6866 62.7831 55.5483 59.3286 57.2718 57.03L57.5685 56.6343L57.8652 57.03C59.5887 59.3286 60.4504 62.7831 60.4504 66.2282C60.4504 69.6733 59.5887 73.1279 57.8652 75.4265L57.5685 75.8221L57.2718 75.4265Z" fill="url(#paint7_linear_570_110)"/>
<path fill-rule="evenodd" clip-rule="evenodd" d="M75.1488 64.159C75.1615 64.173 79.2204 68.593 79.7498 74.5138C80.0756 72.593 80.0521 70.6246 79.6789 68.7114C79.1131 65.8108 77.7435 63.0355 75.5697 60.7437C75.7511 60.5257 75.8566 60.2656 75.8862 59.9987C78.2886 62.4383 79.7955 65.4319 80.4069 68.5672C81.0441 71.8337 80.7087 75.2524 79.4011 78.3567L79.3425 78.4957L79.2037 78.5545C76.1055 79.8646 72.6933 80.2006 69.433 79.5622C66.3039 78.9495 63.316 77.4398 60.8812 75.0327C61.1475 75.0031 61.4071 74.8974 61.6247 74.7157C63.9121 76.8936 66.6821 78.2659 69.5771 78.8328C71.4866 79.2066 73.4512 79.2303 75.3683 78.9038C69.4589 78.3735 65.0474 74.3066 65.0335 74.294L65.2834 74.0189C65.2982 74.0323 70.3419 78.6812 76.8212 78.5866L76.827 78.585C75.0133 78.2767 73.4131 77.5883 72.0672 76.7781C69.0707 74.9746 67.3157 72.5253 67.2731 72.3517L67.634 72.2621C67.6731 72.4213 69.3539 74.7109 72.2595 76.4598C73.7658 77.3664 75.5968 78.1162 77.6905 78.3274C78.0555 78.2072 78.417 78.0736 78.7744 77.9265C78.9212 77.5685 79.0545 77.2062 79.1745 76.8405C78.9637 74.7428 78.2153 72.9082 77.3105 71.399C75.565 68.4879 73.2798 66.8037 73.1209 66.7646L73.2103 66.403C73.3836 66.4457 75.8281 68.204 77.6282 71.2063C78.4369 72.5549 79.1239 74.1582 79.4316 75.9754L79.4332 75.9695C79.5276 69.4779 74.8877 64.4242 74.8743 64.4094L75.1488 64.159ZM82.376 69.4399C82.5309 69.4399 82.6859 69.3807 82.8041 69.2622C82.9224 69.1438 82.9815 68.9885 82.9815 68.8332C82.9815 68.678 82.9224 68.5227 82.8041 68.4043C82.6859 68.2858 82.5309 68.2265 82.376 68.2265C82.2211 68.2265 82.066 68.2858 81.9479 68.4043C81.8296 68.5227 81.7705 68.678 81.7705 68.8332C81.7705 68.9885 81.8296 69.1437 81.9479 69.2622C82.066 69.3807 82.221 69.4399 82.376 69.4399ZM83.1551 69.6139C82.9401 69.8294 82.658 69.9372 82.376 69.9372C82.094 69.9372 81.812 69.8294 81.5968 69.6139C81.3817 69.3983 81.2741 69.1157 81.2742 68.8332C81.2741 68.5507 81.3817 68.2681 81.5968 68.0526C81.812 67.837 82.094 67.7292 82.376 67.7292C82.658 67.7292 82.9401 67.837 83.1551 68.0526C83.3702 68.2681 83.4778 68.5507 83.4778 68.8332C83.4778 69.1158 83.3702 69.3983 83.1551 69.6139ZM82.9796 72.5158C83.1715 72.5158 83.3635 72.4424 83.51 72.2956C83.6564 72.1489 83.7296 71.9566 83.7296 71.7643C83.7296 71.572 83.6564 71.3798 83.51 71.233C83.3635 71.0862 83.1715 71.0128 82.9796 71.0128C82.7877 71.0128 82.5958 71.0863 82.4493 71.233C82.3029 71.3797 82.2297 71.572 82.2296 71.7643C82.2296 71.9566 82.3028 72.1489 82.4493 72.2956C82.5958 72.4424 82.7877 72.5158 82.9796 72.5158ZM83.8609 72.6473C83.6176 72.8911 83.2986 73.013 82.9796 73.013C82.6606 73.013 82.3416 72.8911 82.0983 72.6473C81.8549 72.4036 81.7333 72.0839 81.7332 71.7643C81.7333 71.4447 81.8549 71.1251 82.0983 70.8813C82.3416 70.6375 82.6606 70.5156 82.9796 70.5156C83.2986 70.5156 83.6176 70.6375 83.8609 70.8813C84.1043 71.125 84.226 71.4447 84.226 71.7643C84.226 72.0838 84.1043 72.4035 83.8609 72.6473ZM83.1766 76.0626C83.4055 76.0626 83.6344 75.975 83.8091 75.8001C83.9838 75.625 84.0711 75.3957 84.0711 75.1664C84.0711 74.9371 83.9838 74.7077 83.8091 74.5327C83.6344 74.3577 83.4055 74.2702 83.1766 74.2702C82.9478 74.2702 82.7188 74.3577 82.5441 74.5327C82.3695 74.7077 82.2821 74.9371 82.2821 75.1664C82.2821 75.3957 82.3695 75.625 82.5441 75.8001C82.7188 75.9751 82.9478 76.0626 83.1766 76.0626ZM84.1601 76.1518C83.8885 76.4238 83.5325 76.5598 83.1766 76.5599C82.8207 76.5599 82.4646 76.4238 82.1932 76.1518C81.9216 75.8797 81.7859 75.523 81.7858 75.1664C81.7858 74.8098 81.9216 74.4531 82.1932 74.181C82.4646 73.9089 82.8207 73.7728 83.1766 73.7728C83.5325 73.7728 83.8885 73.9089 84.1601 74.181C84.4316 74.453 84.5675 74.8098 84.5675 75.1664C84.5675 75.523 84.4317 75.8797 84.1601 76.1518ZM82.7289 80.1482C83.0283 80.1482 83.3279 80.0337 83.5564 79.8047C83.7849 79.5758 83.8992 79.2757 83.8993 78.9756C83.8992 78.6756 83.7849 78.3755 83.5564 78.1465C83.3279 77.9176 83.0283 77.8031 82.7289 77.8031C82.4294 77.8031 82.1299 77.9176 81.9014 78.1465C81.6728 78.3755 81.5585 78.6756 81.5585 78.9756C81.5585 79.2757 81.6728 79.5758 81.9014 79.8047C82.1299 80.0337 82.4294 80.1482 82.7289 80.1482ZM83.9074 80.1564C83.582 80.4825 83.1554 80.6455 82.7289 80.6455C82.3023 80.6455 81.8757 80.4825 81.5504 80.1564C81.2249 79.8304 81.0622 79.403 81.0622 78.9756C81.0622 78.5483 81.2249 78.1209 81.5504 77.7948C81.8758 77.4688 82.3023 77.3057 82.7289 77.3057C83.1554 77.3057 83.582 77.4688 83.9074 77.7948C84.2328 78.1209 84.3955 78.5483 84.3955 78.9756C84.3955 79.403 84.2328 79.8304 83.9074 80.1564ZM70.3042 81.535C70.3042 81.6902 70.245 81.8455 70.1268 81.964C70.0085 82.0825 69.8536 82.1417 69.6987 82.1417C69.5437 82.1417 69.3887 82.0825 69.2705 81.964C69.1523 81.8455 69.0931 81.6903 69.0931 81.535C69.0931 81.3798 69.1522 81.2245 69.2705 81.106C69.3888 80.9876 69.5437 80.9283 69.6987 80.9284C69.8536 80.9283 70.0085 80.9876 70.1268 81.106C70.245 81.2245 70.3042 81.3798 70.3042 81.535ZM70.4778 82.3157C70.6929 82.1002 70.8004 81.8176 70.8004 81.535C70.8004 81.2526 70.6929 80.9699 70.4778 80.7544C70.2626 80.5388 69.9806 80.431 69.6987 80.4311C69.4167 80.431 69.1346 80.5388 68.9195 80.7544C68.7044 80.9699 68.5968 81.2526 68.5968 81.535C68.5968 81.8176 68.7043 82.1002 68.9195 82.3157C69.1346 82.5312 69.4166 82.639 69.6987 82.639C69.9807 82.639 70.2627 82.5312 70.4778 82.3157ZM73.3741 82.1399C73.3741 82.3321 73.3008 82.5245 73.1544 82.6712C73.0079 82.8179 72.8159 82.8913 72.624 82.8913C72.4321 82.8913 72.2402 82.8179 72.0937 82.6712C71.9473 82.5245 71.874 82.3321 71.874 82.1399C71.874 81.9476 71.9473 81.7553 72.0937 81.6085C72.2402 81.4618 72.4321 81.3884 72.624 81.3884C72.8159 81.3884 73.0079 81.4618 73.1544 81.6085C73.3008 81.7553 73.374 81.9476 73.3741 82.1399ZM73.5053 83.0229C73.7487 82.7791 73.8704 82.4594 73.8704 82.1399C73.8704 81.8203 73.7486 81.5006 73.5053 81.2568C73.2621 81.0131 72.943 80.8911 72.624 80.8911C72.305 80.8911 71.986 81.0131 71.7427 81.2568C71.4994 81.5006 71.3777 81.8203 71.3777 82.1399C71.3777 82.4594 71.4994 82.7791 71.7427 83.0229C71.986 83.2667 72.3051 83.3886 72.624 83.3886C72.943 83.3886 73.262 83.2667 73.5053 83.0229ZM76.9141 82.3372C76.914 82.5665 76.8267 82.7959 76.652 82.9709C76.4774 83.1459 76.2484 83.2334 76.0196 83.2334C75.7907 83.2334 75.5618 83.146 75.3871 82.9709C75.2125 82.7959 75.1251 82.5665 75.1251 82.3372C75.1251 82.108 75.2124 81.8786 75.3871 81.7035C75.5618 81.5285 75.7907 81.441 76.0196 81.441C76.2485 81.4411 76.4774 81.5285 76.652 81.7035C76.8267 81.8786 76.9141 82.108 76.9141 82.3372ZM77.0031 83.3226C77.2745 83.0506 77.4104 82.6938 77.4104 82.3373C77.4104 81.9806 77.2745 81.6239 77.0031 81.3519C76.7315 81.0798 76.3755 80.9438 76.0195 80.9437C75.6636 80.9438 75.3076 81.0798 75.036 81.3519C74.7645 81.6239 74.6287 81.9806 74.6287 82.3373C74.6287 82.6938 74.7645 83.0506 75.036 83.3226C75.3076 83.5947 75.6636 83.7308 76.0195 83.7308C76.3755 83.7308 76.7316 83.5947 77.0031 83.3226ZM80.9918 81.8886C80.9918 82.1886 80.8775 82.4888 80.649 82.7177C80.4205 82.9467 80.1209 83.0612 79.8215 83.0612C79.5221 83.0612 79.2225 82.9467 78.994 82.7177C78.7654 82.4888 78.6512 82.1886 78.6512 81.8886C78.6512 81.5886 78.7654 81.2884 78.994 81.0595C79.2225 80.8305 79.5221 80.716 79.8215 80.716C80.1209 80.716 80.4205 80.8305 80.649 81.0595C80.8775 81.2885 80.9918 81.5886 80.9918 81.8886ZM81 83.0694C81.3254 82.7434 81.4882 82.3159 81.4882 81.8886C81.4882 81.4612 81.3254 81.0338 81 80.7078C80.6746 80.3818 80.248 80.2187 79.8214 80.2187C79.3949 80.2187 78.9683 80.3818 78.6429 80.7078C78.3175 81.0338 78.1548 81.4612 78.1548 81.8886C78.1548 82.3159 78.3175 82.7434 78.6429 83.0694C78.9683 83.3955 79.3949 83.5585 79.8214 83.5585C80.248 83.5585 80.6746 83.3955 81 83.0694ZM80.2243 61.0656C78.7815 59.6199 77.1767 58.435 75.4683 57.5107C75.2164 57.6622 74.9545 57.8052 74.6837 57.9398C76.4907 58.8607 78.1861 60.0784 79.6978 61.5931C82.5824 64.4833 84.3881 68.0433 85.1154 71.7718C85.8552 75.5647 85.4792 79.5335 83.9884 83.1505C80.3784 84.6442 76.4171 85.0209 72.6316 84.2797C68.9103 83.5511 65.3571 81.7419 62.4725 78.8517C60.9607 77.3371 59.7453 75.6383 58.8262 73.8278C58.692 74.0992 58.5492 74.3616 58.398 74.614C59.3205 76.3257 60.5031 77.9336 61.946 79.3792C64.9371 82.3762 68.6243 84.2527 72.4876 85.0092C76.4683 85.7886 80.6346 85.3782 84.4178 83.7785L84.5566 83.7198L84.6152 83.5807C86.2118 79.7902 86.6214 75.6159 85.8435 71.6275C85.0884 67.7568 83.2156 64.0625 80.2243 61.0656Z" fill="url(#paint8_linear_570_110)"/>
<path fill-rule="evenodd" clip-rule="evenodd" d="M65.047 39.002C65.061 38.9893 69.4725 34.9225 75.3819 34.3921C73.4648 34.0656 71.5002 34.0893 69.5907 34.4632C66.6957 35.03 63.9257 36.4023 61.6383 38.5802C61.4207 38.3985 61.1611 38.2928 60.8948 38.2632C63.3296 35.8561 66.3175 34.3464 69.4466 33.7337C72.7069 33.0953 76.1191 33.4313 79.2173 34.7415L79.3561 34.8002L79.4147 34.9393C80.7223 38.0435 81.0576 41.4622 80.4205 44.7287C79.809 47.864 78.3022 50.8576 75.8998 53.2971C75.8702 53.0303 75.7647 52.7702 75.5833 52.5522C77.7571 50.2604 79.1267 47.485 79.6924 44.5845C80.0656 42.6713 80.0892 40.7029 79.7634 38.782C79.234 44.7028 75.1751 49.1229 75.1624 49.1369L74.8878 48.8865C74.9012 48.8717 79.5411 43.8181 79.4467 37.3264L79.4451 37.3206C79.1374 39.1378 78.4504 40.741 77.6417 42.0896C75.8416 45.0919 73.3971 46.8503 73.2238 46.8929L73.1344 46.5313C73.2933 46.4922 75.5785 44.8081 77.324 41.8969C78.2288 40.3877 78.9772 38.5532 79.188 36.4554C79.068 36.0897 78.9347 35.7275 78.7879 35.3694C78.4305 35.2223 78.069 35.0887 77.704 34.9686C75.6103 35.1797 73.7793 35.9295 72.273 36.8362C69.3674 38.585 67.6866 40.8746 67.6475 41.0338L67.2866 40.9442C67.3292 40.7706 69.0842 38.3213 72.0807 36.5177C73.4267 35.7076 75.0268 35.0193 76.8405 34.7109L76.8347 34.7093C70.3554 34.6147 65.3116 39.2636 65.2969 39.2771L65.047 39.002ZM70.3178 31.7608C70.3178 31.6056 70.2587 31.4504 70.1404 31.3319C70.0222 31.2134 69.8672 31.1541 69.7123 31.1541C69.5573 31.1541 69.4023 31.2134 69.2842 31.3319C69.1659 31.4504 69.1067 31.6056 69.1067 31.7608C69.1067 31.916 69.1658 32.0713 69.2842 32.1898C69.4024 32.3083 69.5573 32.3675 69.7123 32.3675C69.8672 32.3675 70.0222 32.3083 70.1404 32.1898C70.2587 32.0713 70.3178 31.916 70.3178 31.7608ZM70.4914 30.9802C70.7065 31.1957 70.8141 31.4783 70.8141 31.7609C70.8141 32.0434 70.7065 32.326 70.4914 32.5415C70.2763 32.7571 69.9942 32.8649 69.7123 32.8648C69.4303 32.8649 69.1482 32.7571 68.9331 32.5415C68.718 32.326 68.6104 32.0434 68.6104 31.7609C68.6104 31.4783 68.718 31.1957 68.9331 30.9802C69.1482 30.7647 69.4302 30.6569 69.7123 30.6569C69.9943 30.6569 70.2763 30.7647 70.4914 30.9802ZM73.3877 31.156C73.3877 30.9638 73.3144 30.7714 73.168 30.6247C73.0215 30.4779 72.8296 30.4046 72.6376 30.4046C72.4457 30.4046 72.2538 30.4779 72.1073 30.6247C71.9609 30.7714 71.8876 30.9637 71.8876 31.156C71.8876 31.3483 71.9609 31.5406 72.1073 31.6874C72.2538 31.8341 72.4458 31.9075 72.6376 31.9075C72.8295 31.9075 73.0215 31.8341 73.168 31.6874C73.3144 31.5406 73.3877 31.3483 73.3877 31.156ZM73.519 30.273C73.7623 30.5168 73.884 30.8365 73.884 31.156C73.884 31.4756 73.7622 31.7953 73.519 32.0391C73.2757 32.2828 72.9566 32.4048 72.6376 32.4048C72.3187 32.4048 71.9996 32.2828 71.7563 32.0391C71.513 31.7952 71.3913 31.4756 71.3913 31.156C71.3913 30.8365 71.513 30.5168 71.7563 30.273C71.9996 30.0292 72.3187 29.9073 72.6376 29.9073C72.9566 29.9073 73.2756 30.0292 73.519 30.273ZM76.9277 30.9586C76.9277 30.7293 76.8403 30.5 76.6657 30.325C76.491 30.1499 76.262 30.0624 76.0332 30.0624C75.8044 30.0624 75.5754 30.1499 75.4007 30.325C75.2261 30.5 75.1387 30.7294 75.1387 30.9586C75.1387 31.1879 75.226 31.4173 75.4007 31.5923C75.5754 31.7674 75.8044 31.8548 76.0332 31.8549C76.2621 31.8548 76.491 31.7674 76.6657 31.5923C76.8403 31.4173 76.9277 31.1879 76.9277 30.9586ZM77.0167 29.9732C77.2882 30.2453 77.424 30.602 77.424 30.9586C77.424 31.3152 77.2882 31.6719 77.0167 31.944C76.7451 32.2161 76.3891 32.3521 76.0331 32.3522C75.6772 32.3521 75.3212 32.2161 75.0497 31.944C74.7781 31.6719 74.6424 31.3152 74.6424 30.9586C74.6424 30.602 74.7781 30.2453 75.0497 29.9732C75.3212 29.7012 75.6772 29.5651 76.0331 29.5651C76.3891 29.5651 76.7452 29.7012 77.0167 29.9732ZM81.0054 31.4073C81.0054 31.1072 80.8912 30.8071 80.6626 30.5781C80.4341 30.3492 80.1346 30.2346 79.8351 30.2346C79.5357 30.2346 79.2361 30.3492 79.0076 30.5781C78.779 30.8071 78.6648 31.1072 78.6648 31.4073C78.6648 31.7073 78.779 32.0074 79.0076 32.2363C79.2361 32.4654 79.5357 32.5798 79.8351 32.5798C80.1346 32.5798 80.4341 32.4654 80.6626 32.2363C80.8912 32.0074 81.0054 31.7073 81.0054 31.4073ZM81.0136 30.2264C81.339 30.5525 81.5018 30.9799 81.5018 31.4073C81.5018 31.8346 81.339 32.262 81.0136 32.5881C80.6882 32.9141 80.2616 33.0771 79.835 33.0771C79.4085 33.0771 78.982 32.9141 78.6565 32.5881C78.3311 32.262 78.1684 31.8346 78.1684 31.4073C78.1684 30.9799 78.3311 30.5525 78.6565 30.2264C78.982 29.9004 79.4085 29.7373 79.835 29.7373C80.2617 29.7373 80.6882 29.9004 81.0136 30.2264ZM82.3896 43.856C82.5445 43.856 82.6995 43.9152 82.8178 44.0337C82.936 44.1522 82.9951 44.3075 82.9951 44.4627C82.9951 44.618 82.936 44.7733 82.8178 44.8917C82.6995 45.0102 82.5445 45.0694 82.3896 45.0694C82.2347 45.0694 82.0797 45.0101 81.9615 44.8917C81.8432 44.7732 81.7841 44.618 81.7841 44.4627C81.7841 44.3075 81.8432 44.1522 81.9615 44.0337C82.0797 43.9152 82.2346 43.856 82.3896 43.856ZM83.1688 43.682C82.9537 43.4665 82.6716 43.3587 82.3896 43.3587C82.1076 43.3587 81.8256 43.4665 81.6104 43.682C81.3953 43.8976 81.2877 44.1802 81.2878 44.4627C81.2877 44.7452 81.3953 45.0278 81.6104 45.2433C81.8256 45.4589 82.1076 45.5666 82.3896 45.5666C82.6716 45.5666 82.9537 45.4589 83.1688 45.2433C83.3838 45.0278 83.4915 44.7452 83.4915 44.4627C83.4915 44.1801 83.3838 43.8975 83.1688 43.682ZM82.9933 40.7801C83.1851 40.7801 83.3771 40.8535 83.5236 41.0003C83.6701 41.147 83.7433 41.3393 83.7433 41.5316C83.7433 41.7239 83.67 41.9162 83.5236 42.0629C83.3771 42.2096 83.1851 42.283 82.9933 42.283C82.8013 42.283 82.6094 42.2097 82.4629 42.0629C82.3165 41.9162 82.2433 41.7238 82.2432 41.5316C82.2432 41.3393 82.3165 41.147 82.4629 41.0003C82.6094 40.8535 82.8013 40.7802 82.9933 40.7801ZM83.8746 40.6486C83.6312 40.4048 83.3122 40.2828 82.9932 40.2828C82.6742 40.2829 82.3552 40.4048 82.1119 40.6486C81.8686 40.8923 81.7469 41.212 81.7469 41.5316C81.7469 41.8512 81.8686 42.1708 82.1119 42.4146C82.3552 42.6585 82.6742 42.7804 82.9932 42.7804C83.3122 42.7804 83.6312 42.6584 83.8746 42.4146C84.1179 42.1708 84.2396 41.8512 84.2396 41.5316C84.2396 41.212 84.1179 40.8924 83.8746 40.6486ZM83.1902 37.2333C83.4191 37.2333 83.6481 37.3208 83.8227 37.4958C83.9974 37.6708 84.0847 37.9002 84.0847 38.1295C84.0847 38.3588 83.9974 38.5882 83.8227 38.7632C83.6481 38.9382 83.4191 39.0257 83.1902 39.0257C82.9614 39.0257 82.7324 38.9382 82.5578 38.7632C82.3831 38.5882 82.2958 38.3588 82.2957 38.1295C82.2958 37.9002 82.3831 37.6708 82.5578 37.4958C82.7324 37.3208 82.9614 37.2333 83.1902 37.2333ZM84.1737 37.1441C83.9022 36.8721 83.5461 36.7361 83.1902 36.736C82.8344 36.736 82.4782 36.8721 82.2068 37.1441C81.9352 37.4162 81.7995 37.7729 81.7994 38.1295C81.7994 38.4861 81.9352 38.8428 82.2068 39.1149C82.4782 39.387 82.8344 39.523 83.1902 39.523C83.5461 39.523 83.9022 39.387 84.1737 39.1149C84.4452 38.8428 84.5811 38.4861 84.5811 38.1295C84.5811 37.7729 84.4453 37.4162 84.1737 37.1441ZM82.7425 33.1477C83.0419 33.1477 83.3415 33.2622 83.5701 33.4912C83.7986 33.7201 83.9128 34.0202 83.9129 34.3203C83.9128 34.6203 83.7986 34.9204 83.5701 35.1494C83.3415 35.3784 83.0419 35.4928 82.7425 35.4928C82.443 35.4928 82.1435 35.3784 81.915 35.1494C81.6864 34.9204 81.5722 34.6203 81.5722 34.3203C81.5722 34.0202 81.6864 33.7201 81.915 33.4912C82.1436 33.2622 82.443 33.1477 82.7425 33.1477ZM83.921 33.1394C83.5956 32.8134 83.1691 32.6504 82.7425 32.6504C82.316 32.6504 81.8893 32.8134 81.564 33.1394C81.2386 33.4655 81.0758 33.8929 81.0758 34.3203C81.0758 34.7476 81.2386 35.175 81.564 35.501C81.8894 35.8271 82.316 35.9901 82.7425 35.9901C83.1691 35.9901 83.5956 35.8271 83.921 35.501C84.2464 35.175 84.4092 34.7476 84.4092 34.3203C84.4092 33.8929 84.2464 33.4655 83.921 33.1394ZM61.9596 33.9166C60.5167 35.3622 59.3341 36.9701 58.4116 38.6819C58.5628 38.9342 58.7055 39.1966 58.8398 39.468C59.759 37.6576 60.9743 35.9588 62.4861 34.4442C65.3707 31.554 68.9239 29.7448 72.6452 29.0162C76.4307 28.2749 80.392 28.6516 84.002 30.1454C85.4928 33.7623 85.8688 37.7312 85.1289 41.5241C84.4017 45.2525 82.5961 48.8126 79.7114 51.7028C78.1997 53.2175 76.5042 54.4352 74.6973 55.3562C74.9681 55.4907 75.23 55.6337 75.4818 55.7852C77.1903 54.8609 78.7951 53.676 80.2379 52.2303C83.2291 49.2334 85.102 45.5391 85.857 41.6683C86.6349 37.68 86.2253 33.5057 84.6287 29.7151L84.5701 29.576L84.4313 29.5173C80.6481 27.9176 76.4819 27.5072 72.5011 28.2866C68.6379 29.0432 64.9508 30.9197 61.9596 33.9166Z" fill="url(#paint9_linear_570_110)"/>
<path fill-rule="evenodd" clip-rule="evenodd" d="M39.9518 49.1369C39.9391 49.1229 35.8802 44.7029 35.3508 38.782C35.025 40.7029 35.0486 42.6713 35.4218 44.5845C35.9875 47.485 37.3571 50.2603 39.5309 52.5521C39.3495 52.7702 39.244 53.0302 39.2145 53.2971C36.812 50.8576 35.3052 47.8639 34.6937 44.7287C34.0566 41.4622 34.392 38.0435 35.6996 34.9392L35.7581 34.8001L35.897 34.7415C38.9952 33.4314 42.4074 33.0953 45.6676 33.7337C48.7968 34.3463 51.7846 35.8561 54.2195 38.2631C53.9532 38.2928 53.6936 38.3985 53.4759 38.5802C51.1885 36.4022 48.4186 35.03 45.5236 34.4632C43.6141 34.0893 41.6494 34.0657 39.7323 34.3921C45.6418 34.9224 50.0532 38.9893 50.0672 39.0019L49.8173 39.2771C49.8026 39.2636 44.7586 34.6148 38.2795 34.7093L38.2736 34.7109C40.0873 35.0192 41.6875 35.7076 43.0335 36.5178C46.03 38.3214 47.785 40.7706 47.8276 40.9442L47.4667 41.0338C47.4276 40.8746 45.7468 38.585 42.8411 36.8362C41.3349 35.9296 39.5039 35.1797 37.4102 34.9686C37.0452 35.0888 36.6837 35.2223 36.3263 35.3694C36.1795 35.7274 36.0462 36.0897 35.9262 36.4554C36.1369 38.5532 36.8853 40.3878 37.7902 41.8969C39.5357 44.8081 41.8208 46.4922 41.9798 46.5313L41.8903 46.893C41.717 46.8503 39.2725 45.0919 37.4725 42.0896C36.6638 40.741 35.9768 39.1378 35.6691 37.3206L35.6675 37.3264C35.5731 43.8181 40.213 48.8717 40.2264 48.8865L39.9518 49.1369ZM32.7246 43.856C32.5698 43.856 32.4148 43.9152 32.2965 44.0337C32.1783 44.1521 32.1191 44.3075 32.1191 44.4627C32.1191 44.6179 32.1783 44.7732 32.2965 44.8917C32.4148 45.0102 32.5698 45.0694 32.7246 45.0694C32.8796 45.0694 33.0346 45.0101 33.1528 44.8917C33.2711 44.7732 33.3302 44.6179 33.3302 44.4627C33.3302 44.3075 33.2711 44.1522 33.1528 44.0337C33.0346 43.9152 32.8795 43.856 32.7246 43.856ZM31.9455 43.682C32.1606 43.4665 32.4426 43.3587 32.7246 43.3587C33.0067 43.3587 33.2887 43.4665 33.5039 43.682C33.719 43.8976 33.8266 44.1801 33.8265 44.4626C33.8265 44.7452 33.719 45.0277 33.5039 45.2433C33.2887 45.4589 33.0067 45.5666 32.7246 45.5666C32.4426 45.5666 32.1606 45.4589 31.9455 45.2433C31.7304 45.0277 31.6228 44.7452 31.6228 44.4626C31.6228 44.1801 31.7304 43.8975 31.9455 43.682ZM32.121 40.7801C31.9291 40.7801 31.7371 40.8535 31.5907 41.0003C31.4442 41.147 31.371 41.3393 31.371 41.5316C31.371 41.7239 31.4442 41.9162 31.5907 42.0629C31.7371 42.2096 31.9291 42.283 32.121 42.283C32.3129 42.283 32.5049 42.2096 32.6514 42.0629C32.7978 41.9162 32.871 41.7238 32.8711 41.5316C32.8711 41.3393 32.7978 41.147 32.6514 41.0003C32.5048 40.8535 32.3129 40.7801 32.121 40.7801ZM31.2397 40.6485C31.483 40.4048 31.802 40.2828 32.121 40.2828C32.44 40.2829 32.759 40.4048 33.0024 40.6485C33.2456 40.8923 33.3673 41.212 33.3674 41.5316C33.3673 41.8512 33.2456 42.1708 33.0024 42.4146C32.759 42.6585 32.44 42.7803 32.121 42.7803C31.802 42.7803 31.483 42.6584 31.2397 42.4146C30.9963 42.1708 30.8747 41.8511 30.8747 41.5316C30.8747 41.212 30.9963 40.8924 31.2397 40.6485ZM31.924 37.2333C31.6951 37.2333 31.4662 37.3208 31.2915 37.4958C31.1169 37.6708 31.0295 37.9002 31.0295 38.1294C31.0295 38.3588 31.1169 38.5882 31.2915 38.7631C31.4662 38.9381 31.6952 39.0257 31.924 39.0257C32.1529 39.0257 32.3818 38.9382 32.5565 38.7631C32.7311 38.5882 32.8185 38.3588 32.8185 38.1294C32.8185 37.9001 32.7311 37.6708 32.5565 37.4958C32.3818 37.3208 32.1528 37.2333 31.924 37.2333ZM30.9405 37.1441C31.212 36.872 31.5681 36.736 31.924 36.736C32.2799 36.736 32.6359 36.8721 32.9075 37.1441C33.1791 37.4162 33.3148 37.7729 33.3148 38.1295C33.3148 38.4861 33.1791 38.8428 32.9075 39.1149C32.6359 39.387 32.2799 39.523 31.924 39.523C31.5681 39.523 31.212 39.387 30.9405 39.1149C30.669 38.8428 30.5332 38.4861 30.5332 38.1295C30.5332 37.7729 30.669 37.4162 30.9405 37.1441ZM32.3717 33.1477C32.0723 33.1477 31.7727 33.2622 31.5442 33.4911C31.3157 33.7201 31.2014 34.0202 31.2014 34.3202C31.2014 34.6203 31.3157 34.9204 31.5442 35.1493C31.7728 35.3783 32.0723 35.4928 32.3717 35.4928C32.6713 35.4928 32.9707 35.3783 33.1993 35.1493C33.4278 34.9204 33.5421 34.6203 33.5421 34.3202C33.5421 34.0202 33.4278 33.7201 33.1993 33.4911C32.9707 33.2622 32.6713 33.1477 32.3717 33.1477ZM31.1932 33.1394C31.5186 32.8134 31.9452 32.6504 32.3717 32.6504C32.7983 32.6504 33.2249 32.8134 33.5503 33.1394C33.8757 33.4654 34.0384 33.8928 34.0384 34.3202C34.0384 34.7476 33.8757 35.175 33.5503 35.501C33.2249 35.8271 32.7983 35.9901 32.3717 35.9901C31.9452 35.9901 31.5186 35.8271 31.1932 35.501C30.8678 35.175 30.7051 34.7476 30.7051 34.3202C30.7051 33.8928 30.8678 33.4654 31.1932 33.1394ZM44.7965 31.7608C44.7965 31.6056 44.8556 31.4503 44.9738 31.3318C45.092 31.2133 45.2471 31.1541 45.402 31.1541C45.5569 31.1541 45.7119 31.2134 45.8301 31.3318C45.9484 31.4503 46.0075 31.6056 46.0075 31.7608C46.0075 31.916 45.9484 32.0713 45.8301 32.1898C45.7119 32.3083 45.5569 32.3675 45.402 32.3675C45.247 32.3675 45.0921 32.3083 44.9738 32.1898C44.8556 32.0713 44.7965 31.916 44.7965 31.7608ZM44.6228 30.9802C44.4077 31.1957 44.3002 31.4783 44.3002 31.7608C44.3002 32.0434 44.4077 32.326 44.6228 32.5415C44.838 32.757 45.12 32.8649 45.402 32.8648C45.684 32.8649 45.966 32.757 46.1811 32.5415C46.3963 32.326 46.5038 32.0434 46.5038 31.7608C46.5038 31.4783 46.3963 31.1957 46.1811 30.9802C45.9659 30.7646 45.6839 30.6568 45.402 30.6568C45.12 30.6568 44.8379 30.7646 44.6228 30.9802ZM41.7265 31.156C41.7265 30.9638 41.7998 30.7714 41.9463 30.6246C42.0927 30.4779 42.2847 30.4046 42.4766 30.4046C42.6685 30.4046 42.8604 30.4779 43.0069 30.6246C43.1534 30.7714 43.2266 30.9637 43.2266 31.156C43.2266 31.3483 43.1534 31.5406 43.0069 31.6873C42.8604 31.8341 42.6685 31.9074 42.4766 31.9075C42.2848 31.9074 42.0927 31.8341 41.9463 31.6873C41.7998 31.5406 41.7266 31.3483 41.7265 31.156ZM41.5953 30.273C41.352 30.5168 41.2302 30.8365 41.2302 31.156C41.2302 31.4756 41.352 31.7953 41.5953 32.039C41.8386 32.2828 42.1576 32.4047 42.4766 32.4048C42.7956 32.4047 43.1146 32.2828 43.3579 32.039C43.6013 31.7952 43.7229 31.4756 43.7229 31.156C43.7229 30.8365 43.6013 30.5168 43.3579 30.273C43.1146 30.0291 42.7955 29.9072 42.4766 29.9072C42.1576 29.9072 41.8386 30.0291 41.5953 30.273ZM38.1865 30.9586C38.1866 30.7293 38.2739 30.4999 38.4486 30.3249C38.6232 30.1499 38.8522 30.0624 39.0811 30.0624C39.3098 30.0624 39.5388 30.1499 39.7135 30.3249C39.8882 30.4999 39.9756 30.7293 39.9756 30.9586C39.9756 31.1879 39.8882 31.4173 39.7135 31.5923C39.5388 31.7673 39.3099 31.8548 39.0811 31.8549C38.8522 31.8548 38.6232 31.7673 38.4486 31.5923C38.2739 31.4173 38.1865 31.1879 38.1865 30.9586ZM38.0976 29.9732C37.8261 30.2453 37.6903 30.602 37.6903 30.9586C37.6903 31.3152 37.8261 31.6719 38.0976 31.944C38.3692 32.2161 38.7251 32.3521 39.0811 32.3521C39.437 32.3521 39.7929 32.2161 40.0645 31.944C40.3361 31.6719 40.4718 31.3152 40.4718 30.9586C40.4718 30.602 40.3361 30.2453 40.0645 29.9732C39.793 29.7011 39.437 29.5651 39.0811 29.5651C38.7251 29.5651 38.3691 29.7011 38.0976 29.9732ZM34.1088 31.4072C34.1088 31.1072 34.2231 30.8071 34.4517 30.5781C34.6801 30.3492 34.9797 30.2346 35.2792 30.2346C35.5786 30.2346 35.8782 30.3492 36.1067 30.5781C36.3352 30.8071 36.4495 31.1072 36.4495 31.4072C36.4495 31.7073 36.3352 32.0074 36.1067 32.2363C35.8782 32.4653 35.5786 32.5798 35.2792 32.5798C34.9797 32.5798 34.6802 32.4653 34.4517 32.2363C34.2231 32.0074 34.1088 31.7073 34.1088 31.4072ZM34.1006 30.2264C33.7752 30.5524 33.6124 30.9799 33.6124 31.4072C33.6124 31.8346 33.7752 32.262 34.1006 32.588C34.426 32.9141 34.8526 33.0771 35.2791 33.0771C35.7057 33.0771 36.1322 32.9141 36.4577 32.588C36.783 32.262 36.9457 31.8346 36.9457 31.4072C36.9457 30.9799 36.7831 30.5524 36.4577 30.2264C36.1322 29.9004 35.7057 29.7373 35.2791 29.7373C34.8526 29.7373 34.426 29.9004 34.1006 30.2264ZM34.8763 52.2303C36.3191 53.676 37.9239 54.8609 39.6324 55.7852C39.8842 55.6337 40.1461 55.4907 40.4169 55.3561C38.61 54.4352 36.9145 53.2175 35.4028 51.7028C32.5182 48.8126 30.7125 45.2525 29.9853 41.5241C29.2454 37.7312 29.6214 33.7623 31.1123 30.1454C34.7222 28.6516 38.6835 28.2749 42.469 29.0162C46.1903 29.7448 49.7435 31.5539 52.6281 34.4441C54.1399 35.9588 55.3553 37.6575 56.2744 39.468C56.4087 39.1966 56.5514 38.9342 56.7026 38.6818C55.7801 36.9701 54.5975 35.3622 53.1546 33.9166C50.1635 30.9196 46.4763 29.0431 42.613 28.2867C38.6323 27.5072 34.4661 27.9176 30.6829 29.5173L30.544 29.5761L30.4855 29.7151C28.8888 33.5057 28.4793 37.68 29.2572 41.6683C30.0122 45.539 31.8851 49.2333 34.8763 52.2303Z" fill="url(#paint10_linear_570_110)"/>
<path fill-rule="evenodd" clip-rule="evenodd" d="M50.0672 74.2805C50.0532 74.2932 45.6417 78.36 39.7323 78.8904C41.6495 79.2169 43.6141 79.1932 45.5236 78.8193C48.4186 78.2525 51.1885 76.8802 53.476 74.7022C53.6936 74.884 53.9532 74.9896 54.2195 75.0193C51.7846 77.4263 48.7968 78.9361 45.6676 79.5487C42.4074 80.1871 38.9952 79.8511 35.897 78.541L35.7581 78.4823L35.6996 78.3432C34.392 75.239 34.0566 71.8203 34.6937 68.5537C35.3052 65.4185 36.812 62.4249 39.2145 59.9853C39.2441 60.2522 39.3495 60.5122 39.5309 60.7302C37.3571 63.0221 35.9875 65.7974 35.4218 68.6979C35.0486 70.6111 35.025 72.5795 35.3509 74.5004C35.8802 68.5795 39.9392 64.1595 39.9519 64.1455L40.2264 64.3959C40.213 64.4107 35.5731 69.4643 35.6675 75.956L35.6691 75.9618C35.9768 74.1447 36.6639 72.5414 37.4725 71.1928C39.2725 68.1905 41.7171 66.4321 41.8904 66.3895L41.9798 66.7511C41.8209 66.7902 39.5357 68.4743 37.7902 71.3855C36.8853 72.8947 36.137 74.7292 35.9262 76.827C36.0462 77.1927 36.1794 77.5549 36.3263 77.913C36.6837 78.0601 37.0452 78.1937 37.4102 78.3138C39.5039 78.1027 41.3349 77.3529 42.8411 76.4462C45.7467 74.6974 47.4276 72.4078 47.4667 72.2486L47.8276 72.3382C47.785 72.5118 46.03 74.9611 43.0335 76.7646C41.6875 77.5747 40.0873 78.2631 38.2737 78.5715L38.2795 78.573C44.7587 78.6676 49.8025 74.0188 49.8173 74.0053L50.0672 74.2805ZM44.7965 81.5216C44.7965 81.6768 44.8556 81.8321 44.9738 81.9506C45.092 82.0691 45.2471 82.1283 45.402 82.1283C45.5569 82.1283 45.712 82.0691 45.8301 81.9506C45.9484 81.8321 46.0076 81.6769 46.0076 81.5216C46.0076 81.3664 45.9484 81.2111 45.8301 81.0926C45.7119 80.9741 45.5569 80.9149 45.402 80.915C45.2471 80.9149 45.0921 80.9742 44.9738 81.0926C44.8556 81.2111 44.7965 81.3664 44.7965 81.5216ZM44.6228 82.3023C44.4077 82.0867 44.3002 81.8042 44.3002 81.5216C44.3002 81.2391 44.4077 80.9565 44.6228 80.741C44.838 80.5254 45.12 80.4176 45.402 80.4177C45.684 80.4176 45.966 80.5254 46.1811 80.741C46.3963 80.9565 46.5038 81.2391 46.5038 81.5216C46.5038 81.8042 46.3963 82.0867 46.1811 82.3023C45.966 82.5178 45.6839 82.6256 45.402 82.6256C45.12 82.6256 44.838 82.5178 44.6228 82.3023ZM41.7265 82.1265C41.7265 82.3187 41.7998 82.5111 41.9463 82.6578C42.0927 82.8045 42.2847 82.8779 42.4766 82.8779C42.6685 82.8779 42.8605 82.8045 43.007 82.6578C43.1534 82.5111 43.2266 82.3187 43.2266 82.1265C43.2266 81.9342 43.1534 81.7419 43.007 81.5951C42.8605 81.4483 42.6685 81.375 42.4766 81.375C42.2848 81.375 42.0927 81.4484 41.9463 81.5951C41.7998 81.7419 41.7266 81.9342 41.7265 82.1265ZM41.5953 83.0095C41.352 82.7657 41.2303 82.446 41.2303 82.1265C41.2303 81.8069 41.352 81.4872 41.5953 81.2434C41.8386 80.9997 42.1576 80.8777 42.4766 80.8777C42.7956 80.8777 43.1146 80.9997 43.358 81.2434C43.6013 81.4872 43.7229 81.8069 43.7229 82.1265C43.7229 82.446 43.6013 82.7657 43.358 83.0095C43.1146 83.2533 42.7956 83.3752 42.4766 83.3752C42.1576 83.3752 41.8386 83.2533 41.5953 83.0095ZM38.1866 82.3238C38.1866 82.5531 38.2739 82.7825 38.4486 82.9575C38.6233 83.1325 38.8523 83.22 39.0811 83.22C39.3099 83.22 39.5389 83.1326 39.7135 82.9575C39.8882 82.7825 39.9756 82.5531 39.9756 82.3238C39.9756 82.0945 39.8883 81.8652 39.7135 81.6901C39.5389 81.5151 39.31 81.4276 39.0811 81.4276C38.8522 81.4277 38.6233 81.5151 38.4486 81.6901C38.2739 81.8652 38.1866 82.0945 38.1866 82.3238ZM38.0976 83.3092C37.8261 83.0371 37.6903 82.6804 37.6903 82.3239C37.6903 81.9672 37.8261 81.6105 38.0976 81.3385C38.3692 81.0664 38.7251 80.9304 39.0811 80.9303C39.437 80.9304 39.793 81.0664 40.0646 81.3385C40.3361 81.6105 40.4719 81.9672 40.4719 82.3239C40.4719 82.6804 40.3361 83.0371 40.0646 83.3092C39.793 83.5813 39.437 83.7174 39.0811 83.7174C38.7251 83.7174 38.3691 83.5813 38.0976 83.3092ZM34.1089 81.8752C34.1089 82.1752 34.2231 82.4753 34.4517 82.7043C34.6802 82.9333 34.9797 83.0478 35.2792 83.0478C35.5786 83.0478 35.8782 82.9333 36.1067 82.7043C36.3352 82.4753 36.4495 82.1752 36.4495 81.8752C36.4495 81.5751 36.3352 81.275 36.1067 81.0461C35.8782 80.8171 35.5786 80.7026 35.2792 80.7026C34.9797 80.7026 34.6802 80.8171 34.4517 81.0461C34.2231 81.2751 34.1089 81.5751 34.1089 81.8752ZM34.1006 83.056C33.7752 82.73 33.6124 82.3025 33.6124 81.8752C33.6124 81.4478 33.7752 81.0204 34.1006 80.6944C34.426 80.3684 34.8526 80.2053 35.2792 80.2053C35.7057 80.2053 36.1323 80.3684 36.4577 80.6944C36.783 81.0204 36.9458 81.4478 36.9458 81.8752C36.9458 82.3025 36.7831 82.73 36.4577 83.056C36.1323 83.3821 35.7057 83.545 35.2792 83.5451C34.8526 83.545 34.426 83.3821 34.1006 83.056ZM32.7247 69.4265C32.5698 69.4265 32.4148 69.3673 32.2965 69.2488C32.1783 69.1304 32.1192 68.9751 32.1192 68.8198C32.1192 68.6646 32.1783 68.5093 32.2965 68.3908C32.4148 68.2723 32.5698 68.2131 32.7247 68.2131C32.8796 68.2131 33.0346 68.2724 33.1528 68.3908C33.2711 68.5093 33.3302 68.6646 33.3302 68.8198C33.3302 68.9751 33.2711 69.1303 33.1528 69.2488C33.0346 69.3673 32.8795 69.4265 32.7247 69.4265ZM31.9455 69.6005C32.1606 69.816 32.4427 69.9238 32.7247 69.9238C33.0067 69.9238 33.2887 69.816 33.5039 69.6005C33.719 69.3849 33.8266 69.1023 33.8265 68.8198C33.8266 68.5373 33.719 68.2547 33.5039 68.0392C33.2887 67.8236 33.0067 67.7158 32.7247 67.7158C32.4427 67.7158 32.1606 67.8236 31.9455 68.0392C31.7305 68.2547 31.6228 68.5373 31.6228 68.8198C31.6228 69.1024 31.7304 69.3849 31.9455 69.6005ZM32.121 72.5024C31.9292 72.5024 31.7372 72.4289 31.5907 72.2822C31.4442 72.1355 31.3711 71.9432 31.3711 71.7509C31.3711 71.5586 31.4442 71.3663 31.5907 71.2196C31.7371 71.0728 31.9292 70.9994 32.121 70.9994C32.3129 70.9994 32.5049 71.0729 32.6514 71.2196C32.7978 71.3663 32.871 71.5586 32.8711 71.7509C32.8711 71.9432 32.7978 72.1355 32.6514 72.2822C32.5048 72.4289 32.3129 72.5024 32.121 72.5024ZM31.2397 72.6339C31.483 72.8777 31.8021 72.9996 32.121 72.9996C32.44 72.9996 32.7591 72.8777 33.0024 72.6339C33.2457 72.3902 33.3674 72.0705 33.3674 71.7509C33.3674 71.4313 33.2456 71.1117 33.0024 70.8679C32.7591 70.6241 32.44 70.5022 32.121 70.5022C31.8021 70.5022 31.483 70.6241 31.2397 70.8679C30.9963 71.1117 30.8747 71.4313 30.8747 71.7509C30.8747 72.0704 30.9963 72.3901 31.2397 72.6339ZM31.924 76.0492C31.6951 76.0491 31.4662 75.9616 31.2915 75.7867C31.1169 75.6116 31.0295 75.3822 31.0295 75.153C31.0295 74.9237 31.1169 74.6943 31.2915 74.5193C31.4662 74.3443 31.6952 74.2568 31.924 74.2568C32.1529 74.2568 32.3818 74.3443 32.5565 74.5193C32.7312 74.6943 32.8185 74.9237 32.8185 75.153C32.8185 75.3823 32.7312 75.6116 32.5565 75.7867C32.3818 75.9617 32.1528 76.0492 31.924 76.0492ZM30.9405 76.1383C31.2121 76.4104 31.5681 76.5464 31.924 76.5465C32.2799 76.5465 32.636 76.4104 32.9075 76.1383C33.1791 75.8663 33.3148 75.5096 33.3149 75.153C33.3148 74.7964 33.1791 74.4396 32.9075 74.1676C32.6359 73.8955 32.2799 73.7594 31.924 73.7594C31.5681 73.7594 31.2121 73.8955 30.9405 74.1676C30.669 74.4396 30.5332 74.7964 30.5332 75.153C30.5332 75.5096 30.669 75.8663 30.9405 76.1383ZM32.3717 80.1348C32.0723 80.1348 31.7727 80.0203 31.5442 79.7913C31.3157 79.5624 31.2015 79.2623 31.2014 78.9622C31.2015 78.6622 31.3157 78.3621 31.5442 78.1331C31.7728 77.9042 32.0724 77.7896 32.3717 77.7896C32.6713 77.7896 32.9707 77.9042 33.1993 78.1331C33.4279 78.3621 33.5421 78.6622 33.5421 78.9622C33.5421 79.2623 33.4279 79.5624 33.1993 79.7913C32.9707 80.0203 32.6713 80.1348 32.3717 80.1348ZM31.1932 80.143C31.5186 80.4691 31.9452 80.6321 32.3717 80.6321C32.7983 80.6321 33.2249 80.4691 33.5503 80.143C33.8757 79.817 34.0385 79.3896 34.0385 78.9622C34.0385 78.5349 33.8757 78.1075 33.5503 77.7814C33.2249 77.4554 32.7983 77.2923 32.3717 77.2923C31.9452 77.2923 31.5186 77.4554 31.1932 77.7814C30.8678 78.1075 30.7051 78.5349 30.7051 78.9622C30.7051 79.3896 30.8679 79.817 31.1932 80.143ZM53.1547 79.3659C54.5976 77.9202 55.7802 76.3124 56.7027 74.6006C56.5515 74.3483 56.4088 74.0858 56.2745 73.8145C55.3553 75.6249 54.14 77.3236 52.6282 78.8383C49.7436 81.7285 46.1904 83.5377 42.4691 84.2664C38.6835 85.0075 34.7223 84.6309 31.1123 83.1371C29.6215 79.5202 29.2455 75.5513 29.9853 71.7584C30.7126 68.03 32.5182 64.4699 35.4028 61.5797C36.9146 60.065 38.61 58.8473 40.417 57.9264C40.1462 57.7919 39.8843 57.6488 39.6324 57.4974C37.924 58.4216 36.3192 59.6066 34.8763 61.0522C31.8852 64.0492 30.0122 67.7434 29.2573 71.6142C28.4793 75.6026 28.8889 79.7768 30.4855 83.5674L30.5441 83.7065L30.6829 83.7652C34.4661 85.3649 38.6324 85.7752 42.613 84.9958C46.4764 84.2393 50.1635 82.3628 53.1547 79.3659Z" fill="url(#paint11_linear_570_110)"/>
<path fill-rule="evenodd" clip-rule="evenodd" d="M93.3012 54.9492C93.8575 55.4637 94.3653 56.0303 94.8167 56.6412C94.3653 57.2522 93.8575 57.8187 93.3011 58.3332C92.4367 57.4852 91.4787 56.9598 90.7084 56.6412C91.4788 56.3227 92.4368 55.7972 93.3012 54.9492ZM90.9407 53.2455C91.6869 53.6567 92.3849 54.1453 93.0237 54.7004C91.7399 55.9538 90.2441 56.4615 89.5502 56.6412C90.2441 56.821 91.7398 57.3286 93.0237 58.582C92.3848 59.1371 91.6869 59.6256 90.9407 60.0369C89.8919 58.1234 88.2498 57.1343 87.0571 56.6412C88.2498 56.1482 89.8919 55.159 90.9407 53.2455ZM87.8135 52.0584C88.7977 52.2802 89.7358 52.6231 90.6113 53.0706C89.248 55.5533 86.8385 56.3978 85.8991 56.6412C86.8385 56.8846 89.248 57.7291 90.6113 60.2118C89.7357 60.6594 88.7977 61.0022 87.8135 61.2241C86.8775 58.515 84.824 57.2275 83.406 56.6412C84.824 56.0549 86.8776 54.7674 87.8135 52.0584ZM84.2469 51.7996C84.5501 51.7766 84.8565 51.7649 85.1656 51.7649C85.9454 51.7649 86.7078 51.8394 87.446 51.9815C86.2691 55.3161 83.3133 56.3652 82.2479 56.6412C83.3133 56.9172 86.269 57.9663 87.4459 61.3009C86.7078 61.443 85.9455 61.5175 85.1656 61.5175C84.8565 61.5175 84.5501 61.5058 84.2469 61.4828C83.3556 58.5964 81.2173 57.2459 79.7548 56.6412C81.2173 56.0366 83.3557 54.686 84.2469 51.7996ZM85.1656 51.0189C83.5543 51.0189 82.0123 51.3191 80.5922 51.8667C80.4759 51.989 80.3578 52.1102 80.238 52.2303C79.6776 52.7918 79.0928 53.3139 78.4871 53.7967C78.8549 53.5486 79.2373 53.3222 79.633 53.1154C78.6855 54.8116 77.249 55.7339 76.1454 56.2208C76.2019 56.2614 76.2578 56.3025 76.3131 56.3441L76.4845 56.4731C77.7142 55.8944 79.2629 54.8125 80.1926 52.842C81.3257 52.3244 82.5539 51.9785 83.8441 51.8371C82.7028 55.2861 79.6774 56.3614 78.5967 56.6413C79.6773 56.9213 82.7028 57.9966 83.8441 61.4455C82.5539 61.3041 81.3257 60.9581 80.1926 60.4406C79.2628 58.4702 77.7141 57.3883 76.4845 56.8096L76.3131 56.9386C76.2578 56.9802 76.2019 57.0213 76.1454 57.0618C77.249 57.5488 78.6855 58.471 79.6329 60.1672C79.2376 59.961 78.8551 59.7334 78.4871 59.4859C79.0928 59.9687 79.6777 60.4908 80.238 61.0522C80.3578 61.1723 80.4759 61.2935 80.5922 61.4158C82.0123 61.9635 83.5543 62.2636 85.1656 62.2636C87.2751 62.2636 89.2659 61.7491 91.0198 60.8385C92.8401 59.8933 94.4039 58.5215 95.5793 56.8555L95.7304 56.6414L95.5793 56.4272C94.4039 54.7612 92.8401 53.3894 91.0198 52.4443C89.2658 51.5334 87.275 51.0189 85.1656 51.0189Z" fill="url(#paint12_linear_570_110)"/>
<path fill-rule="evenodd" clip-rule="evenodd" d="M55.8684 20.8282C56.3819 20.2708 56.9473 19.762 57.5571 19.3098C58.1669 19.7619 58.7324 20.2707 59.2458 20.8282C58.3995 21.6943 57.8751 22.6541 57.5571 23.426C57.2393 22.6541 56.7147 21.6943 55.8684 20.8282ZM54.1679 23.1933C54.5784 22.4456 55.066 21.7462 55.6201 21.1062C56.8711 22.3925 57.3777 23.8911 57.5571 24.5864C57.7365 23.8911 58.2431 22.3926 59.4941 21.1062C60.0482 21.7463 60.5358 22.4456 60.9463 23.1933C59.0364 24.244 58.0492 25.8893 57.5571 27.0842C57.065 25.8893 56.0778 24.244 54.1679 23.1933ZM52.983 26.3264C53.2045 25.3403 53.5467 24.4004 53.9933 23.5231C56.4713 24.8891 57.3143 27.3032 57.5571 28.2446C57.8 27.3032 58.6429 24.8892 61.1208 23.5232C61.5675 24.4005 61.9096 25.3403 62.1311 26.3264C59.4272 27.2642 58.1423 29.3217 57.5571 30.7425C56.972 29.3216 55.687 27.2642 52.983 26.3264ZM52.7249 29.8999C52.7019 29.5962 52.6902 29.2892 52.6902 28.9795C52.6902 28.1981 52.7645 27.4343 52.9063 26.6947C56.2346 27.8739 57.2816 30.8354 57.5571 31.9029C57.8326 30.8354 58.8796 27.8739 62.2078 26.6947C62.3496 27.4343 62.4239 28.1981 62.4239 28.9795C62.4239 29.2892 62.4122 29.5961 62.3893 29.8999C59.5085 30.7929 58.1606 32.9354 57.557 34.4007C56.9537 32.9354 55.6057 30.7929 52.7249 29.8999ZM51.9456 28.9795C51.9456 30.5939 52.2452 32.1389 52.7918 33.5617C52.9139 33.6782 53.0348 33.7965 53.1546 33.9166C53.715 34.478 54.2361 35.0639 54.718 35.6709C54.4704 35.3023 54.2444 34.9192 54.038 34.5228C55.731 35.4722 56.6514 36.9114 57.1375 38.0172C57.178 37.9605 57.219 37.9045 57.2605 37.8491L57.3893 37.6774C56.8116 36.4453 55.7318 34.8936 53.7652 33.9621C53.2486 32.8267 52.9033 31.5962 52.7621 30.3035C56.2046 31.447 57.2778 34.4784 57.5571 35.5611C57.8366 34.4784 58.9097 31.447 62.3521 30.3035C62.211 31.5962 61.8656 32.8267 61.3491 33.9621C59.3825 34.8937 58.3027 36.4453 57.725 37.6774L57.8538 37.8491C57.8953 37.9045 57.9363 37.9605 57.9768 38.0172C58.4628 36.9115 59.3833 35.4722 61.0762 34.5228C60.8704 34.919 60.6432 35.3022 60.3962 35.6709C60.878 35.0639 61.3992 34.4781 61.9595 33.9166C62.0794 33.7965 62.2003 33.6782 62.3224 33.5617C62.869 32.1389 63.1686 30.5939 63.1686 28.9795C63.1686 26.8659 62.6551 24.8713 61.7461 23.114C60.8028 21.2902 59.4337 19.7234 57.7709 18.5458L57.5571 18.3943L57.3433 18.5458C55.6806 19.7234 54.3114 21.2901 53.3681 23.114C52.4591 24.8713 51.9456 26.8659 51.9456 28.9795Z" fill="url(#paint13_linear_570_110)"/>
<path fill-rule="evenodd" clip-rule="evenodd" d="M21.8131 58.3333C21.2567 57.8188 20.7489 57.2522 20.2976 56.6413C20.7489 56.0303 21.2567 55.4637 21.8131 54.9493C22.6775 55.7972 23.6355 56.3227 24.4058 56.6412C23.6355 56.9597 22.6775 57.4852 21.8131 58.3333ZM24.1736 60.037C23.4273 59.6257 22.7293 59.1372 22.0905 58.582C23.3744 57.3286 24.8701 56.821 25.564 56.6412C24.8701 56.4615 23.3744 55.9538 22.0905 54.7005C22.7294 54.1453 23.4273 53.6568 24.1736 53.2456C25.2223 55.1591 26.8644 56.1482 28.057 56.6412C26.8645 57.1343 25.2224 58.1234 24.1736 60.037ZM27.3007 61.2242C26.3165 61.0023 25.3785 60.6594 24.5029 60.2119C25.8662 57.7292 28.2756 56.8846 29.2152 56.6413C28.2756 56.3979 25.8662 55.5534 24.5029 53.0707C25.3784 52.6232 26.3165 52.2803 27.3007 52.0584C28.2366 54.7675 30.2902 56.055 31.7082 56.6413C30.2902 57.2275 28.2367 58.5151 27.3007 61.2242ZM30.8673 61.4829C30.5642 61.5059 30.2578 61.5175 29.9487 61.5175C29.1689 61.5175 28.4065 61.4431 27.6683 61.301C28.8452 57.9663 31.801 56.9172 32.8664 56.6412C31.801 56.3652 28.8453 55.3162 27.6684 51.9816C28.4065 51.8395 29.1688 51.7651 29.9487 51.7651C30.2578 51.7651 30.5642 51.7767 30.8673 51.7997C31.7587 54.6862 33.897 56.0367 35.3595 56.6413C33.8969 57.2459 31.7586 58.5964 30.8673 61.4829ZM29.9487 62.2636C31.5599 62.2636 33.102 61.9634 34.522 61.4158C34.6383 61.2934 34.7564 61.1723 34.8762 61.0522C35.4366 60.4907 36.0214 59.9687 36.6272 59.4858C36.2593 59.7339 35.8769 59.9604 35.4813 60.1672C36.4288 58.4709 37.8653 57.5487 38.9689 57.0617C38.9123 57.0212 38.8565 56.9801 38.8011 56.9385L38.6297 56.8095C37.4 57.3882 35.8513 58.4701 34.9216 60.4406C33.7885 60.9581 32.5603 61.3041 31.2701 61.4455C32.4114 57.9965 35.4368 56.9212 36.5176 56.6413C35.4369 56.3613 32.4114 55.2861 31.2701 51.8371C32.5602 51.9785 33.7884 52.3245 34.9216 52.842C35.8514 54.8124 37.4001 55.8943 38.6297 56.4731L38.8011 56.3441C38.8564 56.3025 38.9123 56.2614 38.9689 56.2208C37.8653 55.7339 36.4289 54.8117 35.4813 53.1154C35.8767 53.3216 36.2591 53.5492 36.6271 53.7967C36.0214 53.3139 35.4366 52.7918 34.8762 52.2304C34.7563 52.1103 34.6383 51.9891 34.522 51.8668C33.1019 51.3192 31.5599 51.019 29.9486 51.019C27.8392 51.019 25.8484 51.5335 24.0944 52.4442C22.2741 53.3893 20.7103 54.7611 19.535 56.4271L19.3839 56.6413L19.535 56.8555C20.7103 58.5214 22.2741 59.8932 24.0944 60.8383C25.8484 61.749 27.8392 62.2636 29.9487 62.2636Z" fill="url(#paint14_linear_570_110)"/>
<path fill-rule="evenodd" clip-rule="evenodd" d="M59.2458 92.4543C58.7323 93.0117 58.1669 93.5205 57.5571 93.9727C56.9474 93.5205 56.3819 93.0117 55.8684 92.4542C56.7147 91.5881 57.2392 90.6284 57.557 89.8565C57.875 90.6284 58.3995 91.5882 59.2458 92.4543ZM60.9463 90.0893C60.5359 90.8369 60.0482 91.5362 59.4942 92.1763C58.2432 90.89 57.7365 89.3914 57.5571 88.6961C57.3777 89.3914 56.8711 90.8899 55.6201 92.1763C55.066 91.5362 54.5785 90.8369 54.168 90.0893C56.0778 89.0385 57.065 87.3932 57.5571 86.1983C58.0493 87.3931 59.0365 89.0385 60.9463 90.0893ZM62.1312 86.9561C61.9097 87.9421 61.5675 88.8821 61.1209 89.7592C58.6429 88.3933 57.8001 85.9792 57.5571 85.0379C57.3142 85.9792 56.4714 88.3932 53.9934 89.7592C53.5467 88.882 53.2045 87.9421 52.9831 86.9561C55.687 86.0182 56.972 83.9608 57.5571 82.54C58.1423 83.9608 59.4273 86.0183 62.1312 86.9561ZM62.3894 83.3826C62.4124 83.6863 62.424 83.9933 62.424 84.303C62.424 85.0843 62.3497 85.8482 62.2079 86.5878C58.8796 85.4086 57.8326 82.4472 57.5571 81.3796C57.2816 82.4472 56.2346 85.4086 52.9064 86.5877C52.7646 85.8482 52.6903 85.0844 52.6903 84.303C52.6903 83.9933 52.702 83.6864 52.7249 83.3826C55.6057 82.4896 56.9536 80.3471 57.5571 78.8817C58.1606 80.3471 59.5086 82.4896 62.3894 83.3826ZM63.1686 84.303C63.1686 82.6886 62.869 81.1436 62.3225 79.7208C62.2005 79.6043 62.0794 79.486 61.9596 79.3659C61.3992 78.8045 60.8781 78.2185 60.3962 77.6116C60.6438 77.9802 60.8698 78.3633 61.0762 78.7598C59.3832 77.8104 58.4628 76.3711 57.9768 75.2653C57.9363 75.322 57.8953 75.378 57.8537 75.4334L57.725 75.6051C58.3026 76.8372 59.3824 78.3889 61.3491 79.3204C61.8656 80.4558 62.211 81.6864 62.3521 82.979C58.9097 81.8355 57.8365 78.8042 57.557 77.7214C57.2777 78.8041 56.2045 81.8354 52.7621 82.979C52.9032 81.6863 53.2486 80.4558 53.7651 79.3204C55.7318 78.3889 56.8115 76.8372 57.3892 75.6051L57.2604 75.4334C57.2189 75.378 57.1779 75.322 57.1374 75.2653C56.6514 76.3711 55.731 77.8103 54.038 78.7597C54.2438 78.3636 54.471 77.9803 54.718 77.6116C54.2361 78.2186 53.715 78.8045 53.1547 79.3659C53.0348 79.4861 52.9138 79.6043 52.7918 79.7208C52.2452 81.1436 51.9456 82.6886 51.9456 84.303C51.9456 86.4166 52.4591 88.4112 53.3681 90.1686C54.3114 91.9923 55.6806 93.5591 57.3433 94.7368L57.5571 94.8882L57.7709 94.7368C59.4337 93.5592 60.8028 91.9923 61.7461 90.1686C62.655 88.4112 63.1686 86.4166 63.1686 84.303Z" fill="url(#paint15_linear_570_110)"/>
<path fill-rule="evenodd" clip-rule="evenodd" d="M92.1758 43.3477C93.2665 43.8022 94.2125 44.1964 95.0372 44.2554C94.6306 44.9768 94.4356 45.9851 94.211 47.1476C93.8665 48.931 93.4457 51.1083 92.052 53.0432C92.2637 53.1797 92.4711 53.3223 92.6738 53.4707C94.1405 51.4305 94.5803 49.1542 94.941 47.2875C95.2481 45.6987 95.4927 44.4329 96.2576 44.0215L95.9056 43.3658C95.1412 43.7769 93.9527 43.2816 92.4609 42.6599C90.6829 41.9189 88.5089 41.0129 85.9527 41.1421C85.9231 41.3179 85.8913 41.4933 85.8571 41.6684C85.8416 41.7481 85.8255 41.8277 85.809 41.9073C88.3039 41.7341 90.4389 42.6238 92.1758 43.3477ZM92.1758 69.9349C93.2665 69.4804 94.2125 69.0862 95.0372 69.0272C94.6306 68.3058 94.4356 67.2975 94.211 66.135C93.8665 64.3516 93.4457 62.1743 92.052 60.2394C92.2637 60.1029 92.4711 59.9603 92.6738 59.8119C94.1405 61.8521 94.5803 64.1284 94.941 65.9951C95.2481 67.5839 95.4927 68.8497 96.2576 69.261L95.9056 69.9168C95.1412 69.5057 93.9527 70.0009 92.4609 70.6227C90.6829 71.3637 88.5089 72.2697 85.9527 72.1405C85.9231 71.9647 85.8913 71.7893 85.8571 71.6142C85.8416 71.5346 85.8255 71.4549 85.809 71.3753C88.3039 71.5485 90.4389 70.6587 92.1758 69.9349ZM86.2169 74.6118C90.1118 75.4222 93.39 74.0561 95.9802 72.9766C97.4444 72.3663 98.7025 71.8422 99.7806 71.815C99.2075 70.8997 98.9482 69.559 98.6467 67.9984C98.0869 65.1013 97.3709 61.3963 94.1719 58.5271C94.3486 58.3503 94.5201 58.1683 94.6862 57.9814C98.0499 60.992 98.7944 64.8448 99.3768 67.8585C99.7749 69.9187 100.092 71.56 101.114 72.1098L100.762 72.7656C99.7405 72.216 98.1996 72.8582 96.2652 73.6643C93.6072 74.7721 90.2538 76.1695 86.2384 75.3834C86.2361 75.1261 86.2289 74.8689 86.2169 74.6118ZM86.2169 38.6707C90.1118 37.8604 93.39 39.2265 95.9802 40.306C97.4444 40.9162 98.7025 41.4403 99.7806 41.4675C99.2075 42.3828 98.9482 43.7235 98.6467 45.2841C98.0869 48.1812 97.3709 51.8862 94.1719 54.7553C94.3486 54.9322 94.5201 55.1142 94.6862 55.3011C98.0499 52.2905 98.7944 48.4377 99.3768 45.4239C99.7749 43.3637 100.092 41.7225 101.114 41.1727L100.762 40.517C99.7405 41.0665 98.1996 40.4243 96.2652 39.6182C93.6072 38.5105 90.2538 37.113 86.2384 37.8992C86.2361 38.1565 86.2289 38.4137 86.2169 38.6707Z" fill="url(#paint16_linear_570_110)"/>
<path fill-rule="evenodd" clip-rule="evenodd" d="M44.2892 21.9558C44.7428 20.8629 45.1362 19.915 45.1951 19.0888C45.9151 19.4962 46.9214 19.6915 48.0818 19.9166C49.8616 20.2618 52.0349 20.6834 53.966 22.0798C54.1022 21.8677 54.2445 21.6599 54.3927 21.4568C52.3563 19.9873 50.0844 19.5466 48.2213 19.1852C46.6356 18.8775 45.3722 18.6324 44.9617 17.8661L44.3072 18.2188C44.7175 18.9847 44.2232 20.1755 43.6027 21.6702C42.8631 23.4516 41.9588 25.6298 42.0878 28.191C42.2632 28.2206 42.4383 28.2525 42.613 28.2868C42.6926 28.3023 42.7721 28.3184 42.8514 28.3349C42.6787 25.8351 43.5667 23.6961 44.2892 21.9558ZM70.8251 21.9558C70.3715 20.8629 69.978 19.915 69.9191 19.0888C69.1991 19.4962 68.1927 19.6915 67.0325 19.9166C65.2526 20.2618 63.0794 20.6834 61.1482 22.0798C61.012 21.8677 60.8698 21.6599 60.7215 21.4568C62.7579 19.9873 65.0298 19.5466 66.8928 19.1852C68.4786 18.8775 69.7419 18.6324 70.1525 17.8661L70.807 18.2188C70.3967 18.9847 70.891 20.1755 71.5115 21.6702C72.2511 23.4516 73.1553 25.6298 73.0264 28.191C72.851 28.2206 72.6759 28.2525 72.5011 28.2868C72.4216 28.3023 72.3422 28.3184 72.2628 28.3349C72.4356 25.8351 71.5475 23.6961 70.8251 21.9558ZM75.493 27.9261C76.3019 24.0236 74.9384 20.7392 73.861 18.1439C73.2519 16.6769 72.7287 15.4163 72.7017 14.3362C71.7881 14.9104 70.45 15.1702 68.8924 15.4723C66.0009 16.0332 62.303 16.7505 59.4394 19.9557C59.2629 19.7787 59.0813 19.6069 58.8947 19.4404C61.8995 16.0702 65.7449 15.3243 68.7528 14.7408C70.8091 14.3419 72.4472 14.0242 72.9959 13L73.6503 13.3526C73.1018 14.3764 73.7429 15.9203 74.5474 17.8583C75.6529 20.5215 77.0478 23.8814 76.2631 27.9046C76.0063 27.9069 75.7496 27.9141 75.493 27.9261ZM39.6212 27.9261C38.8124 24.0236 40.1759 20.7392 41.2533 18.1439C41.8623 16.6769 42.3855 15.4163 42.4126 14.3362C43.3261 14.9104 44.6643 15.1702 46.2218 15.4723C49.1134 16.0332 52.8113 16.7505 55.6748 19.9557C55.8513 19.7787 56.033 19.6069 56.2196 19.4404C53.2147 16.0702 49.3693 15.3243 46.3615 14.7408C44.3052 14.3419 42.6671 14.0242 42.1183 13L41.4639 13.3526C42.0124 14.3764 41.3714 15.9203 40.5669 17.8583C39.4613 20.5215 38.0665 23.8814 38.8512 27.9046C39.108 27.9069 39.3647 27.9141 39.6212 27.9261Z" fill="url(#paint17_linear_570_110)"/>
<path fill-rule="evenodd" clip-rule="evenodd" d="M22.9385 69.9349C21.8478 69.4804 20.9017 69.0862 20.0771 69.0272C20.4837 68.3058 20.6786 67.2975 20.9033 66.135C21.2479 64.3516 21.6686 62.1743 23.0623 60.2394C22.8506 60.1029 22.6432 59.9603 22.4404 59.8119C20.9738 61.8521 20.5339 64.1284 20.1732 65.9951C19.8662 67.5839 19.6216 68.8497 18.8567 69.261L19.2086 69.9168C19.9731 69.5057 21.1617 70.0009 22.6535 70.6227C24.4314 71.3637 26.6054 72.2697 29.1617 72.1405C29.1912 71.9647 29.2231 71.7893 29.2572 71.6142C29.2728 71.5346 29.2888 71.4549 29.3053 71.3753C26.8104 71.5485 24.6754 70.6587 22.9385 69.9349ZM22.9385 43.3477C21.8478 43.8022 20.9017 44.1964 20.0771 44.2554C20.4837 44.9768 20.6786 45.9851 20.9033 47.1476C21.2479 48.931 21.6686 51.1083 23.0623 53.0432C22.8506 53.1797 22.6432 53.3223 22.4404 53.4707C20.9738 51.4305 20.5339 49.1542 20.1732 47.2875C19.8662 45.6987 19.6216 44.4329 18.8567 44.0215L19.2086 43.3658C19.9731 43.7769 21.1617 43.2816 22.6535 42.6599C24.4314 41.9189 26.6054 41.0129 29.1617 41.1421C29.1912 41.3179 29.2231 41.4933 29.2572 41.6684C29.2728 41.7481 29.2888 41.8277 29.3053 41.9073C26.8104 41.7341 24.6754 42.6238 22.9385 43.3477ZM28.8973 38.6707C25.0024 37.8604 21.7243 39.2265 19.134 40.306C17.6698 40.9162 16.4116 41.4403 15.3337 41.4675C15.9067 42.3828 16.166 43.7235 16.4675 45.2841C17.0273 48.1812 17.7433 51.8862 20.9423 54.7553C20.7656 54.9322 20.5941 55.1142 20.428 55.3011C17.0644 52.2905 16.3198 48.4377 15.7374 45.4239C15.3393 43.3637 15.0222 41.7225 14 41.1727L14.352 40.517C15.3737 41.0665 16.9147 40.4243 18.849 39.6182C21.507 38.5105 24.8604 37.113 28.8759 37.8992C28.8782 38.1565 28.8854 38.4137 28.8973 38.6707ZM28.8973 74.6118C25.0024 75.4222 21.7243 74.0561 19.134 72.9766C17.6698 72.3663 16.4116 71.8422 15.3337 71.815C15.9067 70.8997 16.166 69.559 16.4675 67.9984C17.0273 65.1013 17.7433 61.3963 20.9423 58.5271C20.7656 58.3503 20.5941 58.1683 20.428 57.9814C17.0644 60.992 16.3198 64.8448 15.7374 67.8585C15.3393 69.9187 15.0222 71.56 14 72.1098L14.352 72.7656C15.3737 72.216 16.9147 72.8582 18.849 73.6643C21.507 74.7721 24.8604 76.1695 28.8759 75.3834C28.8782 75.1261 28.8854 74.8689 28.8973 74.6118Z" fill="url(#paint18_linear_570_110)"/>
<path fill-rule="evenodd" clip-rule="evenodd" d="M70.8251 91.3267C70.3715 92.4195 69.978 93.3674 69.9191 94.1936C69.1991 93.7863 68.1927 93.5909 67.0325 93.3658C65.2526 93.0206 63.0794 92.599 61.1482 91.2026C61.012 91.4147 60.8698 91.6225 60.7215 91.8257C62.7579 93.2952 65.0298 93.7359 66.8928 94.0973C68.4786 94.4049 69.7419 94.65 70.1525 95.4163L70.807 95.0637C70.3967 94.2978 70.891 93.1069 71.5115 91.6122C72.2511 89.8308 73.1553 87.6526 73.0264 85.0915C72.851 85.0618 72.6759 85.0299 72.5011 84.9957C72.4216 84.9801 72.3422 84.9641 72.2628 84.9476C72.4356 87.4473 71.5475 89.5865 70.8251 91.3267ZM44.2892 91.3267C44.7428 92.4195 45.1362 93.3674 45.1951 94.1936C45.9151 93.7863 46.9214 93.5909 48.0818 93.3658C49.8616 93.0206 52.0349 92.599 53.966 91.2026C54.1022 91.4147 54.2445 91.6225 54.3927 91.8257C52.3563 93.2952 50.0844 93.7359 48.2213 94.0973C46.6356 94.4049 45.3722 94.65 44.9617 95.4163L44.3072 95.0637C44.7175 94.2978 44.2232 93.1069 43.6027 91.6122C42.8631 89.8308 41.9588 87.6526 42.0878 85.0915C42.2632 85.0618 42.4383 85.0299 42.613 84.9957C42.6926 84.9801 42.7721 84.9641 42.8514 84.9476C42.6787 87.4473 43.5667 89.5865 44.2892 91.3267ZM39.6212 85.3564C38.8124 89.2588 40.1759 92.5433 41.2533 95.1385C41.8623 96.6056 42.3855 97.8661 42.4126 98.9462C43.3261 98.372 44.6643 98.1123 46.2218 97.8101C49.1134 97.2492 52.8113 96.5319 55.6748 93.3267C55.8513 93.5037 56.033 93.6756 56.2196 93.842C53.2147 97.2121 49.3693 97.9581 46.3615 98.5416C44.3052 98.9404 42.6671 99.2582 42.1183 100.282L41.4639 99.9298C42.0124 98.906 41.3714 97.3621 40.5669 95.424C39.4613 92.7609 38.0665 89.401 38.8512 85.3779C39.108 85.3755 39.3647 85.3683 39.6212 85.3564ZM75.493 85.3564C76.3019 89.2588 74.9384 92.5433 73.861 95.1385C73.2519 96.6056 72.7287 97.8661 72.7017 98.9462C71.7881 98.372 70.45 98.1123 68.8924 97.8101C66.0009 97.2492 62.303 96.5319 59.4394 93.3267C59.2629 93.5037 59.0813 93.6756 58.8947 93.842C61.8995 97.2121 65.7449 97.9581 68.7528 98.5416C70.8091 98.9404 72.4472 99.2582 72.9959 100.282L73.6503 99.9298C73.1018 98.906 73.7429 97.3621 74.5474 95.424C75.6529 92.7609 77.0478 89.401 76.2631 85.3779C76.0063 85.3755 75.7496 85.3683 75.493 85.3564Z" fill="url(#paint19_linear_570_110)"/>
<defs>
<linearGradient id="paint0_linear_570_110" x1="64.3393" y1="56.6343" x2="64.3393" y2="70.2021" gradientUnits="userSpaceOnUse">
<stop stop-color="#F3927A"/>
<stop offset="0.995605" stop-color="#218887"/>
</linearGradient>
<linearGradient id="paint1_linear_570_110" x1="67.1439" y1="53.7468" x2="67.1439" y2="59.5219" gradientUnits="userSpaceOnUse">
<stop stop-color="#F3927A"/>
<stop offset="0.995605" stop-color="#218887"/>
</linearGradient>
<linearGradient id="paint2_linear_570_110" x1="64.3393" y1="43.0666" x2="64.3393" y2="56.6344" gradientUnits="userSpaceOnUse">
<stop stop-color="#F3927A"/>
<stop offset="0.995605" stop-color="#218887"/>
</linearGradient>
<linearGradient id="paint3_linear_570_110" x1="57.5685" y1="37.4466" x2="57.5685" y2="56.6344" gradientUnits="userSpaceOnUse">
<stop stop-color="#F3927A"/>
<stop offset="0.995605" stop-color="#218887"/>
</linearGradient>
<linearGradient id="paint4_linear_570_110" x1="50.7977" y1="43.0666" x2="50.7977" y2="56.6344" gradientUnits="userSpaceOnUse">
<stop stop-color="#F3927A"/>
<stop offset="0.995605" stop-color="#218887"/>
</linearGradient>
<linearGradient id="paint5_linear_570_110" x1="47.9931" y1="53.7468" x2="47.9931" y2="59.5219" gradientUnits="userSpaceOnUse">
<stop stop-color="#F3927A"/>
<stop offset="0.995605" stop-color="#218887"/>
</linearGradient>
<linearGradient id="paint6_linear_570_110" x1="50.7977" y1="56.6343" x2="50.7977" y2="70.2021" gradientUnits="userSpaceOnUse">
<stop stop-color="#F3927A"/>
<stop offset="0.995605" stop-color="#218887"/>
</linearGradient>
<linearGradient id="paint7_linear_570_110" x1="57.5685" y1="56.6343" x2="57.5685" y2="75.8221" gradientUnits="userSpaceOnUse">
<stop stop-color="#F3927A"/>
<stop offset="0.995605" stop-color="#218887"/>
</linearGradient>
<linearGradient id="paint8_linear_570_110" x1="72.3118" y1="57.5107" x2="72.3118" y2="85.3921" gradientUnits="userSpaceOnUse">
<stop stop-color="#F3927A"/>
<stop offset="0.995605" stop-color="#218887"/>
</linearGradient>
<linearGradient id="paint9_linear_570_110" x1="72.3254" y1="27.9037" x2="72.3254" y2="55.7852" gradientUnits="userSpaceOnUse">
<stop stop-color="#F3927A"/>
<stop offset="0.995605" stop-color="#218887"/>
</linearGradient>
<linearGradient id="paint10_linear_570_110" x1="42.7888" y1="27.9037" x2="42.7888" y2="55.7852" gradientUnits="userSpaceOnUse">
<stop stop-color="#F3927A"/>
<stop offset="0.995605" stop-color="#218887"/>
</linearGradient>
<linearGradient id="paint11_linear_570_110" x1="42.7889" y1="57.4974" x2="42.7889" y2="85.3788" gradientUnits="userSpaceOnUse">
<stop stop-color="#F3927A"/>
<stop offset="0.995605" stop-color="#218887"/>
</linearGradient>
<linearGradient id="paint12_linear_570_110" x1="85.9379" y1="51.0189" x2="85.9379" y2="62.2636" gradientUnits="userSpaceOnUse">
<stop stop-color="#F3927A"/>
<stop offset="0.995605" stop-color="#218887"/>
</linearGradient>
<linearGradient id="paint13_linear_570_110" x1="57.5571" y1="18.3943" x2="57.5571" y2="38.0172" gradientUnits="userSpaceOnUse">
<stop stop-color="#F3927A"/>
<stop offset="0.995605" stop-color="#218887"/>
</linearGradient>
<linearGradient id="paint14_linear_570_110" x1="29.1764" y1="51.019" x2="29.1764" y2="62.2636" gradientUnits="userSpaceOnUse">
<stop stop-color="#F3927A"/>
<stop offset="0.995605" stop-color="#218887"/>
</linearGradient>
<linearGradient id="paint15_linear_570_110" x1="57.5571" y1="75.2653" x2="57.5571" y2="94.8882" gradientUnits="userSpaceOnUse">
<stop stop-color="#F3927A"/>
<stop offset="0.995605" stop-color="#218887"/>
</linearGradient>
<linearGradient id="paint16_linear_570_110" x1="93.4616" y1="37.6697" x2="93.4616" y2="75.6129" gradientUnits="userSpaceOnUse">
<stop stop-color="#F3927A"/>
<stop offset="0.995605" stop-color="#218887"/>
</linearGradient>
<linearGradient id="paint17_linear_570_110" x1="57.5571" y1="13" x2="57.5571" y2="28.3349" gradientUnits="userSpaceOnUse">
<stop stop-color="#F3927A"/>
<stop offset="0.995605" stop-color="#218887"/>
</linearGradient>
<linearGradient id="paint18_linear_570_110" x1="21.6527" y1="37.6697" x2="21.6527" y2="75.6129" gradientUnits="userSpaceOnUse">
<stop stop-color="#F3927A"/>
<stop offset="0.995605" stop-color="#218887"/>
</linearGradient>
<linearGradient id="paint19_linear_570_110" x1="57.5571" y1="84.9476" x2="57.5571" y2="100.282" gradientUnits="userSpaceOnUse">
<stop stop-color="#F3927A"/>
<stop offset="0.995605" stop-color="#218887"/>
</linearGradient>
</defs>
</svg>
