<svg width="310" height="279" viewBox="0 0 310 279" fill="none" xmlns="http://www.w3.org/2000/svg">
<path d="M48.192 4.3C49.788 4.3 51.018 4.792 51.882 5.776C52.746 6.76 53.178 8.164 53.178 9.988C53.178 11.956 52.716 13.48 51.792 14.56C50.868 15.628 49.554 16.162 47.85 16.162C46.266 16.162 45.042 15.658 44.178 14.65C43.326 13.63 42.9 12.19 42.9 10.33C42.9 8.398 43.356 6.91 44.268 5.866C45.192 4.822 46.5 4.3 48.192 4.3ZM48.048 5.812C46.956 5.812 46.14 6.166 45.6 6.874C45.072 7.57 44.808 8.65 44.808 10.114C44.808 11.71 45.066 12.88 45.582 13.624C46.11 14.356 46.92 14.722 48.012 14.722C49.116 14.722 49.932 14.368 50.46 13.66C50.988 12.952 51.252 11.848 51.252 10.348C51.252 8.776 50.988 7.63 50.46 6.91C49.944 6.178 49.14 5.812 48.048 5.812ZM66.0286 14.47V18.214L64.6426 18.34L64.3726 16H55.8226L55.9126 12.526L55.8226 4.444H57.6946L57.6046 12.364L57.6406 14.47H62.5186L62.5726 12.526L62.4826 4.444H64.3546L64.2646 12.364L64.3006 14.47H66.0286ZM75.213 14.416L75.321 14.578L75.195 16H68.373L68.499 12.526L68.373 4.444H75.231L75.339 4.606L75.195 6.028L72.459 5.956L70.263 5.974L70.209 9.34L72.297 9.376L74.205 9.322L74.331 9.466L74.187 10.888L72.153 10.834L70.191 10.87L70.173 12.364L70.227 14.488L72.423 14.506L75.213 14.416ZM87.1862 12.364L87.2402 16H85.3862L85.4762 12.526L85.4582 10.96L82.5062 10.942L79.8062 10.96L79.7882 12.364L79.8602 16H78.0242L78.0962 12.526L78.0242 4.444H79.8782L79.8242 9.412L82.6502 9.448L85.4402 9.412L85.3862 4.444H87.2762L87.1862 12.364ZM90.8575 12.526L90.7675 4.498L92.6395 4.408L92.5315 13.12H92.6755L98.0935 4.444H100.055L99.9655 12.364L100.037 16H98.1655L98.2555 12.526V7.324H98.1115L92.6935 16H90.7675L90.8575 12.526ZM106.52 12.526L106.43 4.498L108.302 4.408L108.194 13.12H108.338L113.756 4.444H115.718L115.628 12.364L115.7 16H113.828L113.918 12.526V7.324H113.774L108.356 16H106.43L106.52 12.526ZM126.412 9.97C127.984 10.366 128.77 11.29 128.77 12.742C128.77 13.798 128.368 14.632 127.564 15.244C126.76 15.856 125.668 16.162 124.288 16.162C123.664 16.162 123.07 16.09 122.506 15.946C121.942 15.802 121.462 15.598 121.066 15.334L121.408 13.714L121.57 13.66C121.942 13.96 122.362 14.194 122.83 14.362C123.31 14.53 123.79 14.614 124.27 14.614C125.05 14.614 125.68 14.428 126.16 14.056C126.652 13.684 126.898 13.198 126.898 12.598C126.898 12.118 126.748 11.722 126.448 11.41C126.148 11.098 125.728 10.888 125.188 10.78H122.758L122.614 10.636L122.74 9.358L125.062 9.394C125.446 9.226 125.752 8.968 125.98 8.62C126.22 8.272 126.34 7.888 126.34 7.468C126.34 6.436 125.668 5.92 124.324 5.92C123.388 5.92 122.422 6.226 121.426 6.838L121.21 6.748L121.372 5.11C122.32 4.582 123.328 4.318 124.396 4.318C125.584 4.318 126.52 4.576 127.204 5.092C127.888 5.596 128.23 6.292 128.23 7.18C128.23 7.792 128.068 8.344 127.744 8.836C127.432 9.328 126.988 9.706 126.412 9.97ZM140.012 16H138.104L137.834 14.704L137.33 13.102L134.882 13.048L132.668 13.102L132.128 14.614L131.84 16H129.986L134.108 4.444H136.286L140.012 16ZM136.862 11.59L135.206 6.262H135.08L133.19 11.59L135.008 11.626L136.862 11.59ZM150.555 12.364L150.609 16H148.773L148.845 12.526L148.791 5.902H144.003L143.931 12.364L144.003 16H142.149L142.239 12.526L142.149 4.444H150.645L150.555 12.364ZM158.319 4.3C159.915 4.3 161.145 4.792 162.009 5.776C162.873 6.76 163.305 8.164 163.305 9.988C163.305 11.956 162.843 13.48 161.919 14.56C160.995 15.628 159.681 16.162 157.977 16.162C156.393 16.162 155.169 15.658 154.305 14.65C153.453 13.63 153.027 12.19 153.027 10.33C153.027 8.398 153.483 6.91 154.395 5.866C155.319 4.822 156.627 4.3 158.319 4.3ZM158.175 5.812C157.083 5.812 156.267 6.166 155.727 6.874C155.199 7.57 154.935 8.65 154.935 10.114C154.935 11.71 155.193 12.88 155.709 13.624C156.237 14.356 157.047 14.722 158.139 14.722C159.243 14.722 160.059 14.368 160.587 13.66C161.115 12.952 161.379 11.848 161.379 10.348C161.379 8.776 161.115 7.63 160.587 6.91C160.071 6.178 159.267 5.812 158.175 5.812ZM173.047 12.364L173.101 16H171.247L171.337 12.526L171.265 5.866H168.601L168.511 6.784C168.295 9.136 168.043 10.96 167.755 12.256C167.479 13.552 167.125 14.5 166.693 15.1C166.273 15.7 165.721 16.072 165.037 16.216L164.515 16.252L164.173 14.758C164.749 14.566 165.199 14.206 165.523 13.678C165.859 13.15 166.129 12.334 166.333 11.23C166.549 10.126 166.747 8.536 166.927 6.46L167.125 4.48L167.107 4.444H173.137L173.047 12.364ZM185.835 12.364L185.889 16H184.035L184.125 12.526L184.107 10.96L181.155 10.942L178.455 10.96L178.437 12.364L178.509 16H176.673L176.745 12.526L176.673 4.444H178.527L178.473 9.412L181.299 9.448L184.089 9.412L184.035 4.444H185.925L185.835 12.364ZM189.506 12.526L189.416 4.498L191.288 4.408L191.18 13.12H191.324L196.742 4.444H198.704L198.614 12.364L198.686 16H196.814L196.904 12.526V7.324H196.76L191.342 16H189.416L189.506 12.526ZM215.302 14.47V18.214L213.916 18.34L213.646 16H205.096L205.186 12.526L205.096 4.444H206.968L206.878 12.364L206.914 14.47H211.792L211.846 12.526L211.756 4.444H213.628L213.538 12.364L213.574 14.47H215.302ZM223.046 9.988C223.85 10.156 224.444 10.474 224.828 10.942C225.224 11.398 225.422 12.004 225.422 12.76C225.422 14.968 223.772 16.072 220.472 16.072C219.332 16.072 218.396 16.048 217.664 16H217.646L217.772 12.526L217.646 4.444L221.246 4.426C222.362 4.426 223.226 4.672 223.838 5.164C224.462 5.644 224.774 6.346 224.774 7.27C224.774 7.918 224.624 8.476 224.324 8.944C224.024 9.4 223.598 9.748 223.046 9.988ZM222.866 7.486C222.866 6.91 222.704 6.496 222.38 6.244C222.056 5.992 221.51 5.866 220.742 5.866H219.518L219.464 9.412L221.318 9.466C221.846 9.334 222.236 9.112 222.488 8.8C222.74 8.476 222.866 8.038 222.866 7.486ZM220.778 14.632C221.666 14.632 222.35 14.464 222.83 14.128C223.31 13.792 223.55 13.3 223.55 12.652C223.55 11.62 222.884 11.014 221.552 10.834L219.446 10.852L219.428 12.364L219.482 14.578C219.95 14.614 220.382 14.632 220.778 14.632ZM234.875 14.416L234.983 14.578L234.857 16H228.035L228.161 12.526L228.035 4.444H234.893L235.001 4.606L234.857 6.028L232.121 5.956L229.925 5.974L229.871 9.34L231.959 9.376L233.867 9.322L233.993 9.466L233.849 10.888L231.815 10.834L229.853 10.87L229.835 12.364L229.889 14.488L232.085 14.506L234.875 14.416ZM244.364 4.606L244.256 6.01L242.168 5.902H241.196L241.106 12.364L241.196 16H239.324L239.432 12.526L239.342 5.902H238.37L236.246 6.01L236.12 5.848L236.264 4.444H244.256L244.364 4.606ZM250.112 4.3C251.708 4.3 252.938 4.792 253.802 5.776C254.666 6.76 255.098 8.164 255.098 9.988C255.098 11.956 254.636 13.48 253.712 14.56C252.788 15.628 251.474 16.162 249.77 16.162C248.186 16.162 246.962 15.658 246.098 14.65C245.246 13.63 244.82 12.19 244.82 10.33C244.82 8.398 245.276 6.91 246.188 5.866C247.112 4.822 248.42 4.3 250.112 4.3ZM249.968 5.812C248.876 5.812 248.06 6.166 247.52 6.874C246.992 7.57 246.728 8.65 246.728 10.114C246.728 11.71 246.986 12.88 247.502 13.624C248.03 14.356 248.84 14.722 249.932 14.722C251.036 14.722 251.852 14.368 252.38 13.66C252.908 12.952 253.172 11.848 253.172 10.348C253.172 8.776 252.908 7.63 252.38 6.91C251.864 6.178 251.06 5.812 249.968 5.812ZM269.532 16H267.876L267.642 12.49L267.102 7.27H266.976L264.006 14.722H262.53L259.776 7.27H259.614L259.074 12.328L258.786 16H257.22L258.426 4.444H260.55L261.09 6.172L263.304 12.31H263.448L265.788 6.118L266.328 4.444H268.434L269.532 16ZM45.546 34.364L45.618 38H43.764L43.854 34.526L43.764 26.444H45.636L45.546 34.364ZM47.616 31.88C49.008 33.752 50.598 35.66 52.386 37.604L52.368 37.82C51.84 37.964 51.246 38.078 50.586 38.162L50.352 38.054C48.528 35.822 46.98 33.794 45.708 31.97V31.844L49.308 27.488L50.028 26.444H52.062L47.616 31.88ZM63.0371 38H61.1291L60.8591 36.704L60.3551 35.102L57.9071 35.048L55.6931 35.102L55.1531 36.614L54.8651 38H53.0111L57.1331 26.444H59.3111L63.0371 38ZM59.8871 33.59L58.2311 28.262H58.1051L56.2151 33.59L58.0331 33.626L59.8871 33.59ZM65.2705 38.162C64.6345 38.078 64.0525 37.964 63.5245 37.82L63.4885 37.622C65.2045 35.606 66.6865 33.692 67.9345 31.88L63.8125 26.444H65.8105L66.4585 27.488L69.8065 31.844V31.97C68.6665 33.758 67.2325 35.786 65.5045 38.054L65.2705 38.162ZM69.9145 34.526L69.8605 26.444H71.6965L71.6065 34.364L71.6785 38H69.8605L69.9145 34.526ZM76.0345 38.054C74.2825 35.762 72.8545 33.734 71.7505 31.97V31.844L75.0805 27.488L75.7285 26.444H77.7445L73.6045 31.88C74.9365 33.8 76.4185 35.714 78.0505 37.622L78.0325 37.82C77.5045 37.976 76.9165 38.09 76.2685 38.162L76.0345 38.054ZM89.6907 36.47V40.214L88.3047 40.34L88.0347 38H80.3127L80.0607 40.214L78.6567 40.34V36.47H79.6107C80.1147 36.194 80.5107 35.774 80.7987 35.21C81.0867 34.646 81.3207 33.848 81.5007 32.816C81.6807 31.784 81.8547 30.332 82.0227 28.46L82.2207 26.444H88.1787L88.1067 34.364L88.1427 36.47H89.6907ZM86.3967 34.526L86.3247 27.866H83.7327L83.6427 28.784C83.4387 31.088 83.1807 32.816 82.8687 33.968C82.5567 35.108 82.1127 35.942 81.5367 36.47H86.3427L86.3967 34.526ZM100.437 26.462L97.089 34.436C96.633 35.444 96.213 36.194 95.829 36.686C95.457 37.178 95.013 37.532 94.497 37.748C93.993 37.952 93.297 38.084 92.409 38.144L92.247 38.126C92.115 37.706 92.007 37.226 91.923 36.686L92.013 36.506C92.937 36.398 93.615 36.26 94.047 36.092C94.479 35.912 94.833 35.624 95.109 35.228L90.717 26.462L92.715 26.444L93.129 27.578L95.811 33.248H96.009L98.259 27.488L98.601 26.462H100.437ZM111.08 26.3C112.556 26.3 113.696 26.798 114.5 27.794C115.304 28.778 115.706 30.176 115.706 31.988C115.706 33.956 115.274 35.48 114.41 36.56C113.558 37.628 112.34 38.162 110.756 38.162C109.376 38.162 108.29 37.712 107.498 36.812C106.706 35.9 106.262 34.616 106.166 32.96L105.158 32.942L104.24 32.96L104.222 34.364L104.294 38H102.422L102.512 34.526L102.422 26.444H104.312L104.258 31.43L105.248 31.448L106.184 31.43C106.316 29.774 106.802 28.508 107.642 27.632C108.482 26.744 109.628 26.3 111.08 26.3ZM110.918 36.722C111.89 36.722 112.61 36.374 113.078 35.678C113.546 34.97 113.78 33.86 113.78 32.348C113.78 30.776 113.546 29.63 113.078 28.91C112.622 28.178 111.908 27.812 110.936 27.812C109.964 27.812 109.244 28.16 108.776 28.856C108.32 29.552 108.092 30.638 108.092 32.114C108.092 33.71 108.32 34.88 108.776 35.624C109.232 36.356 109.946 36.722 110.918 36.722ZM125.711 26.318C126.887 26.318 127.925 26.582 128.825 27.11L128.483 28.748L128.303 28.802C127.499 28.178 126.611 27.866 125.639 27.866C124.583 27.866 123.773 28.226 123.209 28.946C122.657 29.654 122.381 30.716 122.381 32.132C122.381 33.584 122.663 34.688 123.227 35.444C123.791 36.2 124.595 36.578 125.639 36.578C126.143 36.578 126.641 36.494 127.133 36.326C127.637 36.146 128.099 35.9 128.519 35.588L128.699 35.696L128.555 37.388C127.523 37.892 126.503 38.144 125.495 38.144C123.875 38.144 122.627 37.64 121.751 36.632C120.875 35.624 120.437 34.19 120.437 32.33C120.437 30.41 120.893 28.928 121.805 27.884C122.729 26.84 124.031 26.318 125.711 26.318ZM141.798 31.898C141.798 34.934 140.01 36.572 136.434 36.812L136.452 38.396H134.742L134.778 36.83C133.014 36.734 131.676 36.296 130.764 35.516C129.852 34.736 129.396 33.608 129.396 32.132C129.396 30.596 129.846 29.432 130.746 28.64C131.646 27.848 132.984 27.392 134.76 27.272L134.742 25.994H136.47L136.452 27.254C140.016 27.434 141.798 28.982 141.798 31.898ZM136.416 35.426C137.616 35.33 138.516 35.012 139.116 34.472C139.716 33.92 140.016 33.104 140.016 32.024C140.016 30.944 139.728 30.14 139.152 29.612C138.576 29.072 137.676 28.754 136.452 28.658L136.398 34.346L136.416 35.426ZM131.16 32.06C131.16 33.14 131.454 33.95 132.042 34.49C132.642 35.03 133.56 35.348 134.796 35.444L134.814 34.508L134.76 28.658C133.548 28.754 132.642 29.078 132.042 29.63C131.454 30.182 131.16 30.992 131.16 32.06ZM151.045 36.416L151.153 36.578L151.027 38H144.205L144.331 34.526L144.205 26.444H151.063L151.171 26.606L151.027 28.028L148.291 27.956L146.095 27.974L146.041 31.34L148.129 31.376L150.037 31.322L150.163 31.466L150.019 32.888L147.985 32.834L146.023 32.87L146.005 34.364L146.059 36.488L148.255 36.506L151.045 36.416ZM157.744 26.426C158.908 26.426 159.802 26.726 160.426 27.326C161.062 27.914 161.38 28.766 161.38 29.882C161.38 31.178 160.978 32.204 160.174 32.96C159.382 33.716 158.29 34.094 156.898 34.094H155.62V34.364L155.71 38H153.82L153.946 34.526L153.82 26.444L157.744 26.426ZM157.438 32.654C158.098 32.522 158.596 32.24 158.932 31.808C159.28 31.364 159.454 30.776 159.454 30.044C159.454 29.324 159.268 28.79 158.896 28.442C158.536 28.094 157.984 27.908 157.24 27.884L155.71 27.938L155.638 32.618L157.438 32.654ZM171.962 26.462L168.614 34.436C168.158 35.444 167.738 36.194 167.354 36.686C166.982 37.178 166.538 37.532 166.022 37.748C165.518 37.952 164.822 38.084 163.934 38.144L163.772 38.126C163.64 37.706 163.532 37.226 163.448 36.686L163.538 36.506C164.462 36.398 165.14 36.26 165.572 36.092C166.004 35.912 166.358 35.624 166.634 35.228L162.242 26.462L164.24 26.444L164.654 27.578L167.336 33.248H167.534L169.784 27.488L170.126 26.462H171.962ZM183.562 26.606L183.454 28.01L181.366 27.902H180.394L180.304 34.364L180.394 38H178.522L178.63 34.526L178.54 27.902H177.568L175.444 28.01L175.318 27.848L175.462 26.444H183.454L183.562 26.606ZM190.896 31.988C191.7 32.156 192.294 32.474 192.678 32.942C193.074 33.398 193.272 34.004 193.272 34.76C193.272 36.968 191.622 38.072 188.322 38.072C187.182 38.072 186.246 38.048 185.514 38H185.496L185.622 34.526L185.496 26.444L189.096 26.426C190.212 26.426 191.076 26.672 191.688 27.164C192.312 27.644 192.624 28.346 192.624 29.27C192.624 29.918 192.474 30.476 192.174 30.944C191.874 31.4 191.448 31.748 190.896 31.988ZM190.716 29.486C190.716 28.91 190.554 28.496 190.23 28.244C189.906 27.992 189.36 27.866 188.592 27.866H187.368L187.314 31.412L189.168 31.466C189.696 31.334 190.086 31.112 190.338 30.8C190.59 30.476 190.716 30.038 190.716 29.486ZM188.628 36.632C189.516 36.632 190.2 36.464 190.68 36.128C191.16 35.792 191.4 35.3 191.4 34.652C191.4 33.62 190.734 33.014 189.402 32.834L187.296 32.852L187.278 34.364L187.332 36.578C187.8 36.614 188.232 36.632 188.628 36.632ZM200.331 26.3C201.927 26.3 203.157 26.792 204.021 27.776C204.885 28.76 205.317 30.164 205.317 31.988C205.317 33.956 204.855 35.48 203.931 36.56C203.007 37.628 201.693 38.162 199.989 38.162C198.405 38.162 197.181 37.658 196.317 36.65C195.465 35.63 195.039 34.19 195.039 32.33C195.039 30.398 195.495 28.91 196.407 27.866C197.331 26.822 198.639 26.3 200.331 26.3ZM200.187 27.812C199.095 27.812 198.279 28.166 197.739 28.874C197.211 29.57 196.947 30.65 196.947 32.114C196.947 33.71 197.205 34.88 197.721 35.624C198.249 36.356 199.059 36.722 200.151 36.722C201.255 36.722 202.071 36.368 202.599 35.66C203.127 34.952 203.391 33.848 203.391 32.348C203.391 30.776 203.127 29.63 202.599 28.91C202.083 28.178 201.279 27.812 200.187 27.812ZM214.783 36.416L214.891 36.578L214.765 38H207.943L208.069 34.526L207.943 26.444H214.801L214.909 26.606L214.765 28.028L212.029 27.956L209.833 27.974L209.779 31.34L211.867 31.376L213.775 31.322L213.901 31.466L213.757 32.888L211.723 32.834L209.761 32.87L209.743 34.364L209.797 36.488L211.993 36.506L214.783 36.416ZM217.649 34.526L217.559 26.498L219.431 26.408L219.323 35.12H219.467L224.885 26.444H226.847L226.757 34.364L226.829 38H224.957L225.047 34.526V29.324H224.902L219.485 38H217.559L217.649 34.526ZM224.921 23.888C224.681 24.404 224.297 24.806 223.769 25.094C223.241 25.382 222.623 25.526 221.915 25.526C221.207 25.526 220.601 25.388 220.097 25.112C219.593 24.824 219.221 24.416 218.981 23.888L219.917 23.24H220.133C220.277 23.648 220.493 23.948 220.781 24.14C221.069 24.32 221.459 24.41 221.951 24.41C222.455 24.41 222.845 24.32 223.121 24.14C223.409 23.96 223.631 23.66 223.787 23.24H224.003L224.921 23.888ZM233.599 38.162C232.963 38.078 232.381 37.964 231.853 37.82L231.817 37.622C233.533 35.606 235.015 33.692 236.263 31.88L232.141 26.444H234.139L234.787 27.488L238.135 31.844V31.97C236.995 33.758 235.561 35.786 233.833 38.054L233.599 38.162ZM238.243 34.526L238.189 26.444H240.025L239.935 34.364L240.007 38H238.189L238.243 34.526ZM244.363 38.054C242.611 35.762 241.183 33.734 240.079 31.97V31.844L243.409 27.488L244.057 26.444H246.073L241.933 31.88C243.265 33.8 244.747 35.714 246.379 37.622L246.361 37.82C245.833 37.976 245.245 38.09 244.597 38.162L244.363 38.054ZM248.551 34.526L248.461 26.498L250.333 26.408L250.225 35.12H250.369L255.787 26.444H257.749L257.659 34.364L257.731 38H255.859L255.949 34.526V29.324H255.805L250.387 38H248.461L248.551 34.526ZM265.56 31.97C267.132 32.366 267.918 33.29 267.918 34.742C267.918 35.798 267.516 36.632 266.712 37.244C265.908 37.856 264.816 38.162 263.436 38.162C262.812 38.162 262.218 38.09 261.654 37.946C261.09 37.802 260.61 37.598 260.214 37.334L260.556 35.714L260.718 35.66C261.09 35.96 261.51 36.194 261.978 36.362C262.458 36.53 262.938 36.614 263.418 36.614C264.198 36.614 264.828 36.428 265.308 36.056C265.8 35.684 266.046 35.198 266.046 34.598C266.046 34.118 265.896 33.722 265.596 33.41C265.296 33.098 264.876 32.888 264.336 32.78H261.906L261.762 32.636L261.888 31.358L264.21 31.394C264.594 31.226 264.9 30.968 265.128 30.62C265.368 30.272 265.488 29.888 265.488 29.468C265.488 28.436 264.816 27.92 263.472 27.92C262.536 27.92 261.57 28.226 260.574 28.838L260.358 28.748L260.52 27.11C261.468 26.582 262.476 26.318 263.544 26.318C264.732 26.318 265.668 26.576 266.352 27.092C267.036 27.596 267.378 28.292 267.378 29.18C267.378 29.792 267.216 30.344 266.892 30.836C266.58 31.328 266.136 31.706 265.56 31.97ZM279.772 34.364L279.826 38H277.972L278.062 34.526L278.044 32.96L275.092 32.942L272.392 32.96L272.374 34.364L272.446 38H270.61L270.682 34.526L270.61 26.444H272.464L272.41 31.412L275.236 31.448L278.026 31.412L277.972 26.444H279.862L279.772 34.364ZM283.443 34.526L283.353 26.498L285.225 26.408L285.117 35.12H285.261L290.679 26.444H292.641L292.551 34.364L292.623 38H290.751L290.841 34.526V29.324H290.697L285.279 38H283.353L283.443 34.526ZM49.146 53.988C49.95 54.156 50.544 54.474 50.928 54.942C51.324 55.398 51.522 56.004 51.522 56.76C51.522 58.968 49.872 60.072 46.572 60.072C45.432 60.072 44.496 60.048 43.764 60H43.746L43.872 56.526L43.746 48.444L47.346 48.426C48.462 48.426 49.326 48.672 49.938 49.164C50.562 49.644 50.874 50.346 50.874 51.27C50.874 51.918 50.724 52.476 50.424 52.944C50.124 53.4 49.698 53.748 49.146 53.988ZM48.966 51.486C48.966 50.91 48.804 50.496 48.48 50.244C48.156 49.992 47.61 49.866 46.842 49.866H45.618L45.564 53.412L47.418 53.466C47.946 53.334 48.336 53.112 48.588 52.8C48.84 52.476 48.966 52.038 48.966 51.486ZM46.878 58.632C47.766 58.632 48.45 58.464 48.93 58.128C49.41 57.792 49.65 57.3 49.65 56.652C49.65 55.62 48.984 55.014 47.652 54.834L45.546 54.852L45.528 56.364L45.582 58.578C46.05 58.614 46.482 58.632 46.878 58.632ZM58.8175 56.364L58.8895 60H57.0355L57.1255 56.526L57.0355 48.444H58.9075L58.8175 56.364ZM60.8875 53.88C62.2795 55.752 63.8695 57.66 65.6575 59.604L65.6395 59.82C65.1115 59.964 64.5175 60.078 63.8575 60.162L63.6235 60.054C61.7995 57.822 60.2515 55.794 58.9795 53.97V53.844L62.5795 49.488L63.2995 48.444H65.3335L60.8875 53.88ZM71.7643 48.3C73.3603 48.3 74.5903 48.792 75.4543 49.776C76.3183 50.76 76.7503 52.164 76.7503 53.988C76.7503 55.956 76.2883 57.48 75.3643 58.56C74.4403 59.628 73.1263 60.162 71.4223 60.162C69.8383 60.162 68.6143 59.658 67.7503 58.65C66.8983 57.63 66.4723 56.19 66.4723 54.33C66.4723 52.398 66.9283 50.91 67.8403 49.866C68.7643 48.822 70.0723 48.3 71.7643 48.3ZM71.6203 49.812C70.5283 49.812 69.7123 50.166 69.1723 50.874C68.6443 51.57 68.3803 52.65 68.3803 54.114C68.3803 55.71 68.6383 56.88 69.1543 57.624C69.6823 58.356 70.4923 58.722 71.5843 58.722C72.6883 58.722 73.5043 58.368 74.0323 57.66C74.5603 56.952 74.8243 55.848 74.8243 54.348C74.8243 52.776 74.5603 51.63 74.0323 50.91C73.5163 50.178 72.7123 49.812 71.6203 49.812ZM86.4923 56.364L86.5463 60H84.6923L84.7823 56.526L84.7103 49.866H82.0463L81.9563 50.784C81.7403 53.136 81.4883 54.96 81.2003 56.256C80.9243 57.552 80.5703 58.5 80.1383 59.1C79.7183 59.7 79.1663 60.072 78.4823 60.216L77.9603 60.252L77.6183 58.758C78.1943 58.566 78.6443 58.206 78.9683 57.678C79.3043 57.15 79.5743 56.334 79.7783 55.23C79.9943 54.126 80.1923 52.536 80.3723 50.46L80.5703 48.48L80.5523 48.444H86.5823L86.4923 56.364ZM96.9219 58.416L97.0299 58.578L96.9039 60H90.0819L90.2079 56.526L90.0819 48.444H96.9399L97.0479 48.606L96.9039 50.028L94.1679 49.956L91.9719 49.974L91.9179 53.34L94.0059 53.376L95.9139 53.322L96.0399 53.466L95.8959 54.888L93.8619 54.834L91.8999 54.87L91.8819 56.364L91.9359 58.488L94.1319 58.506L96.9219 58.416ZM103.862 48.318C105.038 48.318 106.076 48.582 106.976 49.11L106.634 50.748L106.454 50.802C105.65 50.178 104.762 49.866 103.79 49.866C102.734 49.866 101.924 50.226 101.36 50.946C100.808 51.654 100.532 52.716 100.532 54.132C100.532 55.584 100.814 56.688 101.378 57.444C101.942 58.2 102.746 58.578 103.79 58.578C104.294 58.578 104.792 58.494 105.284 58.326C105.788 58.146 106.25 57.9 106.67 57.588L106.85 57.696L106.706 59.388C105.674 59.892 104.654 60.144 103.646 60.144C102.026 60.144 100.778 59.64 99.9015 58.632C99.0255 57.624 98.5875 56.19 98.5875 54.33C98.5875 52.41 99.0435 50.928 99.9555 49.884C100.88 48.84 102.182 48.318 103.862 48.318ZM116.311 58.416L116.419 58.578L116.293 60H109.471L109.597 56.526L109.471 48.444H116.329L116.437 48.606L116.293 50.028L113.557 49.956L111.361 49.974L111.307 53.34L113.395 53.376L115.303 53.322L115.429 53.466L115.285 54.888L113.251 54.834L111.289 54.87L111.271 56.364L111.325 58.488L113.521 58.506L116.311 58.416ZM126.307 53.214C127.471 53.214 128.353 53.478 128.953 54.006C129.565 54.522 129.871 55.272 129.871 56.256C129.871 57.456 129.451 58.38 128.611 59.028C127.771 59.676 126.583 60 125.047 60H121.987L122.077 56.544L121.987 48.444H129.331L129.439 48.606L129.313 49.974L126.469 49.92H123.841L123.805 53.214H126.307ZM125.695 58.704C126.427 58.62 126.985 58.392 127.369 58.02C127.753 57.636 127.945 57.126 127.945 56.49C127.945 55.854 127.753 55.368 127.369 55.032C126.997 54.696 126.451 54.528 125.731 54.528L123.787 54.546L123.769 56.382L123.805 58.632L125.695 58.704ZM141.049 60H139.141L138.871 58.704L138.367 57.102L135.919 57.048L133.705 57.102L133.165 58.614L132.877 60H131.023L135.145 48.444H137.323L141.049 60ZM137.899 55.59L136.243 50.262H136.117L134.227 55.59L136.045 55.626L137.899 55.59ZM150.512 56.364L150.566 60H148.712L148.802 56.526L148.73 49.866H146.066L145.976 50.784C145.76 53.136 145.508 54.96 145.22 56.256C144.944 57.552 144.59 58.5 144.158 59.1C143.738 59.7 143.186 60.072 142.502 60.216L141.98 60.252L141.638 58.758C142.214 58.566 142.664 58.206 142.988 57.678C143.324 57.15 143.594 56.334 143.798 55.23C144.014 54.126 144.212 52.536 144.392 50.46L144.59 48.48L144.572 48.444H150.602L150.512 56.364ZM162.687 60H160.779L160.509 58.704L160.005 57.102L157.557 57.048L155.343 57.102L154.803 58.614L154.515 60H152.661L156.783 48.444H158.961L162.687 60ZM159.537 55.59L157.881 50.262H157.755L155.865 55.59L157.683 55.626L159.537 55.59ZM174.005 56.364L174.059 60H172.205L172.295 56.526L172.277 54.96L169.325 54.942L166.625 54.96L166.607 56.364L166.679 60H164.843L164.915 56.526L164.843 48.444H166.697L166.643 53.412L169.469 53.448L172.259 53.412L172.205 48.444H174.095L174.005 56.364ZM181.768 48.318C182.944 48.318 183.982 48.582 184.882 49.11L184.54 50.748L184.36 50.802C183.556 50.178 182.668 49.866 181.696 49.866C180.64 49.866 179.83 50.226 179.266 50.946C178.714 51.654 178.438 52.716 178.438 54.132C178.438 55.584 178.72 56.688 179.284 57.444C179.848 58.2 180.652 58.578 181.696 58.578C182.2 58.578 182.698 58.494 183.19 58.326C183.694 58.146 184.156 57.9 184.576 57.588L184.756 57.696L184.612 59.388C183.58 59.892 182.56 60.144 181.552 60.144C179.932 60.144 178.684 59.64 177.808 58.632C176.932 57.624 176.494 56.19 176.494 54.33C176.494 52.41 176.95 50.928 177.862 49.884C178.786 48.84 180.088 48.318 181.768 48.318ZM195.928 60H194.02L193.75 58.704L193.246 57.102L190.798 57.048L188.584 57.102L188.044 58.614L187.756 60H185.902L190.024 48.444H192.202L195.928 60ZM192.778 55.59L191.122 50.262H190.996L189.106 55.59L190.924 55.626L192.778 55.59Z" fill="white"/>
<rect y="19" width="28" height="28" rx="8" fill="white"/>
<path d="M44.066 102.97C45.638 103.366 46.424 104.29 46.424 105.742C46.424 106.798 46.022 107.632 45.218 108.244C44.414 108.856 43.322 109.162 41.942 109.162C41.318 109.162 40.724 109.09 40.16 108.946C39.596 108.802 39.116 108.598 38.72 108.334L39.062 106.714L39.224 106.66C39.596 106.96 40.016 107.194 40.484 107.362C40.964 107.53 41.444 107.614 41.924 107.614C42.704 107.614 43.334 107.428 43.814 107.056C44.306 106.684 44.552 106.198 44.552 105.598C44.552 105.118 44.402 104.722 44.102 104.41C43.802 104.098 43.382 103.888 42.842 103.78H40.412L40.268 103.636L40.394 102.358L42.716 102.394C43.1 102.226 43.406 101.968 43.634 101.62C43.874 101.272 43.994 100.888 43.994 100.468C43.994 99.436 43.322 98.92 41.978 98.92C41.042 98.92 40.076 99.226 39.08 99.838L38.864 99.748L39.026 98.11C39.974 97.582 40.982 97.318 42.05 97.318C43.238 97.318 44.174 97.576 44.858 98.092C45.542 98.596 45.884 99.292 45.884 100.18C45.884 100.792 45.722 101.344 45.398 101.836C45.086 102.328 44.642 102.706 44.066 102.97ZM57.666 109H55.758L55.488 107.704L54.984 106.102L52.536 106.048L50.322 106.102L49.782 107.614L49.494 109H47.64L51.762 97.444H53.94L57.666 109ZM54.516 104.59L52.86 99.262H52.734L50.844 104.59L52.662 104.626L54.516 104.59ZM68.2091 105.364L68.2631 109H66.4271L66.4991 105.526L66.4451 98.902H61.6571L61.5851 105.364L61.6571 109H59.8031L59.8931 105.526L59.8031 97.444H68.2991L68.2091 105.364ZM75.9733 97.3C77.5693 97.3 78.7993 97.792 79.6633 98.776C80.5273 99.76 80.9593 101.164 80.9593 102.988C80.9593 104.956 80.4973 106.48 79.5733 107.56C78.6493 108.628 77.3353 109.162 75.6313 109.162C74.0473 109.162 72.8233 108.658 71.9593 107.65C71.1073 106.63 70.6813 105.19 70.6813 103.33C70.6813 101.398 71.1373 99.91 72.0493 98.866C72.9733 97.822 74.2813 97.3 75.9733 97.3ZM75.8293 98.812C74.7373 98.812 73.9213 99.166 73.3813 99.874C72.8533 100.57 72.5893 101.65 72.5893 103.114C72.5893 104.71 72.8473 105.88 73.3633 106.624C73.8913 107.356 74.7013 107.722 75.7933 107.722C76.8973 107.722 77.7133 107.368 78.2413 106.66C78.7693 105.952 79.0332 104.848 79.0332 103.348C79.0332 101.776 78.7693 100.63 78.2413 99.91C77.7253 99.178 76.9213 98.812 75.8293 98.812ZM90.7013 105.364L90.7553 109H88.9013L88.9913 105.526L88.9193 98.866H86.2553L86.1653 99.784C85.9493 102.136 85.6973 103.96 85.4093 105.256C85.1333 106.552 84.7793 107.5 84.3473 108.1C83.9273 108.7 83.3753 109.072 82.6913 109.216L82.1693 109.252L81.8273 107.758C82.4033 107.566 82.8533 107.206 83.1773 106.678C83.5133 106.15 83.7833 105.334 83.9873 104.23C84.2033 103.126 84.4013 101.536 84.5813 99.46L84.7793 97.48L84.7613 97.444H90.7913L90.7013 105.364ZM103.489 105.364L103.543 109H101.689L101.779 105.526L101.761 103.96L98.8089 103.942L96.1089 103.96L96.0909 105.364L96.1629 109H94.3269L94.3989 105.526L94.3269 97.444H96.1809L96.1269 102.412L98.9529 102.448L101.743 102.412L101.689 97.444H103.579L103.489 105.364ZM107.16 105.526L107.07 97.498L108.942 97.408L108.834 106.12H108.978L114.396 97.444H116.358L116.268 105.364L116.34 109H114.468L114.558 105.526V100.324H114.414L108.996 109H107.07L107.16 105.526ZM124.532 105.364L124.604 109H122.75L122.84 105.526L122.75 97.444H124.622L124.532 105.364ZM126.602 102.88C127.994 104.752 129.584 106.66 131.372 108.604L131.354 108.82C130.826 108.964 130.232 109.078 129.572 109.162L129.338 109.054C127.514 106.822 125.966 104.794 124.694 102.97V102.844L128.294 98.488L129.014 97.444H131.048L126.602 102.88ZM142.023 109H140.115L139.845 107.704L139.341 106.102L136.893 106.048L134.679 106.102L134.139 107.614L133.851 109H131.997L136.119 97.444H138.297L142.023 109ZM138.873 104.59L137.217 99.262H137.091L135.201 104.59L137.019 104.626L138.873 104.59ZM148.066 97.426C149.23 97.426 150.124 97.726 150.748 98.326C151.384 98.914 151.702 99.766 151.702 100.882C151.702 102.178 151.3 103.204 150.496 103.96C149.704 104.716 148.612 105.094 147.22 105.094H145.942V105.364L146.032 109H144.142L144.268 105.526L144.142 97.444L148.066 97.426ZM147.76 103.654C148.42 103.522 148.918 103.24 149.254 102.808C149.602 102.364 149.776 101.776 149.776 101.044C149.776 100.324 149.59 99.79 149.218 99.442C148.858 99.094 148.306 98.908 147.562 98.884L146.032 98.938L145.96 103.618L147.76 103.654ZM160.753 97.606L160.645 99.01L158.557 98.902H157.585L157.495 105.364L157.585 109H155.713L155.821 105.526L155.731 98.902H154.759L152.635 99.01L152.509 98.848L152.653 97.444H160.645L160.753 97.606ZM166.501 97.3C168.097 97.3 169.327 97.792 170.191 98.776C171.055 99.76 171.487 101.164 171.487 102.988C171.487 104.956 171.025 106.48 170.101 107.56C169.177 108.628 167.863 109.162 166.159 109.162C164.575 109.162 163.351 108.658 162.487 107.65C161.635 106.63 161.209 105.19 161.209 103.33C161.209 101.398 161.665 99.91 162.577 98.866C163.501 97.822 164.809 97.3 166.501 97.3ZM166.357 98.812C165.265 98.812 164.449 99.166 163.909 99.874C163.381 100.57 163.117 101.65 163.117 103.114C163.117 104.71 163.375 105.88 163.891 106.624C164.419 107.356 165.229 107.722 166.321 107.722C167.425 107.722 168.241 107.368 168.769 106.66C169.297 105.952 169.561 104.848 169.561 103.348C169.561 101.776 169.297 100.63 168.769 99.91C168.253 99.178 167.449 98.812 166.357 98.812ZM181.312 105.364L181.384 109H179.512L179.602 105.526L179.584 104.014H179.422C178.69 104.674 177.868 105.13 176.956 105.382C175.756 105.382 174.868 105.118 174.292 104.59C173.728 104.062 173.434 103.234 173.41 102.106L173.374 97.444H175.246L175.21 101.602C175.21 102.262 175.366 102.784 175.678 103.168C176.002 103.552 176.434 103.744 176.974 103.744C177.382 103.744 177.814 103.63 178.27 103.402C178.726 103.174 179.158 102.856 179.566 102.448L179.512 97.444H181.402L181.312 105.364ZM186.689 105.364L186.761 109H184.907L184.997 105.526L184.907 97.444H186.779L186.689 105.364ZM188.759 102.88C190.151 104.752 191.741 106.66 193.529 108.604L193.511 108.82C192.983 108.964 192.389 109.078 191.729 109.162L191.495 109.054C189.671 106.822 188.123 104.794 186.851 102.97V102.844L190.451 98.488L191.171 97.444H193.205L188.759 102.88ZM195.684 105.526L195.594 97.498L197.466 97.408L197.358 106.12H197.502L202.92 97.444H204.882L204.792 105.364L204.864 109H202.992L203.082 105.526V100.324H202.938L197.52 109H195.594L195.684 105.526ZM211.634 109.162C210.998 109.078 210.416 108.964 209.888 108.82L209.852 108.622C211.568 106.606 213.05 104.692 214.298 102.88L210.176 97.444H212.174L212.822 98.488L216.17 102.844V102.97C215.03 104.758 213.596 106.786 211.868 109.054L211.634 109.162ZM216.278 105.526L216.224 97.444H218.06L217.97 105.364L218.042 109H216.224L216.278 105.526ZM222.398 109.054C220.646 106.762 219.218 104.734 218.114 102.97V102.844L221.444 98.488L222.092 97.444H224.108L219.968 102.88C221.3 104.8 222.782 106.714 224.414 108.622L224.396 108.82C223.868 108.976 223.28 109.09 222.632 109.162L222.398 109.054ZM233.336 107.416L233.444 107.578L233.318 109H226.496L226.622 105.526L226.496 97.444H233.354L233.462 97.606L233.318 99.028L230.582 98.956L228.386 98.974L228.332 102.34L230.42 102.376L232.328 102.322L232.454 102.466L232.31 103.888L230.276 103.834L228.314 103.87L228.296 105.364L228.35 107.488L230.546 107.506L233.336 107.416ZM243.455 105.364L243.509 109H241.655L241.745 105.526L241.673 98.866H239.009L238.919 99.784C238.703 102.136 238.451 103.96 238.163 105.256C237.887 106.552 237.533 107.5 237.101 108.1C236.681 108.7 236.129 109.072 235.445 109.216L234.923 109.252L234.581 107.758C235.157 107.566 235.607 107.206 235.931 106.678C236.267 106.15 236.537 105.334 236.741 104.23C236.957 103.126 237.155 101.536 237.335 99.46L237.533 97.48L237.515 97.444H243.545L243.455 105.364ZM255.631 109H253.723L253.453 107.704L252.949 106.102L250.501 106.048L248.287 106.102L247.747 107.614L247.459 109H245.605L249.727 97.444H251.905L255.631 109ZM252.481 104.59L250.825 99.262H250.699L248.809 104.59L250.627 104.626L252.481 104.59ZM266.948 105.364L267.002 109H265.148L265.238 105.526L265.22 103.96L262.268 103.942L259.568 103.96L259.55 105.364L259.622 109H257.786L257.858 105.526L257.786 97.444H259.64L259.586 102.412L262.412 102.448L265.202 102.412L265.148 97.444H267.038L266.948 105.364ZM270.619 105.526L270.529 97.498L272.401 97.408L272.293 106.12H272.437L277.855 97.444H279.817L279.727 105.364L279.799 109H277.927L278.017 105.526V100.324H277.873L272.455 109H270.529L270.619 105.526ZM283.399 105.526L283.309 97.498L285.181 97.408L285.073 106.12H285.217L290.635 97.444H292.597L292.507 105.364L292.579 109H290.707L290.797 105.526V100.324H290.652L285.235 109H283.309L283.399 105.526ZM290.671 94.888C290.431 95.404 290.047 95.806 289.519 96.094C288.991 96.382 288.373 96.526 287.665 96.526C286.957 96.526 286.351 96.388 285.847 96.112C285.343 95.824 284.971 95.416 284.731 94.888L285.667 94.24H285.883C286.027 94.648 286.243 94.948 286.531 95.14C286.819 95.32 287.209 95.41 287.701 95.41C288.205 95.41 288.595 95.32 288.871 95.14C289.159 94.96 289.381 94.66 289.537 94.24H289.753L290.671 94.888ZM48.17 127.364L48.224 131H46.388L46.46 127.526L46.406 120.902H41.618L41.546 127.364L41.618 131H39.764L39.854 127.526L39.764 119.444H48.26L48.17 127.364ZM55.9342 119.3C57.5302 119.3 58.7602 119.792 59.6242 120.776C60.4882 121.76 60.9202 123.164 60.9202 124.988C60.9202 126.956 60.4582 128.48 59.5342 129.56C58.6102 130.628 57.2962 131.162 55.5922 131.162C54.0082 131.162 52.7842 130.658 51.9202 129.65C51.0682 128.63 50.6422 127.19 50.6422 125.33C50.6422 123.398 51.0982 121.91 52.0102 120.866C52.9342 119.822 54.2422 119.3 55.9342 119.3ZM55.7902 120.812C54.6982 120.812 53.8822 121.166 53.3422 121.874C52.8142 122.57 52.5502 123.65 52.5502 125.114C52.5502 126.71 52.8082 127.88 53.3242 128.624C53.8522 129.356 54.6622 129.722 55.7542 129.722C56.8582 129.722 57.6742 129.368 58.2022 128.66C58.7302 127.952 58.9942 126.848 58.9942 125.348C58.9942 123.776 58.7302 122.63 58.2022 121.91C57.6862 121.178 56.8822 120.812 55.7902 120.812ZM68.2648 127.364L68.3368 131H66.4828L66.5728 127.526L66.4828 119.444H68.3548L68.2648 127.364ZM70.3348 124.88C71.7268 126.752 73.3168 128.66 75.1048 130.604L75.0868 130.82C74.5588 130.964 73.9648 131.078 73.3048 131.162L73.0708 131.054C71.2468 128.822 69.6988 126.794 68.4268 124.97V124.844L72.0268 120.488L72.7468 119.444H74.7808L70.3348 124.88ZM85.7558 131H83.8478L83.5778 129.704L83.0738 128.102L80.6258 128.048L78.4118 128.102L77.8718 129.614L77.5838 131H75.7298L79.8518 119.444H82.0298L85.7558 131ZM82.6058 126.59L80.9498 121.262H80.8238L78.9338 126.59L80.7518 126.626L82.6058 126.59ZM87.9892 131.162C87.3532 131.078 86.7712 130.964 86.2432 130.82L86.2072 130.622C87.9232 128.606 89.4052 126.692 90.6532 124.88L86.5312 119.444H88.5292L89.1772 120.488L92.5252 124.844V124.97C91.3852 126.758 89.9512 128.786 88.2232 131.054L87.9892 131.162ZM92.6332 127.526L92.5792 119.444H94.4152L94.3252 127.364L94.3972 131H92.5792L92.6332 127.526ZM98.7532 131.054C97.0012 128.762 95.5732 126.734 94.4692 124.97V124.844L97.7992 120.488L98.4472 119.444H100.463L96.3232 124.88C97.6552 126.8 99.1372 128.714 100.769 130.622L100.751 130.82C100.223 130.976 99.6352 131.09 98.9872 131.162L98.7532 131.054ZM112.409 129.47V133.214L111.023 133.34L110.753 131H103.031L102.779 133.214L101.375 133.34V129.47H102.329C102.833 129.194 103.229 128.774 103.517 128.21C103.805 127.646 104.039 126.848 104.219 125.816C104.399 124.784 104.573 123.332 104.741 121.46L104.939 119.444H110.897L110.825 127.364L110.861 129.47H112.409ZM109.115 127.526L109.043 120.866H106.451L106.361 121.784C106.157 124.088 105.899 125.816 105.587 126.968C105.275 128.108 104.831 128.942 104.255 129.47H109.061L109.115 127.526ZM119.075 119.3C120.671 119.3 121.901 119.792 122.765 120.776C123.629 121.76 124.061 123.164 124.061 124.988C124.061 126.956 123.599 128.48 122.675 129.56C121.751 130.628 120.437 131.162 118.733 131.162C117.149 131.162 115.925 130.658 115.061 129.65C114.209 128.63 113.783 127.19 113.783 125.33C113.783 123.398 114.239 121.91 115.151 120.866C116.075 119.822 117.383 119.3 119.075 119.3ZM118.931 120.812C117.839 120.812 117.023 121.166 116.483 121.874C115.955 122.57 115.691 123.65 115.691 125.114C115.691 126.71 115.949 127.88 116.465 128.624C116.993 129.356 117.803 129.722 118.895 129.722C119.999 129.722 120.815 129.368 121.343 128.66C121.871 127.952 122.135 126.848 122.135 125.348C122.135 123.776 121.871 122.63 121.343 121.91C120.827 121.178 120.023 120.812 118.931 120.812ZM138.495 131H136.839L136.605 127.49L136.065 122.27H135.939L132.969 129.722H131.493L128.739 122.27H128.577L128.037 127.328L127.749 131H126.183L127.389 119.444H129.513L130.053 121.172L132.267 127.31H132.411L134.751 121.118L135.291 119.444H137.397L138.495 131ZM149.804 119.462L146.456 127.436C146 128.444 145.58 129.194 145.196 129.686C144.824 130.178 144.38 130.532 143.864 130.748C143.36 130.952 142.664 131.084 141.776 131.144L141.614 131.126C141.482 130.706 141.374 130.226 141.29 129.686L141.38 129.506C142.304 129.398 142.982 129.26 143.414 129.092C143.846 128.912 144.2 128.624 144.476 128.228L140.084 119.462L142.082 119.444L142.496 120.578L145.178 126.248H145.376L147.626 120.488L147.968 119.462H149.804ZM159.117 119.318C160.293 119.318 161.331 119.582 162.231 120.11L161.889 121.748L161.709 121.802C160.905 121.178 160.017 120.866 159.045 120.866C157.989 120.866 157.179 121.226 156.615 121.946C156.063 122.654 155.787 123.716 155.787 125.132C155.787 126.584 156.069 127.688 156.633 128.444C157.197 129.2 158.001 129.578 159.045 129.578C159.549 129.578 160.047 129.494 160.539 129.326C161.043 129.146 161.505 128.9 161.925 128.588L162.105 128.696L161.961 130.388C160.929 130.892 159.909 131.144 158.901 131.144C157.281 131.144 156.033 130.64 155.157 129.632C154.281 128.624 153.843 127.19 153.843 125.33C153.843 123.41 154.299 121.928 155.211 120.884C156.135 119.84 157.437 119.318 159.117 119.318ZM171.566 129.416L171.674 129.578L171.548 131H164.726L164.852 127.526L164.726 119.444H171.584L171.692 119.606L171.548 121.028L168.812 120.956L166.616 120.974L166.562 124.34L168.65 124.376L170.558 124.322L170.684 124.466L170.54 125.888L168.506 125.834L166.544 125.87L166.526 127.364L166.58 129.488L168.776 129.506L171.566 129.416ZM176.142 127.364L176.214 131H174.36L174.45 127.526L174.36 119.444H176.232L176.142 127.364ZM178.212 124.88C179.604 126.752 181.194 128.66 182.982 130.604L182.964 130.82C182.436 130.964 181.842 131.078 181.182 131.162L180.948 131.054C179.124 128.822 177.576 126.794 176.304 124.97V124.844L179.904 120.488L180.624 119.444H182.658L178.212 124.88ZM191.444 119.606L191.336 121.01L189.248 120.902H188.276L188.186 127.364L188.276 131H186.404L186.512 127.526L186.422 120.902H185.45L183.326 121.01L183.2 120.848L183.344 119.444H191.336L191.444 119.606ZM197.192 119.3C198.788 119.3 200.018 119.792 200.882 120.776C201.746 121.76 202.178 123.164 202.178 124.988C202.178 126.956 201.716 128.48 200.792 129.56C199.868 130.628 198.554 131.162 196.85 131.162C195.266 131.162 194.042 130.658 193.178 129.65C192.326 128.63 191.9 127.19 191.9 125.33C191.9 123.398 192.356 121.91 193.268 120.866C194.192 119.822 195.5 119.3 197.192 119.3ZM197.048 120.812C195.956 120.812 195.14 121.166 194.6 121.874C194.072 122.57 193.808 123.65 193.808 125.114C193.808 126.71 194.066 127.88 194.582 128.624C195.11 129.356 195.92 129.722 197.012 129.722C198.116 129.722 198.932 129.368 199.46 128.66C199.988 127.952 200.252 126.848 200.252 125.348C200.252 123.776 199.988 122.63 199.46 121.91C198.944 121.178 198.14 120.812 197.048 120.812ZM208.729 119.426C209.893 119.426 210.787 119.726 211.411 120.326C212.047 120.914 212.365 121.766 212.365 122.882C212.365 124.178 211.963 125.204 211.159 125.96C210.367 126.716 209.275 127.094 207.883 127.094H206.605V127.364L206.695 131H204.805L204.931 127.526L204.805 119.444L208.729 119.426ZM208.423 125.654C209.083 125.522 209.581 125.24 209.917 124.808C210.265 124.364 210.439 123.776 210.439 123.044C210.439 122.324 210.253 121.79 209.881 121.442C209.521 121.094 208.969 120.908 208.225 120.884L206.695 120.938L206.623 125.618L208.423 125.654ZM222.947 119.462L219.599 127.436C219.143 128.444 218.723 129.194 218.339 129.686C217.967 130.178 217.523 130.532 217.007 130.748C216.503 130.952 215.807 131.084 214.919 131.144L214.757 131.126C214.625 130.706 214.517 130.226 214.433 129.686L214.523 129.506C215.447 129.398 216.125 129.26 216.557 129.092C216.989 128.912 217.343 128.624 217.619 128.228L213.227 119.462L215.225 119.444L215.639 120.578L218.321 126.248H218.519L220.769 120.488L221.111 119.462H222.947Z" fill="white"/>
<rect y="101" width="28" height="28" rx="8" fill="white"/>
<path d="M44.192 168.3C45.788 168.3 47.018 168.792 47.882 169.776C48.746 170.76 49.178 172.164 49.178 173.988C49.178 175.956 48.716 177.48 47.792 178.56C46.868 179.628 45.554 180.162 43.85 180.162C42.266 180.162 41.042 179.658 40.178 178.65C39.326 177.63 38.9 176.19 38.9 174.33C38.9 172.398 39.356 170.91 40.268 169.866C41.192 168.822 42.5 168.3 44.192 168.3ZM44.048 169.812C42.956 169.812 42.14 170.166 41.6 170.874C41.072 171.57 40.808 172.65 40.808 174.114C40.808 175.71 41.066 176.88 41.582 177.624C42.11 178.356 42.92 178.722 44.012 178.722C45.116 178.722 45.932 178.368 46.46 177.66C46.988 176.952 47.252 175.848 47.252 174.348C47.252 172.776 46.988 171.63 46.46 170.91C45.944 170.178 45.14 169.812 44.048 169.812ZM56.1426 173.214C57.3066 173.214 58.1886 173.478 58.7886 174.006C59.4006 174.522 59.7066 175.272 59.7066 176.256C59.7066 177.456 59.2866 178.38 58.4466 179.028C57.6066 179.676 56.4186 180 54.8826 180H51.8226L51.9126 176.544L51.8226 168.444H59.1666L59.2746 168.606L59.1486 169.974L56.3046 169.92H53.6766L53.6406 173.214H56.1426ZM55.5306 178.704C56.2626 178.62 56.8206 178.392 57.2046 178.02C57.5886 177.636 57.7806 177.126 57.7806 176.49C57.7806 175.854 57.5886 175.368 57.2046 175.032C56.8326 174.696 56.2866 174.528 55.5666 174.528L53.6226 174.546L53.6046 176.382L53.6406 178.632L55.5306 178.704ZM69.2107 176.526L69.3007 180H67.4467L67.5187 176.364V175.878H65.5747C64.8907 177.174 64.0807 178.554 63.1447 180.018L62.9287 180.162C62.2807 180.114 61.6927 179.988 61.1647 179.784L61.1467 179.568C62.1907 178.248 63.1927 176.88 64.1527 175.464C62.5807 174.768 61.7947 173.646 61.7947 172.098C61.7947 171.378 61.9627 170.742 62.2987 170.19C62.6347 169.626 63.1087 169.188 63.7207 168.876C64.3327 168.564 65.0347 168.408 65.8267 168.408L69.3007 168.444L69.2107 176.526ZM67.5007 174.348L67.4467 169.938L65.9347 169.884C65.2387 169.896 64.6927 170.088 64.2967 170.46C63.9127 170.832 63.7207 171.372 63.7207 172.08C63.7207 172.704 63.8707 173.208 64.1707 173.592C64.4827 173.976 64.9567 174.252 65.5927 174.42L67.5007 174.348ZM77.1305 173.97C78.7025 174.366 79.4885 175.29 79.4885 176.742C79.4885 177.798 79.0865 178.632 78.2825 179.244C77.4785 179.856 76.3865 180.162 75.0065 180.162C74.3825 180.162 73.7885 180.09 73.2245 179.946C72.6605 179.802 72.1805 179.598 71.7845 179.334L72.1265 177.714L72.2885 177.66C72.6605 177.96 73.0805 178.194 73.5485 178.362C74.0285 178.53 74.5085 178.614 74.9885 178.614C75.7685 178.614 76.3985 178.428 76.8785 178.056C77.3705 177.684 77.6165 177.198 77.6165 176.598C77.6165 176.118 77.4665 175.722 77.1665 175.41C76.8665 175.098 76.4465 174.888 75.9065 174.78H73.4765L73.3325 174.636L73.4585 173.358L75.7805 173.394C76.1645 173.226 76.4705 172.968 76.6985 172.62C76.9385 172.272 77.0585 171.888 77.0585 171.468C77.0585 170.436 76.3865 169.92 75.0425 169.92C74.1065 169.92 73.1405 170.226 72.1445 170.838L71.9285 170.748L72.0905 169.11C73.0385 168.582 74.0465 168.318 75.1145 168.318C76.3025 168.318 77.2385 168.576 77.9225 169.092C78.6065 169.596 78.9485 170.292 78.9485 171.18C78.9485 171.792 78.7865 172.344 78.4625 172.836C78.1505 173.328 77.7065 173.706 77.1305 173.97ZM90.7304 180H88.8224L88.5524 178.704L88.0484 177.102L85.6004 177.048L83.3864 177.102L82.8464 178.614L82.5584 180H80.7044L84.8264 168.444H87.0044L90.7304 180ZM87.5804 175.59L85.9244 170.262H85.7984L83.9084 175.59L85.7264 175.626L87.5804 175.59ZM98.6143 168.606L98.5063 170.01L96.4183 169.902H95.4463L95.3563 176.364L95.4463 180H93.5743L93.6823 176.526L93.5923 169.902H92.6203L90.4963 170.01L90.3703 169.848L90.5143 168.444H98.5063L98.6143 168.606ZM107.389 178.416L107.497 178.578L107.371 180H100.549L100.675 176.526L100.549 168.444H107.407L107.515 168.606L107.371 170.028L104.635 169.956L102.439 169.974L102.385 173.34L104.473 173.376L106.381 173.322L106.507 173.466L106.363 174.888L104.329 174.834L102.367 174.87L102.349 176.364L102.403 178.488L104.599 178.506L107.389 178.416ZM117.508 176.364L117.562 180H115.708L115.798 176.526L115.726 169.866H113.062L112.972 170.784C112.756 173.136 112.504 174.96 112.216 176.256C111.94 177.552 111.586 178.5 111.154 179.1C110.734 179.7 110.182 180.072 109.498 180.216L108.976 180.252L108.634 178.758C109.21 178.566 109.66 178.206 109.984 177.678C110.32 177.15 110.59 176.334 110.794 175.23C111.01 174.126 111.208 172.536 111.388 170.46L111.586 168.48L111.568 168.444H117.598L117.508 176.364ZM125.346 173.088C126.486 173.088 127.35 173.358 127.938 173.898C128.526 174.426 128.82 175.194 128.82 176.202C128.82 177.402 128.406 178.338 127.578 179.01C126.762 179.67 125.61 180 124.122 180H121.116L121.206 176.544L121.116 168.444H122.988L122.934 173.088H125.346ZM124.734 178.686C125.442 178.59 125.976 178.35 126.336 177.966C126.708 177.582 126.894 177.072 126.894 176.436C126.894 175.788 126.708 175.29 126.336 174.942C125.976 174.594 125.448 174.426 124.752 174.438L122.916 174.456L122.898 176.382L122.934 178.614L124.734 178.686ZM140.28 176.364L140.334 180H138.48L138.57 176.526L138.552 174.96L135.6 174.942L132.9 174.96L132.882 176.364L132.954 180H131.118L131.19 176.526L131.118 168.444H132.972L132.918 173.412L135.744 173.448L138.534 173.412L138.48 168.444H140.37L140.28 176.364ZM148.061 168.3C149.657 168.3 150.887 168.792 151.751 169.776C152.615 170.76 153.047 172.164 153.047 173.988C153.047 175.956 152.585 177.48 151.661 178.56C150.737 179.628 149.423 180.162 147.719 180.162C146.135 180.162 144.911 179.658 144.047 178.65C143.195 177.63 142.769 176.19 142.769 174.33C142.769 172.398 143.225 170.91 144.137 169.866C145.061 168.822 146.369 168.3 148.061 168.3ZM147.917 169.812C146.825 169.812 146.009 170.166 145.469 170.874C144.941 171.57 144.677 172.65 144.677 174.114C144.677 175.71 144.935 176.88 145.451 177.624C145.979 178.356 146.789 178.722 147.881 178.722C148.985 178.722 149.801 178.368 150.329 177.66C150.857 176.952 151.121 175.848 151.121 174.348C151.121 172.776 150.857 171.63 150.329 170.91C149.813 170.178 149.009 169.812 147.917 169.812ZM162.912 173.97C164.484 174.366 165.27 175.29 165.27 176.742C165.27 177.798 164.868 178.632 164.064 179.244C163.26 179.856 162.168 180.162 160.788 180.162C160.164 180.162 159.57 180.09 159.006 179.946C158.442 179.802 157.962 179.598 157.566 179.334L157.908 177.714L158.07 177.66C158.442 177.96 158.862 178.194 159.33 178.362C159.81 178.53 160.29 178.614 160.77 178.614C161.55 178.614 162.18 178.428 162.66 178.056C163.152 177.684 163.398 177.198 163.398 176.598C163.398 176.118 163.248 175.722 162.948 175.41C162.648 175.098 162.228 174.888 161.688 174.78H159.258L159.114 174.636L159.24 173.358L161.562 173.394C161.946 173.226 162.252 172.968 162.48 172.62C162.72 172.272 162.84 171.888 162.84 171.468C162.84 170.436 162.168 169.92 160.824 169.92C159.888 169.92 158.922 170.226 157.926 170.838L157.71 170.748L157.872 169.11C158.82 168.582 159.828 168.318 160.896 168.318C162.084 168.318 163.02 168.576 163.704 169.092C164.388 169.596 164.73 170.292 164.73 171.18C164.73 171.792 164.568 172.344 164.244 172.836C163.932 173.328 163.488 173.706 162.912 173.97ZM176.512 180H174.604L174.334 178.704L173.83 177.102L171.382 177.048L169.168 177.102L168.628 178.614L168.34 180H166.486L170.608 168.444H172.786L176.512 180ZM173.362 175.59L171.706 170.262H171.58L169.69 175.59L171.508 175.626L173.362 175.59ZM184.877 168.606L184.733 169.974L182.267 169.92H180.521L180.449 176.364L180.521 180H178.667L178.739 176.526L178.667 168.444H184.751L184.877 168.606ZM190.711 168.426C191.875 168.426 192.769 168.726 193.393 169.326C194.029 169.914 194.347 170.766 194.347 171.882C194.347 173.178 193.945 174.204 193.141 174.96C192.349 175.716 191.257 176.094 189.865 176.094H188.587V176.364L188.677 180H186.787L186.913 176.526L186.787 168.444L190.711 168.426ZM190.405 174.654C191.065 174.522 191.563 174.24 191.899 173.808C192.247 173.364 192.421 172.776 192.421 172.044C192.421 171.324 192.235 170.79 191.863 170.442C191.503 170.094 190.951 169.908 190.207 169.884L188.677 169.938L188.605 174.618L190.405 174.654ZM204.929 168.462L201.581 176.436C201.125 177.444 200.705 178.194 200.321 178.686C199.949 179.178 199.505 179.532 198.989 179.748C198.485 179.952 197.789 180.084 196.901 180.144L196.739 180.126C196.607 179.706 196.499 179.226 196.415 178.686L196.505 178.506C197.429 178.398 198.107 178.26 198.539 178.092C198.971 177.912 199.325 177.624 199.601 177.228L195.209 168.462L197.207 168.444L197.621 169.578L200.303 175.248H200.501L202.751 169.488L203.093 168.462H204.929ZM211.252 173.97C212.824 174.366 213.61 175.29 213.61 176.742C213.61 177.798 213.208 178.632 212.404 179.244C211.6 179.856 210.508 180.162 209.128 180.162C208.504 180.162 207.91 180.09 207.346 179.946C206.782 179.802 206.302 179.598 205.906 179.334L206.248 177.714L206.41 177.66C206.782 177.96 207.202 178.194 207.67 178.362C208.15 178.53 208.63 178.614 209.11 178.614C209.89 178.614 210.52 178.428 211 178.056C211.492 177.684 211.738 177.198 211.738 176.598C211.738 176.118 211.588 175.722 211.288 175.41C210.988 175.098 210.568 174.888 210.028 174.78H207.598L207.454 174.636L207.58 173.358L209.902 173.394C210.286 173.226 210.592 172.968 210.82 172.62C211.06 172.272 211.18 171.888 211.18 171.468C211.18 170.436 210.508 169.92 209.164 169.92C208.228 169.92 207.262 170.226 206.266 170.838L206.05 170.748L206.212 169.11C207.16 168.582 208.168 168.318 209.236 168.318C210.424 168.318 211.36 168.576 212.044 169.092C212.728 169.596 213.07 170.292 213.07 171.18C213.07 171.792 212.908 172.344 212.584 172.836C212.272 173.328 211.828 173.706 211.252 173.97ZM216.356 176.526L216.266 168.498L218.138 168.408L218.03 177.12H218.174L223.592 168.444H225.554L225.464 176.364L225.536 180H223.664L223.754 176.526V171.324H223.61L218.192 180H216.266L216.356 176.526ZM45.146 195.988C45.95 196.156 46.544 196.474 46.928 196.942C47.324 197.398 47.522 198.004 47.522 198.76C47.522 200.968 45.872 202.072 42.572 202.072C41.432 202.072 40.496 202.048 39.764 202H39.746L39.872 198.526L39.746 190.444L43.346 190.426C44.462 190.426 45.326 190.672 45.938 191.164C46.562 191.644 46.874 192.346 46.874 193.27C46.874 193.918 46.724 194.476 46.424 194.944C46.124 195.4 45.698 195.748 45.146 195.988ZM44.966 193.486C44.966 192.91 44.804 192.496 44.48 192.244C44.156 191.992 43.61 191.866 42.842 191.866H41.618L41.564 195.412L43.418 195.466C43.946 195.334 44.336 195.112 44.588 194.8C44.84 194.476 44.966 194.038 44.966 193.486ZM42.878 200.632C43.766 200.632 44.45 200.464 44.93 200.128C45.41 199.792 45.65 199.3 45.65 198.652C45.65 197.62 44.984 197.014 43.652 196.834L41.546 196.852L41.528 198.364L41.582 200.578C42.05 200.614 42.482 200.632 42.878 200.632ZM59.6927 200.47V204.214L58.3067 204.34L58.0367 202H50.3147L50.0627 204.214L48.6587 204.34V200.47H49.6127C50.1167 200.194 50.5127 199.774 50.8007 199.21C51.0887 198.646 51.3227 197.848 51.5027 196.816C51.6827 195.784 51.8567 194.332 52.0247 192.46L52.2227 190.444H58.1807L58.1087 198.364L58.1447 200.47H59.6927ZM56.3987 198.526L56.3267 191.866H53.7347L53.6447 192.784C53.4407 195.088 53.1827 196.816 52.8707 197.968C52.5587 199.108 52.1147 199.942 51.5387 200.47H56.3447L56.3987 198.526ZM66.358 190.3C67.954 190.3 69.184 190.792 70.048 191.776C70.912 192.76 71.344 194.164 71.344 195.988C71.344 197.956 70.882 199.48 69.958 200.56C69.034 201.628 67.72 202.162 66.016 202.162C64.432 202.162 63.208 201.658 62.344 200.65C61.492 199.63 61.066 198.19 61.066 196.33C61.066 194.398 61.522 192.91 62.434 191.866C63.358 190.822 64.666 190.3 66.358 190.3ZM66.214 191.812C65.122 191.812 64.306 192.166 63.766 192.874C63.238 193.57 62.974 194.65 62.974 196.114C62.974 197.71 63.232 198.88 63.748 199.624C64.276 200.356 65.086 200.722 66.178 200.722C67.282 200.722 68.098 200.368 68.626 199.66C69.154 198.952 69.418 197.848 69.418 196.348C69.418 194.776 69.154 193.63 68.626 192.91C68.11 192.178 67.306 191.812 66.214 191.812ZM78.4795 195.97L82.3495 202H80.0995L79.5775 200.974L77.2195 197.428L74.7535 201.082L74.2675 202H72.3235L76.1395 196.222L72.4135 190.444H74.6455L75.1675 191.452L77.3635 194.8L79.5955 191.416L80.0815 190.444H82.0615L78.4795 195.97ZM93.7155 198.364L93.7695 202H91.9155L92.0055 198.526L91.9875 196.96L89.0355 196.942L86.3355 196.96L86.3175 198.364L86.3895 202H84.5535L84.6255 198.526L84.5535 190.444H86.4075L86.3535 195.412L89.1795 195.448L91.9695 195.412L91.9155 190.444H93.8055L93.7155 198.364ZM101.497 190.3C103.093 190.3 104.323 190.792 105.187 191.776C106.051 192.76 106.483 194.164 106.483 195.988C106.483 197.956 106.021 199.48 105.097 200.56C104.173 201.628 102.859 202.162 101.155 202.162C99.5707 202.162 98.3467 201.658 97.4827 200.65C96.6307 199.63 96.2047 198.19 96.2047 196.33C96.2047 194.398 96.6607 192.91 97.5727 191.866C98.4967 190.822 99.8047 190.3 101.497 190.3ZM101.353 191.812C100.261 191.812 99.4447 192.166 98.9047 192.874C98.3767 193.57 98.1127 194.65 98.1127 196.114C98.1127 197.71 98.3707 198.88 98.8867 199.624C99.4147 200.356 100.225 200.722 101.317 200.722C102.421 200.722 103.237 200.368 103.765 199.66C104.293 198.952 104.557 197.848 104.557 196.348C104.557 194.776 104.293 193.63 103.765 192.91C103.249 192.178 102.445 191.812 101.353 191.812ZM114.509 195.988C115.313 196.156 115.907 196.474 116.291 196.942C116.687 197.398 116.885 198.004 116.885 198.76C116.885 200.968 115.235 202.072 111.935 202.072C110.795 202.072 109.859 202.048 109.127 202H109.109L109.235 198.526L109.109 190.444L112.709 190.426C113.825 190.426 114.689 190.672 115.301 191.164C115.925 191.644 116.237 192.346 116.237 193.27C116.237 193.918 116.087 194.476 115.787 194.944C115.487 195.4 115.061 195.748 114.509 195.988ZM114.329 193.486C114.329 192.91 114.167 192.496 113.843 192.244C113.519 191.992 112.973 191.866 112.205 191.866H110.981L110.927 195.412L112.781 195.466C113.309 195.334 113.699 195.112 113.951 194.8C114.203 194.476 114.329 194.038 114.329 193.486ZM112.241 200.632C113.129 200.632 113.813 200.464 114.293 200.128C114.773 199.792 115.013 199.3 115.013 198.652C115.013 197.62 114.347 197.014 113.015 196.834L110.909 196.852L110.891 198.364L110.945 200.578C111.413 200.614 111.845 200.632 112.241 200.632ZM126.842 198.364L126.896 202H125.042L125.132 198.526L125.06 191.866H122.396L122.306 192.784C122.09 195.136 121.838 196.96 121.55 198.256C121.274 199.552 120.92 200.5 120.488 201.1C120.068 201.7 119.516 202.072 118.832 202.216L118.31 202.252L117.968 200.758C118.544 200.566 118.994 200.206 119.318 199.678C119.654 199.15 119.924 198.334 120.128 197.23C120.344 196.126 120.542 194.536 120.722 192.46L120.92 190.48L120.902 190.444H126.932L126.842 198.364ZM137.344 198.526L137.434 202H135.58L135.652 198.364V197.878H133.708C133.024 199.174 132.214 200.554 131.278 202.018L131.062 202.162C130.414 202.114 129.826 201.988 129.298 201.784L129.28 201.568C130.324 200.248 131.326 198.88 132.286 197.464C130.714 196.768 129.928 195.646 129.928 194.098C129.928 193.378 130.096 192.742 130.432 192.19C130.768 191.626 131.242 191.188 131.854 190.876C132.466 190.564 133.168 190.408 133.96 190.408L137.434 190.444L137.344 198.526ZM135.634 196.348L135.58 191.938L134.068 191.884C133.372 191.896 132.826 192.088 132.43 192.46C132.046 192.832 131.854 193.372 131.854 194.08C131.854 194.704 132.004 195.208 132.304 195.592C132.616 195.976 133.09 196.252 133.726 196.42L135.634 196.348ZM149.601 190.3C151.077 190.3 152.217 190.798 153.021 191.794C153.825 192.778 154.227 194.176 154.227 195.988C154.227 197.956 153.795 199.48 152.931 200.56C152.079 201.628 150.861 202.162 149.277 202.162C147.897 202.162 146.811 201.712 146.019 200.812C145.227 199.9 144.783 198.616 144.687 196.96L143.679 196.942L142.761 196.96L142.743 198.364L142.815 202H140.943L141.033 198.526L140.943 190.444H142.833L142.779 195.43L143.769 195.448L144.705 195.43C144.837 193.774 145.323 192.508 146.163 191.632C147.003 190.744 148.149 190.3 149.601 190.3ZM149.439 200.722C150.411 200.722 151.131 200.374 151.599 199.678C152.067 198.97 152.301 197.86 152.301 196.348C152.301 194.776 152.067 193.63 151.599 192.91C151.143 192.178 150.429 191.812 149.457 191.812C148.485 191.812 147.765 192.16 147.297 192.856C146.841 193.552 146.613 194.638 146.613 196.114C146.613 197.71 146.841 198.88 147.297 199.624C147.753 200.356 148.467 200.722 149.439 200.722ZM171.755 200.47V204.214L170.369 204.34L170.099 202H156.887L156.977 198.526L156.887 190.444H158.759L158.669 198.364L158.705 200.47H162.647L162.701 198.526L162.611 190.444H164.501L164.411 198.364L164.447 200.47H168.407L168.443 198.526L168.371 190.444H170.243L170.135 198.364L170.171 200.47H171.755ZM174.115 198.526L174.025 190.498L175.897 190.408L175.789 199.12H175.933L181.351 190.444H183.313L183.223 198.364L183.295 202H181.423L181.513 198.526V193.324H181.369L175.951 202H174.025L174.115 198.526ZM193.645 200.416L193.753 200.578L193.627 202H186.805L186.931 198.526L186.805 190.444H193.663L193.771 190.606L193.627 192.028L190.891 191.956L188.695 191.974L188.641 195.34L190.729 195.376L192.637 195.322L192.763 195.466L192.619 196.888L190.585 196.834L188.623 196.87L188.605 198.364L188.659 200.488L190.855 200.506L193.645 200.416ZM201.103 198.364L201.175 202H199.321L199.411 198.526L199.321 190.444H201.193L201.103 198.364ZM203.173 195.88C204.565 197.752 206.155 199.66 207.943 201.604L207.925 201.82C207.397 201.964 206.803 202.078 206.143 202.162L205.909 202.054C204.085 199.822 202.537 197.794 201.265 195.97V195.844L204.865 191.488L205.585 190.444H207.619L203.173 195.88ZM218.594 202H216.686L216.416 200.704L215.912 199.102L213.464 199.048L211.25 199.102L210.71 200.614L210.422 202H208.568L212.69 190.444H214.868L218.594 202ZM215.444 197.59L213.788 192.262H213.662L211.772 197.59L213.59 197.626L215.444 197.59ZM224.637 190.426C225.801 190.426 226.695 190.726 227.319 191.326C227.955 191.914 228.273 192.766 228.273 193.882C228.273 195.178 227.871 196.204 227.067 196.96C226.275 197.716 225.183 198.094 223.791 198.094H222.513V198.364L222.603 202H220.713L220.839 198.526L220.713 190.444L224.637 190.426ZM224.331 196.654C224.991 196.522 225.489 196.24 225.825 195.808C226.173 195.364 226.347 194.776 226.347 194.044C226.347 193.324 226.161 192.79 225.789 192.442C225.429 192.094 224.877 191.908 224.133 191.884L222.603 191.938L222.531 196.618L224.331 196.654ZM237.323 190.606L237.215 192.01L235.127 191.902H234.155L234.065 198.364L234.155 202H232.283L232.391 198.526L232.301 191.902H231.329L229.205 192.01L229.079 191.848L229.223 190.444H237.215L237.323 190.606ZM239.348 198.526L239.258 190.498L241.13 190.408L241.022 199.12H241.166L246.584 190.444H248.546L248.456 198.364L248.528 202H246.656L246.746 198.526V193.324H246.602L241.184 202H239.258L239.348 198.526ZM261.235 198.364L261.289 202H259.435L259.525 198.526L259.507 196.96L256.555 196.942L253.855 196.96L253.837 198.364L253.909 202H252.073L252.145 198.526L252.073 190.444H253.927L253.873 195.412L256.699 195.448L259.489 195.412L259.435 190.444H261.325L261.235 198.364ZM266.616 198.364L266.688 202H264.834L264.924 198.526L264.834 190.444H266.706L266.616 198.364ZM268.686 195.88C270.078 197.752 271.668 199.66 273.456 201.604L273.438 201.82C272.91 201.964 272.316 202.078 271.656 202.162L271.422 202.054C269.598 199.822 268.05 197.794 266.778 195.97V195.844L270.378 191.488L271.098 190.444H273.132L268.686 195.88ZM275.611 198.526L275.521 190.498L277.393 190.408L277.285 199.12H277.429L282.847 190.444H284.809L284.719 198.364L284.791 202H282.919L283.009 198.526V193.324H282.865L277.447 202H275.521L275.611 198.526Z" fill="white"/>
<rect y="172" width="28" height="28" rx="8" fill="white"/>
<path d="M44.192 239.3C45.788 239.3 47.018 239.792 47.882 240.776C48.746 241.76 49.178 243.164 49.178 244.988C49.178 246.956 48.716 248.48 47.792 249.56C46.868 250.628 45.554 251.162 43.85 251.162C42.266 251.162 41.042 250.658 40.178 249.65C39.326 248.63 38.9 247.19 38.9 245.33C38.9 243.398 39.356 241.91 40.268 240.866C41.192 239.822 42.5 239.3 44.192 239.3ZM44.048 240.812C42.956 240.812 42.14 241.166 41.6 241.874C41.072 242.57 40.808 243.65 40.808 245.114C40.808 246.71 41.066 247.88 41.582 248.624C42.11 249.356 42.92 249.722 44.012 249.722C45.116 249.722 45.932 249.368 46.46 248.66C46.988 247.952 47.252 246.848 47.252 245.348C47.252 243.776 46.988 242.63 46.46 241.91C45.944 241.178 45.14 240.812 44.048 240.812ZM60.2286 247.364L60.2826 251H58.4466L58.5186 247.526L58.4646 240.902H53.6766L53.6046 247.364L53.6766 251H51.8226L51.9126 247.526L51.8226 239.444H60.3186L60.2286 247.364ZM63.8829 247.526L63.7929 239.498L65.6649 239.408L65.5569 248.12H65.7009L71.1189 239.444H73.0809L72.9909 247.364L73.0629 251H71.1909L71.2809 247.526V242.324H71.1369L65.7189 251H63.7929L63.8829 247.526ZM89.8382 247.364L89.9102 251H76.5902L76.6802 247.526L76.5902 239.444H78.4622L78.3722 247.364L78.4082 249.47H82.3502L82.4042 247.526L82.3142 239.444H84.2042L84.1142 247.364L84.1502 249.47H88.1102L88.1462 247.526L88.0742 239.444H89.9462L89.8382 247.364ZM93.5196 247.526L93.4296 239.498L95.3016 239.408L95.1936 248.12H95.3376L100.756 239.444H102.718L102.628 247.364L102.7 251H100.828L100.918 247.526V242.324H100.774L95.3556 251H93.4296L93.5196 247.526ZM122.358 247.364L122.43 251H109.11L109.2 247.526L109.11 239.444H110.982L110.892 247.364L110.928 249.47H114.87L114.924 247.526L114.834 239.444H116.724L116.634 247.364L116.67 249.47H120.63L120.666 247.526L120.594 239.444H122.466L122.358 247.364ZM134.535 251H132.627L132.357 249.704L131.853 248.102L129.405 248.048L127.191 248.102L126.651 249.614L126.363 251H124.509L128.631 239.444H130.809L134.535 251ZM131.385 246.59L129.729 241.262H129.603L127.713 246.59L129.531 246.626L131.385 246.59ZM142.9 239.606L142.756 240.974L140.29 240.92H138.544L138.472 247.364L138.544 251H136.69L136.762 247.526L136.69 239.444H142.774L142.9 239.606ZM144.9 247.526L144.81 239.498L146.682 239.408L146.574 248.12H146.718L152.136 239.444H154.098L154.008 247.364L154.08 251H152.208L152.298 247.526V242.324H152.154L146.736 251H144.81L144.9 247.526ZM162.273 247.364L162.345 251H160.491L160.581 247.526L160.491 239.444H162.363L162.273 247.364ZM164.343 244.88C165.735 246.752 167.325 248.66 169.113 250.604L169.095 250.82C168.567 250.964 167.973 251.078 167.313 251.162L167.079 251.054C165.255 248.822 163.707 246.794 162.435 244.97V244.844L166.035 240.488L166.755 239.444H168.789L164.343 244.88ZM49.304 271.47V275.214L47.918 275.34L47.648 273H39.926L39.674 275.214L38.27 275.34V271.47H39.224C39.728 271.194 40.124 270.774 40.412 270.21C40.7 269.646 40.934 268.848 41.114 267.816C41.294 266.784 41.468 265.332 41.636 263.46L41.834 261.444H47.792L47.72 269.364L47.756 271.47H49.304ZM46.01 269.526L45.938 262.866H43.346L43.256 263.784C43.052 266.088 42.794 267.816 42.482 268.968C42.17 270.108 41.726 270.942 41.15 271.47H45.956L46.01 269.526ZM55.9693 261.3C57.5653 261.3 58.7953 261.792 59.6593 262.776C60.5233 263.76 60.9553 265.164 60.9553 266.988C60.9553 268.956 60.4933 270.48 59.5693 271.56C58.6453 272.628 57.3313 273.162 55.6273 273.162C54.0433 273.162 52.8193 272.658 51.9553 271.65C51.1033 270.63 50.6773 269.19 50.6773 267.33C50.6773 265.398 51.1333 263.91 52.0453 262.866C52.9693 261.822 54.2773 261.3 55.9693 261.3ZM55.8253 262.812C54.7333 262.812 53.9173 263.166 53.3773 263.874C52.8493 264.57 52.5853 265.65 52.5853 267.114C52.5853 268.71 52.8433 269.88 53.3593 270.624C53.8873 271.356 54.6973 271.722 55.7893 271.722C56.8933 271.722 57.7093 271.368 58.2373 270.66C58.7653 269.952 59.0293 268.848 59.0293 267.348C59.0293 265.776 58.7653 264.63 58.2373 263.91C57.7213 263.178 56.9173 262.812 55.8253 262.812ZM68.0451 261.318C69.2211 261.318 70.2591 261.582 71.1591 262.11L70.8171 263.748L70.6371 263.802C69.8331 263.178 68.9451 262.866 67.9731 262.866C66.9171 262.866 66.1071 263.226 65.5431 263.946C64.9911 264.654 64.7151 265.716 64.7151 267.132C64.7151 268.584 64.9971 269.688 65.5611 270.444C66.1251 271.2 66.9291 271.578 67.9731 271.578C68.4771 271.578 68.9751 271.494 69.4671 271.326C69.9711 271.146 70.4331 270.9 70.8531 270.588L71.0331 270.696L70.8891 272.388C69.8571 272.892 68.8371 273.144 67.8291 273.144C66.2091 273.144 64.9611 272.64 64.0851 271.632C63.2091 270.624 62.7711 269.19 62.7711 267.33C62.7711 265.41 63.2271 263.928 64.1391 262.884C65.0631 261.84 66.3651 261.318 68.0451 261.318ZM80.3682 261.606L80.2602 263.01L78.1722 262.902H77.2002L77.1102 269.364L77.2002 273H75.3282L75.4362 269.526L75.3462 262.902H74.3742L72.2502 263.01L72.1242 262.848L72.2682 261.444H80.2602L80.3682 261.606ZM82.3926 269.526L82.3026 261.498L84.1746 261.408L84.0666 270.12H84.2106L89.6286 261.444H91.5906L91.5006 269.364L91.5726 273H89.7006L89.7906 269.526V264.324H89.6466L84.2286 273H82.3026L82.3926 269.526ZM95.4599 273.162C94.8239 273.078 94.2419 272.964 93.7139 272.82L93.6779 272.622C95.3939 270.606 96.8759 268.692 98.1239 266.88L94.0019 261.444H95.9999L96.6479 262.488L99.9959 266.844V266.97C98.8559 268.758 97.4219 270.786 95.6939 273.054L95.4599 273.162ZM100.104 269.526L100.05 261.444H101.886L101.796 269.364L101.868 273H100.05L100.104 269.526ZM106.224 273.054C104.472 270.762 103.044 268.734 101.94 266.97V266.844L105.27 262.488L105.918 261.444H107.934L103.794 266.88C105.126 268.8 106.608 270.714 108.24 272.622L108.222 272.82C107.694 272.976 107.106 273.09 106.458 273.162L106.224 273.054ZM117.162 271.416L117.27 271.578L117.144 273H110.322L110.448 269.526L110.322 261.444H117.18L117.288 261.606L117.144 263.028L114.408 262.956L112.212 262.974L112.158 266.34L114.246 266.376L116.154 266.322L116.28 266.466L116.136 267.888L114.102 267.834L112.14 267.87L112.122 269.364L112.176 271.488L114.372 271.506L117.162 271.416ZM129.135 269.364L129.189 273H127.335L127.425 269.526L127.407 267.96L124.455 267.942L121.755 267.96L121.737 269.364L121.809 273H119.973L120.045 269.526L119.973 261.444H121.827L121.773 266.412L124.599 266.448L127.389 266.412L127.335 261.444H129.225L129.135 269.364ZM132.807 269.526L132.717 261.498L134.589 261.408L134.481 270.12H134.625L140.043 261.444H142.005L141.915 269.364L141.987 273H140.115L140.205 269.526V264.324H140.061L134.643 273H132.717L132.807 269.526ZM154.154 261.3C155.63 261.3 156.77 261.798 157.574 262.794C158.378 263.778 158.78 265.176 158.78 266.988C158.78 268.956 158.348 270.48 157.484 271.56C156.632 272.628 155.414 273.162 153.83 273.162C152.45 273.162 151.364 272.712 150.572 271.812C149.78 270.9 149.336 269.616 149.24 267.96L148.232 267.942L147.314 267.96L147.296 269.364L147.368 273H145.496L145.586 269.526L145.496 261.444H147.386L147.332 266.43L148.322 266.448L149.258 266.43C149.39 264.774 149.876 263.508 150.716 262.632C151.556 261.744 152.702 261.3 154.154 261.3ZM153.992 271.722C154.964 271.722 155.684 271.374 156.152 270.678C156.62 269.97 156.854 268.86 156.854 267.348C156.854 265.776 156.62 264.63 156.152 263.91C155.696 263.178 154.982 262.812 154.01 262.812C153.038 262.812 152.318 263.16 151.85 263.856C151.394 264.552 151.166 265.638 151.166 267.114C151.166 268.71 151.394 269.88 151.85 270.624C152.306 271.356 153.02 271.722 153.992 271.722ZM174.581 271.47V275.214L173.195 275.34L172.925 273H164.375L164.465 269.526L164.375 261.444H166.247L166.157 269.364L166.193 271.47H171.071L171.125 269.526L171.035 261.444H172.907L172.817 269.364L172.853 271.47H174.581ZM183.766 271.416L183.874 271.578L183.748 273H176.926L177.052 269.526L176.926 261.444H183.784L183.892 261.606L183.748 263.028L181.012 262.956L178.816 262.974L178.762 266.34L180.85 266.376L182.758 266.322L182.884 266.466L182.74 267.888L180.706 267.834L178.744 267.87L178.726 269.364L178.78 271.488L180.976 271.506L183.766 271.416ZM193.885 269.364L193.939 273H192.085L192.175 269.526L192.103 262.866H189.439L189.349 263.784C189.133 266.136 188.881 267.96 188.593 269.256C188.317 270.552 187.963 271.5 187.531 272.1C187.111 272.7 186.559 273.072 185.875 273.216L185.353 273.252L185.011 271.758C185.587 271.566 186.037 271.206 186.361 270.678C186.697 270.15 186.967 269.334 187.171 268.23C187.387 267.126 187.585 265.536 187.765 263.46L187.963 261.48L187.945 261.444H193.975L193.885 269.364ZM197.565 269.526L197.475 261.498L199.347 261.408L199.239 270.12H199.383L204.801 261.444H206.763L206.673 269.364L206.745 273H204.873L204.963 269.526V264.324H204.819L199.401 273H197.475L197.565 269.526Z" fill="white"/>
<rect y="243" width="28" height="28" rx="8" fill="white"/>
</svg>
